%TF.GenerationSoftware,KiCad,Pcbnew,8.0.8*%
%TF.CreationDate,2025-03-26T17:58:07-04:00*%
%TF.ProjectId,GRIT_main_sub_PCB,47524954-5f6d-4616-996e-5f7375625f50,rev?*%
%TF.SameCoordinates,Original*%
%TF.FileFunction,Soldermask,Bot*%
%TF.FilePolarity,Negative*%
%FSLAX46Y46*%
G04 Gerber Fmt 4.6, Leading zero omitted, Abs format (unit mm)*
G04 Created by KiCad (PCBNEW 8.0.8) date 2025-03-26 17:58:07*
%MOMM*%
%LPD*%
G01*
G04 APERTURE LIST*
%ADD10R,1.700000X1.700000*%
%ADD11O,1.700000X1.700000*%
G04 APERTURE END LIST*
D10*
%TO.C,REF\u002A\u002A*%
X55835000Y-22860000D03*
D11*
X55835000Y-25400000D03*
X55835000Y-27940000D03*
X55835000Y-30480000D03*
X55835000Y-33020000D03*
X55835000Y-35560000D03*
X55835000Y-38100000D03*
X55835000Y-40640000D03*
X55835000Y-43180000D03*
X55835000Y-45720000D03*
X55835000Y-48260000D03*
X55835000Y-50800000D03*
X55835000Y-53340000D03*
X55835000Y-55880000D03*
X55835000Y-58420000D03*
X55835000Y-60960000D03*
X55835000Y-63500000D03*
X55835000Y-66040000D03*
X55835000Y-68580000D03*
X55835000Y-71120000D03*
%TD*%
D10*
%TO.C,REF\u002A\u002A*%
X38100000Y-22860000D03*
D11*
X38100000Y-25400000D03*
X38100000Y-27940000D03*
X38100000Y-30480000D03*
X38100000Y-33020000D03*
X38100000Y-35560000D03*
X38100000Y-38100000D03*
X38100000Y-40640000D03*
X38100000Y-43180000D03*
X38100000Y-45720000D03*
X38100000Y-48260000D03*
X38100000Y-50800000D03*
X38100000Y-53340000D03*
X38100000Y-55880000D03*
X38100000Y-58420000D03*
X38100000Y-60960000D03*
X38100000Y-63500000D03*
X38100000Y-66040000D03*
X38100000Y-68580000D03*
X38100000Y-71120000D03*
%TD*%
D10*
%TO.C,Vdd*%
X19600000Y-24860000D03*
D11*
X19600000Y-27400000D03*
X19600000Y-29940000D03*
X19600000Y-32480000D03*
%TD*%
D10*
%TO.C,Vdd*%
X19600000Y-62860000D03*
D11*
X19600000Y-65400000D03*
X19600000Y-67940000D03*
X19600000Y-70480000D03*
%TD*%
D10*
%TO.C,Vdd*%
X28100000Y-62860000D03*
D11*
X28100000Y-65400000D03*
X28100000Y-67940000D03*
X28100000Y-70480000D03*
%TD*%
D10*
%TO.C,Vdd*%
X19600000Y-37560000D03*
D11*
X19600000Y-40100000D03*
X19600000Y-42640000D03*
X19600000Y-45180000D03*
%TD*%
D10*
%TO.C,Vdd*%
X28100000Y-37560000D03*
D11*
X28100000Y-40100000D03*
X28100000Y-42640000D03*
X28100000Y-45180000D03*
%TD*%
D10*
%TO.C,Vdd*%
X28100000Y-24860000D03*
D11*
X28100000Y-27400000D03*
X28100000Y-29940000D03*
X28100000Y-32480000D03*
%TD*%
D10*
%TO.C,Vdd*%
X19600000Y-50160000D03*
D11*
X19600000Y-52700000D03*
X19600000Y-55240000D03*
X19600000Y-57780000D03*
%TD*%
D10*
%TO.C,Vdd*%
X28100000Y-50160000D03*
D11*
X28100000Y-52700000D03*
X28100000Y-55240000D03*
X28100000Y-57780000D03*
%TD*%
M02*
