%TF.GenerationSoftware,KiCad,Pcbnew,8.0.8*%
%TF.CreationDate,2025-03-27T16:53:01-04:00*%
%TF.ProjectId,GRIT_main_sub_PCB,47524954-5f6d-4616-996e-5f7375625f50,rev?*%
%TF.SameCoordinates,Original*%
%TF.FileFunction,Legend,Top*%
%TF.FilePolarity,Positive*%
%FSLAX46Y46*%
G04 Gerber Fmt 4.6, Leading zero omitted, Abs format (unit mm)*
G04 Created by KiCad (PCBNEW 8.0.8) date 2025-03-27 16:53:01*
%MOMM*%
%LPD*%
G01*
G04 APERTURE LIST*
%ADD10C,0.150000*%
%ADD11C,0.120000*%
G04 APERTURE END LIST*
D10*
X17511905Y-20724819D02*
X17845238Y-21724819D01*
X17845238Y-21724819D02*
X18178571Y-20724819D01*
X18940476Y-21724819D02*
X18940476Y-20724819D01*
X18940476Y-21677200D02*
X18845238Y-21724819D01*
X18845238Y-21724819D02*
X18654762Y-21724819D01*
X18654762Y-21724819D02*
X18559524Y-21677200D01*
X18559524Y-21677200D02*
X18511905Y-21629580D01*
X18511905Y-21629580D02*
X18464286Y-21534342D01*
X18464286Y-21534342D02*
X18464286Y-21248628D01*
X18464286Y-21248628D02*
X18511905Y-21153390D01*
X18511905Y-21153390D02*
X18559524Y-21105771D01*
X18559524Y-21105771D02*
X18654762Y-21058152D01*
X18654762Y-21058152D02*
X18845238Y-21058152D01*
X18845238Y-21058152D02*
X18940476Y-21105771D01*
X19845238Y-21724819D02*
X19845238Y-20724819D01*
X19845238Y-21677200D02*
X19750000Y-21724819D01*
X19750000Y-21724819D02*
X19559524Y-21724819D01*
X19559524Y-21724819D02*
X19464286Y-21677200D01*
X19464286Y-21677200D02*
X19416667Y-21629580D01*
X19416667Y-21629580D02*
X19369048Y-21534342D01*
X19369048Y-21534342D02*
X19369048Y-21248628D01*
X19369048Y-21248628D02*
X19416667Y-21153390D01*
X19416667Y-21153390D02*
X19464286Y-21105771D01*
X19464286Y-21105771D02*
X19559524Y-21058152D01*
X19559524Y-21058152D02*
X19750000Y-21058152D01*
X19750000Y-21058152D02*
X19845238Y-21105771D01*
X17571905Y-61264819D02*
X17905238Y-62264819D01*
X17905238Y-62264819D02*
X18238571Y-61264819D01*
X19000476Y-62264819D02*
X19000476Y-61264819D01*
X19000476Y-62217200D02*
X18905238Y-62264819D01*
X18905238Y-62264819D02*
X18714762Y-62264819D01*
X18714762Y-62264819D02*
X18619524Y-62217200D01*
X18619524Y-62217200D02*
X18571905Y-62169580D01*
X18571905Y-62169580D02*
X18524286Y-62074342D01*
X18524286Y-62074342D02*
X18524286Y-61788628D01*
X18524286Y-61788628D02*
X18571905Y-61693390D01*
X18571905Y-61693390D02*
X18619524Y-61645771D01*
X18619524Y-61645771D02*
X18714762Y-61598152D01*
X18714762Y-61598152D02*
X18905238Y-61598152D01*
X18905238Y-61598152D02*
X19000476Y-61645771D01*
X19905238Y-62264819D02*
X19905238Y-61264819D01*
X19905238Y-62217200D02*
X19810000Y-62264819D01*
X19810000Y-62264819D02*
X19619524Y-62264819D01*
X19619524Y-62264819D02*
X19524286Y-62217200D01*
X19524286Y-62217200D02*
X19476667Y-62169580D01*
X19476667Y-62169580D02*
X19429048Y-62074342D01*
X19429048Y-62074342D02*
X19429048Y-61788628D01*
X19429048Y-61788628D02*
X19476667Y-61693390D01*
X19476667Y-61693390D02*
X19524286Y-61645771D01*
X19524286Y-61645771D02*
X19619524Y-61598152D01*
X19619524Y-61598152D02*
X19810000Y-61598152D01*
X19810000Y-61598152D02*
X19905238Y-61645771D01*
X26011905Y-61224819D02*
X26345238Y-62224819D01*
X26345238Y-62224819D02*
X26678571Y-61224819D01*
X27440476Y-62224819D02*
X27440476Y-61224819D01*
X27440476Y-62177200D02*
X27345238Y-62224819D01*
X27345238Y-62224819D02*
X27154762Y-62224819D01*
X27154762Y-62224819D02*
X27059524Y-62177200D01*
X27059524Y-62177200D02*
X27011905Y-62129580D01*
X27011905Y-62129580D02*
X26964286Y-62034342D01*
X26964286Y-62034342D02*
X26964286Y-61748628D01*
X26964286Y-61748628D02*
X27011905Y-61653390D01*
X27011905Y-61653390D02*
X27059524Y-61605771D01*
X27059524Y-61605771D02*
X27154762Y-61558152D01*
X27154762Y-61558152D02*
X27345238Y-61558152D01*
X27345238Y-61558152D02*
X27440476Y-61605771D01*
X28345238Y-62224819D02*
X28345238Y-61224819D01*
X28345238Y-62177200D02*
X28250000Y-62224819D01*
X28250000Y-62224819D02*
X28059524Y-62224819D01*
X28059524Y-62224819D02*
X27964286Y-62177200D01*
X27964286Y-62177200D02*
X27916667Y-62129580D01*
X27916667Y-62129580D02*
X27869048Y-62034342D01*
X27869048Y-62034342D02*
X27869048Y-61748628D01*
X27869048Y-61748628D02*
X27916667Y-61653390D01*
X27916667Y-61653390D02*
X27964286Y-61605771D01*
X27964286Y-61605771D02*
X28059524Y-61558152D01*
X28059524Y-61558152D02*
X28250000Y-61558152D01*
X28250000Y-61558152D02*
X28345238Y-61605771D01*
X17511905Y-34254819D02*
X17845238Y-35254819D01*
X17845238Y-35254819D02*
X18178571Y-34254819D01*
X18940476Y-35254819D02*
X18940476Y-34254819D01*
X18940476Y-35207200D02*
X18845238Y-35254819D01*
X18845238Y-35254819D02*
X18654762Y-35254819D01*
X18654762Y-35254819D02*
X18559524Y-35207200D01*
X18559524Y-35207200D02*
X18511905Y-35159580D01*
X18511905Y-35159580D02*
X18464286Y-35064342D01*
X18464286Y-35064342D02*
X18464286Y-34778628D01*
X18464286Y-34778628D02*
X18511905Y-34683390D01*
X18511905Y-34683390D02*
X18559524Y-34635771D01*
X18559524Y-34635771D02*
X18654762Y-34588152D01*
X18654762Y-34588152D02*
X18845238Y-34588152D01*
X18845238Y-34588152D02*
X18940476Y-34635771D01*
X19845238Y-35254819D02*
X19845238Y-34254819D01*
X19845238Y-35207200D02*
X19750000Y-35254819D01*
X19750000Y-35254819D02*
X19559524Y-35254819D01*
X19559524Y-35254819D02*
X19464286Y-35207200D01*
X19464286Y-35207200D02*
X19416667Y-35159580D01*
X19416667Y-35159580D02*
X19369048Y-35064342D01*
X19369048Y-35064342D02*
X19369048Y-34778628D01*
X19369048Y-34778628D02*
X19416667Y-34683390D01*
X19416667Y-34683390D02*
X19464286Y-34635771D01*
X19464286Y-34635771D02*
X19559524Y-34588152D01*
X19559524Y-34588152D02*
X19750000Y-34588152D01*
X19750000Y-34588152D02*
X19845238Y-34635771D01*
X52270714Y-21504819D02*
X52270714Y-20504819D01*
X52270714Y-20504819D02*
X52651666Y-20504819D01*
X52651666Y-20504819D02*
X52746904Y-20552438D01*
X52746904Y-20552438D02*
X52794523Y-20600057D01*
X52794523Y-20600057D02*
X52842142Y-20695295D01*
X52842142Y-20695295D02*
X52842142Y-20838152D01*
X52842142Y-20838152D02*
X52794523Y-20933390D01*
X52794523Y-20933390D02*
X52746904Y-20981009D01*
X52746904Y-20981009D02*
X52651666Y-21028628D01*
X52651666Y-21028628D02*
X52270714Y-21028628D01*
X53270714Y-21504819D02*
X53270714Y-20838152D01*
X53270714Y-20504819D02*
X53223095Y-20552438D01*
X53223095Y-20552438D02*
X53270714Y-20600057D01*
X53270714Y-20600057D02*
X53318333Y-20552438D01*
X53318333Y-20552438D02*
X53270714Y-20504819D01*
X53270714Y-20504819D02*
X53270714Y-20600057D01*
X54175475Y-21457200D02*
X54080237Y-21504819D01*
X54080237Y-21504819D02*
X53889761Y-21504819D01*
X53889761Y-21504819D02*
X53794523Y-21457200D01*
X53794523Y-21457200D02*
X53746904Y-21409580D01*
X53746904Y-21409580D02*
X53699285Y-21314342D01*
X53699285Y-21314342D02*
X53699285Y-21028628D01*
X53699285Y-21028628D02*
X53746904Y-20933390D01*
X53746904Y-20933390D02*
X53794523Y-20885771D01*
X53794523Y-20885771D02*
X53889761Y-20838152D01*
X53889761Y-20838152D02*
X54080237Y-20838152D01*
X54080237Y-20838152D02*
X54175475Y-20885771D01*
X54746904Y-21504819D02*
X54651666Y-21457200D01*
X54651666Y-21457200D02*
X54604047Y-21409580D01*
X54604047Y-21409580D02*
X54556428Y-21314342D01*
X54556428Y-21314342D02*
X54556428Y-21028628D01*
X54556428Y-21028628D02*
X54604047Y-20933390D01*
X54604047Y-20933390D02*
X54651666Y-20885771D01*
X54651666Y-20885771D02*
X54746904Y-20838152D01*
X54746904Y-20838152D02*
X54889761Y-20838152D01*
X54889761Y-20838152D02*
X54984999Y-20885771D01*
X54984999Y-20885771D02*
X55032618Y-20933390D01*
X55032618Y-20933390D02*
X55080237Y-21028628D01*
X55080237Y-21028628D02*
X55080237Y-21314342D01*
X55080237Y-21314342D02*
X55032618Y-21409580D01*
X55032618Y-21409580D02*
X54984999Y-21457200D01*
X54984999Y-21457200D02*
X54889761Y-21504819D01*
X54889761Y-21504819D02*
X54746904Y-21504819D01*
X56699285Y-20838152D02*
X56699285Y-21504819D01*
X56461190Y-20457200D02*
X56223095Y-21171485D01*
X56223095Y-21171485D02*
X56842142Y-21171485D01*
X57413571Y-20504819D02*
X57508809Y-20504819D01*
X57508809Y-20504819D02*
X57604047Y-20552438D01*
X57604047Y-20552438D02*
X57651666Y-20600057D01*
X57651666Y-20600057D02*
X57699285Y-20695295D01*
X57699285Y-20695295D02*
X57746904Y-20885771D01*
X57746904Y-20885771D02*
X57746904Y-21123866D01*
X57746904Y-21123866D02*
X57699285Y-21314342D01*
X57699285Y-21314342D02*
X57651666Y-21409580D01*
X57651666Y-21409580D02*
X57604047Y-21457200D01*
X57604047Y-21457200D02*
X57508809Y-21504819D01*
X57508809Y-21504819D02*
X57413571Y-21504819D01*
X57413571Y-21504819D02*
X57318333Y-21457200D01*
X57318333Y-21457200D02*
X57270714Y-21409580D01*
X57270714Y-21409580D02*
X57223095Y-21314342D01*
X57223095Y-21314342D02*
X57175476Y-21123866D01*
X57175476Y-21123866D02*
X57175476Y-20885771D01*
X57175476Y-20885771D02*
X57223095Y-20695295D01*
X57223095Y-20695295D02*
X57270714Y-20600057D01*
X57270714Y-20600057D02*
X57318333Y-20552438D01*
X57318333Y-20552438D02*
X57413571Y-20504819D01*
X26071905Y-34184819D02*
X26405238Y-35184819D01*
X26405238Y-35184819D02*
X26738571Y-34184819D01*
X27500476Y-35184819D02*
X27500476Y-34184819D01*
X27500476Y-35137200D02*
X27405238Y-35184819D01*
X27405238Y-35184819D02*
X27214762Y-35184819D01*
X27214762Y-35184819D02*
X27119524Y-35137200D01*
X27119524Y-35137200D02*
X27071905Y-35089580D01*
X27071905Y-35089580D02*
X27024286Y-34994342D01*
X27024286Y-34994342D02*
X27024286Y-34708628D01*
X27024286Y-34708628D02*
X27071905Y-34613390D01*
X27071905Y-34613390D02*
X27119524Y-34565771D01*
X27119524Y-34565771D02*
X27214762Y-34518152D01*
X27214762Y-34518152D02*
X27405238Y-34518152D01*
X27405238Y-34518152D02*
X27500476Y-34565771D01*
X28405238Y-35184819D02*
X28405238Y-34184819D01*
X28405238Y-35137200D02*
X28310000Y-35184819D01*
X28310000Y-35184819D02*
X28119524Y-35184819D01*
X28119524Y-35184819D02*
X28024286Y-35137200D01*
X28024286Y-35137200D02*
X27976667Y-35089580D01*
X27976667Y-35089580D02*
X27929048Y-34994342D01*
X27929048Y-34994342D02*
X27929048Y-34708628D01*
X27929048Y-34708628D02*
X27976667Y-34613390D01*
X27976667Y-34613390D02*
X28024286Y-34565771D01*
X28024286Y-34565771D02*
X28119524Y-34518152D01*
X28119524Y-34518152D02*
X28310000Y-34518152D01*
X28310000Y-34518152D02*
X28405238Y-34565771D01*
X35011905Y-21504819D02*
X35011905Y-20504819D01*
X35011905Y-20504819D02*
X35392857Y-20504819D01*
X35392857Y-20504819D02*
X35488095Y-20552438D01*
X35488095Y-20552438D02*
X35535714Y-20600057D01*
X35535714Y-20600057D02*
X35583333Y-20695295D01*
X35583333Y-20695295D02*
X35583333Y-20838152D01*
X35583333Y-20838152D02*
X35535714Y-20933390D01*
X35535714Y-20933390D02*
X35488095Y-20981009D01*
X35488095Y-20981009D02*
X35392857Y-21028628D01*
X35392857Y-21028628D02*
X35011905Y-21028628D01*
X36011905Y-21504819D02*
X36011905Y-20838152D01*
X36011905Y-20504819D02*
X35964286Y-20552438D01*
X35964286Y-20552438D02*
X36011905Y-20600057D01*
X36011905Y-20600057D02*
X36059524Y-20552438D01*
X36059524Y-20552438D02*
X36011905Y-20504819D01*
X36011905Y-20504819D02*
X36011905Y-20600057D01*
X36916666Y-21457200D02*
X36821428Y-21504819D01*
X36821428Y-21504819D02*
X36630952Y-21504819D01*
X36630952Y-21504819D02*
X36535714Y-21457200D01*
X36535714Y-21457200D02*
X36488095Y-21409580D01*
X36488095Y-21409580D02*
X36440476Y-21314342D01*
X36440476Y-21314342D02*
X36440476Y-21028628D01*
X36440476Y-21028628D02*
X36488095Y-20933390D01*
X36488095Y-20933390D02*
X36535714Y-20885771D01*
X36535714Y-20885771D02*
X36630952Y-20838152D01*
X36630952Y-20838152D02*
X36821428Y-20838152D01*
X36821428Y-20838152D02*
X36916666Y-20885771D01*
X37488095Y-21504819D02*
X37392857Y-21457200D01*
X37392857Y-21457200D02*
X37345238Y-21409580D01*
X37345238Y-21409580D02*
X37297619Y-21314342D01*
X37297619Y-21314342D02*
X37297619Y-21028628D01*
X37297619Y-21028628D02*
X37345238Y-20933390D01*
X37345238Y-20933390D02*
X37392857Y-20885771D01*
X37392857Y-20885771D02*
X37488095Y-20838152D01*
X37488095Y-20838152D02*
X37630952Y-20838152D01*
X37630952Y-20838152D02*
X37726190Y-20885771D01*
X37726190Y-20885771D02*
X37773809Y-20933390D01*
X37773809Y-20933390D02*
X37821428Y-21028628D01*
X37821428Y-21028628D02*
X37821428Y-21314342D01*
X37821428Y-21314342D02*
X37773809Y-21409580D01*
X37773809Y-21409580D02*
X37726190Y-21457200D01*
X37726190Y-21457200D02*
X37630952Y-21504819D01*
X37630952Y-21504819D02*
X37488095Y-21504819D01*
X39535714Y-21504819D02*
X38964286Y-21504819D01*
X39250000Y-21504819D02*
X39250000Y-20504819D01*
X39250000Y-20504819D02*
X39154762Y-20647676D01*
X39154762Y-20647676D02*
X39059524Y-20742914D01*
X39059524Y-20742914D02*
X38964286Y-20790533D01*
X26011905Y-20724819D02*
X26345238Y-21724819D01*
X26345238Y-21724819D02*
X26678571Y-20724819D01*
X27440476Y-21724819D02*
X27440476Y-20724819D01*
X27440476Y-21677200D02*
X27345238Y-21724819D01*
X27345238Y-21724819D02*
X27154762Y-21724819D01*
X27154762Y-21724819D02*
X27059524Y-21677200D01*
X27059524Y-21677200D02*
X27011905Y-21629580D01*
X27011905Y-21629580D02*
X26964286Y-21534342D01*
X26964286Y-21534342D02*
X26964286Y-21248628D01*
X26964286Y-21248628D02*
X27011905Y-21153390D01*
X27011905Y-21153390D02*
X27059524Y-21105771D01*
X27059524Y-21105771D02*
X27154762Y-21058152D01*
X27154762Y-21058152D02*
X27345238Y-21058152D01*
X27345238Y-21058152D02*
X27440476Y-21105771D01*
X28345238Y-21724819D02*
X28345238Y-20724819D01*
X28345238Y-21677200D02*
X28250000Y-21724819D01*
X28250000Y-21724819D02*
X28059524Y-21724819D01*
X28059524Y-21724819D02*
X27964286Y-21677200D01*
X27964286Y-21677200D02*
X27916667Y-21629580D01*
X27916667Y-21629580D02*
X27869048Y-21534342D01*
X27869048Y-21534342D02*
X27869048Y-21248628D01*
X27869048Y-21248628D02*
X27916667Y-21153390D01*
X27916667Y-21153390D02*
X27964286Y-21105771D01*
X27964286Y-21105771D02*
X28059524Y-21058152D01*
X28059524Y-21058152D02*
X28250000Y-21058152D01*
X28250000Y-21058152D02*
X28345238Y-21105771D01*
X14511905Y-48704819D02*
X14845238Y-49704819D01*
X14845238Y-49704819D02*
X15178571Y-48704819D01*
X15940476Y-49704819D02*
X15940476Y-48704819D01*
X15940476Y-49657200D02*
X15845238Y-49704819D01*
X15845238Y-49704819D02*
X15654762Y-49704819D01*
X15654762Y-49704819D02*
X15559524Y-49657200D01*
X15559524Y-49657200D02*
X15511905Y-49609580D01*
X15511905Y-49609580D02*
X15464286Y-49514342D01*
X15464286Y-49514342D02*
X15464286Y-49228628D01*
X15464286Y-49228628D02*
X15511905Y-49133390D01*
X15511905Y-49133390D02*
X15559524Y-49085771D01*
X15559524Y-49085771D02*
X15654762Y-49038152D01*
X15654762Y-49038152D02*
X15845238Y-49038152D01*
X15845238Y-49038152D02*
X15940476Y-49085771D01*
X16845238Y-49704819D02*
X16845238Y-48704819D01*
X16845238Y-49657200D02*
X16750000Y-49704819D01*
X16750000Y-49704819D02*
X16559524Y-49704819D01*
X16559524Y-49704819D02*
X16464286Y-49657200D01*
X16464286Y-49657200D02*
X16416667Y-49609580D01*
X16416667Y-49609580D02*
X16369048Y-49514342D01*
X16369048Y-49514342D02*
X16369048Y-49228628D01*
X16369048Y-49228628D02*
X16416667Y-49133390D01*
X16416667Y-49133390D02*
X16464286Y-49085771D01*
X16464286Y-49085771D02*
X16559524Y-49038152D01*
X16559524Y-49038152D02*
X16750000Y-49038152D01*
X16750000Y-49038152D02*
X16845238Y-49085771D01*
X23011905Y-48454819D02*
X23345238Y-49454819D01*
X23345238Y-49454819D02*
X23678571Y-48454819D01*
X24440476Y-49454819D02*
X24440476Y-48454819D01*
X24440476Y-49407200D02*
X24345238Y-49454819D01*
X24345238Y-49454819D02*
X24154762Y-49454819D01*
X24154762Y-49454819D02*
X24059524Y-49407200D01*
X24059524Y-49407200D02*
X24011905Y-49359580D01*
X24011905Y-49359580D02*
X23964286Y-49264342D01*
X23964286Y-49264342D02*
X23964286Y-48978628D01*
X23964286Y-48978628D02*
X24011905Y-48883390D01*
X24011905Y-48883390D02*
X24059524Y-48835771D01*
X24059524Y-48835771D02*
X24154762Y-48788152D01*
X24154762Y-48788152D02*
X24345238Y-48788152D01*
X24345238Y-48788152D02*
X24440476Y-48835771D01*
X25345238Y-49454819D02*
X25345238Y-48454819D01*
X25345238Y-49407200D02*
X25250000Y-49454819D01*
X25250000Y-49454819D02*
X25059524Y-49454819D01*
X25059524Y-49454819D02*
X24964286Y-49407200D01*
X24964286Y-49407200D02*
X24916667Y-49359580D01*
X24916667Y-49359580D02*
X24869048Y-49264342D01*
X24869048Y-49264342D02*
X24869048Y-48978628D01*
X24869048Y-48978628D02*
X24916667Y-48883390D01*
X24916667Y-48883390D02*
X24964286Y-48835771D01*
X24964286Y-48835771D02*
X25059524Y-48788152D01*
X25059524Y-48788152D02*
X25250000Y-48788152D01*
X25250000Y-48788152D02*
X25345238Y-48835771D01*
D11*
%TO.C,Vdd*%
X20080000Y-24870000D02*
X20080000Y-32550000D01*
X17420000Y-32550000D02*
X20080000Y-32550000D01*
X17420000Y-24870000D02*
X20080000Y-24870000D01*
X17420000Y-24870000D02*
X17420000Y-32550000D01*
X17420000Y-23600000D02*
X17420000Y-22270000D01*
X17420000Y-22270000D02*
X18750000Y-22270000D01*
X20140000Y-65410000D02*
X20140000Y-73090000D01*
X17480000Y-73090000D02*
X20140000Y-73090000D01*
X17480000Y-65410000D02*
X20140000Y-65410000D01*
X17480000Y-65410000D02*
X17480000Y-73090000D01*
X17480000Y-64140000D02*
X17480000Y-62810000D01*
X17480000Y-62810000D02*
X18810000Y-62810000D01*
X28580000Y-65370000D02*
X28580000Y-73050000D01*
X25920000Y-73050000D02*
X28580000Y-73050000D01*
X25920000Y-65370000D02*
X28580000Y-65370000D01*
X25920000Y-65370000D02*
X25920000Y-73050000D01*
X25920000Y-64100000D02*
X25920000Y-62770000D01*
X25920000Y-62770000D02*
X27250000Y-62770000D01*
X20080000Y-38400000D02*
X20080000Y-46080000D01*
X17420000Y-46080000D02*
X20080000Y-46080000D01*
X17420000Y-38400000D02*
X20080000Y-38400000D01*
X17420000Y-38400000D02*
X17420000Y-46080000D01*
X17420000Y-37130000D02*
X17420000Y-35800000D01*
X17420000Y-35800000D02*
X18750000Y-35800000D01*
%TO.C,Pico 40*%
X56315000Y-24650000D02*
X56315000Y-72970000D01*
X53655000Y-72970000D02*
X56315000Y-72970000D01*
X53655000Y-24650000D02*
X56315000Y-24650000D01*
X53655000Y-24650000D02*
X53655000Y-72970000D01*
X53655000Y-23380000D02*
X53655000Y-22050000D01*
X53655000Y-22050000D02*
X54985000Y-22050000D01*
%TO.C,Vdd*%
X28640000Y-38330000D02*
X28640000Y-46010000D01*
X25980000Y-46010000D02*
X28640000Y-46010000D01*
X25980000Y-38330000D02*
X28640000Y-38330000D01*
X25980000Y-38330000D02*
X25980000Y-46010000D01*
X25980000Y-37060000D02*
X25980000Y-35730000D01*
X25980000Y-35730000D02*
X27310000Y-35730000D01*
%TO.C,Pico 1*%
X38580000Y-24650000D02*
X38580000Y-72970000D01*
X35920000Y-72970000D02*
X38580000Y-72970000D01*
X35920000Y-24650000D02*
X38580000Y-24650000D01*
X35920000Y-24650000D02*
X35920000Y-72970000D01*
X35920000Y-23380000D02*
X35920000Y-22050000D01*
X35920000Y-22050000D02*
X37250000Y-22050000D01*
%TO.C,Vdd*%
X28580000Y-24870000D02*
X28580000Y-32550000D01*
X25920000Y-32550000D02*
X28580000Y-32550000D01*
X25920000Y-24870000D02*
X28580000Y-24870000D01*
X25920000Y-24870000D02*
X25920000Y-32550000D01*
X25920000Y-23600000D02*
X25920000Y-22270000D01*
X25920000Y-22270000D02*
X27250000Y-22270000D01*
X20140000Y-50270000D02*
X20140000Y-57950000D01*
X17480000Y-57950000D02*
X20140000Y-57950000D01*
X17480000Y-50270000D02*
X20140000Y-50270000D01*
X17480000Y-50270000D02*
X17480000Y-57950000D01*
X17480000Y-49000000D02*
X17480000Y-47670000D01*
X17480000Y-47670000D02*
X18810000Y-47670000D01*
X28640000Y-50200000D02*
X28640000Y-57880000D01*
X25980000Y-57880000D02*
X28640000Y-57880000D01*
X25980000Y-50200000D02*
X28640000Y-50200000D01*
X25980000Y-50200000D02*
X25980000Y-57880000D01*
X25980000Y-48930000D02*
X25980000Y-47600000D01*
X25980000Y-47600000D02*
X27310000Y-47600000D01*
%TD*%
M02*
