%TF.GenerationSoftware,KiCad,Pcbnew,8.0.8*%
%TF.CreationDate,2025-03-26T17:58:07-04:00*%
%TF.ProjectId,GRIT_main_sub_PCB,47524954-5f6d-4616-996e-5f7375625f50,rev?*%
%TF.SameCoordinates,Original*%
%TF.FileFunction,Copper,L4,Bot*%
%TF.FilePolarity,Positive*%
%FSLAX46Y46*%
G04 Gerber Fmt 4.6, Leading zero omitted, Abs format (unit mm)*
G04 Created by KiCad (PCBNEW 8.0.8) date 2025-03-26 17:58:07*
%MOMM*%
%LPD*%
G01*
G04 APERTURE LIST*
%TA.AperFunction,ComponentPad*%
%ADD10R,1.700000X1.700000*%
%TD*%
%TA.AperFunction,ComponentPad*%
%ADD11O,1.700000X1.700000*%
%TD*%
%TA.AperFunction,Conductor*%
%ADD12C,0.200000*%
%TD*%
G04 APERTURE END LIST*
D10*
%TO.P,REF\u002A\u002A,1*%
%TO.N,N/C*%
X55835000Y-22860000D03*
D11*
%TO.P,REF\u002A\u002A,2*%
X55835000Y-25400000D03*
%TO.P,REF\u002A\u002A,3*%
X55835000Y-27940000D03*
%TO.P,REF\u002A\u002A,4*%
X55835000Y-30480000D03*
%TO.P,REF\u002A\u002A,5*%
X55835000Y-33020000D03*
%TO.P,REF\u002A\u002A,6*%
X55835000Y-35560000D03*
%TO.P,REF\u002A\u002A,7*%
X55835000Y-38100000D03*
%TO.P,REF\u002A\u002A,8*%
X55835000Y-40640000D03*
%TO.P,REF\u002A\u002A,9*%
X55835000Y-43180000D03*
%TO.P,REF\u002A\u002A,10*%
X55835000Y-45720000D03*
%TO.P,REF\u002A\u002A,11*%
X55835000Y-48260000D03*
%TO.P,REF\u002A\u002A,12*%
X55835000Y-50800000D03*
%TO.P,REF\u002A\u002A,13*%
X55835000Y-53340000D03*
%TO.P,REF\u002A\u002A,14*%
X55835000Y-55880000D03*
%TO.P,REF\u002A\u002A,15*%
X55835000Y-58420000D03*
%TO.P,REF\u002A\u002A,16*%
X55835000Y-60960000D03*
%TO.P,REF\u002A\u002A,17*%
X55835000Y-63500000D03*
%TO.P,REF\u002A\u002A,18*%
X55835000Y-66040000D03*
%TO.P,REF\u002A\u002A,19*%
X55835000Y-68580000D03*
%TO.P,REF\u002A\u002A,20*%
X55835000Y-71120000D03*
%TD*%
D10*
%TO.P,REF\u002A\u002A,1*%
%TO.N,N/C*%
X38100000Y-22860000D03*
D11*
%TO.P,REF\u002A\u002A,2*%
X38100000Y-25400000D03*
%TO.P,REF\u002A\u002A,3*%
X38100000Y-27940000D03*
%TO.P,REF\u002A\u002A,4*%
X38100000Y-30480000D03*
%TO.P,REF\u002A\u002A,5*%
X38100000Y-33020000D03*
%TO.P,REF\u002A\u002A,6*%
X38100000Y-35560000D03*
%TO.P,REF\u002A\u002A,7*%
X38100000Y-38100000D03*
%TO.P,REF\u002A\u002A,8*%
X38100000Y-40640000D03*
%TO.P,REF\u002A\u002A,9*%
X38100000Y-43180000D03*
%TO.P,REF\u002A\u002A,10*%
X38100000Y-45720000D03*
%TO.P,REF\u002A\u002A,11*%
X38100000Y-48260000D03*
%TO.P,REF\u002A\u002A,12*%
X38100000Y-50800000D03*
%TO.P,REF\u002A\u002A,13*%
X38100000Y-53340000D03*
%TO.P,REF\u002A\u002A,14*%
X38100000Y-55880000D03*
%TO.P,REF\u002A\u002A,15*%
X38100000Y-58420000D03*
%TO.P,REF\u002A\u002A,16*%
X38100000Y-60960000D03*
%TO.P,REF\u002A\u002A,17*%
X38100000Y-63500000D03*
%TO.P,REF\u002A\u002A,18*%
X38100000Y-66040000D03*
%TO.P,REF\u002A\u002A,19*%
X38100000Y-68580000D03*
%TO.P,REF\u002A\u002A,20*%
X38100000Y-71120000D03*
%TD*%
D10*
%TO.P,Vdd,1*%
%TO.N,N/C*%
X19600000Y-24860000D03*
D11*
%TO.P,Vdd,2*%
X19600000Y-27400000D03*
%TO.P,Vdd,3*%
X19600000Y-29940000D03*
%TO.P,Vdd,4*%
X19600000Y-32480000D03*
%TD*%
D10*
%TO.P,Vdd,1*%
%TO.N,N/C*%
X19600000Y-62860000D03*
D11*
%TO.P,Vdd,2*%
X19600000Y-65400000D03*
%TO.P,Vdd,3*%
X19600000Y-67940000D03*
%TO.P,Vdd,4*%
X19600000Y-70480000D03*
%TD*%
D10*
%TO.P,Vdd,1*%
%TO.N,N/C*%
X28100000Y-62860000D03*
D11*
%TO.P,Vdd,2*%
X28100000Y-65400000D03*
%TO.P,Vdd,3*%
X28100000Y-67940000D03*
%TO.P,Vdd,4*%
X28100000Y-70480000D03*
%TD*%
D10*
%TO.P,Vdd,1*%
%TO.N,N/C*%
X19600000Y-37560000D03*
D11*
%TO.P,Vdd,2*%
X19600000Y-40100000D03*
%TO.P,Vdd,3*%
X19600000Y-42640000D03*
%TO.P,Vdd,4*%
X19600000Y-45180000D03*
%TD*%
D10*
%TO.P,Vdd,1*%
%TO.N,N/C*%
X28100000Y-37560000D03*
D11*
%TO.P,Vdd,2*%
X28100000Y-40100000D03*
%TO.P,Vdd,3*%
X28100000Y-42640000D03*
%TO.P,Vdd,4*%
X28100000Y-45180000D03*
%TD*%
D10*
%TO.P,Vdd,1*%
%TO.N,N/C*%
X28100000Y-24860000D03*
D11*
%TO.P,Vdd,2*%
X28100000Y-27400000D03*
%TO.P,Vdd,3*%
X28100000Y-29940000D03*
%TO.P,Vdd,4*%
X28100000Y-32480000D03*
%TD*%
D10*
%TO.P,Vdd,1*%
%TO.N,N/C*%
X19600000Y-50160000D03*
D11*
%TO.P,Vdd,2*%
X19600000Y-52700000D03*
%TO.P,Vdd,3*%
X19600000Y-55240000D03*
%TO.P,Vdd,4*%
X19600000Y-57780000D03*
%TD*%
D10*
%TO.P,Vdd,1*%
%TO.N,N/C*%
X28100000Y-50160000D03*
D11*
%TO.P,Vdd,2*%
X28100000Y-52700000D03*
%TO.P,Vdd,3*%
X28100000Y-55240000D03*
%TO.P,Vdd,4*%
X28100000Y-57780000D03*
%TD*%
D12*
%TO.N,*%
X60020000Y-27940000D02*
X55835000Y-27940000D01*
X62100000Y-22860000D02*
X62100000Y-25860000D01*
X28100000Y-16860000D02*
X56100000Y-16860000D01*
X62100000Y-25860000D02*
X60020000Y-27940000D01*
X23100000Y-21860000D02*
X28100000Y-16860000D01*
X23100000Y-27360000D02*
X23100000Y-21860000D01*
X56100000Y-16860000D02*
X62100000Y-22860000D01*
X23100000Y-57860000D02*
X23100000Y-65360000D01*
X23140000Y-65400000D02*
X23100000Y-65360000D01*
X19600000Y-52700000D02*
X22940000Y-52700000D01*
X23100000Y-52860000D02*
X23100000Y-57860000D01*
X28100000Y-27400000D02*
X23140000Y-27400000D01*
X19600000Y-65400000D02*
X23140000Y-65400000D01*
X23060000Y-27400000D02*
X23100000Y-27360000D01*
X23260000Y-52700000D02*
X23100000Y-52860000D01*
X23140000Y-27400000D02*
X23100000Y-27360000D01*
X22940000Y-52700000D02*
X23100000Y-52860000D01*
X28100000Y-40100000D02*
X23360000Y-40100000D01*
X22840000Y-40100000D02*
X23100000Y-40360000D01*
X28100000Y-65400000D02*
X23140000Y-65400000D01*
X28100000Y-52700000D02*
X23260000Y-52700000D01*
X23100000Y-27360000D02*
X23100000Y-40360000D01*
X19600000Y-27400000D02*
X23060000Y-27400000D01*
X23100000Y-40360000D02*
X23100000Y-52860000D01*
X19600000Y-40100000D02*
X22840000Y-40100000D01*
X23360000Y-40100000D02*
X23100000Y-40360000D01*
%TD*%
M02*
