%TF.GenerationSoftware,KiCad,Pcbnew,8.0.8*%
%TF.CreationDate,2025-03-27T16:53:01-04:00*%
%TF.ProjectId,GRIT_main_sub_PCB,47524954-5f6d-4616-996e-5f7375625f50,rev?*%
%TF.SameCoordinates,Original*%
%TF.FileFunction,Copper,L2,Inr*%
%TF.FilePolarity,Positive*%
%FSLAX46Y46*%
G04 Gerber Fmt 4.6, Leading zero omitted, Abs format (unit mm)*
G04 Created by KiCad (PCBNEW 8.0.8) date 2025-03-27 16:53:01*
%MOMM*%
%LPD*%
G01*
G04 APERTURE LIST*
%TA.AperFunction,ComponentPad*%
%ADD10O,1.700000X1.700000*%
%TD*%
%TA.AperFunction,ComponentPad*%
%ADD11R,1.700000X1.700000*%
%TD*%
G04 APERTURE END LIST*
D10*
%TO.N,GND*%
%TO.C,Vdd*%
X18750000Y-31220000D03*
%TO.N,GP1*%
X18750000Y-28680000D03*
%TO.N,GP0*%
X18750000Y-26140000D03*
D11*
%TO.N,5V*%
X18750000Y-23600000D03*
%TD*%
D10*
%TO.N,GND*%
%TO.C,Vdd*%
X18810000Y-71760000D03*
%TO.N,GP15*%
X18810000Y-69220000D03*
%TO.N,GP14*%
X18810000Y-66680000D03*
D11*
%TO.N,5V*%
X18810000Y-64140000D03*
%TD*%
D10*
%TO.N,GND*%
%TO.C,Vdd*%
X27250000Y-71720000D03*
%TO.N,GP13*%
X27250000Y-69180000D03*
%TO.N,GP12*%
X27250000Y-66640000D03*
D11*
%TO.N,5V*%
X27250000Y-64100000D03*
%TD*%
D10*
%TO.N,GND*%
%TO.C,Vdd*%
X18750000Y-44750000D03*
%TO.N,GP5*%
X18750000Y-42210000D03*
%TO.N,GP4*%
X18750000Y-39670000D03*
D11*
%TO.N,5V*%
X18750000Y-37130000D03*
%TD*%
D10*
%TO.N,N/C*%
%TO.C,Pico 40*%
X54985000Y-71640000D03*
X54985000Y-69100000D03*
X54985000Y-66560000D03*
X54985000Y-64020000D03*
X54985000Y-61480000D03*
X54985000Y-58940000D03*
X54985000Y-56400000D03*
X54985000Y-53860000D03*
X54985000Y-51320000D03*
X54985000Y-48780000D03*
X54985000Y-46240000D03*
X54985000Y-43700000D03*
X54985000Y-41160000D03*
X54985000Y-38620000D03*
X54985000Y-36080000D03*
X54985000Y-33540000D03*
X54985000Y-31000000D03*
%TO.N,GND*%
X54985000Y-28460000D03*
%TO.N,N/C*%
X54985000Y-25920000D03*
D11*
%TO.N,5V*%
X54985000Y-23380000D03*
%TD*%
D10*
%TO.N,GND*%
%TO.C,Vdd*%
X27310000Y-44680000D03*
%TO.N,GP7*%
X27310000Y-42140000D03*
%TO.N,GP6*%
X27310000Y-39600000D03*
D11*
%TO.N,5V*%
X27310000Y-37060000D03*
%TD*%
D10*
%TO.N,GP15*%
%TO.C,Pico 1*%
X37250000Y-71640000D03*
%TO.N,GP14*%
X37250000Y-69100000D03*
%TO.N,N/C*%
X37250000Y-66560000D03*
%TO.N,GP13*%
X37250000Y-64020000D03*
%TO.N,GP12*%
X37250000Y-61480000D03*
%TO.N,GP11*%
X37250000Y-58940000D03*
%TO.N,GP10*%
X37250000Y-56400000D03*
%TO.N,N/C*%
X37250000Y-53860000D03*
%TO.N,GP9*%
X37250000Y-51320000D03*
%TO.N,GP8*%
X37250000Y-48780000D03*
%TO.N,GP7*%
X37250000Y-46240000D03*
%TO.N,GP6*%
X37250000Y-43700000D03*
%TO.N,N/C*%
X37250000Y-41160000D03*
%TO.N,GP5*%
X37250000Y-38620000D03*
%TO.N,GP4*%
X37250000Y-36080000D03*
%TO.N,GP3*%
X37250000Y-33540000D03*
%TO.N,GP2*%
X37250000Y-31000000D03*
%TO.N,N/C*%
X37250000Y-28460000D03*
%TO.N,GP1*%
X37250000Y-25920000D03*
D11*
%TO.N,GP0*%
X37250000Y-23380000D03*
%TD*%
D10*
%TO.N,GND*%
%TO.C,Vdd*%
X27250000Y-31220000D03*
%TO.N,GP3*%
X27250000Y-28680000D03*
%TO.N,GP2*%
X27250000Y-26140000D03*
D11*
%TO.N,5V*%
X27250000Y-23600000D03*
%TD*%
D10*
%TO.N,GND*%
%TO.C,Vdd*%
X18810000Y-56620000D03*
%TO.N,GP11*%
X18810000Y-54080000D03*
%TO.N,GP10*%
X18810000Y-51540000D03*
D11*
%TO.N,5V*%
X18810000Y-49000000D03*
%TD*%
D10*
%TO.N,GND*%
%TO.C,Vdd*%
X27310000Y-56550000D03*
%TO.N,GP9*%
X27310000Y-54010000D03*
%TO.N,GP8*%
X27310000Y-51470000D03*
D11*
%TO.N,5V*%
X27310000Y-48930000D03*
%TD*%
%TA.AperFunction,Conductor*%
%TO.N,5V*%
G36*
X58693039Y-21019685D02*
G01*
X58738794Y-21072489D01*
X58750000Y-21124000D01*
X58750000Y-74876000D01*
X58730315Y-74943039D01*
X58677511Y-74988794D01*
X58626000Y-75000000D01*
X16124000Y-75000000D01*
X16056961Y-74980315D01*
X16011206Y-74927511D01*
X16000000Y-74876000D01*
X16000000Y-66679999D01*
X17454341Y-66679999D01*
X17454341Y-66680000D01*
X17474936Y-66915403D01*
X17474938Y-66915413D01*
X17536094Y-67143655D01*
X17536096Y-67143659D01*
X17536097Y-67143663D01*
X17580008Y-67237830D01*
X17635965Y-67357830D01*
X17635967Y-67357834D01*
X17771501Y-67551395D01*
X17771506Y-67551402D01*
X17938597Y-67718493D01*
X17938603Y-67718498D01*
X18124158Y-67848425D01*
X18167783Y-67903002D01*
X18174977Y-67972500D01*
X18143454Y-68034855D01*
X18124158Y-68051575D01*
X17938597Y-68181505D01*
X17771505Y-68348597D01*
X17635965Y-68542169D01*
X17635964Y-68542171D01*
X17536098Y-68756335D01*
X17536094Y-68756344D01*
X17474938Y-68984586D01*
X17474936Y-68984596D01*
X17454341Y-69219999D01*
X17454341Y-69220000D01*
X17474936Y-69455403D01*
X17474938Y-69455413D01*
X17536094Y-69683655D01*
X17536096Y-69683659D01*
X17536097Y-69683663D01*
X17580008Y-69777830D01*
X17635965Y-69897830D01*
X17635967Y-69897834D01*
X17771501Y-70091395D01*
X17771506Y-70091402D01*
X17938597Y-70258493D01*
X17938603Y-70258498D01*
X18124158Y-70388425D01*
X18167783Y-70443002D01*
X18174977Y-70512500D01*
X18143454Y-70574855D01*
X18124158Y-70591575D01*
X17938597Y-70721505D01*
X17771505Y-70888597D01*
X17635965Y-71082169D01*
X17635964Y-71082171D01*
X17536098Y-71296335D01*
X17536094Y-71296344D01*
X17474938Y-71524586D01*
X17474936Y-71524596D01*
X17454341Y-71759999D01*
X17454341Y-71760000D01*
X17474936Y-71995403D01*
X17474938Y-71995413D01*
X17536094Y-72223655D01*
X17536096Y-72223659D01*
X17536097Y-72223663D01*
X17580008Y-72317830D01*
X17635965Y-72437830D01*
X17635967Y-72437834D01*
X17743492Y-72591395D01*
X17771505Y-72631401D01*
X17938599Y-72798495D01*
X18035384Y-72866265D01*
X18132165Y-72934032D01*
X18132167Y-72934033D01*
X18132170Y-72934035D01*
X18346337Y-73033903D01*
X18574592Y-73095063D01*
X18762918Y-73111539D01*
X18809999Y-73115659D01*
X18810000Y-73115659D01*
X18810001Y-73115659D01*
X18849234Y-73112226D01*
X19045408Y-73095063D01*
X19273663Y-73033903D01*
X19487830Y-72934035D01*
X19681401Y-72798495D01*
X19848495Y-72631401D01*
X19984035Y-72437830D01*
X20083903Y-72223663D01*
X20145063Y-71995408D01*
X20165659Y-71760000D01*
X20145063Y-71524592D01*
X20083903Y-71296337D01*
X19984035Y-71082171D01*
X19956026Y-71042169D01*
X19848494Y-70888597D01*
X19681402Y-70721506D01*
X19681396Y-70721501D01*
X19495842Y-70591575D01*
X19452217Y-70536998D01*
X19445023Y-70467500D01*
X19476546Y-70405145D01*
X19495842Y-70388425D01*
X19518026Y-70372891D01*
X19681401Y-70258495D01*
X19848495Y-70091401D01*
X19984035Y-69897830D01*
X20083903Y-69683663D01*
X20145063Y-69455408D01*
X20165659Y-69220000D01*
X20145063Y-68984592D01*
X20083903Y-68756337D01*
X19984035Y-68542171D01*
X19956026Y-68502169D01*
X19848494Y-68348597D01*
X19681402Y-68181506D01*
X19681396Y-68181501D01*
X19495842Y-68051575D01*
X19452217Y-67996998D01*
X19445023Y-67927500D01*
X19476546Y-67865145D01*
X19495842Y-67848425D01*
X19518026Y-67832891D01*
X19681401Y-67718495D01*
X19848495Y-67551401D01*
X19984035Y-67357830D01*
X20083903Y-67143663D01*
X20145063Y-66915408D01*
X20165659Y-66680000D01*
X20162159Y-66639999D01*
X25894341Y-66639999D01*
X25894341Y-66640000D01*
X25914936Y-66875403D01*
X25914938Y-66875413D01*
X25976094Y-67103655D01*
X25976096Y-67103659D01*
X25976097Y-67103663D01*
X25994750Y-67143664D01*
X26075965Y-67317830D01*
X26075967Y-67317834D01*
X26211501Y-67511395D01*
X26211506Y-67511402D01*
X26378597Y-67678493D01*
X26378603Y-67678498D01*
X26564158Y-67808425D01*
X26607783Y-67863002D01*
X26614977Y-67932500D01*
X26583454Y-67994855D01*
X26564158Y-68011575D01*
X26378597Y-68141505D01*
X26211505Y-68308597D01*
X26075965Y-68502169D01*
X26075964Y-68502171D01*
X25976098Y-68716335D01*
X25976094Y-68716344D01*
X25914938Y-68944586D01*
X25914936Y-68944596D01*
X25894341Y-69179999D01*
X25894341Y-69180000D01*
X25914936Y-69415403D01*
X25914938Y-69415413D01*
X25976094Y-69643655D01*
X25976096Y-69643659D01*
X25976097Y-69643663D01*
X25994750Y-69683664D01*
X26075965Y-69857830D01*
X26075967Y-69857834D01*
X26211501Y-70051395D01*
X26211506Y-70051402D01*
X26378597Y-70218493D01*
X26378603Y-70218498D01*
X26564158Y-70348425D01*
X26607783Y-70403002D01*
X26614977Y-70472500D01*
X26583454Y-70534855D01*
X26564158Y-70551575D01*
X26378597Y-70681505D01*
X26211505Y-70848597D01*
X26075965Y-71042169D01*
X26075964Y-71042171D01*
X25976098Y-71256335D01*
X25976094Y-71256344D01*
X25914938Y-71484586D01*
X25914936Y-71484596D01*
X25894341Y-71719999D01*
X25894341Y-71720000D01*
X25914936Y-71955403D01*
X25914938Y-71955413D01*
X25976094Y-72183655D01*
X25976096Y-72183659D01*
X25976097Y-72183663D01*
X25994750Y-72223664D01*
X26075965Y-72397830D01*
X26075967Y-72397834D01*
X26103973Y-72437830D01*
X26211505Y-72591401D01*
X26378599Y-72758495D01*
X26435722Y-72798493D01*
X26572165Y-72894032D01*
X26572167Y-72894033D01*
X26572170Y-72894035D01*
X26786337Y-72993903D01*
X26786343Y-72993904D01*
X26786344Y-72993905D01*
X26841285Y-73008626D01*
X27014592Y-73055063D01*
X27202918Y-73071539D01*
X27249999Y-73075659D01*
X27250000Y-73075659D01*
X27250001Y-73075659D01*
X27289234Y-73072226D01*
X27485408Y-73055063D01*
X27713663Y-72993903D01*
X27927830Y-72894035D01*
X28121401Y-72758495D01*
X28288495Y-72591401D01*
X28424035Y-72397830D01*
X28523903Y-72183663D01*
X28585063Y-71955408D01*
X28605659Y-71720000D01*
X28585063Y-71484592D01*
X28523903Y-71256337D01*
X28424035Y-71042171D01*
X28368018Y-70962169D01*
X28288494Y-70848597D01*
X28121402Y-70681506D01*
X28121396Y-70681501D01*
X27935842Y-70551575D01*
X27892217Y-70496998D01*
X27885023Y-70427500D01*
X27916546Y-70365145D01*
X27935842Y-70348425D01*
X28026215Y-70285145D01*
X28121401Y-70218495D01*
X28288495Y-70051401D01*
X28424035Y-69857830D01*
X28523903Y-69643663D01*
X28585063Y-69415408D01*
X28605659Y-69180000D01*
X28585063Y-68944592D01*
X28523903Y-68716337D01*
X28424035Y-68502171D01*
X28368018Y-68422169D01*
X28288494Y-68308597D01*
X28121402Y-68141506D01*
X28121396Y-68141501D01*
X27935842Y-68011575D01*
X27892217Y-67956998D01*
X27885023Y-67887500D01*
X27916546Y-67825145D01*
X27935842Y-67808425D01*
X28026215Y-67745145D01*
X28121401Y-67678495D01*
X28288495Y-67511401D01*
X28424035Y-67317830D01*
X28523903Y-67103663D01*
X28585063Y-66875408D01*
X28605659Y-66640000D01*
X28585063Y-66404592D01*
X28523903Y-66176337D01*
X28424035Y-65962171D01*
X28368017Y-65882169D01*
X28288496Y-65768600D01*
X28288495Y-65768599D01*
X28166179Y-65646283D01*
X28132696Y-65584963D01*
X28137680Y-65515271D01*
X28179551Y-65459337D01*
X28210529Y-65442422D01*
X28342086Y-65393354D01*
X28342093Y-65393350D01*
X28457187Y-65307190D01*
X28457190Y-65307187D01*
X28543350Y-65192093D01*
X28543354Y-65192086D01*
X28593596Y-65057379D01*
X28593598Y-65057372D01*
X28599999Y-64997844D01*
X28600000Y-64997827D01*
X28600000Y-64350000D01*
X27683012Y-64350000D01*
X27715925Y-64292993D01*
X27750000Y-64165826D01*
X27750000Y-64034174D01*
X27715925Y-63907007D01*
X27683012Y-63850000D01*
X28600000Y-63850000D01*
X28600000Y-63202172D01*
X28599999Y-63202155D01*
X28593598Y-63142627D01*
X28593596Y-63142620D01*
X28543354Y-63007913D01*
X28543350Y-63007906D01*
X28457190Y-62892812D01*
X28457187Y-62892809D01*
X28342093Y-62806649D01*
X28342086Y-62806645D01*
X28207379Y-62756403D01*
X28207372Y-62756401D01*
X28147844Y-62750000D01*
X27500000Y-62750000D01*
X27500000Y-63666988D01*
X27442993Y-63634075D01*
X27315826Y-63600000D01*
X27184174Y-63600000D01*
X27057007Y-63634075D01*
X27000000Y-63666988D01*
X27000000Y-62750000D01*
X26352155Y-62750000D01*
X26292627Y-62756401D01*
X26292620Y-62756403D01*
X26157913Y-62806645D01*
X26157906Y-62806649D01*
X26042812Y-62892809D01*
X26042809Y-62892812D01*
X25956649Y-63007906D01*
X25956645Y-63007913D01*
X25906403Y-63142620D01*
X25906401Y-63142627D01*
X25900000Y-63202155D01*
X25900000Y-63850000D01*
X26816988Y-63850000D01*
X26784075Y-63907007D01*
X26750000Y-64034174D01*
X26750000Y-64165826D01*
X26784075Y-64292993D01*
X26816988Y-64350000D01*
X25900000Y-64350000D01*
X25900000Y-64997844D01*
X25906401Y-65057372D01*
X25906403Y-65057379D01*
X25956645Y-65192086D01*
X25956649Y-65192093D01*
X26042809Y-65307187D01*
X26042812Y-65307190D01*
X26157906Y-65393350D01*
X26157913Y-65393354D01*
X26289470Y-65442421D01*
X26345403Y-65484292D01*
X26369821Y-65549756D01*
X26354970Y-65618029D01*
X26333819Y-65646284D01*
X26211503Y-65768600D01*
X26075965Y-65962169D01*
X26075964Y-65962171D01*
X25976098Y-66176335D01*
X25976094Y-66176344D01*
X25914938Y-66404586D01*
X25914936Y-66404596D01*
X25894341Y-66639999D01*
X20162159Y-66639999D01*
X20145063Y-66444592D01*
X20083903Y-66216337D01*
X19984035Y-66002171D01*
X19956025Y-65962169D01*
X19848496Y-65808600D01*
X19808495Y-65768599D01*
X19726179Y-65686283D01*
X19692696Y-65624963D01*
X19697680Y-65555271D01*
X19739551Y-65499337D01*
X19770529Y-65482422D01*
X19902086Y-65433354D01*
X19902093Y-65433350D01*
X20017187Y-65347190D01*
X20017190Y-65347187D01*
X20103350Y-65232093D01*
X20103354Y-65232086D01*
X20153596Y-65097379D01*
X20153598Y-65097372D01*
X20159999Y-65037844D01*
X20160000Y-65037827D01*
X20160000Y-64390000D01*
X19243012Y-64390000D01*
X19275925Y-64332993D01*
X19310000Y-64205826D01*
X19310000Y-64074174D01*
X19275925Y-63947007D01*
X19243012Y-63890000D01*
X20160000Y-63890000D01*
X20160000Y-63242172D01*
X20159999Y-63242155D01*
X20153598Y-63182627D01*
X20153596Y-63182620D01*
X20103354Y-63047913D01*
X20103350Y-63047906D01*
X20017190Y-62932812D01*
X20017187Y-62932809D01*
X19902093Y-62846649D01*
X19902086Y-62846645D01*
X19767379Y-62796403D01*
X19767372Y-62796401D01*
X19707844Y-62790000D01*
X19060000Y-62790000D01*
X19060000Y-63706988D01*
X19002993Y-63674075D01*
X18875826Y-63640000D01*
X18744174Y-63640000D01*
X18617007Y-63674075D01*
X18560000Y-63706988D01*
X18560000Y-62790000D01*
X17912155Y-62790000D01*
X17852627Y-62796401D01*
X17852620Y-62796403D01*
X17717913Y-62846645D01*
X17717906Y-62846649D01*
X17602812Y-62932809D01*
X17602809Y-62932812D01*
X17516649Y-63047906D01*
X17516645Y-63047913D01*
X17466403Y-63182620D01*
X17466401Y-63182627D01*
X17460000Y-63242155D01*
X17460000Y-63890000D01*
X18376988Y-63890000D01*
X18344075Y-63947007D01*
X18310000Y-64074174D01*
X18310000Y-64205826D01*
X18344075Y-64332993D01*
X18376988Y-64390000D01*
X17460000Y-64390000D01*
X17460000Y-65037844D01*
X17466401Y-65097372D01*
X17466403Y-65097379D01*
X17516645Y-65232086D01*
X17516649Y-65232093D01*
X17602809Y-65347187D01*
X17602812Y-65347190D01*
X17717906Y-65433350D01*
X17717913Y-65433354D01*
X17849470Y-65482421D01*
X17905403Y-65524292D01*
X17929821Y-65589756D01*
X17914970Y-65658029D01*
X17893819Y-65686284D01*
X17771503Y-65808600D01*
X17635965Y-66002169D01*
X17635964Y-66002171D01*
X17536098Y-66216335D01*
X17536094Y-66216344D01*
X17474938Y-66444586D01*
X17474936Y-66444596D01*
X17454341Y-66679999D01*
X16000000Y-66679999D01*
X16000000Y-51539999D01*
X17454341Y-51539999D01*
X17454341Y-51540000D01*
X17474936Y-51775403D01*
X17474938Y-51775413D01*
X17536094Y-52003655D01*
X17536096Y-52003659D01*
X17536097Y-52003663D01*
X17603325Y-52147834D01*
X17635965Y-52217830D01*
X17635967Y-52217834D01*
X17771501Y-52411395D01*
X17771506Y-52411402D01*
X17938597Y-52578493D01*
X17938603Y-52578498D01*
X18124158Y-52708425D01*
X18167783Y-52763002D01*
X18174977Y-52832500D01*
X18143454Y-52894855D01*
X18124158Y-52911575D01*
X17938597Y-53041505D01*
X17771505Y-53208597D01*
X17635965Y-53402169D01*
X17635964Y-53402171D01*
X17536098Y-53616335D01*
X17536094Y-53616344D01*
X17474938Y-53844586D01*
X17474936Y-53844596D01*
X17454341Y-54079999D01*
X17454341Y-54080000D01*
X17474936Y-54315403D01*
X17474938Y-54315413D01*
X17536094Y-54543655D01*
X17536096Y-54543659D01*
X17536097Y-54543663D01*
X17603325Y-54687834D01*
X17635965Y-54757830D01*
X17635967Y-54757834D01*
X17771501Y-54951395D01*
X17771506Y-54951402D01*
X17938597Y-55118493D01*
X17938603Y-55118498D01*
X18124158Y-55248425D01*
X18167783Y-55303002D01*
X18174977Y-55372500D01*
X18143454Y-55434855D01*
X18124158Y-55451575D01*
X17938597Y-55581505D01*
X17771505Y-55748597D01*
X17635965Y-55942169D01*
X17635964Y-55942171D01*
X17536098Y-56156335D01*
X17536094Y-56156344D01*
X17474938Y-56384586D01*
X17474936Y-56384596D01*
X17454341Y-56619999D01*
X17454341Y-56620000D01*
X17474936Y-56855403D01*
X17474938Y-56855413D01*
X17536094Y-57083655D01*
X17536096Y-57083659D01*
X17536097Y-57083663D01*
X17603325Y-57227834D01*
X17635965Y-57297830D01*
X17635967Y-57297834D01*
X17722486Y-57421395D01*
X17771505Y-57491401D01*
X17938599Y-57658495D01*
X17955030Y-57670000D01*
X18132165Y-57794032D01*
X18132167Y-57794033D01*
X18132170Y-57794035D01*
X18346337Y-57893903D01*
X18346343Y-57893904D01*
X18346344Y-57893905D01*
X18401285Y-57908626D01*
X18574592Y-57955063D01*
X18762918Y-57971539D01*
X18809999Y-57975659D01*
X18810000Y-57975659D01*
X18810001Y-57975659D01*
X18849234Y-57972226D01*
X19045408Y-57955063D01*
X19273663Y-57893903D01*
X19487830Y-57794035D01*
X19681401Y-57658495D01*
X19848495Y-57491401D01*
X19984035Y-57297830D01*
X20083903Y-57083663D01*
X20145063Y-56855408D01*
X20165659Y-56620000D01*
X20145063Y-56384592D01*
X20083903Y-56156337D01*
X19984035Y-55942171D01*
X19935020Y-55872169D01*
X19848494Y-55748597D01*
X19681402Y-55581506D01*
X19681396Y-55581501D01*
X19495842Y-55451575D01*
X19452217Y-55396998D01*
X19445023Y-55327500D01*
X19476546Y-55265145D01*
X19495842Y-55248425D01*
X19543785Y-55214855D01*
X19681401Y-55118495D01*
X19848495Y-54951401D01*
X19984035Y-54757830D01*
X20083903Y-54543663D01*
X20145063Y-54315408D01*
X20165659Y-54080000D01*
X20145063Y-53844592D01*
X20083903Y-53616337D01*
X19984035Y-53402171D01*
X19935020Y-53332169D01*
X19848494Y-53208597D01*
X19681402Y-53041506D01*
X19681396Y-53041501D01*
X19495842Y-52911575D01*
X19452217Y-52856998D01*
X19445023Y-52787500D01*
X19476546Y-52725145D01*
X19495842Y-52708425D01*
X19543785Y-52674855D01*
X19681401Y-52578495D01*
X19848495Y-52411401D01*
X19984035Y-52217830D01*
X20083903Y-52003663D01*
X20145063Y-51775408D01*
X20165659Y-51540000D01*
X20159535Y-51469999D01*
X25954341Y-51469999D01*
X25954341Y-51470000D01*
X25974936Y-51705403D01*
X25974938Y-51705413D01*
X26036094Y-51933655D01*
X26036096Y-51933659D01*
X26036097Y-51933663D01*
X26066019Y-51997830D01*
X26135965Y-52147830D01*
X26135967Y-52147834D01*
X26271501Y-52341395D01*
X26271506Y-52341402D01*
X26438597Y-52508493D01*
X26438603Y-52508498D01*
X26624158Y-52638425D01*
X26667783Y-52693002D01*
X26674977Y-52762500D01*
X26643454Y-52824855D01*
X26624158Y-52841575D01*
X26438597Y-52971505D01*
X26271505Y-53138597D01*
X26135965Y-53332169D01*
X26135964Y-53332171D01*
X26036098Y-53546335D01*
X26036094Y-53546344D01*
X25974938Y-53774586D01*
X25974936Y-53774596D01*
X25954341Y-54009999D01*
X25954341Y-54010000D01*
X25974936Y-54245403D01*
X25974938Y-54245413D01*
X26036094Y-54473655D01*
X26036096Y-54473659D01*
X26036097Y-54473663D01*
X26066019Y-54537830D01*
X26135965Y-54687830D01*
X26135967Y-54687834D01*
X26271501Y-54881395D01*
X26271506Y-54881402D01*
X26438597Y-55048493D01*
X26438603Y-55048498D01*
X26624158Y-55178425D01*
X26667783Y-55233002D01*
X26674977Y-55302500D01*
X26643454Y-55364855D01*
X26624158Y-55381575D01*
X26438597Y-55511505D01*
X26271505Y-55678597D01*
X26135965Y-55872169D01*
X26135964Y-55872171D01*
X26036098Y-56086335D01*
X26036094Y-56086344D01*
X25974938Y-56314586D01*
X25974936Y-56314596D01*
X25954341Y-56549999D01*
X25954341Y-56550000D01*
X25974936Y-56785403D01*
X25974938Y-56785413D01*
X26036094Y-57013655D01*
X26036096Y-57013659D01*
X26036097Y-57013663D01*
X26066019Y-57077830D01*
X26135965Y-57227830D01*
X26135967Y-57227834D01*
X26184982Y-57297834D01*
X26271505Y-57421401D01*
X26438599Y-57588495D01*
X26487880Y-57623002D01*
X26632165Y-57724032D01*
X26632167Y-57724033D01*
X26632170Y-57724035D01*
X26846337Y-57823903D01*
X27074592Y-57885063D01*
X27262475Y-57901501D01*
X27309999Y-57905659D01*
X27310000Y-57905659D01*
X27310001Y-57905659D01*
X27357525Y-57901501D01*
X27545408Y-57885063D01*
X27773663Y-57823903D01*
X27987830Y-57724035D01*
X28181401Y-57588495D01*
X28348495Y-57421401D01*
X28484035Y-57227830D01*
X28583903Y-57013663D01*
X28645063Y-56785408D01*
X28665659Y-56550000D01*
X28645063Y-56314592D01*
X28583903Y-56086337D01*
X28484035Y-55872171D01*
X28397510Y-55748599D01*
X28348494Y-55678597D01*
X28181402Y-55511506D01*
X28181396Y-55511501D01*
X27995842Y-55381575D01*
X27952217Y-55326998D01*
X27945023Y-55257500D01*
X27976546Y-55195145D01*
X27995842Y-55178425D01*
X28081426Y-55118498D01*
X28181401Y-55048495D01*
X28348495Y-54881401D01*
X28484035Y-54687830D01*
X28583903Y-54473663D01*
X28645063Y-54245408D01*
X28665659Y-54010000D01*
X28645063Y-53774592D01*
X28583903Y-53546337D01*
X28484035Y-53332171D01*
X28397510Y-53208599D01*
X28348494Y-53138597D01*
X28181402Y-52971506D01*
X28181396Y-52971501D01*
X27995842Y-52841575D01*
X27952217Y-52786998D01*
X27945023Y-52717500D01*
X27976546Y-52655145D01*
X27995842Y-52638425D01*
X28081426Y-52578498D01*
X28181401Y-52508495D01*
X28348495Y-52341401D01*
X28484035Y-52147830D01*
X28583903Y-51933663D01*
X28645063Y-51705408D01*
X28665659Y-51470000D01*
X28645063Y-51234592D01*
X28583903Y-51006337D01*
X28484035Y-50792171D01*
X28397509Y-50668599D01*
X28348496Y-50598600D01*
X28296180Y-50546284D01*
X28226179Y-50476283D01*
X28192696Y-50414963D01*
X28197680Y-50345271D01*
X28239551Y-50289337D01*
X28270529Y-50272422D01*
X28402086Y-50223354D01*
X28402093Y-50223350D01*
X28517187Y-50137190D01*
X28517190Y-50137187D01*
X28603350Y-50022093D01*
X28603354Y-50022086D01*
X28653596Y-49887379D01*
X28653598Y-49887372D01*
X28659999Y-49827844D01*
X28660000Y-49827827D01*
X28660000Y-49180000D01*
X27743012Y-49180000D01*
X27775925Y-49122993D01*
X27810000Y-48995826D01*
X27810000Y-48864174D01*
X27775925Y-48737007D01*
X27743012Y-48680000D01*
X28660000Y-48680000D01*
X28660000Y-48032172D01*
X28659999Y-48032155D01*
X28653598Y-47972627D01*
X28653596Y-47972620D01*
X28603354Y-47837913D01*
X28603350Y-47837906D01*
X28517190Y-47722812D01*
X28517187Y-47722809D01*
X28402093Y-47636649D01*
X28402086Y-47636645D01*
X28267379Y-47586403D01*
X28267372Y-47586401D01*
X28207844Y-47580000D01*
X27560000Y-47580000D01*
X27560000Y-48496988D01*
X27502993Y-48464075D01*
X27375826Y-48430000D01*
X27244174Y-48430000D01*
X27117007Y-48464075D01*
X27060000Y-48496988D01*
X27060000Y-47580000D01*
X26412155Y-47580000D01*
X26352627Y-47586401D01*
X26352620Y-47586403D01*
X26217913Y-47636645D01*
X26217906Y-47636649D01*
X26102812Y-47722809D01*
X26102809Y-47722812D01*
X26016649Y-47837906D01*
X26016645Y-47837913D01*
X25966403Y-47972620D01*
X25966401Y-47972627D01*
X25960000Y-48032155D01*
X25960000Y-48680000D01*
X26876988Y-48680000D01*
X26844075Y-48737007D01*
X26810000Y-48864174D01*
X26810000Y-48995826D01*
X26844075Y-49122993D01*
X26876988Y-49180000D01*
X25960000Y-49180000D01*
X25960000Y-49827844D01*
X25966401Y-49887372D01*
X25966403Y-49887379D01*
X26016645Y-50022086D01*
X26016649Y-50022093D01*
X26102809Y-50137187D01*
X26102812Y-50137190D01*
X26217906Y-50223350D01*
X26217913Y-50223354D01*
X26349470Y-50272421D01*
X26405403Y-50314292D01*
X26429821Y-50379756D01*
X26414970Y-50448029D01*
X26393819Y-50476284D01*
X26271503Y-50598600D01*
X26135965Y-50792169D01*
X26135964Y-50792171D01*
X26036098Y-51006335D01*
X26036094Y-51006344D01*
X25974938Y-51234586D01*
X25974936Y-51234596D01*
X25954341Y-51469999D01*
X20159535Y-51469999D01*
X20145063Y-51304592D01*
X20083903Y-51076337D01*
X19984035Y-50862171D01*
X19935019Y-50792169D01*
X19848496Y-50668600D01*
X19822065Y-50642169D01*
X19726179Y-50546283D01*
X19692696Y-50484963D01*
X19697680Y-50415271D01*
X19739551Y-50359337D01*
X19770529Y-50342422D01*
X19902086Y-50293354D01*
X19902093Y-50293350D01*
X20017187Y-50207190D01*
X20017190Y-50207187D01*
X20103350Y-50092093D01*
X20103354Y-50092086D01*
X20153596Y-49957379D01*
X20153598Y-49957372D01*
X20159999Y-49897844D01*
X20160000Y-49897827D01*
X20160000Y-49250000D01*
X19243012Y-49250000D01*
X19275925Y-49192993D01*
X19310000Y-49065826D01*
X19310000Y-48934174D01*
X19275925Y-48807007D01*
X19243012Y-48750000D01*
X20160000Y-48750000D01*
X20160000Y-48102172D01*
X20159999Y-48102155D01*
X20153598Y-48042627D01*
X20153596Y-48042620D01*
X20103354Y-47907913D01*
X20103350Y-47907906D01*
X20017190Y-47792812D01*
X20017187Y-47792809D01*
X19902093Y-47706649D01*
X19902086Y-47706645D01*
X19767379Y-47656403D01*
X19767372Y-47656401D01*
X19707844Y-47650000D01*
X19060000Y-47650000D01*
X19060000Y-48566988D01*
X19002993Y-48534075D01*
X18875826Y-48500000D01*
X18744174Y-48500000D01*
X18617007Y-48534075D01*
X18560000Y-48566988D01*
X18560000Y-47650000D01*
X17912155Y-47650000D01*
X17852627Y-47656401D01*
X17852620Y-47656403D01*
X17717913Y-47706645D01*
X17717906Y-47706649D01*
X17602812Y-47792809D01*
X17602809Y-47792812D01*
X17516649Y-47907906D01*
X17516645Y-47907913D01*
X17466403Y-48042620D01*
X17466401Y-48042627D01*
X17460000Y-48102155D01*
X17460000Y-48750000D01*
X18376988Y-48750000D01*
X18344075Y-48807007D01*
X18310000Y-48934174D01*
X18310000Y-49065826D01*
X18344075Y-49192993D01*
X18376988Y-49250000D01*
X17460000Y-49250000D01*
X17460000Y-49897844D01*
X17466401Y-49957372D01*
X17466403Y-49957379D01*
X17516645Y-50092086D01*
X17516649Y-50092093D01*
X17602809Y-50207187D01*
X17602812Y-50207190D01*
X17717906Y-50293350D01*
X17717913Y-50293354D01*
X17849470Y-50342421D01*
X17905403Y-50384292D01*
X17929821Y-50449756D01*
X17914970Y-50518029D01*
X17893819Y-50546284D01*
X17771503Y-50668600D01*
X17635965Y-50862169D01*
X17635964Y-50862171D01*
X17536098Y-51076335D01*
X17536094Y-51076344D01*
X17474938Y-51304586D01*
X17474936Y-51304596D01*
X17454341Y-51539999D01*
X16000000Y-51539999D01*
X16000000Y-39669999D01*
X17394341Y-39669999D01*
X17394341Y-39670000D01*
X17414936Y-39905403D01*
X17414938Y-39905413D01*
X17476094Y-40133655D01*
X17476096Y-40133659D01*
X17476097Y-40133663D01*
X17543325Y-40277834D01*
X17575965Y-40347830D01*
X17575967Y-40347834D01*
X17711501Y-40541395D01*
X17711506Y-40541402D01*
X17878597Y-40708493D01*
X17878603Y-40708498D01*
X18064158Y-40838425D01*
X18107783Y-40893002D01*
X18114977Y-40962500D01*
X18083454Y-41024855D01*
X18064158Y-41041575D01*
X17878597Y-41171505D01*
X17711505Y-41338597D01*
X17575965Y-41532169D01*
X17575964Y-41532171D01*
X17476098Y-41746335D01*
X17476094Y-41746344D01*
X17414938Y-41974586D01*
X17414936Y-41974596D01*
X17394341Y-42209999D01*
X17394341Y-42210000D01*
X17414936Y-42445403D01*
X17414938Y-42445413D01*
X17476094Y-42673655D01*
X17476096Y-42673659D01*
X17476097Y-42673663D01*
X17543325Y-42817834D01*
X17575965Y-42887830D01*
X17575967Y-42887834D01*
X17711501Y-43081395D01*
X17711506Y-43081402D01*
X17878597Y-43248493D01*
X17878603Y-43248498D01*
X18064158Y-43378425D01*
X18107783Y-43433002D01*
X18114977Y-43502500D01*
X18083454Y-43564855D01*
X18064158Y-43581575D01*
X17878597Y-43711505D01*
X17711505Y-43878597D01*
X17575965Y-44072169D01*
X17575964Y-44072171D01*
X17476098Y-44286335D01*
X17476094Y-44286344D01*
X17414938Y-44514586D01*
X17414936Y-44514596D01*
X17394341Y-44749999D01*
X17394341Y-44750000D01*
X17414936Y-44985403D01*
X17414938Y-44985413D01*
X17476094Y-45213655D01*
X17476096Y-45213659D01*
X17476097Y-45213663D01*
X17543325Y-45357834D01*
X17575965Y-45427830D01*
X17575967Y-45427834D01*
X17662486Y-45551395D01*
X17711505Y-45621401D01*
X17878599Y-45788495D01*
X17972195Y-45854032D01*
X18072165Y-45924032D01*
X18072167Y-45924033D01*
X18072170Y-45924035D01*
X18286337Y-46023903D01*
X18286343Y-46023904D01*
X18286344Y-46023905D01*
X18341285Y-46038626D01*
X18514592Y-46085063D01*
X18702918Y-46101539D01*
X18749999Y-46105659D01*
X18750000Y-46105659D01*
X18750001Y-46105659D01*
X18789234Y-46102226D01*
X18985408Y-46085063D01*
X19213663Y-46023903D01*
X19427830Y-45924035D01*
X19621401Y-45788495D01*
X19788495Y-45621401D01*
X19924035Y-45427830D01*
X20023903Y-45213663D01*
X20085063Y-44985408D01*
X20105659Y-44750000D01*
X20085063Y-44514592D01*
X20023903Y-44286337D01*
X19924035Y-44072171D01*
X19875020Y-44002169D01*
X19788494Y-43878597D01*
X19621402Y-43711506D01*
X19621396Y-43711501D01*
X19435842Y-43581575D01*
X19392217Y-43526998D01*
X19385023Y-43457500D01*
X19416546Y-43395145D01*
X19435842Y-43378425D01*
X19458026Y-43362891D01*
X19621401Y-43248495D01*
X19788495Y-43081401D01*
X19924035Y-42887830D01*
X20023903Y-42673663D01*
X20085063Y-42445408D01*
X20105659Y-42210000D01*
X20085063Y-41974592D01*
X20023903Y-41746337D01*
X19924035Y-41532171D01*
X19875020Y-41462169D01*
X19788494Y-41338597D01*
X19621402Y-41171506D01*
X19621396Y-41171501D01*
X19435842Y-41041575D01*
X19392217Y-40986998D01*
X19385023Y-40917500D01*
X19416546Y-40855145D01*
X19435842Y-40838425D01*
X19458026Y-40822891D01*
X19621401Y-40708495D01*
X19788495Y-40541401D01*
X19924035Y-40347830D01*
X20023903Y-40133663D01*
X20085063Y-39905408D01*
X20105659Y-39670000D01*
X20099535Y-39599999D01*
X25954341Y-39599999D01*
X25954341Y-39600000D01*
X25974936Y-39835403D01*
X25974938Y-39835413D01*
X26036094Y-40063655D01*
X26036096Y-40063659D01*
X26036097Y-40063663D01*
X26063070Y-40121506D01*
X26135965Y-40277830D01*
X26135967Y-40277834D01*
X26271501Y-40471395D01*
X26271506Y-40471402D01*
X26438597Y-40638493D01*
X26438603Y-40638498D01*
X26624158Y-40768425D01*
X26667783Y-40823002D01*
X26674977Y-40892500D01*
X26643454Y-40954855D01*
X26624158Y-40971575D01*
X26438597Y-41101505D01*
X26271505Y-41268597D01*
X26135965Y-41462169D01*
X26135964Y-41462171D01*
X26036098Y-41676335D01*
X26036094Y-41676344D01*
X25974938Y-41904586D01*
X25974936Y-41904596D01*
X25954341Y-42139999D01*
X25954341Y-42140000D01*
X25974936Y-42375403D01*
X25974938Y-42375413D01*
X26036094Y-42603655D01*
X26036096Y-42603659D01*
X26036097Y-42603663D01*
X26063070Y-42661506D01*
X26135965Y-42817830D01*
X26135967Y-42817834D01*
X26271501Y-43011395D01*
X26271506Y-43011402D01*
X26438597Y-43178493D01*
X26438603Y-43178498D01*
X26624158Y-43308425D01*
X26667783Y-43363002D01*
X26674977Y-43432500D01*
X26643454Y-43494855D01*
X26624158Y-43511575D01*
X26438597Y-43641505D01*
X26271505Y-43808597D01*
X26135965Y-44002169D01*
X26135964Y-44002171D01*
X26036098Y-44216335D01*
X26036094Y-44216344D01*
X25974938Y-44444586D01*
X25974936Y-44444596D01*
X25954341Y-44679999D01*
X25954341Y-44680000D01*
X25974936Y-44915403D01*
X25974938Y-44915413D01*
X26036094Y-45143655D01*
X26036096Y-45143659D01*
X26036097Y-45143663D01*
X26063070Y-45201506D01*
X26135965Y-45357830D01*
X26135967Y-45357834D01*
X26184982Y-45427834D01*
X26271505Y-45551401D01*
X26438599Y-45718495D01*
X26521203Y-45776335D01*
X26632165Y-45854032D01*
X26632167Y-45854033D01*
X26632170Y-45854035D01*
X26846337Y-45953903D01*
X27074592Y-46015063D01*
X27262918Y-46031539D01*
X27309999Y-46035659D01*
X27310000Y-46035659D01*
X27310001Y-46035659D01*
X27349234Y-46032226D01*
X27545408Y-46015063D01*
X27773663Y-45953903D01*
X27987830Y-45854035D01*
X28181401Y-45718495D01*
X28348495Y-45551401D01*
X28484035Y-45357830D01*
X28583903Y-45143663D01*
X28645063Y-44915408D01*
X28665659Y-44680000D01*
X28645063Y-44444592D01*
X28583903Y-44216337D01*
X28484035Y-44002171D01*
X28437288Y-43935408D01*
X28348494Y-43808597D01*
X28181402Y-43641506D01*
X28181396Y-43641501D01*
X27995842Y-43511575D01*
X27952217Y-43456998D01*
X27945023Y-43387500D01*
X27976546Y-43325145D01*
X27995842Y-43308425D01*
X28081426Y-43248498D01*
X28181401Y-43178495D01*
X28348495Y-43011401D01*
X28484035Y-42817830D01*
X28583903Y-42603663D01*
X28645063Y-42375408D01*
X28665659Y-42140000D01*
X28645063Y-41904592D01*
X28583903Y-41676337D01*
X28484035Y-41462171D01*
X28437288Y-41395408D01*
X28348494Y-41268597D01*
X28181402Y-41101506D01*
X28181396Y-41101501D01*
X27995842Y-40971575D01*
X27952217Y-40916998D01*
X27945023Y-40847500D01*
X27976546Y-40785145D01*
X27995842Y-40768425D01*
X28081426Y-40708498D01*
X28181401Y-40638495D01*
X28348495Y-40471401D01*
X28484035Y-40277830D01*
X28583903Y-40063663D01*
X28645063Y-39835408D01*
X28665659Y-39600000D01*
X28645063Y-39364592D01*
X28583903Y-39136337D01*
X28484035Y-38922171D01*
X28437287Y-38855408D01*
X28348496Y-38728600D01*
X28296180Y-38676284D01*
X28226179Y-38606283D01*
X28192696Y-38544963D01*
X28197680Y-38475271D01*
X28239551Y-38419337D01*
X28270529Y-38402422D01*
X28402086Y-38353354D01*
X28402093Y-38353350D01*
X28517187Y-38267190D01*
X28517190Y-38267187D01*
X28603350Y-38152093D01*
X28603354Y-38152086D01*
X28653596Y-38017379D01*
X28653598Y-38017372D01*
X28659999Y-37957844D01*
X28660000Y-37957827D01*
X28660000Y-37310000D01*
X27743012Y-37310000D01*
X27775925Y-37252993D01*
X27810000Y-37125826D01*
X27810000Y-36994174D01*
X27775925Y-36867007D01*
X27743012Y-36810000D01*
X28660000Y-36810000D01*
X28660000Y-36162172D01*
X28659999Y-36162155D01*
X28653598Y-36102627D01*
X28653596Y-36102620D01*
X28603354Y-35967913D01*
X28603350Y-35967906D01*
X28517190Y-35852812D01*
X28517187Y-35852809D01*
X28402093Y-35766649D01*
X28402086Y-35766645D01*
X28267379Y-35716403D01*
X28267372Y-35716401D01*
X28207844Y-35710000D01*
X27560000Y-35710000D01*
X27560000Y-36626988D01*
X27502993Y-36594075D01*
X27375826Y-36560000D01*
X27244174Y-36560000D01*
X27117007Y-36594075D01*
X27060000Y-36626988D01*
X27060000Y-35710000D01*
X26412155Y-35710000D01*
X26352627Y-35716401D01*
X26352620Y-35716403D01*
X26217913Y-35766645D01*
X26217906Y-35766649D01*
X26102812Y-35852809D01*
X26102809Y-35852812D01*
X26016649Y-35967906D01*
X26016645Y-35967913D01*
X25966403Y-36102620D01*
X25966401Y-36102627D01*
X25960000Y-36162155D01*
X25960000Y-36810000D01*
X26876988Y-36810000D01*
X26844075Y-36867007D01*
X26810000Y-36994174D01*
X26810000Y-37125826D01*
X26844075Y-37252993D01*
X26876988Y-37310000D01*
X25960000Y-37310000D01*
X25960000Y-37957844D01*
X25966401Y-38017372D01*
X25966403Y-38017379D01*
X26016645Y-38152086D01*
X26016649Y-38152093D01*
X26102809Y-38267187D01*
X26102812Y-38267190D01*
X26217906Y-38353350D01*
X26217913Y-38353354D01*
X26349470Y-38402421D01*
X26405403Y-38444292D01*
X26429821Y-38509756D01*
X26414970Y-38578029D01*
X26393819Y-38606284D01*
X26271503Y-38728600D01*
X26135965Y-38922169D01*
X26135964Y-38922171D01*
X26036098Y-39136335D01*
X26036094Y-39136344D01*
X25974938Y-39364586D01*
X25974936Y-39364596D01*
X25954341Y-39599999D01*
X20099535Y-39599999D01*
X20085063Y-39434592D01*
X20023903Y-39206337D01*
X19924035Y-38992171D01*
X19875019Y-38922169D01*
X19788496Y-38798600D01*
X19788495Y-38798599D01*
X19666179Y-38676283D01*
X19632696Y-38614963D01*
X19637680Y-38545271D01*
X19679551Y-38489337D01*
X19710529Y-38472422D01*
X19842086Y-38423354D01*
X19842093Y-38423350D01*
X19957187Y-38337190D01*
X19957190Y-38337187D01*
X20043350Y-38222093D01*
X20043354Y-38222086D01*
X20093596Y-38087379D01*
X20093598Y-38087372D01*
X20099999Y-38027844D01*
X20100000Y-38027827D01*
X20100000Y-37380000D01*
X19183012Y-37380000D01*
X19215925Y-37322993D01*
X19250000Y-37195826D01*
X19250000Y-37064174D01*
X19215925Y-36937007D01*
X19183012Y-36880000D01*
X20100000Y-36880000D01*
X20100000Y-36232172D01*
X20099999Y-36232155D01*
X20093598Y-36172627D01*
X20093596Y-36172620D01*
X20043354Y-36037913D01*
X20043350Y-36037906D01*
X19957190Y-35922812D01*
X19957187Y-35922809D01*
X19842093Y-35836649D01*
X19842086Y-35836645D01*
X19707379Y-35786403D01*
X19707372Y-35786401D01*
X19647844Y-35780000D01*
X19000000Y-35780000D01*
X19000000Y-36696988D01*
X18942993Y-36664075D01*
X18815826Y-36630000D01*
X18684174Y-36630000D01*
X18557007Y-36664075D01*
X18500000Y-36696988D01*
X18500000Y-35780000D01*
X17852155Y-35780000D01*
X17792627Y-35786401D01*
X17792620Y-35786403D01*
X17657913Y-35836645D01*
X17657906Y-35836649D01*
X17542812Y-35922809D01*
X17542809Y-35922812D01*
X17456649Y-36037906D01*
X17456645Y-36037913D01*
X17406403Y-36172620D01*
X17406401Y-36172627D01*
X17400000Y-36232155D01*
X17400000Y-36880000D01*
X18316988Y-36880000D01*
X18284075Y-36937007D01*
X18250000Y-37064174D01*
X18250000Y-37195826D01*
X18284075Y-37322993D01*
X18316988Y-37380000D01*
X17400000Y-37380000D01*
X17400000Y-38027844D01*
X17406401Y-38087372D01*
X17406403Y-38087379D01*
X17456645Y-38222086D01*
X17456649Y-38222093D01*
X17542809Y-38337187D01*
X17542812Y-38337190D01*
X17657906Y-38423350D01*
X17657913Y-38423354D01*
X17789470Y-38472421D01*
X17845403Y-38514292D01*
X17869821Y-38579756D01*
X17854970Y-38648029D01*
X17833819Y-38676284D01*
X17711503Y-38798600D01*
X17575965Y-38992169D01*
X17575964Y-38992171D01*
X17476098Y-39206335D01*
X17476094Y-39206344D01*
X17414938Y-39434586D01*
X17414936Y-39434596D01*
X17394341Y-39669999D01*
X16000000Y-39669999D01*
X16000000Y-26139999D01*
X17394341Y-26139999D01*
X17394341Y-26140000D01*
X17414936Y-26375403D01*
X17414938Y-26375413D01*
X17476094Y-26603655D01*
X17476096Y-26603659D01*
X17476097Y-26603663D01*
X17563638Y-26791395D01*
X17575965Y-26817830D01*
X17575967Y-26817834D01*
X17711501Y-27011395D01*
X17711506Y-27011402D01*
X17878597Y-27178493D01*
X17878603Y-27178498D01*
X18064158Y-27308425D01*
X18107783Y-27363002D01*
X18114977Y-27432500D01*
X18083454Y-27494855D01*
X18064158Y-27511575D01*
X17878597Y-27641505D01*
X17711505Y-27808597D01*
X17575965Y-28002169D01*
X17575964Y-28002171D01*
X17476098Y-28216335D01*
X17476094Y-28216344D01*
X17414938Y-28444586D01*
X17414936Y-28444596D01*
X17394341Y-28679999D01*
X17394341Y-28680000D01*
X17414936Y-28915403D01*
X17414938Y-28915413D01*
X17476094Y-29143655D01*
X17476096Y-29143659D01*
X17476097Y-29143663D01*
X17563638Y-29331395D01*
X17575965Y-29357830D01*
X17575967Y-29357834D01*
X17711501Y-29551395D01*
X17711506Y-29551402D01*
X17878597Y-29718493D01*
X17878603Y-29718498D01*
X18064158Y-29848425D01*
X18107783Y-29903002D01*
X18114977Y-29972500D01*
X18083454Y-30034855D01*
X18064158Y-30051575D01*
X17878597Y-30181505D01*
X17711505Y-30348597D01*
X17575965Y-30542169D01*
X17575964Y-30542171D01*
X17476098Y-30756335D01*
X17476094Y-30756344D01*
X17414938Y-30984586D01*
X17414936Y-30984596D01*
X17394341Y-31219999D01*
X17394341Y-31220000D01*
X17414936Y-31455403D01*
X17414938Y-31455413D01*
X17476094Y-31683655D01*
X17476096Y-31683659D01*
X17476097Y-31683663D01*
X17563638Y-31871395D01*
X17575965Y-31897830D01*
X17575967Y-31897834D01*
X17674458Y-32038493D01*
X17711505Y-32091401D01*
X17878599Y-32258495D01*
X17895030Y-32270000D01*
X18072165Y-32394032D01*
X18072167Y-32394033D01*
X18072170Y-32394035D01*
X18286337Y-32493903D01*
X18514592Y-32555063D01*
X18702918Y-32571539D01*
X18749999Y-32575659D01*
X18750000Y-32575659D01*
X18750001Y-32575659D01*
X18789234Y-32572226D01*
X18985408Y-32555063D01*
X19213663Y-32493903D01*
X19427830Y-32394035D01*
X19621401Y-32258495D01*
X19788495Y-32091401D01*
X19924035Y-31897830D01*
X20023903Y-31683663D01*
X20085063Y-31455408D01*
X20105659Y-31220000D01*
X20085063Y-30984592D01*
X20023903Y-30756337D01*
X19924035Y-30542171D01*
X19788495Y-30348599D01*
X19788494Y-30348597D01*
X19621402Y-30181506D01*
X19621396Y-30181501D01*
X19435842Y-30051575D01*
X19392217Y-29996998D01*
X19385023Y-29927500D01*
X19416546Y-29865145D01*
X19435842Y-29848425D01*
X19537850Y-29776998D01*
X19621401Y-29718495D01*
X19788495Y-29551401D01*
X19924035Y-29357830D01*
X20023903Y-29143663D01*
X20085063Y-28915408D01*
X20105659Y-28680000D01*
X20085063Y-28444592D01*
X20023903Y-28216337D01*
X19924035Y-28002171D01*
X19788495Y-27808599D01*
X19788494Y-27808597D01*
X19621402Y-27641506D01*
X19621396Y-27641501D01*
X19435842Y-27511575D01*
X19392217Y-27456998D01*
X19385023Y-27387500D01*
X19416546Y-27325145D01*
X19435842Y-27308425D01*
X19537850Y-27236998D01*
X19621401Y-27178495D01*
X19788495Y-27011401D01*
X19924035Y-26817830D01*
X20023903Y-26603663D01*
X20085063Y-26375408D01*
X20105659Y-26140000D01*
X20105659Y-26139999D01*
X25894341Y-26139999D01*
X25894341Y-26140000D01*
X25914936Y-26375403D01*
X25914938Y-26375413D01*
X25976094Y-26603655D01*
X25976096Y-26603659D01*
X25976097Y-26603663D01*
X26063638Y-26791395D01*
X26075965Y-26817830D01*
X26075967Y-26817834D01*
X26211501Y-27011395D01*
X26211506Y-27011402D01*
X26378597Y-27178493D01*
X26378603Y-27178498D01*
X26564158Y-27308425D01*
X26607783Y-27363002D01*
X26614977Y-27432500D01*
X26583454Y-27494855D01*
X26564158Y-27511575D01*
X26378597Y-27641505D01*
X26211505Y-27808597D01*
X26075965Y-28002169D01*
X26075964Y-28002171D01*
X25976098Y-28216335D01*
X25976094Y-28216344D01*
X25914938Y-28444586D01*
X25914936Y-28444596D01*
X25894341Y-28679999D01*
X25894341Y-28680000D01*
X25914936Y-28915403D01*
X25914938Y-28915413D01*
X25976094Y-29143655D01*
X25976096Y-29143659D01*
X25976097Y-29143663D01*
X26063638Y-29331395D01*
X26075965Y-29357830D01*
X26075967Y-29357834D01*
X26211501Y-29551395D01*
X26211506Y-29551402D01*
X26378597Y-29718493D01*
X26378603Y-29718498D01*
X26564158Y-29848425D01*
X26607783Y-29903002D01*
X26614977Y-29972500D01*
X26583454Y-30034855D01*
X26564158Y-30051575D01*
X26378597Y-30181505D01*
X26211505Y-30348597D01*
X26075965Y-30542169D01*
X26075964Y-30542171D01*
X25976098Y-30756335D01*
X25976094Y-30756344D01*
X25914938Y-30984586D01*
X25914936Y-30984596D01*
X25894341Y-31219999D01*
X25894341Y-31220000D01*
X25914936Y-31455403D01*
X25914938Y-31455413D01*
X25976094Y-31683655D01*
X25976096Y-31683659D01*
X25976097Y-31683663D01*
X26063638Y-31871395D01*
X26075965Y-31897830D01*
X26075967Y-31897834D01*
X26174458Y-32038493D01*
X26211505Y-32091401D01*
X26378599Y-32258495D01*
X26395030Y-32270000D01*
X26572165Y-32394032D01*
X26572167Y-32394033D01*
X26572170Y-32394035D01*
X26786337Y-32493903D01*
X27014592Y-32555063D01*
X27202918Y-32571539D01*
X27249999Y-32575659D01*
X27250000Y-32575659D01*
X27250001Y-32575659D01*
X27289234Y-32572226D01*
X27485408Y-32555063D01*
X27713663Y-32493903D01*
X27927830Y-32394035D01*
X28121401Y-32258495D01*
X28288495Y-32091401D01*
X28424035Y-31897830D01*
X28523903Y-31683663D01*
X28585063Y-31455408D01*
X28605659Y-31220000D01*
X28585063Y-30984592D01*
X28523903Y-30756337D01*
X28424035Y-30542171D01*
X28288495Y-30348599D01*
X28288494Y-30348597D01*
X28121402Y-30181506D01*
X28121396Y-30181501D01*
X27935842Y-30051575D01*
X27892217Y-29996998D01*
X27885023Y-29927500D01*
X27916546Y-29865145D01*
X27935842Y-29848425D01*
X28037850Y-29776998D01*
X28121401Y-29718495D01*
X28288495Y-29551401D01*
X28424035Y-29357830D01*
X28523903Y-29143663D01*
X28585063Y-28915408D01*
X28605659Y-28680000D01*
X28585063Y-28444592D01*
X28523903Y-28216337D01*
X28424035Y-28002171D01*
X28288495Y-27808599D01*
X28288494Y-27808597D01*
X28121402Y-27641506D01*
X28121396Y-27641501D01*
X27935842Y-27511575D01*
X27892217Y-27456998D01*
X27885023Y-27387500D01*
X27916546Y-27325145D01*
X27935842Y-27308425D01*
X28037850Y-27236998D01*
X28121401Y-27178495D01*
X28288495Y-27011401D01*
X28424035Y-26817830D01*
X28523903Y-26603663D01*
X28585063Y-26375408D01*
X28605659Y-26140000D01*
X28586411Y-25919999D01*
X35894341Y-25919999D01*
X35894341Y-25920000D01*
X35914936Y-26155403D01*
X35914938Y-26155413D01*
X35976094Y-26383655D01*
X35976096Y-26383659D01*
X35976097Y-26383663D01*
X36075965Y-26597830D01*
X36075967Y-26597834D01*
X36211501Y-26791395D01*
X36211506Y-26791402D01*
X36378597Y-26958493D01*
X36378603Y-26958498D01*
X36564158Y-27088425D01*
X36607783Y-27143002D01*
X36614977Y-27212500D01*
X36583454Y-27274855D01*
X36564158Y-27291575D01*
X36378597Y-27421505D01*
X36211505Y-27588597D01*
X36075965Y-27782169D01*
X36075964Y-27782171D01*
X35976098Y-27996335D01*
X35976094Y-27996344D01*
X35914938Y-28224586D01*
X35914936Y-28224596D01*
X35894341Y-28459999D01*
X35894341Y-28460000D01*
X35914936Y-28695403D01*
X35914938Y-28695413D01*
X35976094Y-28923655D01*
X35976096Y-28923659D01*
X35976097Y-28923663D01*
X36075965Y-29137830D01*
X36075967Y-29137834D01*
X36211501Y-29331395D01*
X36211506Y-29331402D01*
X36378597Y-29498493D01*
X36378603Y-29498498D01*
X36564158Y-29628425D01*
X36607783Y-29683002D01*
X36614977Y-29752500D01*
X36583454Y-29814855D01*
X36564158Y-29831575D01*
X36378597Y-29961505D01*
X36211505Y-30128597D01*
X36075965Y-30322169D01*
X36075964Y-30322171D01*
X35976098Y-30536335D01*
X35976094Y-30536344D01*
X35914938Y-30764586D01*
X35914936Y-30764596D01*
X35894341Y-30999999D01*
X35894341Y-31000000D01*
X35914936Y-31235403D01*
X35914938Y-31235413D01*
X35976094Y-31463655D01*
X35976096Y-31463659D01*
X35976097Y-31463663D01*
X36075965Y-31677830D01*
X36075967Y-31677834D01*
X36211501Y-31871395D01*
X36211506Y-31871402D01*
X36378597Y-32038493D01*
X36378603Y-32038498D01*
X36564158Y-32168425D01*
X36607783Y-32223002D01*
X36614977Y-32292500D01*
X36583454Y-32354855D01*
X36564158Y-32371575D01*
X36378597Y-32501505D01*
X36211505Y-32668597D01*
X36075965Y-32862169D01*
X36075964Y-32862171D01*
X35976098Y-33076335D01*
X35976094Y-33076344D01*
X35914938Y-33304586D01*
X35914936Y-33304596D01*
X35894341Y-33539999D01*
X35894341Y-33540000D01*
X35914936Y-33775403D01*
X35914938Y-33775413D01*
X35976094Y-34003655D01*
X35976096Y-34003659D01*
X35976097Y-34003663D01*
X36075965Y-34217830D01*
X36075967Y-34217834D01*
X36211501Y-34411395D01*
X36211506Y-34411402D01*
X36378597Y-34578493D01*
X36378603Y-34578498D01*
X36564158Y-34708425D01*
X36607783Y-34763002D01*
X36614977Y-34832500D01*
X36583454Y-34894855D01*
X36564158Y-34911575D01*
X36378597Y-35041505D01*
X36211505Y-35208597D01*
X36075965Y-35402169D01*
X36075964Y-35402171D01*
X35976098Y-35616335D01*
X35976094Y-35616344D01*
X35914938Y-35844586D01*
X35914936Y-35844596D01*
X35894341Y-36079999D01*
X35894341Y-36080000D01*
X35914936Y-36315403D01*
X35914938Y-36315413D01*
X35976094Y-36543655D01*
X35976096Y-36543659D01*
X35976097Y-36543663D01*
X36073709Y-36752993D01*
X36075965Y-36757830D01*
X36075967Y-36757834D01*
X36211501Y-36951395D01*
X36211506Y-36951402D01*
X36378597Y-37118493D01*
X36378603Y-37118498D01*
X36564158Y-37248425D01*
X36607783Y-37303002D01*
X36614977Y-37372500D01*
X36583454Y-37434855D01*
X36564158Y-37451575D01*
X36378597Y-37581505D01*
X36211505Y-37748597D01*
X36075965Y-37942169D01*
X36075964Y-37942171D01*
X35976098Y-38156335D01*
X35976094Y-38156344D01*
X35914938Y-38384586D01*
X35914936Y-38384596D01*
X35894341Y-38619999D01*
X35894341Y-38620000D01*
X35914936Y-38855403D01*
X35914938Y-38855413D01*
X35976094Y-39083655D01*
X35976096Y-39083659D01*
X35976097Y-39083663D01*
X36000663Y-39136344D01*
X36075965Y-39297830D01*
X36075967Y-39297834D01*
X36211501Y-39491395D01*
X36211506Y-39491402D01*
X36378597Y-39658493D01*
X36378603Y-39658498D01*
X36564158Y-39788425D01*
X36607783Y-39843002D01*
X36614977Y-39912500D01*
X36583454Y-39974855D01*
X36564158Y-39991575D01*
X36378597Y-40121505D01*
X36211505Y-40288597D01*
X36075965Y-40482169D01*
X36075964Y-40482171D01*
X35976098Y-40696335D01*
X35976094Y-40696344D01*
X35914938Y-40924586D01*
X35914936Y-40924596D01*
X35894341Y-41159999D01*
X35894341Y-41160000D01*
X35914936Y-41395403D01*
X35914938Y-41395413D01*
X35976094Y-41623655D01*
X35976096Y-41623659D01*
X35976097Y-41623663D01*
X36000663Y-41676344D01*
X36075965Y-41837830D01*
X36075967Y-41837834D01*
X36211501Y-42031395D01*
X36211506Y-42031402D01*
X36378597Y-42198493D01*
X36378603Y-42198498D01*
X36564158Y-42328425D01*
X36607783Y-42383002D01*
X36614977Y-42452500D01*
X36583454Y-42514855D01*
X36564158Y-42531575D01*
X36378597Y-42661505D01*
X36211505Y-42828597D01*
X36075965Y-43022169D01*
X36075964Y-43022171D01*
X35976098Y-43236335D01*
X35976094Y-43236344D01*
X35914938Y-43464586D01*
X35914936Y-43464596D01*
X35894341Y-43699999D01*
X35894341Y-43700000D01*
X35914936Y-43935403D01*
X35914938Y-43935413D01*
X35976094Y-44163655D01*
X35976096Y-44163659D01*
X35976097Y-44163663D01*
X36000663Y-44216344D01*
X36075965Y-44377830D01*
X36075967Y-44377834D01*
X36211501Y-44571395D01*
X36211506Y-44571402D01*
X36378597Y-44738493D01*
X36378603Y-44738498D01*
X36564158Y-44868425D01*
X36607783Y-44923002D01*
X36614977Y-44992500D01*
X36583454Y-45054855D01*
X36564158Y-45071575D01*
X36378597Y-45201505D01*
X36211505Y-45368597D01*
X36075965Y-45562169D01*
X36075964Y-45562171D01*
X35976098Y-45776335D01*
X35976094Y-45776344D01*
X35914938Y-46004586D01*
X35914936Y-46004596D01*
X35894341Y-46239999D01*
X35894341Y-46240000D01*
X35914936Y-46475403D01*
X35914938Y-46475413D01*
X35976094Y-46703655D01*
X35976096Y-46703659D01*
X35976097Y-46703663D01*
X36075965Y-46917830D01*
X36075967Y-46917834D01*
X36211501Y-47111395D01*
X36211506Y-47111402D01*
X36378597Y-47278493D01*
X36378603Y-47278498D01*
X36564158Y-47408425D01*
X36607783Y-47463002D01*
X36614977Y-47532500D01*
X36583454Y-47594855D01*
X36564158Y-47611575D01*
X36378597Y-47741505D01*
X36211505Y-47908597D01*
X36075965Y-48102169D01*
X36075964Y-48102171D01*
X35976098Y-48316335D01*
X35976094Y-48316344D01*
X35914938Y-48544586D01*
X35914936Y-48544596D01*
X35894341Y-48779999D01*
X35894341Y-48780000D01*
X35914936Y-49015403D01*
X35914938Y-49015413D01*
X35976094Y-49243655D01*
X35976096Y-49243659D01*
X35976097Y-49243663D01*
X36005635Y-49307007D01*
X36075965Y-49457830D01*
X36075967Y-49457834D01*
X36211501Y-49651395D01*
X36211506Y-49651402D01*
X36378597Y-49818493D01*
X36378603Y-49818498D01*
X36564158Y-49948425D01*
X36607783Y-50003002D01*
X36614977Y-50072500D01*
X36583454Y-50134855D01*
X36564158Y-50151575D01*
X36378597Y-50281505D01*
X36211505Y-50448597D01*
X36075965Y-50642169D01*
X36075964Y-50642171D01*
X35976098Y-50856335D01*
X35976094Y-50856344D01*
X35914938Y-51084586D01*
X35914936Y-51084596D01*
X35894341Y-51319999D01*
X35894341Y-51320000D01*
X35914936Y-51555403D01*
X35914938Y-51555413D01*
X35976094Y-51783655D01*
X35976096Y-51783659D01*
X35976097Y-51783663D01*
X36046044Y-51933664D01*
X36075965Y-51997830D01*
X36075967Y-51997834D01*
X36211501Y-52191395D01*
X36211506Y-52191402D01*
X36378597Y-52358493D01*
X36378603Y-52358498D01*
X36564158Y-52488425D01*
X36607783Y-52543002D01*
X36614977Y-52612500D01*
X36583454Y-52674855D01*
X36564158Y-52691575D01*
X36378597Y-52821505D01*
X36211505Y-52988597D01*
X36075965Y-53182169D01*
X36075964Y-53182171D01*
X35976098Y-53396335D01*
X35976094Y-53396344D01*
X35914938Y-53624586D01*
X35914936Y-53624596D01*
X35894341Y-53859999D01*
X35894341Y-53860000D01*
X35914936Y-54095403D01*
X35914938Y-54095413D01*
X35976094Y-54323655D01*
X35976096Y-54323659D01*
X35976097Y-54323663D01*
X36046044Y-54473664D01*
X36075965Y-54537830D01*
X36075967Y-54537834D01*
X36211501Y-54731395D01*
X36211506Y-54731402D01*
X36378597Y-54898493D01*
X36378603Y-54898498D01*
X36564158Y-55028425D01*
X36607783Y-55083002D01*
X36614977Y-55152500D01*
X36583454Y-55214855D01*
X36564158Y-55231575D01*
X36378597Y-55361505D01*
X36211505Y-55528597D01*
X36075965Y-55722169D01*
X36075964Y-55722171D01*
X35976098Y-55936335D01*
X35976094Y-55936344D01*
X35914938Y-56164586D01*
X35914936Y-56164596D01*
X35894341Y-56399999D01*
X35894341Y-56400000D01*
X35914936Y-56635403D01*
X35914938Y-56635413D01*
X35976094Y-56863655D01*
X35976096Y-56863659D01*
X35976097Y-56863663D01*
X36046044Y-57013664D01*
X36075965Y-57077830D01*
X36075967Y-57077834D01*
X36211501Y-57271395D01*
X36211506Y-57271402D01*
X36378597Y-57438493D01*
X36378603Y-57438498D01*
X36564158Y-57568425D01*
X36607783Y-57623002D01*
X36614977Y-57692500D01*
X36583454Y-57754855D01*
X36564158Y-57771575D01*
X36378597Y-57901505D01*
X36211505Y-58068597D01*
X36075965Y-58262169D01*
X36075964Y-58262171D01*
X35976098Y-58476335D01*
X35976094Y-58476344D01*
X35914938Y-58704586D01*
X35914936Y-58704596D01*
X35894341Y-58939999D01*
X35894341Y-58940000D01*
X35914936Y-59175403D01*
X35914938Y-59175413D01*
X35976094Y-59403655D01*
X35976096Y-59403659D01*
X35976097Y-59403663D01*
X36075965Y-59617830D01*
X36075967Y-59617834D01*
X36211501Y-59811395D01*
X36211506Y-59811402D01*
X36378597Y-59978493D01*
X36378603Y-59978498D01*
X36564158Y-60108425D01*
X36607783Y-60163002D01*
X36614977Y-60232500D01*
X36583454Y-60294855D01*
X36564158Y-60311575D01*
X36378597Y-60441505D01*
X36211505Y-60608597D01*
X36075965Y-60802169D01*
X36075964Y-60802171D01*
X35976098Y-61016335D01*
X35976094Y-61016344D01*
X35914938Y-61244586D01*
X35914936Y-61244596D01*
X35894341Y-61479999D01*
X35894341Y-61480000D01*
X35914936Y-61715403D01*
X35914938Y-61715413D01*
X35976094Y-61943655D01*
X35976096Y-61943659D01*
X35976097Y-61943663D01*
X36075965Y-62157830D01*
X36075967Y-62157834D01*
X36211501Y-62351395D01*
X36211506Y-62351402D01*
X36378597Y-62518493D01*
X36378603Y-62518498D01*
X36564158Y-62648425D01*
X36607783Y-62703002D01*
X36614977Y-62772500D01*
X36583454Y-62834855D01*
X36564158Y-62851575D01*
X36378597Y-62981505D01*
X36211505Y-63148597D01*
X36075965Y-63342169D01*
X36075964Y-63342171D01*
X35976098Y-63556335D01*
X35976094Y-63556344D01*
X35914938Y-63784586D01*
X35914936Y-63784596D01*
X35894341Y-64019999D01*
X35894341Y-64020000D01*
X35914936Y-64255403D01*
X35914938Y-64255413D01*
X35976094Y-64483655D01*
X35976096Y-64483659D01*
X35976097Y-64483663D01*
X36002414Y-64540099D01*
X36075965Y-64697830D01*
X36075967Y-64697834D01*
X36211501Y-64891395D01*
X36211506Y-64891402D01*
X36378597Y-65058493D01*
X36378603Y-65058498D01*
X36564158Y-65188425D01*
X36607783Y-65243002D01*
X36614977Y-65312500D01*
X36583454Y-65374855D01*
X36564158Y-65391575D01*
X36378597Y-65521505D01*
X36211505Y-65688597D01*
X36075965Y-65882169D01*
X36075964Y-65882171D01*
X35976098Y-66096335D01*
X35976094Y-66096344D01*
X35914938Y-66324586D01*
X35914936Y-66324596D01*
X35894341Y-66559999D01*
X35894341Y-66560000D01*
X35914936Y-66795403D01*
X35914938Y-66795413D01*
X35976094Y-67023655D01*
X35976096Y-67023659D01*
X35976097Y-67023663D01*
X36032054Y-67143663D01*
X36075965Y-67237830D01*
X36075967Y-67237834D01*
X36211501Y-67431395D01*
X36211506Y-67431402D01*
X36378597Y-67598493D01*
X36378603Y-67598498D01*
X36564158Y-67728425D01*
X36607783Y-67783002D01*
X36614977Y-67852500D01*
X36583454Y-67914855D01*
X36564158Y-67931575D01*
X36378597Y-68061505D01*
X36211505Y-68228597D01*
X36075965Y-68422169D01*
X36075964Y-68422171D01*
X35976098Y-68636335D01*
X35976094Y-68636344D01*
X35914938Y-68864586D01*
X35914936Y-68864596D01*
X35894341Y-69099999D01*
X35894341Y-69100000D01*
X35914936Y-69335403D01*
X35914938Y-69335413D01*
X35976094Y-69563655D01*
X35976096Y-69563659D01*
X35976097Y-69563663D01*
X36032054Y-69683663D01*
X36075965Y-69777830D01*
X36075967Y-69777834D01*
X36211501Y-69971395D01*
X36211506Y-69971402D01*
X36378597Y-70138493D01*
X36378603Y-70138498D01*
X36564158Y-70268425D01*
X36607783Y-70323002D01*
X36614977Y-70392500D01*
X36583454Y-70454855D01*
X36564158Y-70471575D01*
X36378597Y-70601505D01*
X36211505Y-70768597D01*
X36075965Y-70962169D01*
X36075964Y-70962171D01*
X35976098Y-71176335D01*
X35976094Y-71176344D01*
X35914938Y-71404586D01*
X35914936Y-71404596D01*
X35894341Y-71639999D01*
X35894341Y-71640000D01*
X35914936Y-71875403D01*
X35914938Y-71875413D01*
X35976094Y-72103655D01*
X35976096Y-72103659D01*
X35976097Y-72103663D01*
X36032054Y-72223663D01*
X36075965Y-72317830D01*
X36075967Y-72317834D01*
X36131984Y-72397834D01*
X36211505Y-72511401D01*
X36378599Y-72678495D01*
X36475384Y-72746265D01*
X36572165Y-72814032D01*
X36572167Y-72814033D01*
X36572170Y-72814035D01*
X36786337Y-72913903D01*
X37014592Y-72975063D01*
X37202918Y-72991539D01*
X37249999Y-72995659D01*
X37250000Y-72995659D01*
X37250001Y-72995659D01*
X37289234Y-72992226D01*
X37485408Y-72975063D01*
X37713663Y-72913903D01*
X37927830Y-72814035D01*
X38121401Y-72678495D01*
X38288495Y-72511401D01*
X38424035Y-72317830D01*
X38523903Y-72103663D01*
X38585063Y-71875408D01*
X38605659Y-71640000D01*
X38585063Y-71404592D01*
X38523903Y-71176337D01*
X38424035Y-70962171D01*
X38372519Y-70888597D01*
X38288494Y-70768597D01*
X38121402Y-70601506D01*
X38121396Y-70601501D01*
X37935842Y-70471575D01*
X37892217Y-70416998D01*
X37885023Y-70347500D01*
X37916546Y-70285145D01*
X37935842Y-70268425D01*
X38007152Y-70218493D01*
X38121401Y-70138495D01*
X38288495Y-69971401D01*
X38424035Y-69777830D01*
X38523903Y-69563663D01*
X38585063Y-69335408D01*
X38605659Y-69100000D01*
X38585063Y-68864592D01*
X38523903Y-68636337D01*
X38424035Y-68422171D01*
X38372519Y-68348597D01*
X38288494Y-68228597D01*
X38121402Y-68061506D01*
X38121396Y-68061501D01*
X37935842Y-67931575D01*
X37892217Y-67876998D01*
X37885023Y-67807500D01*
X37916546Y-67745145D01*
X37935842Y-67728425D01*
X38007152Y-67678493D01*
X38121401Y-67598495D01*
X38288495Y-67431401D01*
X38424035Y-67237830D01*
X38523903Y-67023663D01*
X38585063Y-66795408D01*
X38605659Y-66560000D01*
X38585063Y-66324592D01*
X38523903Y-66096337D01*
X38424035Y-65882171D01*
X38372521Y-65808600D01*
X38288494Y-65688597D01*
X38121402Y-65521506D01*
X38121396Y-65521501D01*
X37935842Y-65391575D01*
X37892217Y-65336998D01*
X37885023Y-65267500D01*
X37916546Y-65205145D01*
X37935842Y-65188425D01*
X37958026Y-65172891D01*
X38121401Y-65058495D01*
X38288495Y-64891401D01*
X38424035Y-64697830D01*
X38523903Y-64483663D01*
X38585063Y-64255408D01*
X38605659Y-64020000D01*
X38585063Y-63784592D01*
X38523903Y-63556337D01*
X38424035Y-63342171D01*
X38354016Y-63242172D01*
X38288494Y-63148597D01*
X38121402Y-62981506D01*
X38121396Y-62981501D01*
X37935842Y-62851575D01*
X37892217Y-62796998D01*
X37885023Y-62727500D01*
X37916546Y-62665145D01*
X37935842Y-62648425D01*
X37958026Y-62632891D01*
X38121401Y-62518495D01*
X38288495Y-62351401D01*
X38424035Y-62157830D01*
X38523903Y-61943663D01*
X38585063Y-61715408D01*
X38605659Y-61480000D01*
X38585063Y-61244592D01*
X38523903Y-61016337D01*
X38424035Y-60802171D01*
X38288495Y-60608599D01*
X38288494Y-60608597D01*
X38121402Y-60441506D01*
X38121396Y-60441501D01*
X37935842Y-60311575D01*
X37892217Y-60256998D01*
X37885023Y-60187500D01*
X37916546Y-60125145D01*
X37935842Y-60108425D01*
X37958026Y-60092891D01*
X38121401Y-59978495D01*
X38288495Y-59811401D01*
X38424035Y-59617830D01*
X38523903Y-59403663D01*
X38585063Y-59175408D01*
X38605659Y-58940000D01*
X38585063Y-58704592D01*
X38523903Y-58476337D01*
X38424035Y-58262171D01*
X38288495Y-58068599D01*
X38288494Y-58068597D01*
X38121402Y-57901506D01*
X38121396Y-57901501D01*
X37935842Y-57771575D01*
X37892217Y-57716998D01*
X37885023Y-57647500D01*
X37916546Y-57585145D01*
X37935842Y-57568425D01*
X38045852Y-57491395D01*
X38121401Y-57438495D01*
X38288495Y-57271401D01*
X38424035Y-57077830D01*
X38523903Y-56863663D01*
X38585063Y-56635408D01*
X38605659Y-56400000D01*
X38585063Y-56164592D01*
X38523903Y-55936337D01*
X38424035Y-55722171D01*
X38393525Y-55678597D01*
X38288494Y-55528597D01*
X38121402Y-55361506D01*
X38121396Y-55361501D01*
X37935842Y-55231575D01*
X37892217Y-55176998D01*
X37885023Y-55107500D01*
X37916546Y-55045145D01*
X37935842Y-55028425D01*
X38045852Y-54951395D01*
X38121401Y-54898495D01*
X38288495Y-54731401D01*
X38424035Y-54537830D01*
X38523903Y-54323663D01*
X38585063Y-54095408D01*
X38605659Y-53860000D01*
X38585063Y-53624592D01*
X38523903Y-53396337D01*
X38424035Y-53182171D01*
X38393525Y-53138597D01*
X38288494Y-52988597D01*
X38121402Y-52821506D01*
X38121396Y-52821501D01*
X37935842Y-52691575D01*
X37892217Y-52636998D01*
X37885023Y-52567500D01*
X37916546Y-52505145D01*
X37935842Y-52488425D01*
X38045852Y-52411395D01*
X38121401Y-52358495D01*
X38288495Y-52191401D01*
X38424035Y-51997830D01*
X38523903Y-51783663D01*
X38585063Y-51555408D01*
X38605659Y-51320000D01*
X38585063Y-51084592D01*
X38523903Y-50856337D01*
X38424035Y-50642171D01*
X38393527Y-50598600D01*
X38288494Y-50448597D01*
X38121402Y-50281506D01*
X38121396Y-50281501D01*
X37935842Y-50151575D01*
X37892217Y-50096998D01*
X37885023Y-50027500D01*
X37916546Y-49965145D01*
X37935842Y-49948425D01*
X38008103Y-49897827D01*
X38121401Y-49818495D01*
X38288495Y-49651401D01*
X38424035Y-49457830D01*
X38523903Y-49243663D01*
X38585063Y-49015408D01*
X38605659Y-48780000D01*
X38585063Y-48544592D01*
X38523903Y-48316337D01*
X38424035Y-48102171D01*
X38382338Y-48042620D01*
X38288494Y-47908597D01*
X38121402Y-47741506D01*
X38121396Y-47741501D01*
X37935842Y-47611575D01*
X37892217Y-47556998D01*
X37885023Y-47487500D01*
X37916546Y-47425145D01*
X37935842Y-47408425D01*
X37958026Y-47392891D01*
X38121401Y-47278495D01*
X38288495Y-47111401D01*
X38424035Y-46917830D01*
X38523903Y-46703663D01*
X38585063Y-46475408D01*
X38605659Y-46240000D01*
X38585063Y-46004592D01*
X38538626Y-45831285D01*
X38523905Y-45776344D01*
X38523904Y-45776343D01*
X38523903Y-45776337D01*
X38424035Y-45562171D01*
X38416495Y-45551402D01*
X38288494Y-45368597D01*
X38121402Y-45201506D01*
X38121396Y-45201501D01*
X37935842Y-45071575D01*
X37892217Y-45016998D01*
X37885023Y-44947500D01*
X37916546Y-44885145D01*
X37935842Y-44868425D01*
X38104970Y-44750000D01*
X38121401Y-44738495D01*
X38288495Y-44571401D01*
X38424035Y-44377830D01*
X38523903Y-44163663D01*
X38585063Y-43935408D01*
X38605659Y-43700000D01*
X38585063Y-43464592D01*
X38538626Y-43291285D01*
X38523905Y-43236344D01*
X38523904Y-43236343D01*
X38523903Y-43236337D01*
X38424035Y-43022171D01*
X38416495Y-43011402D01*
X38288494Y-42828597D01*
X38121402Y-42661506D01*
X38121396Y-42661501D01*
X37935842Y-42531575D01*
X37892217Y-42476998D01*
X37885023Y-42407500D01*
X37916546Y-42345145D01*
X37935842Y-42328425D01*
X38104970Y-42210000D01*
X38121401Y-42198495D01*
X38288495Y-42031401D01*
X38424035Y-41837830D01*
X38523903Y-41623663D01*
X38585063Y-41395408D01*
X38605659Y-41160000D01*
X38585063Y-40924592D01*
X38538626Y-40751285D01*
X38523905Y-40696344D01*
X38523904Y-40696343D01*
X38523903Y-40696337D01*
X38424035Y-40482171D01*
X38416495Y-40471402D01*
X38288494Y-40288597D01*
X38121402Y-40121506D01*
X38121396Y-40121501D01*
X37935842Y-39991575D01*
X37892217Y-39936998D01*
X37885023Y-39867500D01*
X37916546Y-39805145D01*
X37935842Y-39788425D01*
X38104970Y-39670000D01*
X38121401Y-39658495D01*
X38288495Y-39491401D01*
X38424035Y-39297830D01*
X38523903Y-39083663D01*
X38585063Y-38855408D01*
X38605659Y-38620000D01*
X38585063Y-38384592D01*
X38523903Y-38156337D01*
X38424035Y-37942171D01*
X38288495Y-37748599D01*
X38288494Y-37748597D01*
X38121402Y-37581506D01*
X38121396Y-37581501D01*
X37935842Y-37451575D01*
X37892217Y-37396998D01*
X37885023Y-37327500D01*
X37916546Y-37265145D01*
X37935842Y-37248425D01*
X38110931Y-37125826D01*
X38121401Y-37118495D01*
X38288495Y-36951401D01*
X38424035Y-36757830D01*
X38523903Y-36543663D01*
X38585063Y-36315408D01*
X38605659Y-36080000D01*
X38585063Y-35844592D01*
X38523903Y-35616337D01*
X38424035Y-35402171D01*
X38288495Y-35208599D01*
X38288494Y-35208597D01*
X38121402Y-35041506D01*
X38121396Y-35041501D01*
X37935842Y-34911575D01*
X37892217Y-34856998D01*
X37885023Y-34787500D01*
X37916546Y-34725145D01*
X37935842Y-34708425D01*
X37958026Y-34692891D01*
X38121401Y-34578495D01*
X38288495Y-34411401D01*
X38424035Y-34217830D01*
X38523903Y-34003663D01*
X38585063Y-33775408D01*
X38605659Y-33540000D01*
X38585063Y-33304592D01*
X38523903Y-33076337D01*
X38424035Y-32862171D01*
X38288495Y-32668599D01*
X38288494Y-32668597D01*
X38121402Y-32501506D01*
X38121396Y-32501501D01*
X37935842Y-32371575D01*
X37892217Y-32316998D01*
X37885023Y-32247500D01*
X37916546Y-32185145D01*
X37935842Y-32168425D01*
X38045852Y-32091395D01*
X38121401Y-32038495D01*
X38288495Y-31871401D01*
X38424035Y-31677830D01*
X38523903Y-31463663D01*
X38585063Y-31235408D01*
X38605659Y-31000000D01*
X38585063Y-30764592D01*
X38523903Y-30536337D01*
X38424035Y-30322171D01*
X38325538Y-30181501D01*
X38288494Y-30128597D01*
X38121402Y-29961506D01*
X38121396Y-29961501D01*
X37935842Y-29831575D01*
X37892217Y-29776998D01*
X37885023Y-29707500D01*
X37916546Y-29645145D01*
X37935842Y-29628425D01*
X38045852Y-29551395D01*
X38121401Y-29498495D01*
X38288495Y-29331401D01*
X38424035Y-29137830D01*
X38523903Y-28923663D01*
X38585063Y-28695408D01*
X38605659Y-28460000D01*
X38585063Y-28224592D01*
X38523903Y-27996337D01*
X38424035Y-27782171D01*
X38325538Y-27641501D01*
X38288494Y-27588597D01*
X38121402Y-27421506D01*
X38121396Y-27421501D01*
X37935842Y-27291575D01*
X37892217Y-27236998D01*
X37885023Y-27167500D01*
X37916546Y-27105145D01*
X37935842Y-27088425D01*
X38045852Y-27011395D01*
X38121401Y-26958495D01*
X38288495Y-26791401D01*
X38424035Y-26597830D01*
X38523903Y-26383663D01*
X38585063Y-26155408D01*
X38605659Y-25920000D01*
X38605659Y-25919999D01*
X53629341Y-25919999D01*
X53629341Y-25920000D01*
X53649936Y-26155403D01*
X53649938Y-26155413D01*
X53711094Y-26383655D01*
X53711096Y-26383659D01*
X53711097Y-26383663D01*
X53810965Y-26597830D01*
X53810967Y-26597834D01*
X53946501Y-26791395D01*
X53946506Y-26791402D01*
X54113597Y-26958493D01*
X54113603Y-26958498D01*
X54299158Y-27088425D01*
X54342783Y-27143002D01*
X54349977Y-27212500D01*
X54318454Y-27274855D01*
X54299158Y-27291575D01*
X54113597Y-27421505D01*
X53946505Y-27588597D01*
X53810965Y-27782169D01*
X53810964Y-27782171D01*
X53711098Y-27996335D01*
X53711094Y-27996344D01*
X53649938Y-28224586D01*
X53649936Y-28224596D01*
X53629341Y-28459999D01*
X53629341Y-28460000D01*
X53649936Y-28695403D01*
X53649938Y-28695413D01*
X53711094Y-28923655D01*
X53711096Y-28923659D01*
X53711097Y-28923663D01*
X53810965Y-29137830D01*
X53810967Y-29137834D01*
X53946501Y-29331395D01*
X53946506Y-29331402D01*
X54113597Y-29498493D01*
X54113603Y-29498498D01*
X54299158Y-29628425D01*
X54342783Y-29683002D01*
X54349977Y-29752500D01*
X54318454Y-29814855D01*
X54299158Y-29831575D01*
X54113597Y-29961505D01*
X53946505Y-30128597D01*
X53810965Y-30322169D01*
X53810964Y-30322171D01*
X53711098Y-30536335D01*
X53711094Y-30536344D01*
X53649938Y-30764586D01*
X53649936Y-30764596D01*
X53629341Y-30999999D01*
X53629341Y-31000000D01*
X53649936Y-31235403D01*
X53649938Y-31235413D01*
X53711094Y-31463655D01*
X53711096Y-31463659D01*
X53711097Y-31463663D01*
X53810965Y-31677830D01*
X53810967Y-31677834D01*
X53946501Y-31871395D01*
X53946506Y-31871402D01*
X54113597Y-32038493D01*
X54113603Y-32038498D01*
X54299158Y-32168425D01*
X54342783Y-32223002D01*
X54349977Y-32292500D01*
X54318454Y-32354855D01*
X54299158Y-32371575D01*
X54113597Y-32501505D01*
X53946505Y-32668597D01*
X53810965Y-32862169D01*
X53810964Y-32862171D01*
X53711098Y-33076335D01*
X53711094Y-33076344D01*
X53649938Y-33304586D01*
X53649936Y-33304596D01*
X53629341Y-33539999D01*
X53629341Y-33540000D01*
X53649936Y-33775403D01*
X53649938Y-33775413D01*
X53711094Y-34003655D01*
X53711096Y-34003659D01*
X53711097Y-34003663D01*
X53810965Y-34217830D01*
X53810967Y-34217834D01*
X53946501Y-34411395D01*
X53946506Y-34411402D01*
X54113597Y-34578493D01*
X54113603Y-34578498D01*
X54299158Y-34708425D01*
X54342783Y-34763002D01*
X54349977Y-34832500D01*
X54318454Y-34894855D01*
X54299158Y-34911575D01*
X54113597Y-35041505D01*
X53946505Y-35208597D01*
X53810965Y-35402169D01*
X53810964Y-35402171D01*
X53711098Y-35616335D01*
X53711094Y-35616344D01*
X53649938Y-35844586D01*
X53649936Y-35844596D01*
X53629341Y-36079999D01*
X53629341Y-36080000D01*
X53649936Y-36315403D01*
X53649938Y-36315413D01*
X53711094Y-36543655D01*
X53711096Y-36543659D01*
X53711097Y-36543663D01*
X53808709Y-36752993D01*
X53810965Y-36757830D01*
X53810967Y-36757834D01*
X53946501Y-36951395D01*
X53946506Y-36951402D01*
X54113597Y-37118493D01*
X54113603Y-37118498D01*
X54299158Y-37248425D01*
X54342783Y-37303002D01*
X54349977Y-37372500D01*
X54318454Y-37434855D01*
X54299158Y-37451575D01*
X54113597Y-37581505D01*
X53946505Y-37748597D01*
X53810965Y-37942169D01*
X53810964Y-37942171D01*
X53711098Y-38156335D01*
X53711094Y-38156344D01*
X53649938Y-38384586D01*
X53649936Y-38384596D01*
X53629341Y-38619999D01*
X53629341Y-38620000D01*
X53649936Y-38855403D01*
X53649938Y-38855413D01*
X53711094Y-39083655D01*
X53711096Y-39083659D01*
X53711097Y-39083663D01*
X53735663Y-39136344D01*
X53810965Y-39297830D01*
X53810967Y-39297834D01*
X53946501Y-39491395D01*
X53946506Y-39491402D01*
X54113597Y-39658493D01*
X54113603Y-39658498D01*
X54299158Y-39788425D01*
X54342783Y-39843002D01*
X54349977Y-39912500D01*
X54318454Y-39974855D01*
X54299158Y-39991575D01*
X54113597Y-40121505D01*
X53946505Y-40288597D01*
X53810965Y-40482169D01*
X53810964Y-40482171D01*
X53711098Y-40696335D01*
X53711094Y-40696344D01*
X53649938Y-40924586D01*
X53649936Y-40924596D01*
X53629341Y-41159999D01*
X53629341Y-41160000D01*
X53649936Y-41395403D01*
X53649938Y-41395413D01*
X53711094Y-41623655D01*
X53711096Y-41623659D01*
X53711097Y-41623663D01*
X53735663Y-41676344D01*
X53810965Y-41837830D01*
X53810967Y-41837834D01*
X53946501Y-42031395D01*
X53946506Y-42031402D01*
X54113597Y-42198493D01*
X54113603Y-42198498D01*
X54299158Y-42328425D01*
X54342783Y-42383002D01*
X54349977Y-42452500D01*
X54318454Y-42514855D01*
X54299158Y-42531575D01*
X54113597Y-42661505D01*
X53946505Y-42828597D01*
X53810965Y-43022169D01*
X53810964Y-43022171D01*
X53711098Y-43236335D01*
X53711094Y-43236344D01*
X53649938Y-43464586D01*
X53649936Y-43464596D01*
X53629341Y-43699999D01*
X53629341Y-43700000D01*
X53649936Y-43935403D01*
X53649938Y-43935413D01*
X53711094Y-44163655D01*
X53711096Y-44163659D01*
X53711097Y-44163663D01*
X53735663Y-44216344D01*
X53810965Y-44377830D01*
X53810967Y-44377834D01*
X53946501Y-44571395D01*
X53946506Y-44571402D01*
X54113597Y-44738493D01*
X54113603Y-44738498D01*
X54299158Y-44868425D01*
X54342783Y-44923002D01*
X54349977Y-44992500D01*
X54318454Y-45054855D01*
X54299158Y-45071575D01*
X54113597Y-45201505D01*
X53946505Y-45368597D01*
X53810965Y-45562169D01*
X53810964Y-45562171D01*
X53711098Y-45776335D01*
X53711094Y-45776344D01*
X53649938Y-46004586D01*
X53649936Y-46004596D01*
X53629341Y-46239999D01*
X53629341Y-46240000D01*
X53649936Y-46475403D01*
X53649938Y-46475413D01*
X53711094Y-46703655D01*
X53711096Y-46703659D01*
X53711097Y-46703663D01*
X53810965Y-46917830D01*
X53810967Y-46917834D01*
X53946501Y-47111395D01*
X53946506Y-47111402D01*
X54113597Y-47278493D01*
X54113603Y-47278498D01*
X54299158Y-47408425D01*
X54342783Y-47463002D01*
X54349977Y-47532500D01*
X54318454Y-47594855D01*
X54299158Y-47611575D01*
X54113597Y-47741505D01*
X53946505Y-47908597D01*
X53810965Y-48102169D01*
X53810964Y-48102171D01*
X53711098Y-48316335D01*
X53711094Y-48316344D01*
X53649938Y-48544586D01*
X53649936Y-48544596D01*
X53629341Y-48779999D01*
X53629341Y-48780000D01*
X53649936Y-49015403D01*
X53649938Y-49015413D01*
X53711094Y-49243655D01*
X53711096Y-49243659D01*
X53711097Y-49243663D01*
X53740635Y-49307007D01*
X53810965Y-49457830D01*
X53810967Y-49457834D01*
X53946501Y-49651395D01*
X53946506Y-49651402D01*
X54113597Y-49818493D01*
X54113603Y-49818498D01*
X54299158Y-49948425D01*
X54342783Y-50003002D01*
X54349977Y-50072500D01*
X54318454Y-50134855D01*
X54299158Y-50151575D01*
X54113597Y-50281505D01*
X53946505Y-50448597D01*
X53810965Y-50642169D01*
X53810964Y-50642171D01*
X53711098Y-50856335D01*
X53711094Y-50856344D01*
X53649938Y-51084586D01*
X53649936Y-51084596D01*
X53629341Y-51319999D01*
X53629341Y-51320000D01*
X53649936Y-51555403D01*
X53649938Y-51555413D01*
X53711094Y-51783655D01*
X53711096Y-51783659D01*
X53711097Y-51783663D01*
X53781044Y-51933664D01*
X53810965Y-51997830D01*
X53810967Y-51997834D01*
X53946501Y-52191395D01*
X53946506Y-52191402D01*
X54113597Y-52358493D01*
X54113603Y-52358498D01*
X54299158Y-52488425D01*
X54342783Y-52543002D01*
X54349977Y-52612500D01*
X54318454Y-52674855D01*
X54299158Y-52691575D01*
X54113597Y-52821505D01*
X53946505Y-52988597D01*
X53810965Y-53182169D01*
X53810964Y-53182171D01*
X53711098Y-53396335D01*
X53711094Y-53396344D01*
X53649938Y-53624586D01*
X53649936Y-53624596D01*
X53629341Y-53859999D01*
X53629341Y-53860000D01*
X53649936Y-54095403D01*
X53649938Y-54095413D01*
X53711094Y-54323655D01*
X53711096Y-54323659D01*
X53711097Y-54323663D01*
X53781044Y-54473664D01*
X53810965Y-54537830D01*
X53810967Y-54537834D01*
X53946501Y-54731395D01*
X53946506Y-54731402D01*
X54113597Y-54898493D01*
X54113603Y-54898498D01*
X54299158Y-55028425D01*
X54342783Y-55083002D01*
X54349977Y-55152500D01*
X54318454Y-55214855D01*
X54299158Y-55231575D01*
X54113597Y-55361505D01*
X53946505Y-55528597D01*
X53810965Y-55722169D01*
X53810964Y-55722171D01*
X53711098Y-55936335D01*
X53711094Y-55936344D01*
X53649938Y-56164586D01*
X53649936Y-56164596D01*
X53629341Y-56399999D01*
X53629341Y-56400000D01*
X53649936Y-56635403D01*
X53649938Y-56635413D01*
X53711094Y-56863655D01*
X53711096Y-56863659D01*
X53711097Y-56863663D01*
X53781044Y-57013664D01*
X53810965Y-57077830D01*
X53810967Y-57077834D01*
X53946501Y-57271395D01*
X53946506Y-57271402D01*
X54113597Y-57438493D01*
X54113603Y-57438498D01*
X54299158Y-57568425D01*
X54342783Y-57623002D01*
X54349977Y-57692500D01*
X54318454Y-57754855D01*
X54299158Y-57771575D01*
X54113597Y-57901505D01*
X53946505Y-58068597D01*
X53810965Y-58262169D01*
X53810964Y-58262171D01*
X53711098Y-58476335D01*
X53711094Y-58476344D01*
X53649938Y-58704586D01*
X53649936Y-58704596D01*
X53629341Y-58939999D01*
X53629341Y-58940000D01*
X53649936Y-59175403D01*
X53649938Y-59175413D01*
X53711094Y-59403655D01*
X53711096Y-59403659D01*
X53711097Y-59403663D01*
X53810965Y-59617830D01*
X53810967Y-59617834D01*
X53946501Y-59811395D01*
X53946506Y-59811402D01*
X54113597Y-59978493D01*
X54113603Y-59978498D01*
X54299158Y-60108425D01*
X54342783Y-60163002D01*
X54349977Y-60232500D01*
X54318454Y-60294855D01*
X54299158Y-60311575D01*
X54113597Y-60441505D01*
X53946505Y-60608597D01*
X53810965Y-60802169D01*
X53810964Y-60802171D01*
X53711098Y-61016335D01*
X53711094Y-61016344D01*
X53649938Y-61244586D01*
X53649936Y-61244596D01*
X53629341Y-61479999D01*
X53629341Y-61480000D01*
X53649936Y-61715403D01*
X53649938Y-61715413D01*
X53711094Y-61943655D01*
X53711096Y-61943659D01*
X53711097Y-61943663D01*
X53810965Y-62157830D01*
X53810967Y-62157834D01*
X53946501Y-62351395D01*
X53946506Y-62351402D01*
X54113597Y-62518493D01*
X54113603Y-62518498D01*
X54299158Y-62648425D01*
X54342783Y-62703002D01*
X54349977Y-62772500D01*
X54318454Y-62834855D01*
X54299158Y-62851575D01*
X54113597Y-62981505D01*
X53946505Y-63148597D01*
X53810965Y-63342169D01*
X53810964Y-63342171D01*
X53711098Y-63556335D01*
X53711094Y-63556344D01*
X53649938Y-63784586D01*
X53649936Y-63784596D01*
X53629341Y-64019999D01*
X53629341Y-64020000D01*
X53649936Y-64255403D01*
X53649938Y-64255413D01*
X53711094Y-64483655D01*
X53711096Y-64483659D01*
X53711097Y-64483663D01*
X53737414Y-64540099D01*
X53810965Y-64697830D01*
X53810967Y-64697834D01*
X53946501Y-64891395D01*
X53946506Y-64891402D01*
X54113597Y-65058493D01*
X54113603Y-65058498D01*
X54299158Y-65188425D01*
X54342783Y-65243002D01*
X54349977Y-65312500D01*
X54318454Y-65374855D01*
X54299158Y-65391575D01*
X54113597Y-65521505D01*
X53946505Y-65688597D01*
X53810965Y-65882169D01*
X53810964Y-65882171D01*
X53711098Y-66096335D01*
X53711094Y-66096344D01*
X53649938Y-66324586D01*
X53649936Y-66324596D01*
X53629341Y-66559999D01*
X53629341Y-66560000D01*
X53649936Y-66795403D01*
X53649938Y-66795413D01*
X53711094Y-67023655D01*
X53711096Y-67023659D01*
X53711097Y-67023663D01*
X53767054Y-67143663D01*
X53810965Y-67237830D01*
X53810967Y-67237834D01*
X53946501Y-67431395D01*
X53946506Y-67431402D01*
X54113597Y-67598493D01*
X54113603Y-67598498D01*
X54299158Y-67728425D01*
X54342783Y-67783002D01*
X54349977Y-67852500D01*
X54318454Y-67914855D01*
X54299158Y-67931575D01*
X54113597Y-68061505D01*
X53946505Y-68228597D01*
X53810965Y-68422169D01*
X53810964Y-68422171D01*
X53711098Y-68636335D01*
X53711094Y-68636344D01*
X53649938Y-68864586D01*
X53649936Y-68864596D01*
X53629341Y-69099999D01*
X53629341Y-69100000D01*
X53649936Y-69335403D01*
X53649938Y-69335413D01*
X53711094Y-69563655D01*
X53711096Y-69563659D01*
X53711097Y-69563663D01*
X53767054Y-69683663D01*
X53810965Y-69777830D01*
X53810967Y-69777834D01*
X53946501Y-69971395D01*
X53946506Y-69971402D01*
X54113597Y-70138493D01*
X54113603Y-70138498D01*
X54299158Y-70268425D01*
X54342783Y-70323002D01*
X54349977Y-70392500D01*
X54318454Y-70454855D01*
X54299158Y-70471575D01*
X54113597Y-70601505D01*
X53946505Y-70768597D01*
X53810965Y-70962169D01*
X53810964Y-70962171D01*
X53711098Y-71176335D01*
X53711094Y-71176344D01*
X53649938Y-71404586D01*
X53649936Y-71404596D01*
X53629341Y-71639999D01*
X53629341Y-71640000D01*
X53649936Y-71875403D01*
X53649938Y-71875413D01*
X53711094Y-72103655D01*
X53711096Y-72103659D01*
X53711097Y-72103663D01*
X53767054Y-72223663D01*
X53810965Y-72317830D01*
X53810967Y-72317834D01*
X53866984Y-72397834D01*
X53946505Y-72511401D01*
X54113599Y-72678495D01*
X54210384Y-72746265D01*
X54307165Y-72814032D01*
X54307167Y-72814033D01*
X54307170Y-72814035D01*
X54521337Y-72913903D01*
X54749592Y-72975063D01*
X54937918Y-72991539D01*
X54984999Y-72995659D01*
X54985000Y-72995659D01*
X54985001Y-72995659D01*
X55024234Y-72992226D01*
X55220408Y-72975063D01*
X55448663Y-72913903D01*
X55662830Y-72814035D01*
X55856401Y-72678495D01*
X56023495Y-72511401D01*
X56159035Y-72317830D01*
X56258903Y-72103663D01*
X56320063Y-71875408D01*
X56340659Y-71640000D01*
X56320063Y-71404592D01*
X56258903Y-71176337D01*
X56159035Y-70962171D01*
X56107519Y-70888597D01*
X56023494Y-70768597D01*
X55856402Y-70601506D01*
X55856396Y-70601501D01*
X55670842Y-70471575D01*
X55627217Y-70416998D01*
X55620023Y-70347500D01*
X55651546Y-70285145D01*
X55670842Y-70268425D01*
X55742152Y-70218493D01*
X55856401Y-70138495D01*
X56023495Y-69971401D01*
X56159035Y-69777830D01*
X56258903Y-69563663D01*
X56320063Y-69335408D01*
X56340659Y-69100000D01*
X56320063Y-68864592D01*
X56258903Y-68636337D01*
X56159035Y-68422171D01*
X56107519Y-68348597D01*
X56023494Y-68228597D01*
X55856402Y-68061506D01*
X55856396Y-68061501D01*
X55670842Y-67931575D01*
X55627217Y-67876998D01*
X55620023Y-67807500D01*
X55651546Y-67745145D01*
X55670842Y-67728425D01*
X55742152Y-67678493D01*
X55856401Y-67598495D01*
X56023495Y-67431401D01*
X56159035Y-67237830D01*
X56258903Y-67023663D01*
X56320063Y-66795408D01*
X56340659Y-66560000D01*
X56320063Y-66324592D01*
X56258903Y-66096337D01*
X56159035Y-65882171D01*
X56107521Y-65808600D01*
X56023494Y-65688597D01*
X55856402Y-65521506D01*
X55856396Y-65521501D01*
X55670842Y-65391575D01*
X55627217Y-65336998D01*
X55620023Y-65267500D01*
X55651546Y-65205145D01*
X55670842Y-65188425D01*
X55693026Y-65172891D01*
X55856401Y-65058495D01*
X56023495Y-64891401D01*
X56159035Y-64697830D01*
X56258903Y-64483663D01*
X56320063Y-64255408D01*
X56340659Y-64020000D01*
X56320063Y-63784592D01*
X56258903Y-63556337D01*
X56159035Y-63342171D01*
X56089016Y-63242172D01*
X56023494Y-63148597D01*
X55856402Y-62981506D01*
X55856396Y-62981501D01*
X55670842Y-62851575D01*
X55627217Y-62796998D01*
X55620023Y-62727500D01*
X55651546Y-62665145D01*
X55670842Y-62648425D01*
X55693026Y-62632891D01*
X55856401Y-62518495D01*
X56023495Y-62351401D01*
X56159035Y-62157830D01*
X56258903Y-61943663D01*
X56320063Y-61715408D01*
X56340659Y-61480000D01*
X56320063Y-61244592D01*
X56258903Y-61016337D01*
X56159035Y-60802171D01*
X56023495Y-60608599D01*
X56023494Y-60608597D01*
X55856402Y-60441506D01*
X55856396Y-60441501D01*
X55670842Y-60311575D01*
X55627217Y-60256998D01*
X55620023Y-60187500D01*
X55651546Y-60125145D01*
X55670842Y-60108425D01*
X55693026Y-60092891D01*
X55856401Y-59978495D01*
X56023495Y-59811401D01*
X56159035Y-59617830D01*
X56258903Y-59403663D01*
X56320063Y-59175408D01*
X56340659Y-58940000D01*
X56320063Y-58704592D01*
X56258903Y-58476337D01*
X56159035Y-58262171D01*
X56023495Y-58068599D01*
X56023494Y-58068597D01*
X55856402Y-57901506D01*
X55856396Y-57901501D01*
X55670842Y-57771575D01*
X55627217Y-57716998D01*
X55620023Y-57647500D01*
X55651546Y-57585145D01*
X55670842Y-57568425D01*
X55780852Y-57491395D01*
X55856401Y-57438495D01*
X56023495Y-57271401D01*
X56159035Y-57077830D01*
X56258903Y-56863663D01*
X56320063Y-56635408D01*
X56340659Y-56400000D01*
X56320063Y-56164592D01*
X56258903Y-55936337D01*
X56159035Y-55722171D01*
X56128525Y-55678597D01*
X56023494Y-55528597D01*
X55856402Y-55361506D01*
X55856396Y-55361501D01*
X55670842Y-55231575D01*
X55627217Y-55176998D01*
X55620023Y-55107500D01*
X55651546Y-55045145D01*
X55670842Y-55028425D01*
X55780852Y-54951395D01*
X55856401Y-54898495D01*
X56023495Y-54731401D01*
X56159035Y-54537830D01*
X56258903Y-54323663D01*
X56320063Y-54095408D01*
X56340659Y-53860000D01*
X56320063Y-53624592D01*
X56258903Y-53396337D01*
X56159035Y-53182171D01*
X56128525Y-53138597D01*
X56023494Y-52988597D01*
X55856402Y-52821506D01*
X55856396Y-52821501D01*
X55670842Y-52691575D01*
X55627217Y-52636998D01*
X55620023Y-52567500D01*
X55651546Y-52505145D01*
X55670842Y-52488425D01*
X55780852Y-52411395D01*
X55856401Y-52358495D01*
X56023495Y-52191401D01*
X56159035Y-51997830D01*
X56258903Y-51783663D01*
X56320063Y-51555408D01*
X56340659Y-51320000D01*
X56320063Y-51084592D01*
X56258903Y-50856337D01*
X56159035Y-50642171D01*
X56128527Y-50598600D01*
X56023494Y-50448597D01*
X55856402Y-50281506D01*
X55856396Y-50281501D01*
X55670842Y-50151575D01*
X55627217Y-50096998D01*
X55620023Y-50027500D01*
X55651546Y-49965145D01*
X55670842Y-49948425D01*
X55743103Y-49897827D01*
X55856401Y-49818495D01*
X56023495Y-49651401D01*
X56159035Y-49457830D01*
X56258903Y-49243663D01*
X56320063Y-49015408D01*
X56340659Y-48780000D01*
X56320063Y-48544592D01*
X56258903Y-48316337D01*
X56159035Y-48102171D01*
X56117338Y-48042620D01*
X56023494Y-47908597D01*
X55856402Y-47741506D01*
X55856396Y-47741501D01*
X55670842Y-47611575D01*
X55627217Y-47556998D01*
X55620023Y-47487500D01*
X55651546Y-47425145D01*
X55670842Y-47408425D01*
X55693026Y-47392891D01*
X55856401Y-47278495D01*
X56023495Y-47111401D01*
X56159035Y-46917830D01*
X56258903Y-46703663D01*
X56320063Y-46475408D01*
X56340659Y-46240000D01*
X56320063Y-46004592D01*
X56273626Y-45831285D01*
X56258905Y-45776344D01*
X56258904Y-45776343D01*
X56258903Y-45776337D01*
X56159035Y-45562171D01*
X56151495Y-45551402D01*
X56023494Y-45368597D01*
X55856402Y-45201506D01*
X55856396Y-45201501D01*
X55670842Y-45071575D01*
X55627217Y-45016998D01*
X55620023Y-44947500D01*
X55651546Y-44885145D01*
X55670842Y-44868425D01*
X55839970Y-44750000D01*
X55856401Y-44738495D01*
X56023495Y-44571401D01*
X56159035Y-44377830D01*
X56258903Y-44163663D01*
X56320063Y-43935408D01*
X56340659Y-43700000D01*
X56320063Y-43464592D01*
X56273626Y-43291285D01*
X56258905Y-43236344D01*
X56258904Y-43236343D01*
X56258903Y-43236337D01*
X56159035Y-43022171D01*
X56151495Y-43011402D01*
X56023494Y-42828597D01*
X55856402Y-42661506D01*
X55856396Y-42661501D01*
X55670842Y-42531575D01*
X55627217Y-42476998D01*
X55620023Y-42407500D01*
X55651546Y-42345145D01*
X55670842Y-42328425D01*
X55839970Y-42210000D01*
X55856401Y-42198495D01*
X56023495Y-42031401D01*
X56159035Y-41837830D01*
X56258903Y-41623663D01*
X56320063Y-41395408D01*
X56340659Y-41160000D01*
X56320063Y-40924592D01*
X56273626Y-40751285D01*
X56258905Y-40696344D01*
X56258904Y-40696343D01*
X56258903Y-40696337D01*
X56159035Y-40482171D01*
X56151495Y-40471402D01*
X56023494Y-40288597D01*
X55856402Y-40121506D01*
X55856396Y-40121501D01*
X55670842Y-39991575D01*
X55627217Y-39936998D01*
X55620023Y-39867500D01*
X55651546Y-39805145D01*
X55670842Y-39788425D01*
X55839970Y-39670000D01*
X55856401Y-39658495D01*
X56023495Y-39491401D01*
X56159035Y-39297830D01*
X56258903Y-39083663D01*
X56320063Y-38855408D01*
X56340659Y-38620000D01*
X56320063Y-38384592D01*
X56258903Y-38156337D01*
X56159035Y-37942171D01*
X56023495Y-37748599D01*
X56023494Y-37748597D01*
X55856402Y-37581506D01*
X55856396Y-37581501D01*
X55670842Y-37451575D01*
X55627217Y-37396998D01*
X55620023Y-37327500D01*
X55651546Y-37265145D01*
X55670842Y-37248425D01*
X55845931Y-37125826D01*
X55856401Y-37118495D01*
X56023495Y-36951401D01*
X56159035Y-36757830D01*
X56258903Y-36543663D01*
X56320063Y-36315408D01*
X56340659Y-36080000D01*
X56320063Y-35844592D01*
X56258903Y-35616337D01*
X56159035Y-35402171D01*
X56023495Y-35208599D01*
X56023494Y-35208597D01*
X55856402Y-35041506D01*
X55856396Y-35041501D01*
X55670842Y-34911575D01*
X55627217Y-34856998D01*
X55620023Y-34787500D01*
X55651546Y-34725145D01*
X55670842Y-34708425D01*
X55693026Y-34692891D01*
X55856401Y-34578495D01*
X56023495Y-34411401D01*
X56159035Y-34217830D01*
X56258903Y-34003663D01*
X56320063Y-33775408D01*
X56340659Y-33540000D01*
X56320063Y-33304592D01*
X56258903Y-33076337D01*
X56159035Y-32862171D01*
X56023495Y-32668599D01*
X56023494Y-32668597D01*
X55856402Y-32501506D01*
X55856396Y-32501501D01*
X55670842Y-32371575D01*
X55627217Y-32316998D01*
X55620023Y-32247500D01*
X55651546Y-32185145D01*
X55670842Y-32168425D01*
X55780852Y-32091395D01*
X55856401Y-32038495D01*
X56023495Y-31871401D01*
X56159035Y-31677830D01*
X56258903Y-31463663D01*
X56320063Y-31235408D01*
X56340659Y-31000000D01*
X56320063Y-30764592D01*
X56258903Y-30536337D01*
X56159035Y-30322171D01*
X56060538Y-30181501D01*
X56023494Y-30128597D01*
X55856402Y-29961506D01*
X55856396Y-29961501D01*
X55670842Y-29831575D01*
X55627217Y-29776998D01*
X55620023Y-29707500D01*
X55651546Y-29645145D01*
X55670842Y-29628425D01*
X55780852Y-29551395D01*
X55856401Y-29498495D01*
X56023495Y-29331401D01*
X56159035Y-29137830D01*
X56258903Y-28923663D01*
X56320063Y-28695408D01*
X56340659Y-28460000D01*
X56320063Y-28224592D01*
X56258903Y-27996337D01*
X56159035Y-27782171D01*
X56060538Y-27641501D01*
X56023494Y-27588597D01*
X55856402Y-27421506D01*
X55856396Y-27421501D01*
X55670842Y-27291575D01*
X55627217Y-27236998D01*
X55620023Y-27167500D01*
X55651546Y-27105145D01*
X55670842Y-27088425D01*
X55780852Y-27011395D01*
X55856401Y-26958495D01*
X56023495Y-26791401D01*
X56159035Y-26597830D01*
X56258903Y-26383663D01*
X56320063Y-26155408D01*
X56340659Y-25920000D01*
X56320063Y-25684592D01*
X56258903Y-25456337D01*
X56159035Y-25242171D01*
X56091894Y-25146284D01*
X56023496Y-25048600D01*
X55990167Y-25015271D01*
X55901179Y-24926283D01*
X55867696Y-24864963D01*
X55872680Y-24795271D01*
X55914551Y-24739337D01*
X55945529Y-24722422D01*
X56077086Y-24673354D01*
X56077093Y-24673350D01*
X56192187Y-24587190D01*
X56192190Y-24587187D01*
X56278350Y-24472093D01*
X56278354Y-24472086D01*
X56328596Y-24337379D01*
X56328598Y-24337372D01*
X56334999Y-24277844D01*
X56335000Y-24277827D01*
X56335000Y-23630000D01*
X55418012Y-23630000D01*
X55450925Y-23572993D01*
X55485000Y-23445826D01*
X55485000Y-23314174D01*
X55450925Y-23187007D01*
X55418012Y-23130000D01*
X56335000Y-23130000D01*
X56335000Y-22482172D01*
X56334999Y-22482155D01*
X56328598Y-22422627D01*
X56328596Y-22422620D01*
X56278354Y-22287913D01*
X56278350Y-22287906D01*
X56192190Y-22172812D01*
X56192187Y-22172809D01*
X56077093Y-22086649D01*
X56077086Y-22086645D01*
X55942379Y-22036403D01*
X55942372Y-22036401D01*
X55882844Y-22030000D01*
X55235000Y-22030000D01*
X55235000Y-22946988D01*
X55177993Y-22914075D01*
X55050826Y-22880000D01*
X54919174Y-22880000D01*
X54792007Y-22914075D01*
X54735000Y-22946988D01*
X54735000Y-22030000D01*
X54087155Y-22030000D01*
X54027627Y-22036401D01*
X54027620Y-22036403D01*
X53892913Y-22086645D01*
X53892906Y-22086649D01*
X53777812Y-22172809D01*
X53777809Y-22172812D01*
X53691649Y-22287906D01*
X53691645Y-22287913D01*
X53641403Y-22422620D01*
X53641401Y-22422627D01*
X53635000Y-22482155D01*
X53635000Y-23130000D01*
X54551988Y-23130000D01*
X54519075Y-23187007D01*
X54485000Y-23314174D01*
X54485000Y-23445826D01*
X54519075Y-23572993D01*
X54551988Y-23630000D01*
X53635000Y-23630000D01*
X53635000Y-24277844D01*
X53641401Y-24337372D01*
X53641403Y-24337379D01*
X53691645Y-24472086D01*
X53691649Y-24472093D01*
X53777809Y-24587187D01*
X53777812Y-24587190D01*
X53892906Y-24673350D01*
X53892913Y-24673354D01*
X54024470Y-24722421D01*
X54080403Y-24764292D01*
X54104821Y-24829756D01*
X54089970Y-24898029D01*
X54068819Y-24926284D01*
X53946503Y-25048600D01*
X53810965Y-25242169D01*
X53810964Y-25242171D01*
X53711098Y-25456335D01*
X53711094Y-25456344D01*
X53649938Y-25684586D01*
X53649936Y-25684596D01*
X53629341Y-25919999D01*
X38605659Y-25919999D01*
X38585063Y-25684592D01*
X38523903Y-25456337D01*
X38424035Y-25242171D01*
X38356894Y-25146284D01*
X38288496Y-25048600D01*
X38255167Y-25015271D01*
X38166567Y-24926671D01*
X38133084Y-24865351D01*
X38138068Y-24795659D01*
X38179939Y-24739725D01*
X38210915Y-24722810D01*
X38342331Y-24673796D01*
X38457546Y-24587546D01*
X38543796Y-24472331D01*
X38594091Y-24337483D01*
X38600500Y-24277873D01*
X38600499Y-22482128D01*
X38594091Y-22422517D01*
X38543884Y-22287906D01*
X38543797Y-22287671D01*
X38543793Y-22287664D01*
X38457547Y-22172455D01*
X38457544Y-22172452D01*
X38342335Y-22086206D01*
X38342328Y-22086202D01*
X38207482Y-22035908D01*
X38207483Y-22035908D01*
X38147883Y-22029501D01*
X38147881Y-22029500D01*
X38147873Y-22029500D01*
X38147864Y-22029500D01*
X36352129Y-22029500D01*
X36352123Y-22029501D01*
X36292516Y-22035908D01*
X36157671Y-22086202D01*
X36157664Y-22086206D01*
X36042455Y-22172452D01*
X36042452Y-22172455D01*
X35956206Y-22287664D01*
X35956202Y-22287671D01*
X35905908Y-22422517D01*
X35899501Y-22482116D01*
X35899501Y-22482123D01*
X35899500Y-22482135D01*
X35899500Y-24277870D01*
X35899501Y-24277876D01*
X35905908Y-24337483D01*
X35956202Y-24472328D01*
X35956206Y-24472335D01*
X36042452Y-24587544D01*
X36042455Y-24587547D01*
X36157664Y-24673793D01*
X36157671Y-24673797D01*
X36289081Y-24722810D01*
X36345015Y-24764681D01*
X36369432Y-24830145D01*
X36354580Y-24898418D01*
X36333430Y-24926673D01*
X36211503Y-25048600D01*
X36075965Y-25242169D01*
X36075964Y-25242171D01*
X35976098Y-25456335D01*
X35976094Y-25456344D01*
X35914938Y-25684586D01*
X35914936Y-25684596D01*
X35894341Y-25919999D01*
X28586411Y-25919999D01*
X28585063Y-25904592D01*
X28523903Y-25676337D01*
X28424035Y-25462171D01*
X28288495Y-25268599D01*
X28166179Y-25146283D01*
X28132696Y-25084963D01*
X28137680Y-25015271D01*
X28179551Y-24959337D01*
X28210529Y-24942422D01*
X28342086Y-24893354D01*
X28342093Y-24893350D01*
X28457187Y-24807190D01*
X28457190Y-24807187D01*
X28543350Y-24692093D01*
X28543354Y-24692086D01*
X28593596Y-24557379D01*
X28593598Y-24557372D01*
X28599999Y-24497844D01*
X28600000Y-24497827D01*
X28600000Y-23850000D01*
X27683012Y-23850000D01*
X27715925Y-23792993D01*
X27750000Y-23665826D01*
X27750000Y-23534174D01*
X27715925Y-23407007D01*
X27683012Y-23350000D01*
X28600000Y-23350000D01*
X28600000Y-22702172D01*
X28599999Y-22702155D01*
X28593598Y-22642627D01*
X28593596Y-22642620D01*
X28543354Y-22507913D01*
X28543350Y-22507906D01*
X28457190Y-22392812D01*
X28457187Y-22392809D01*
X28342093Y-22306649D01*
X28342086Y-22306645D01*
X28207379Y-22256403D01*
X28207372Y-22256401D01*
X28147844Y-22250000D01*
X27500000Y-22250000D01*
X27500000Y-23166988D01*
X27442993Y-23134075D01*
X27315826Y-23100000D01*
X27184174Y-23100000D01*
X27057007Y-23134075D01*
X27000000Y-23166988D01*
X27000000Y-22250000D01*
X26352155Y-22250000D01*
X26292627Y-22256401D01*
X26292620Y-22256403D01*
X26157913Y-22306645D01*
X26157906Y-22306649D01*
X26042812Y-22392809D01*
X26042809Y-22392812D01*
X25956649Y-22507906D01*
X25956645Y-22507913D01*
X25906403Y-22642620D01*
X25906401Y-22642627D01*
X25900000Y-22702155D01*
X25900000Y-23350000D01*
X26816988Y-23350000D01*
X26784075Y-23407007D01*
X26750000Y-23534174D01*
X26750000Y-23665826D01*
X26784075Y-23792993D01*
X26816988Y-23850000D01*
X25900000Y-23850000D01*
X25900000Y-24497844D01*
X25906401Y-24557372D01*
X25906403Y-24557379D01*
X25956645Y-24692086D01*
X25956649Y-24692093D01*
X26042809Y-24807187D01*
X26042812Y-24807190D01*
X26157906Y-24893350D01*
X26157913Y-24893354D01*
X26289470Y-24942421D01*
X26345403Y-24984292D01*
X26369821Y-25049756D01*
X26354970Y-25118029D01*
X26333819Y-25146284D01*
X26211503Y-25268600D01*
X26075965Y-25462169D01*
X26075964Y-25462171D01*
X25976098Y-25676335D01*
X25976094Y-25676344D01*
X25914938Y-25904586D01*
X25914936Y-25904596D01*
X25894341Y-26139999D01*
X20105659Y-26139999D01*
X20085063Y-25904592D01*
X20023903Y-25676337D01*
X19924035Y-25462171D01*
X19788495Y-25268599D01*
X19666179Y-25146283D01*
X19632696Y-25084963D01*
X19637680Y-25015271D01*
X19679551Y-24959337D01*
X19710529Y-24942422D01*
X19842086Y-24893354D01*
X19842093Y-24893350D01*
X19957187Y-24807190D01*
X19957190Y-24807187D01*
X20043350Y-24692093D01*
X20043354Y-24692086D01*
X20093596Y-24557379D01*
X20093598Y-24557372D01*
X20099999Y-24497844D01*
X20100000Y-24497827D01*
X20100000Y-23850000D01*
X19183012Y-23850000D01*
X19215925Y-23792993D01*
X19250000Y-23665826D01*
X19250000Y-23534174D01*
X19215925Y-23407007D01*
X19183012Y-23350000D01*
X20100000Y-23350000D01*
X20100000Y-22702172D01*
X20099999Y-22702155D01*
X20093598Y-22642627D01*
X20093596Y-22642620D01*
X20043354Y-22507913D01*
X20043350Y-22507906D01*
X19957190Y-22392812D01*
X19957187Y-22392809D01*
X19842093Y-22306649D01*
X19842086Y-22306645D01*
X19707379Y-22256403D01*
X19707372Y-22256401D01*
X19647844Y-22250000D01*
X19000000Y-22250000D01*
X19000000Y-23166988D01*
X18942993Y-23134075D01*
X18815826Y-23100000D01*
X18684174Y-23100000D01*
X18557007Y-23134075D01*
X18500000Y-23166988D01*
X18500000Y-22250000D01*
X17852155Y-22250000D01*
X17792627Y-22256401D01*
X17792620Y-22256403D01*
X17657913Y-22306645D01*
X17657906Y-22306649D01*
X17542812Y-22392809D01*
X17542809Y-22392812D01*
X17456649Y-22507906D01*
X17456645Y-22507913D01*
X17406403Y-22642620D01*
X17406401Y-22642627D01*
X17400000Y-22702155D01*
X17400000Y-23350000D01*
X18316988Y-23350000D01*
X18284075Y-23407007D01*
X18250000Y-23534174D01*
X18250000Y-23665826D01*
X18284075Y-23792993D01*
X18316988Y-23850000D01*
X17400000Y-23850000D01*
X17400000Y-24497844D01*
X17406401Y-24557372D01*
X17406403Y-24557379D01*
X17456645Y-24692086D01*
X17456649Y-24692093D01*
X17542809Y-24807187D01*
X17542812Y-24807190D01*
X17657906Y-24893350D01*
X17657913Y-24893354D01*
X17789470Y-24942421D01*
X17845403Y-24984292D01*
X17869821Y-25049756D01*
X17854970Y-25118029D01*
X17833819Y-25146284D01*
X17711503Y-25268600D01*
X17575965Y-25462169D01*
X17575964Y-25462171D01*
X17476098Y-25676335D01*
X17476094Y-25676344D01*
X17414938Y-25904586D01*
X17414936Y-25904596D01*
X17394341Y-26139999D01*
X16000000Y-26139999D01*
X16000000Y-21124000D01*
X16019685Y-21056961D01*
X16072489Y-21011206D01*
X16124000Y-21000000D01*
X58626000Y-21000000D01*
X58693039Y-21019685D01*
G37*
%TD.AperFunction*%
%TD*%
M02*
