%TF.GenerationSoftware,KiCad,Pcbnew,8.0.8*%
%TF.CreationDate,2025-03-27T16:53:01-04:00*%
%TF.ProjectId,GRIT_main_sub_PCB,47524954-5f6d-4616-996e-5f7375625f50,rev?*%
%TF.SameCoordinates,Original*%
%TF.FileFunction,Soldermask,Bot*%
%TF.FilePolarity,Negative*%
%FSLAX46Y46*%
G04 Gerber Fmt 4.6, Leading zero omitted, Abs format (unit mm)*
G04 Created by KiCad (PCBNEW 8.0.8) date 2025-03-27 16:53:01*
%MOMM*%
%LPD*%
G01*
G04 APERTURE LIST*
%ADD10C,2.500000*%
%ADD11O,1.700000X1.700000*%
%ADD12R,1.700000X1.700000*%
G04 APERTURE END LIST*
D10*
%TO.C,REF\u002A\u002A*%
X60500000Y-79000000D03*
%TD*%
%TO.C,REF\u002A\u002A*%
X16250000Y-79000000D03*
%TD*%
%TO.C,REF\u002A\u002A*%
X60500000Y-16750000D03*
%TD*%
%TO.C,REF\u002A\u002A*%
X16250000Y-16750000D03*
%TD*%
D11*
%TO.C,Vdd*%
X18750000Y-31220000D03*
X18750000Y-28680000D03*
X18750000Y-26140000D03*
D12*
X18750000Y-23600000D03*
%TD*%
D11*
%TO.C,Vdd*%
X18810000Y-71760000D03*
X18810000Y-69220000D03*
X18810000Y-66680000D03*
D12*
X18810000Y-64140000D03*
%TD*%
D11*
%TO.C,Vdd*%
X27250000Y-71720000D03*
X27250000Y-69180000D03*
X27250000Y-66640000D03*
D12*
X27250000Y-64100000D03*
%TD*%
D11*
%TO.C,Vdd*%
X18750000Y-44750000D03*
X18750000Y-42210000D03*
X18750000Y-39670000D03*
D12*
X18750000Y-37130000D03*
%TD*%
D11*
%TO.C,Pico 40*%
X54985000Y-71640000D03*
X54985000Y-69100000D03*
X54985000Y-66560000D03*
X54985000Y-64020000D03*
X54985000Y-61480000D03*
X54985000Y-58940000D03*
X54985000Y-56400000D03*
X54985000Y-53860000D03*
X54985000Y-51320000D03*
X54985000Y-48780000D03*
X54985000Y-46240000D03*
X54985000Y-43700000D03*
X54985000Y-41160000D03*
X54985000Y-38620000D03*
X54985000Y-36080000D03*
X54985000Y-33540000D03*
X54985000Y-31000000D03*
X54985000Y-28460000D03*
X54985000Y-25920000D03*
D12*
X54985000Y-23380000D03*
%TD*%
D11*
%TO.C,Vdd*%
X27310000Y-44680000D03*
X27310000Y-42140000D03*
X27310000Y-39600000D03*
D12*
X27310000Y-37060000D03*
%TD*%
D11*
%TO.C,Pico 1*%
X37250000Y-71640000D03*
X37250000Y-69100000D03*
X37250000Y-66560000D03*
X37250000Y-64020000D03*
X37250000Y-61480000D03*
X37250000Y-58940000D03*
X37250000Y-56400000D03*
X37250000Y-53860000D03*
X37250000Y-51320000D03*
X37250000Y-48780000D03*
X37250000Y-46240000D03*
X37250000Y-43700000D03*
X37250000Y-41160000D03*
X37250000Y-38620000D03*
X37250000Y-36080000D03*
X37250000Y-33540000D03*
X37250000Y-31000000D03*
X37250000Y-28460000D03*
X37250000Y-25920000D03*
D12*
X37250000Y-23380000D03*
%TD*%
D11*
%TO.C,Vdd*%
X27250000Y-31220000D03*
X27250000Y-28680000D03*
X27250000Y-26140000D03*
D12*
X27250000Y-23600000D03*
%TD*%
D11*
%TO.C,Vdd*%
X18810000Y-56620000D03*
X18810000Y-54080000D03*
X18810000Y-51540000D03*
D12*
X18810000Y-49000000D03*
%TD*%
D11*
%TO.C,Vdd*%
X27310000Y-56550000D03*
X27310000Y-54010000D03*
X27310000Y-51470000D03*
D12*
X27310000Y-48930000D03*
%TD*%
M02*
