%TF.GenerationSoftware,KiCad,Pcbnew,8.0.8*%
%TF.CreationDate,2025-03-26T17:58:07-04:00*%
%TF.ProjectId,GRIT_main_sub_PCB,47524954-5f6d-4616-996e-5f7375625f50,rev?*%
%TF.SameCoordinates,Original*%
%TF.FileFunction,Copper,L3,Inr*%
%TF.FilePolarity,Positive*%
%FSLAX46Y46*%
G04 Gerber Fmt 4.6, Leading zero omitted, Abs format (unit mm)*
G04 Created by KiCad (PCBNEW 8.0.8) date 2025-03-26 17:58:07*
%MOMM*%
%LPD*%
G01*
G04 APERTURE LIST*
%TA.AperFunction,ComponentPad*%
%ADD10R,1.700000X1.700000*%
%TD*%
%TA.AperFunction,ComponentPad*%
%ADD11O,1.700000X1.700000*%
%TD*%
%TA.AperFunction,Conductor*%
%ADD12C,0.200000*%
%TD*%
G04 APERTURE END LIST*
D10*
%TO.N,N/C*%
%TO.C,REF\u002A\u002A*%
X55835000Y-22860000D03*
D11*
X55835000Y-25400000D03*
X55835000Y-27940000D03*
X55835000Y-30480000D03*
X55835000Y-33020000D03*
X55835000Y-35560000D03*
X55835000Y-38100000D03*
X55835000Y-40640000D03*
X55835000Y-43180000D03*
X55835000Y-45720000D03*
X55835000Y-48260000D03*
X55835000Y-50800000D03*
X55835000Y-53340000D03*
X55835000Y-55880000D03*
X55835000Y-58420000D03*
X55835000Y-60960000D03*
X55835000Y-63500000D03*
X55835000Y-66040000D03*
X55835000Y-68580000D03*
X55835000Y-71120000D03*
%TD*%
D10*
%TO.N,N/C*%
%TO.C,REF\u002A\u002A*%
X38100000Y-22860000D03*
D11*
X38100000Y-25400000D03*
X38100000Y-27940000D03*
X38100000Y-30480000D03*
X38100000Y-33020000D03*
X38100000Y-35560000D03*
X38100000Y-38100000D03*
X38100000Y-40640000D03*
X38100000Y-43180000D03*
X38100000Y-45720000D03*
X38100000Y-48260000D03*
X38100000Y-50800000D03*
X38100000Y-53340000D03*
X38100000Y-55880000D03*
X38100000Y-58420000D03*
X38100000Y-60960000D03*
X38100000Y-63500000D03*
X38100000Y-66040000D03*
X38100000Y-68580000D03*
X38100000Y-71120000D03*
%TD*%
D10*
%TO.N,N/C*%
%TO.C,Vdd*%
X19600000Y-24860000D03*
D11*
X19600000Y-27400000D03*
X19600000Y-29940000D03*
X19600000Y-32480000D03*
%TD*%
D10*
%TO.N,N/C*%
%TO.C,Vdd*%
X19600000Y-62860000D03*
D11*
X19600000Y-65400000D03*
X19600000Y-67940000D03*
X19600000Y-70480000D03*
%TD*%
D10*
%TO.N,N/C*%
%TO.C,Vdd*%
X28100000Y-62860000D03*
D11*
X28100000Y-65400000D03*
X28100000Y-67940000D03*
X28100000Y-70480000D03*
%TD*%
D10*
%TO.N,N/C*%
%TO.C,Vdd*%
X19600000Y-37560000D03*
D11*
X19600000Y-40100000D03*
X19600000Y-42640000D03*
X19600000Y-45180000D03*
%TD*%
D10*
%TO.N,N/C*%
%TO.C,Vdd*%
X28100000Y-37560000D03*
D11*
X28100000Y-40100000D03*
X28100000Y-42640000D03*
X28100000Y-45180000D03*
%TD*%
D10*
%TO.N,N/C*%
%TO.C,Vdd*%
X28100000Y-24860000D03*
D11*
X28100000Y-27400000D03*
X28100000Y-29940000D03*
X28100000Y-32480000D03*
%TD*%
D10*
%TO.N,N/C*%
%TO.C,Vdd*%
X19600000Y-50160000D03*
D11*
X19600000Y-52700000D03*
X19600000Y-55240000D03*
X19600000Y-57780000D03*
%TD*%
D10*
%TO.N,N/C*%
%TO.C,Vdd*%
X28100000Y-50160000D03*
D11*
X28100000Y-52700000D03*
X28100000Y-55240000D03*
X28100000Y-57780000D03*
%TD*%
D12*
%TO.N,*%
X23100000Y-14860000D02*
X56600000Y-14860000D01*
X63600000Y-49860000D02*
X57580000Y-55880000D01*
X56600000Y-14860000D02*
X63600000Y-21860000D01*
X16100000Y-21860000D02*
X23100000Y-14860000D01*
X16100000Y-29360000D02*
X16100000Y-21860000D01*
X63600000Y-21860000D02*
X63600000Y-49860000D01*
X57580000Y-55880000D02*
X55835000Y-55880000D01*
X16680000Y-29940000D02*
X16100000Y-29360000D01*
X19600000Y-29940000D02*
X16680000Y-29940000D01*
X57540000Y-58420000D02*
X55835000Y-58420000D01*
X23100000Y-13360000D02*
X57100000Y-13360000D01*
X64600000Y-20860000D02*
X64600000Y-51360000D01*
X15100000Y-21360000D02*
X23100000Y-13360000D01*
X64600000Y-51360000D02*
X57540000Y-58420000D01*
X15100000Y-30360000D02*
X15100000Y-21360000D01*
X17220000Y-32480000D02*
X15100000Y-30360000D01*
X57100000Y-13360000D02*
X64600000Y-20860000D01*
X19600000Y-32480000D02*
X17220000Y-32480000D01*
X13100000Y-73860000D02*
X13100000Y-49140000D01*
X64100000Y-73860000D02*
X59600000Y-78360000D01*
X13100000Y-49140000D02*
X19600000Y-42640000D01*
X57700000Y-60960000D02*
X64100000Y-67360000D01*
X59600000Y-78360000D02*
X17600000Y-78360000D01*
X55835000Y-60960000D02*
X57700000Y-60960000D01*
X64100000Y-67360000D02*
X64100000Y-73860000D01*
X17600000Y-78360000D02*
X13100000Y-73860000D01*
X57100000Y-77360000D02*
X62600000Y-71860000D01*
X18600000Y-77360000D02*
X57100000Y-77360000D01*
X62600000Y-71860000D02*
X62600000Y-68360000D01*
X62600000Y-68360000D02*
X57740000Y-63500000D01*
X14100000Y-72860000D02*
X18600000Y-77360000D01*
X14100000Y-50680000D02*
X14100000Y-72860000D01*
X57740000Y-63500000D02*
X55835000Y-63500000D01*
X19600000Y-45180000D02*
X14100000Y-50680000D01*
X59820000Y-68580000D02*
X55835000Y-68580000D01*
X60600000Y-69360000D02*
X59820000Y-68580000D01*
X60600000Y-71860000D02*
X60600000Y-69360000D01*
X57100000Y-75360000D02*
X60600000Y-71860000D01*
X18600000Y-75360000D02*
X57100000Y-75360000D01*
X15600000Y-72360000D02*
X18600000Y-75360000D01*
X15600000Y-57860000D02*
X15600000Y-72360000D01*
X18220000Y-55240000D02*
X15600000Y-57860000D01*
X19600000Y-55240000D02*
X18220000Y-55240000D01*
X54600000Y-73860000D02*
X55835000Y-72625000D01*
X17100000Y-72360000D02*
X18600000Y-73860000D01*
X55835000Y-72625000D02*
X55835000Y-71120000D01*
X17100000Y-57860000D02*
X17100000Y-72360000D01*
X18600000Y-73860000D02*
X54600000Y-73860000D01*
X19600000Y-57780000D02*
X17180000Y-57780000D01*
X17180000Y-57780000D02*
X17100000Y-57860000D01*
X38090000Y-71110000D02*
X38100000Y-71120000D01*
X32100000Y-73360000D02*
X34350000Y-71110000D01*
X22220000Y-70480000D02*
X25100000Y-73360000D01*
X19600000Y-70480000D02*
X22220000Y-70480000D01*
X25100000Y-73360000D02*
X32100000Y-73360000D01*
X34350000Y-71110000D02*
X38090000Y-71110000D01*
X34880000Y-68580000D02*
X38100000Y-68580000D01*
X26100000Y-72860000D02*
X30600000Y-72860000D01*
X30600000Y-72860000D02*
X34880000Y-68580000D01*
X21180000Y-67940000D02*
X26100000Y-72860000D01*
X19600000Y-67940000D02*
X21180000Y-67940000D01*
%TD*%
M02*
