M48
; DRILL file {KiCad 8.0.8} date 2025-03-27T16:53:04-0400
; FORMAT={-:-/ absolute / inch / decimal}
; #@! TF.CreationDate,2025-03-27T16:53:04-04:00
; #@! TF.GenerationSoftware,Kicad,Pcbnew,8.0.8
; #@! TF.FileFunction,Plated,1,4,PTH
FMAT,2
INCH
; #@! TA.AperFunction,Plated,PTH,ComponentDrill
T1C0.0394
%
G90
G05
T1
X0.7382Y-0.9291
X0.7382Y-1.0291
X0.7382Y-1.1291
X0.7382Y-1.2291
X0.7382Y-1.4618
X0.7382Y-1.5618
X0.7382Y-1.6618
X0.7382Y-1.7618
X0.7406Y-1.9291
X0.7406Y-2.0291
X0.7406Y-2.1291
X0.7406Y-2.2291
X0.7406Y-2.5252
X0.7406Y-2.6252
X0.7406Y-2.7252
X0.7406Y-2.8252
X1.0728Y-0.9291
X1.0728Y-1.0291
X1.0728Y-1.1291
X1.0728Y-1.2291
X1.0728Y-2.5236
X1.0728Y-2.6236
X1.0728Y-2.7236
X1.0728Y-2.8236
X1.0752Y-1.4591
X1.0752Y-1.5591
X1.0752Y-1.6591
X1.0752Y-1.7591
X1.0752Y-1.9264
X1.0752Y-2.0264
X1.0752Y-2.1264
X1.0752Y-2.2264
X1.4665Y-0.9205
X1.4665Y-1.0205
X1.4665Y-1.1205
X1.4665Y-1.2205
X1.4665Y-1.3205
X1.4665Y-1.4205
X1.4665Y-1.5205
X1.4665Y-1.6205
X1.4665Y-1.7205
X1.4665Y-1.8205
X1.4665Y-1.9205
X1.4665Y-2.0205
X1.4665Y-2.1205
X1.4665Y-2.2205
X1.4665Y-2.3205
X1.4665Y-2.4205
X1.4665Y-2.5205
X1.4665Y-2.6205
X1.4665Y-2.7205
X1.4665Y-2.8205
X2.1648Y-0.9205
X2.1648Y-1.0205
X2.1648Y-1.1205
X2.1648Y-1.2205
X2.1648Y-1.3205
X2.1648Y-1.4205
X2.1648Y-1.5205
X2.1648Y-1.6205
X2.1648Y-1.7205
X2.1648Y-1.8205
X2.1648Y-1.9205
X2.1648Y-2.0205
X2.1648Y-2.1205
X2.1648Y-2.2205
X2.1648Y-2.3205
X2.1648Y-2.4205
X2.1648Y-2.5205
X2.1648Y-2.6205
X2.1648Y-2.7205
X2.1648Y-2.8205
M30
