%TF.GenerationSoftware,KiCad,Pcbnew,8.0.8*%
%TF.CreationDate,2025-03-26T17:58:07-04:00*%
%TF.ProjectId,GRIT_main_sub_PCB,47524954-5f6d-4616-996e-5f7375625f50,rev?*%
%TF.SameCoordinates,Original*%
%TF.FileFunction,Copper,L1,Top*%
%TF.FilePolarity,Positive*%
%FSLAX46Y46*%
G04 Gerber Fmt 4.6, Leading zero omitted, Abs format (unit mm)*
G04 Created by KiCad (PCBNEW 8.0.8) date 2025-03-26 17:58:07*
%MOMM*%
%LPD*%
G01*
G04 APERTURE LIST*
%TA.AperFunction,ComponentPad*%
%ADD10R,1.700000X1.700000*%
%TD*%
%TA.AperFunction,ComponentPad*%
%ADD11O,1.700000X1.700000*%
%TD*%
%TA.AperFunction,Conductor*%
%ADD12C,0.200000*%
%TD*%
G04 APERTURE END LIST*
D10*
%TO.P,REF\u002A\u002A,1*%
%TO.N,N/C*%
X55835000Y-22860000D03*
D11*
%TO.P,REF\u002A\u002A,2*%
X55835000Y-25400000D03*
%TO.P,REF\u002A\u002A,3*%
X55835000Y-27940000D03*
%TO.P,REF\u002A\u002A,4*%
X55835000Y-30480000D03*
%TO.P,REF\u002A\u002A,5*%
X55835000Y-33020000D03*
%TO.P,REF\u002A\u002A,6*%
X55835000Y-35560000D03*
%TO.P,REF\u002A\u002A,7*%
X55835000Y-38100000D03*
%TO.P,REF\u002A\u002A,8*%
X55835000Y-40640000D03*
%TO.P,REF\u002A\u002A,9*%
X55835000Y-43180000D03*
%TO.P,REF\u002A\u002A,10*%
X55835000Y-45720000D03*
%TO.P,REF\u002A\u002A,11*%
X55835000Y-48260000D03*
%TO.P,REF\u002A\u002A,12*%
X55835000Y-50800000D03*
%TO.P,REF\u002A\u002A,13*%
X55835000Y-53340000D03*
%TO.P,REF\u002A\u002A,14*%
X55835000Y-55880000D03*
%TO.P,REF\u002A\u002A,15*%
X55835000Y-58420000D03*
%TO.P,REF\u002A\u002A,16*%
X55835000Y-60960000D03*
%TO.P,REF\u002A\u002A,17*%
X55835000Y-63500000D03*
%TO.P,REF\u002A\u002A,18*%
X55835000Y-66040000D03*
%TO.P,REF\u002A\u002A,19*%
X55835000Y-68580000D03*
%TO.P,REF\u002A\u002A,20*%
X55835000Y-71120000D03*
%TD*%
D10*
%TO.P,REF\u002A\u002A,1*%
%TO.N,N/C*%
X38100000Y-22860000D03*
D11*
%TO.P,REF\u002A\u002A,2*%
X38100000Y-25400000D03*
%TO.P,REF\u002A\u002A,3*%
X38100000Y-27940000D03*
%TO.P,REF\u002A\u002A,4*%
X38100000Y-30480000D03*
%TO.P,REF\u002A\u002A,5*%
X38100000Y-33020000D03*
%TO.P,REF\u002A\u002A,6*%
X38100000Y-35560000D03*
%TO.P,REF\u002A\u002A,7*%
X38100000Y-38100000D03*
%TO.P,REF\u002A\u002A,8*%
X38100000Y-40640000D03*
%TO.P,REF\u002A\u002A,9*%
X38100000Y-43180000D03*
%TO.P,REF\u002A\u002A,10*%
X38100000Y-45720000D03*
%TO.P,REF\u002A\u002A,11*%
X38100000Y-48260000D03*
%TO.P,REF\u002A\u002A,12*%
X38100000Y-50800000D03*
%TO.P,REF\u002A\u002A,13*%
X38100000Y-53340000D03*
%TO.P,REF\u002A\u002A,14*%
X38100000Y-55880000D03*
%TO.P,REF\u002A\u002A,15*%
X38100000Y-58420000D03*
%TO.P,REF\u002A\u002A,16*%
X38100000Y-60960000D03*
%TO.P,REF\u002A\u002A,17*%
X38100000Y-63500000D03*
%TO.P,REF\u002A\u002A,18*%
X38100000Y-66040000D03*
%TO.P,REF\u002A\u002A,19*%
X38100000Y-68580000D03*
%TO.P,REF\u002A\u002A,20*%
X38100000Y-71120000D03*
%TD*%
D10*
%TO.P,Vdd,1*%
%TO.N,N/C*%
X19600000Y-24860000D03*
D11*
%TO.P,Vdd,2*%
X19600000Y-27400000D03*
%TO.P,Vdd,3*%
X19600000Y-29940000D03*
%TO.P,Vdd,4*%
X19600000Y-32480000D03*
%TD*%
D10*
%TO.P,Vdd,1*%
%TO.N,N/C*%
X19600000Y-62860000D03*
D11*
%TO.P,Vdd,2*%
X19600000Y-65400000D03*
%TO.P,Vdd,3*%
X19600000Y-67940000D03*
%TO.P,Vdd,4*%
X19600000Y-70480000D03*
%TD*%
D10*
%TO.P,Vdd,1*%
%TO.N,N/C*%
X28100000Y-62860000D03*
D11*
%TO.P,Vdd,2*%
X28100000Y-65400000D03*
%TO.P,Vdd,3*%
X28100000Y-67940000D03*
%TO.P,Vdd,4*%
X28100000Y-70480000D03*
%TD*%
D10*
%TO.P,Vdd,1*%
%TO.N,N/C*%
X19600000Y-37560000D03*
D11*
%TO.P,Vdd,2*%
X19600000Y-40100000D03*
%TO.P,Vdd,3*%
X19600000Y-42640000D03*
%TO.P,Vdd,4*%
X19600000Y-45180000D03*
%TD*%
D10*
%TO.P,Vdd,1*%
%TO.N,N/C*%
X28100000Y-37560000D03*
D11*
%TO.P,Vdd,2*%
X28100000Y-40100000D03*
%TO.P,Vdd,3*%
X28100000Y-42640000D03*
%TO.P,Vdd,4*%
X28100000Y-45180000D03*
%TD*%
D10*
%TO.P,Vdd,1*%
%TO.N,N/C*%
X28100000Y-24860000D03*
D11*
%TO.P,Vdd,2*%
X28100000Y-27400000D03*
%TO.P,Vdd,3*%
X28100000Y-29940000D03*
%TO.P,Vdd,4*%
X28100000Y-32480000D03*
%TD*%
D10*
%TO.P,Vdd,1*%
%TO.N,N/C*%
X19600000Y-50160000D03*
D11*
%TO.P,Vdd,2*%
X19600000Y-52700000D03*
%TO.P,Vdd,3*%
X19600000Y-55240000D03*
%TO.P,Vdd,4*%
X19600000Y-57780000D03*
%TD*%
D10*
%TO.P,Vdd,1*%
%TO.N,N/C*%
X28100000Y-50160000D03*
D11*
%TO.P,Vdd,2*%
X28100000Y-52700000D03*
%TO.P,Vdd,3*%
X28100000Y-55240000D03*
%TO.P,Vdd,4*%
X28100000Y-57780000D03*
%TD*%
D12*
%TO.N,*%
X28100000Y-24860000D02*
X25100000Y-24860000D01*
X56005000Y-22690000D02*
X55835000Y-22860000D01*
X56005000Y-21265000D02*
X56005000Y-22690000D01*
X52600000Y-17860000D02*
X56005000Y-21265000D01*
X25100000Y-20860000D02*
X28100000Y-17860000D01*
X28100000Y-17860000D02*
X52600000Y-17860000D01*
X25100000Y-24860000D02*
X25100000Y-20860000D01*
X38055000Y-45720000D02*
X38100000Y-45720000D01*
X35600000Y-48175000D02*
X38055000Y-45720000D01*
X35600000Y-64860000D02*
X35600000Y-48175000D01*
X28100000Y-70480000D02*
X29980000Y-70480000D01*
X29980000Y-70480000D02*
X35600000Y-64860000D01*
X35100000Y-60940000D02*
X28100000Y-67940000D01*
X35100000Y-43860000D02*
X35100000Y-60940000D01*
X35780000Y-43180000D02*
X35100000Y-43860000D01*
X38100000Y-43180000D02*
X35780000Y-43180000D01*
X34100000Y-40360000D02*
X36360000Y-38100000D01*
X34100000Y-53860000D02*
X34100000Y-40360000D01*
X30180000Y-57780000D02*
X34100000Y-53860000D01*
X36360000Y-38100000D02*
X38100000Y-38100000D01*
X28100000Y-57780000D02*
X30180000Y-57780000D01*
X30720000Y-55240000D02*
X28100000Y-55240000D01*
X33100000Y-37360000D02*
X33100000Y-52860000D01*
X34850000Y-35610000D02*
X33100000Y-37360000D01*
X38050000Y-35610000D02*
X34850000Y-35610000D01*
X33100000Y-52860000D02*
X30720000Y-55240000D01*
X38100000Y-35560000D02*
X38050000Y-35610000D01*
X32100000Y-42860000D02*
X32100000Y-36360000D01*
X32100000Y-36360000D02*
X35440000Y-33020000D01*
X29780000Y-45180000D02*
X32100000Y-42860000D01*
X28100000Y-45180000D02*
X29780000Y-45180000D01*
X35440000Y-33020000D02*
X38100000Y-33020000D01*
X31100000Y-35360000D02*
X35980000Y-30480000D01*
X31100000Y-41860000D02*
X31100000Y-35360000D01*
X30320000Y-42640000D02*
X31100000Y-41860000D01*
X28100000Y-42640000D02*
X30320000Y-42640000D01*
X35980000Y-30480000D02*
X38100000Y-30480000D01*
X38055000Y-25400000D02*
X38100000Y-25400000D01*
X30975000Y-32480000D02*
X38055000Y-25400000D01*
X28100000Y-32480000D02*
X30975000Y-32480000D01*
X38055000Y-22860000D02*
X38100000Y-22860000D01*
X28100000Y-29940000D02*
X30975000Y-29940000D01*
X30975000Y-29940000D02*
X38055000Y-22860000D01*
X28100000Y-37560000D02*
X25300000Y-37560000D01*
X19600000Y-50160000D02*
X24800000Y-50160000D01*
X19600000Y-24860000D02*
X25100000Y-24860000D01*
X19600000Y-62860000D02*
X25100000Y-62860000D01*
X24800000Y-50160000D02*
X25100000Y-49860000D01*
X25100000Y-24860000D02*
X25100000Y-37360000D01*
X25100000Y-37360000D02*
X25100000Y-49860000D01*
X24900000Y-37560000D02*
X25100000Y-37360000D01*
X25100000Y-50360000D02*
X25100000Y-62860000D01*
X28100000Y-50160000D02*
X25400000Y-50160000D01*
X19600000Y-37560000D02*
X24900000Y-37560000D01*
X25300000Y-37560000D02*
X25100000Y-37360000D01*
X25100000Y-49860000D02*
X25100000Y-50360000D01*
X25100000Y-62860000D02*
X28100000Y-62860000D01*
X25400000Y-50160000D02*
X25100000Y-49860000D01*
%TD*%
M02*
