%TF.GenerationSoftware,KiCad,Pcbnew,8.0.8*%
%TF.CreationDate,2025-03-27T16:07:45-04:00*%
%TF.ProjectId,GRIT_main_pcb,47524954-5f6d-4616-996e-5f7063622e6b,rev?*%
%TF.SameCoordinates,Original*%
%TF.FileFunction,Legend,Bot*%
%TF.FilePolarity,Positive*%
%FSLAX46Y46*%
G04 Gerber Fmt 4.6, Leading zero omitted, Abs format (unit mm)*
G04 Created by KiCad (PCBNEW 8.0.8) date 2025-03-27 16:07:45*
%MOMM*%
%LPD*%
G01*
G04 APERTURE LIST*
%ADD10C,0.150000*%
%ADD11C,0.120000*%
G04 APERTURE END LIST*
D10*
X54800000Y-72704819D02*
X55133333Y-72228628D01*
X55371428Y-72704819D02*
X55371428Y-71704819D01*
X55371428Y-71704819D02*
X54990476Y-71704819D01*
X54990476Y-71704819D02*
X54895238Y-71752438D01*
X54895238Y-71752438D02*
X54847619Y-71800057D01*
X54847619Y-71800057D02*
X54800000Y-71895295D01*
X54800000Y-71895295D02*
X54800000Y-72038152D01*
X54800000Y-72038152D02*
X54847619Y-72133390D01*
X54847619Y-72133390D02*
X54895238Y-72181009D01*
X54895238Y-72181009D02*
X54990476Y-72228628D01*
X54990476Y-72228628D02*
X55371428Y-72228628D01*
X53942857Y-72704819D02*
X53942857Y-72181009D01*
X53942857Y-72181009D02*
X53990476Y-72085771D01*
X53990476Y-72085771D02*
X54085714Y-72038152D01*
X54085714Y-72038152D02*
X54276190Y-72038152D01*
X54276190Y-72038152D02*
X54371428Y-72085771D01*
X53942857Y-72657200D02*
X54038095Y-72704819D01*
X54038095Y-72704819D02*
X54276190Y-72704819D01*
X54276190Y-72704819D02*
X54371428Y-72657200D01*
X54371428Y-72657200D02*
X54419047Y-72561961D01*
X54419047Y-72561961D02*
X54419047Y-72466723D01*
X54419047Y-72466723D02*
X54371428Y-72371485D01*
X54371428Y-72371485D02*
X54276190Y-72323866D01*
X54276190Y-72323866D02*
X54038095Y-72323866D01*
X54038095Y-72323866D02*
X53942857Y-72276247D01*
X53514285Y-72657200D02*
X53419047Y-72704819D01*
X53419047Y-72704819D02*
X53228571Y-72704819D01*
X53228571Y-72704819D02*
X53133333Y-72657200D01*
X53133333Y-72657200D02*
X53085714Y-72561961D01*
X53085714Y-72561961D02*
X53085714Y-72514342D01*
X53085714Y-72514342D02*
X53133333Y-72419104D01*
X53133333Y-72419104D02*
X53228571Y-72371485D01*
X53228571Y-72371485D02*
X53371428Y-72371485D01*
X53371428Y-72371485D02*
X53466666Y-72323866D01*
X53466666Y-72323866D02*
X53514285Y-72228628D01*
X53514285Y-72228628D02*
X53514285Y-72181009D01*
X53514285Y-72181009D02*
X53466666Y-72085771D01*
X53466666Y-72085771D02*
X53371428Y-72038152D01*
X53371428Y-72038152D02*
X53228571Y-72038152D01*
X53228571Y-72038152D02*
X53133333Y-72085771D01*
X52657142Y-72038152D02*
X52657142Y-73038152D01*
X52657142Y-72085771D02*
X52561904Y-72038152D01*
X52561904Y-72038152D02*
X52371428Y-72038152D01*
X52371428Y-72038152D02*
X52276190Y-72085771D01*
X52276190Y-72085771D02*
X52228571Y-72133390D01*
X52228571Y-72133390D02*
X52180952Y-72228628D01*
X52180952Y-72228628D02*
X52180952Y-72514342D01*
X52180952Y-72514342D02*
X52228571Y-72609580D01*
X52228571Y-72609580D02*
X52276190Y-72657200D01*
X52276190Y-72657200D02*
X52371428Y-72704819D01*
X52371428Y-72704819D02*
X52561904Y-72704819D01*
X52561904Y-72704819D02*
X52657142Y-72657200D01*
X51752380Y-72704819D02*
X51752380Y-71704819D01*
X51752380Y-72085771D02*
X51657142Y-72038152D01*
X51657142Y-72038152D02*
X51466666Y-72038152D01*
X51466666Y-72038152D02*
X51371428Y-72085771D01*
X51371428Y-72085771D02*
X51323809Y-72133390D01*
X51323809Y-72133390D02*
X51276190Y-72228628D01*
X51276190Y-72228628D02*
X51276190Y-72514342D01*
X51276190Y-72514342D02*
X51323809Y-72609580D01*
X51323809Y-72609580D02*
X51371428Y-72657200D01*
X51371428Y-72657200D02*
X51466666Y-72704819D01*
X51466666Y-72704819D02*
X51657142Y-72704819D01*
X51657142Y-72704819D02*
X51752380Y-72657200D01*
X50466666Y-72657200D02*
X50561904Y-72704819D01*
X50561904Y-72704819D02*
X50752380Y-72704819D01*
X50752380Y-72704819D02*
X50847618Y-72657200D01*
X50847618Y-72657200D02*
X50895237Y-72561961D01*
X50895237Y-72561961D02*
X50895237Y-72181009D01*
X50895237Y-72181009D02*
X50847618Y-72085771D01*
X50847618Y-72085771D02*
X50752380Y-72038152D01*
X50752380Y-72038152D02*
X50561904Y-72038152D01*
X50561904Y-72038152D02*
X50466666Y-72085771D01*
X50466666Y-72085771D02*
X50419047Y-72181009D01*
X50419047Y-72181009D02*
X50419047Y-72276247D01*
X50419047Y-72276247D02*
X50895237Y-72371485D01*
X49990475Y-72704819D02*
X49990475Y-72038152D01*
X49990475Y-72228628D02*
X49942856Y-72133390D01*
X49942856Y-72133390D02*
X49895237Y-72085771D01*
X49895237Y-72085771D02*
X49799999Y-72038152D01*
X49799999Y-72038152D02*
X49704761Y-72038152D01*
X49371427Y-72704819D02*
X49371427Y-72038152D01*
X49371427Y-72228628D02*
X49323808Y-72133390D01*
X49323808Y-72133390D02*
X49276189Y-72085771D01*
X49276189Y-72085771D02*
X49180951Y-72038152D01*
X49180951Y-72038152D02*
X49085713Y-72038152D01*
X48847617Y-72038152D02*
X48609522Y-72704819D01*
X48371427Y-72038152D02*
X48609522Y-72704819D01*
X48609522Y-72704819D02*
X48704760Y-72942914D01*
X48704760Y-72942914D02*
X48752379Y-72990533D01*
X48752379Y-72990533D02*
X48847617Y-73038152D01*
X47228569Y-72704819D02*
X47228569Y-71704819D01*
X47228569Y-71704819D02*
X46847617Y-71704819D01*
X46847617Y-71704819D02*
X46752379Y-71752438D01*
X46752379Y-71752438D02*
X46704760Y-71800057D01*
X46704760Y-71800057D02*
X46657141Y-71895295D01*
X46657141Y-71895295D02*
X46657141Y-72038152D01*
X46657141Y-72038152D02*
X46704760Y-72133390D01*
X46704760Y-72133390D02*
X46752379Y-72181009D01*
X46752379Y-72181009D02*
X46847617Y-72228628D01*
X46847617Y-72228628D02*
X47228569Y-72228628D01*
X46228569Y-72704819D02*
X46228569Y-72038152D01*
X46228569Y-71704819D02*
X46276188Y-71752438D01*
X46276188Y-71752438D02*
X46228569Y-71800057D01*
X46228569Y-71800057D02*
X46180950Y-71752438D01*
X46180950Y-71752438D02*
X46228569Y-71704819D01*
X46228569Y-71704819D02*
X46228569Y-71800057D01*
D11*
%TO.C,Raspberry Pi*%
X25190000Y-65420000D02*
X25190000Y-70620000D01*
X25190000Y-65420000D02*
X76110000Y-65420000D01*
X25190000Y-70620000D02*
X73510000Y-70620000D01*
X73510000Y-68020000D02*
X73510000Y-70620000D01*
X76110000Y-65420000D02*
X76110000Y-68020000D01*
X76110000Y-68020000D02*
X73510000Y-68020000D01*
X76110000Y-69290000D02*
X76110000Y-70620000D01*
X76110000Y-70620000D02*
X74780000Y-70620000D01*
%TO.C,GPS*%
X60680000Y-59210000D02*
X62010000Y-59210000D01*
X60680000Y-60540000D02*
X60680000Y-59210000D01*
X63280000Y-61870000D02*
X63280000Y-59210000D01*
X70960000Y-59210000D02*
X63280000Y-59210000D01*
X70960000Y-61870000D02*
X63280000Y-61870000D01*
X70960000Y-61870000D02*
X70960000Y-59210000D01*
%TD*%
M02*
