%TF.GenerationSoftware,KiCad,Pcbnew,8.0.8*%
%TF.CreationDate,2025-03-27T14:30:52-04:00*%
%TF.ProjectId,GRIT_main_pcb,47524954-5f6d-4616-996e-5f7063622e6b,rev?*%
%TF.SameCoordinates,Original*%
%TF.FileFunction,Copper,L3,Inr*%
%TF.FilePolarity,Positive*%
%FSLAX46Y46*%
G04 Gerber Fmt 4.6, Leading zero omitted, Abs format (unit mm)*
G04 Created by KiCad (PCBNEW 8.0.8) date 2025-03-27 14:30:52*
%MOMM*%
%LPD*%
G01*
G04 APERTURE LIST*
%TA.AperFunction,ComponentPad*%
%ADD10R,1.700000X1.700000*%
%TD*%
%TA.AperFunction,ComponentPad*%
%ADD11O,1.600000X1.600000*%
%TD*%
%TA.AperFunction,ComponentPad*%
%ADD12C,1.600000*%
%TD*%
%TA.AperFunction,ComponentPad*%
%ADD13O,1.700000X1.700000*%
%TD*%
%TA.AperFunction,ComponentPad*%
%ADD14O,1.000000X1.000000*%
%TD*%
%TA.AperFunction,ComponentPad*%
%ADD15R,1.000000X1.000000*%
%TD*%
G04 APERTURE END LIST*
D10*
%TO.N,LED-*%
%TO.C,LED-*%
X89000000Y-89000000D03*
%TD*%
%TO.N,LED+*%
%TO.C,LED+*%
X89750000Y-55250000D03*
%TD*%
D11*
%TO.N,PI13*%
%TO.C,10k*%
X40500000Y-79170000D03*
D12*
%TO.N,GND*%
X40500000Y-84250000D03*
%TD*%
D10*
%TO.N,GND*%
%TO.C,LCD*%
X74000000Y-24500000D03*
D13*
%TO.N,5V*%
X71460000Y-24500000D03*
%TO.N,PI23*%
X68920000Y-24500000D03*
%TO.N,PI19*%
X66380000Y-24500000D03*
%TD*%
D14*
%TO.N,GND*%
%TO.C,EncR*%
X57790000Y-57230000D03*
%TO.N,N/C*%
X57790000Y-58500000D03*
X56520000Y-57230000D03*
%TO.N,PI16*%
X56520000Y-58500000D03*
%TO.N,N/C*%
X55250000Y-57230000D03*
%TO.N,PI18*%
X55250000Y-58500000D03*
%TO.N,N/C*%
X53980000Y-57230000D03*
X53980000Y-58500000D03*
%TO.N,5V*%
X52710000Y-57230000D03*
D15*
%TO.N,3V3*%
X52710000Y-58500000D03*
%TD*%
D10*
%TO.N,PI36*%
%TO.C,MOS1*%
X81000000Y-61500000D03*
D13*
%TO.N,LED+*%
X81000000Y-64040000D03*
%TO.N,LED3*%
X81000000Y-66580000D03*
%TD*%
D10*
%TO.N,LED4*%
%TO.C,LED4*%
X81000000Y-80025000D03*
D13*
%TO.N,LED-*%
X81000000Y-82565000D03*
%TD*%
D10*
%TO.N,LED3*%
%TO.C,LED3*%
X81000000Y-72250000D03*
D13*
%TO.N,LED4*%
X81000000Y-74790000D03*
%TD*%
D10*
%TO.N,LED2*%
%TO.C,LED1*%
X87000000Y-79950000D03*
D13*
%TO.N,LED-*%
X87000000Y-82490000D03*
%TD*%
D10*
%TO.N,LED1*%
%TO.C,LED1*%
X87000000Y-72225000D03*
D13*
%TO.N,LED2*%
X87000000Y-74765000D03*
%TD*%
D10*
%TO.N,On*%
%TO.C,Rel2*%
X34500000Y-23725000D03*
%TD*%
D13*
%TO.N,EStop*%
%TO.C,EStop*%
X30500000Y-19240000D03*
D10*
%TO.N,GND*%
X30500000Y-16700000D03*
%TD*%
D12*
%TO.N,5V*%
%TO.C,10k*%
X30450000Y-33515000D03*
D11*
%TO.N,EStop*%
X30450000Y-28435000D03*
%TD*%
D10*
%TO.N,EStop*%
%TO.C,Rel1*%
X24750000Y-19225000D03*
%TD*%
D12*
%TO.N,5V*%
%TO.C,10k*%
X39250000Y-33305000D03*
D11*
%TO.N,On*%
X39250000Y-28225000D03*
%TD*%
D13*
%TO.N,On*%
%TO.C,On*%
X39300000Y-23305000D03*
D10*
%TO.N,GND*%
X39300000Y-20765000D03*
%TD*%
D13*
%TO.N,5V*%
%TO.C,Limit Switch*%
X35250000Y-82435000D03*
D10*
%TO.N,PI13*%
X35250000Y-79895000D03*
%TD*%
D12*
%TO.N,5V*%
%TO.C,10k*%
X46450000Y-33290000D03*
D11*
%TO.N,PI28*%
X46450000Y-28210000D03*
%TD*%
%TO.N,PI26*%
%TO.C,10k*%
X53200000Y-28170000D03*
D12*
%TO.N,5V*%
X53200000Y-33250000D03*
%TD*%
%TO.N,5V*%
%TO.C,10k*%
X59950000Y-33290000D03*
D11*
%TO.N,PI29*%
X59950000Y-28210000D03*
%TD*%
D10*
%TO.N,GND*%
%TO.C,PB 3*%
X60000000Y-20750000D03*
D13*
%TO.N,PI29*%
X60000000Y-23290000D03*
%TD*%
D10*
%TO.N,GND*%
%TO.C,PB 2*%
X53250000Y-20710000D03*
D13*
%TO.N,PI26*%
X53250000Y-23250000D03*
%TD*%
%TO.N,PI28*%
%TO.C,PB 1*%
X46500000Y-23290000D03*
D10*
%TO.N,GND*%
X46500000Y-20750000D03*
%TD*%
D12*
%TO.N,PI22*%
%TO.C,4.7k*%
X66750000Y-83580000D03*
D11*
%TO.N,3V3*%
X66750000Y-78500000D03*
%TD*%
D13*
%TO.N,PI40*%
%TO.C,Raspberry Pi*%
X26520000Y-66750000D03*
%TO.N,GND*%
X26520000Y-69290000D03*
%TO.N,PI38*%
X29060000Y-66750000D03*
%TO.N,PI37*%
X29060000Y-69290000D03*
%TO.N,PI36*%
X31600000Y-66750000D03*
%TO.N,PI35*%
X31600000Y-69290000D03*
%TO.N,N/C*%
X34140000Y-66750000D03*
%TO.N,PI33*%
X34140000Y-69290000D03*
%TO.N,PI32*%
X36680000Y-66750000D03*
%TO.N,PI31*%
X36680000Y-69290000D03*
%TO.N,N/C*%
X39220000Y-66750000D03*
%TO.N,PI29*%
X39220000Y-69290000D03*
%TO.N,PI28*%
X41760000Y-66750000D03*
%TO.N,PI27*%
X41760000Y-69290000D03*
%TO.N,PI26*%
X44300000Y-66750000D03*
%TO.N,N/C*%
X44300000Y-69290000D03*
%TO.N,PI24*%
X46840000Y-66750000D03*
%TO.N,PI23*%
X46840000Y-69290000D03*
%TO.N,PI22*%
X49380000Y-66750000D03*
%TO.N,PI21*%
X49380000Y-69290000D03*
%TO.N,N/C*%
X51920000Y-66750000D03*
%TO.N,PI19*%
X51920000Y-69290000D03*
%TO.N,PI18*%
X54460000Y-66750000D03*
%TO.N,N/C*%
X54460000Y-69290000D03*
%TO.N,PI16*%
X57000000Y-66750000D03*
%TO.N,PI15*%
X57000000Y-69290000D03*
%TO.N,N/C*%
X59540000Y-66750000D03*
%TO.N,PI13*%
X59540000Y-69290000D03*
%TO.N,PI12*%
X62080000Y-66750000D03*
%TO.N,PI11*%
X62080000Y-69290000D03*
%TO.N,PI10*%
X64620000Y-66750000D03*
%TO.N,N/C*%
X64620000Y-69290000D03*
%TO.N,PI8*%
X67160000Y-66750000D03*
%TO.N,PI7*%
X67160000Y-69290000D03*
%TO.N,N/C*%
X69700000Y-66750000D03*
%TO.N,PI5*%
X69700000Y-69290000D03*
%TO.N,5V*%
X72240000Y-66750000D03*
%TO.N,PI3*%
X72240000Y-69290000D03*
%TO.N,5V*%
X74780000Y-66750000D03*
D10*
%TO.N,3V3*%
X74780000Y-69290000D03*
%TD*%
D12*
%TO.N,PI24*%
%TO.C,4.7k*%
X41920000Y-51750000D03*
D11*
%TO.N,3V3*%
X47000000Y-51750000D03*
%TD*%
D10*
%TO.N,PI11*%
%TO.C,PowMOS2*%
X47000000Y-82500000D03*
D13*
%TO.N,GND*%
X47000000Y-85040000D03*
%TD*%
%TO.N,N/C*%
%TO.C,Dual Motor Driver*%
X82250000Y-47540000D03*
X79710000Y-47540000D03*
%TO.N,5V*%
X82250000Y-45000000D03*
X79710000Y-45000000D03*
%TO.N,PI38*%
X82250000Y-42460000D03*
%TO.N,PI33*%
X79710000Y-42460000D03*
%TO.N,PI12*%
X82250000Y-39920000D03*
%TO.N,PI32*%
X79710000Y-39920000D03*
%TO.N,GND*%
X82250000Y-37380000D03*
X79710000Y-37380000D03*
%TO.N,5V*%
X82250000Y-34840000D03*
D10*
X79710000Y-34840000D03*
%TD*%
D13*
%TO.N,PI7*%
%TO.C,IMU*%
X17000000Y-62970000D03*
%TO.N,N/C*%
X17000000Y-65510000D03*
X17000000Y-68050000D03*
X17000000Y-70590000D03*
%TO.N,PI5*%
X17000000Y-73130000D03*
%TO.N,PI3*%
X17000000Y-75670000D03*
%TO.N,GND*%
X17000000Y-78210000D03*
D10*
%TO.N,3V3*%
X17000000Y-80750000D03*
%TD*%
D12*
%TO.N,PI37*%
%TO.C,4.7k*%
X73250000Y-83580000D03*
D11*
%TO.N,3V3*%
X73250000Y-78500000D03*
%TD*%
D14*
%TO.N,5V*%
%TO.C,Cooling Fan*%
X17300000Y-23000000D03*
D15*
%TO.N,GND*%
X17300000Y-21730000D03*
%TD*%
D11*
%TO.N,PI23*%
%TO.C,4.7k*%
X72075000Y-34315000D03*
D12*
%TO.N,3V3*%
X72075000Y-39395000D03*
%TD*%
%TO.N,PI21*%
%TO.C,4.7k*%
X29595000Y-46000000D03*
D11*
%TO.N,3V3*%
X34675000Y-46000000D03*
%TD*%
D13*
%TO.N,N/C*%
%TO.C,BMS*%
X78370000Y-87935000D03*
X75830000Y-87935000D03*
X73290000Y-87935000D03*
X70750000Y-87935000D03*
%TO.N,PI37*%
X68210000Y-87935000D03*
%TO.N,PI22*%
X65670000Y-87935000D03*
%TO.N,GND*%
X63130000Y-87935000D03*
D10*
%TO.N,5V*%
X60590000Y-87935000D03*
%TD*%
%TO.N,5V*%
%TO.C,GPS*%
X62010000Y-60540000D03*
D13*
%TO.N,PI10*%
X64550000Y-60540000D03*
%TO.N,PI8*%
X67090000Y-60540000D03*
%TO.N,GND*%
X69630000Y-60540000D03*
%TD*%
D11*
%TO.N,PI19*%
%TO.C,4.7k*%
X66000000Y-34235000D03*
D12*
%TO.N,3V3*%
X66000000Y-39315000D03*
%TD*%
D10*
%TO.N,PI21*%
%TO.C,Pico*%
X20895000Y-48000000D03*
D13*
%TO.N,PI24*%
X20895000Y-50540000D03*
%TD*%
D10*
%TO.N,PI35*%
%TO.C,PowMOS1*%
X33750000Y-73500000D03*
D13*
%TO.N,GND*%
X36290000Y-73500000D03*
%TD*%
%TO.N,LED1*%
%TO.C,MOS2*%
X87000000Y-66580000D03*
%TO.N,LED+*%
X87000000Y-64040000D03*
D10*
%TO.N,PI31*%
X87000000Y-61500000D03*
%TD*%
D14*
%TO.N,GND*%
%TO.C,EncL*%
X31750000Y-57230000D03*
%TO.N,N/C*%
X31750000Y-58500000D03*
X30480000Y-57230000D03*
%TO.N,PI40*%
X30480000Y-58500000D03*
%TO.N,N/C*%
X29210000Y-57230000D03*
%TO.N,PI15*%
X29210000Y-58500000D03*
%TO.N,N/C*%
X27940000Y-57230000D03*
X27940000Y-58500000D03*
%TO.N,5V*%
X26670000Y-57230000D03*
D15*
%TO.N,3V3*%
X26670000Y-58500000D03*
%TD*%
%TA.AperFunction,Conductor*%
%TO.N,GND*%
G36*
X81784075Y-37187007D02*
G01*
X81750000Y-37314174D01*
X81750000Y-37445826D01*
X81784075Y-37572993D01*
X81816988Y-37630000D01*
X80143012Y-37630000D01*
X80175925Y-37572993D01*
X80210000Y-37445826D01*
X80210000Y-37314174D01*
X80175925Y-37187007D01*
X80143012Y-37130000D01*
X81816988Y-37130000D01*
X81784075Y-37187007D01*
G37*
%TD.AperFunction*%
%TA.AperFunction,Conductor*%
G36*
X82943039Y-13019685D02*
G01*
X82988794Y-13072489D01*
X83000000Y-13124000D01*
X83000000Y-21000000D01*
X90876000Y-21000000D01*
X90943039Y-21019685D01*
X90988794Y-21072489D01*
X91000000Y-21124000D01*
X91000000Y-53836417D01*
X90980315Y-53903456D01*
X90927511Y-53949211D01*
X90858353Y-53959155D01*
X90832667Y-53952599D01*
X90707482Y-53905908D01*
X90707483Y-53905908D01*
X90647883Y-53899501D01*
X90647881Y-53899500D01*
X90647873Y-53899500D01*
X90647864Y-53899500D01*
X88852129Y-53899500D01*
X88852123Y-53899501D01*
X88792516Y-53905908D01*
X88657671Y-53956202D01*
X88657664Y-53956206D01*
X88542455Y-54042452D01*
X88542452Y-54042455D01*
X88456206Y-54157664D01*
X88456202Y-54157671D01*
X88405908Y-54292517D01*
X88399501Y-54352116D01*
X88399500Y-54352135D01*
X88399500Y-56147870D01*
X88399501Y-56147876D01*
X88405908Y-56207483D01*
X88456202Y-56342328D01*
X88456206Y-56342335D01*
X88542452Y-56457544D01*
X88542455Y-56457547D01*
X88657664Y-56543793D01*
X88657671Y-56543797D01*
X88792517Y-56594091D01*
X88792516Y-56594091D01*
X88799444Y-56594835D01*
X88852127Y-56600500D01*
X90647872Y-56600499D01*
X90707483Y-56594091D01*
X90832668Y-56547399D01*
X90902358Y-56542416D01*
X90963681Y-56575901D01*
X90997166Y-56637224D01*
X91000000Y-56663582D01*
X91000000Y-90876000D01*
X90980315Y-90943039D01*
X90927511Y-90988794D01*
X90876000Y-91000000D01*
X21124000Y-91000000D01*
X21056961Y-90980315D01*
X21011206Y-90927511D01*
X21000000Y-90876000D01*
X21000000Y-87037135D01*
X59239500Y-87037135D01*
X59239500Y-88832870D01*
X59239501Y-88832876D01*
X59245908Y-88892483D01*
X59296202Y-89027328D01*
X59296206Y-89027335D01*
X59382452Y-89142544D01*
X59382455Y-89142547D01*
X59497664Y-89228793D01*
X59497671Y-89228797D01*
X59632517Y-89279091D01*
X59632516Y-89279091D01*
X59639444Y-89279835D01*
X59692127Y-89285500D01*
X61487872Y-89285499D01*
X61547483Y-89279091D01*
X61682331Y-89228796D01*
X61797546Y-89142546D01*
X61883796Y-89027331D01*
X61933002Y-88895401D01*
X61974872Y-88839468D01*
X62040337Y-88815050D01*
X62108610Y-88829901D01*
X62136865Y-88851053D01*
X62258917Y-88973105D01*
X62452421Y-89108600D01*
X62666507Y-89208429D01*
X62666516Y-89208433D01*
X62880000Y-89265634D01*
X62880000Y-88368012D01*
X62937007Y-88400925D01*
X63064174Y-88435000D01*
X63195826Y-88435000D01*
X63322993Y-88400925D01*
X63380000Y-88368012D01*
X63380000Y-89265633D01*
X63593483Y-89208433D01*
X63593492Y-89208429D01*
X63807578Y-89108600D01*
X64001082Y-88973105D01*
X64168105Y-88806082D01*
X64298119Y-88620405D01*
X64352696Y-88576781D01*
X64422195Y-88569588D01*
X64484549Y-88601110D01*
X64501269Y-88620405D01*
X64631505Y-88806401D01*
X64798599Y-88973495D01*
X64895384Y-89041265D01*
X64992165Y-89109032D01*
X64992167Y-89109033D01*
X64992170Y-89109035D01*
X65206337Y-89208903D01*
X65434592Y-89270063D01*
X65611034Y-89285500D01*
X65669999Y-89290659D01*
X65670000Y-89290659D01*
X65670001Y-89290659D01*
X65728966Y-89285500D01*
X65905408Y-89270063D01*
X66133663Y-89208903D01*
X66347830Y-89109035D01*
X66541401Y-88973495D01*
X66708495Y-88806401D01*
X66838425Y-88620842D01*
X66893002Y-88577217D01*
X66962500Y-88570023D01*
X67024855Y-88601546D01*
X67041575Y-88620842D01*
X67171500Y-88806395D01*
X67171505Y-88806401D01*
X67338599Y-88973495D01*
X67435384Y-89041265D01*
X67532165Y-89109032D01*
X67532167Y-89109033D01*
X67532170Y-89109035D01*
X67746337Y-89208903D01*
X67974592Y-89270063D01*
X68151034Y-89285500D01*
X68209999Y-89290659D01*
X68210000Y-89290659D01*
X68210001Y-89290659D01*
X68268966Y-89285500D01*
X68445408Y-89270063D01*
X68673663Y-89208903D01*
X68887830Y-89109035D01*
X69081401Y-88973495D01*
X69248495Y-88806401D01*
X69378425Y-88620842D01*
X69433002Y-88577217D01*
X69502500Y-88570023D01*
X69564855Y-88601546D01*
X69581575Y-88620842D01*
X69711500Y-88806395D01*
X69711505Y-88806401D01*
X69878599Y-88973495D01*
X69975384Y-89041265D01*
X70072165Y-89109032D01*
X70072167Y-89109033D01*
X70072170Y-89109035D01*
X70286337Y-89208903D01*
X70514592Y-89270063D01*
X70691034Y-89285500D01*
X70749999Y-89290659D01*
X70750000Y-89290659D01*
X70750001Y-89290659D01*
X70808966Y-89285500D01*
X70985408Y-89270063D01*
X71213663Y-89208903D01*
X71427830Y-89109035D01*
X71621401Y-88973495D01*
X71788495Y-88806401D01*
X71918425Y-88620842D01*
X71973002Y-88577217D01*
X72042500Y-88570023D01*
X72104855Y-88601546D01*
X72121575Y-88620842D01*
X72251500Y-88806395D01*
X72251505Y-88806401D01*
X72418599Y-88973495D01*
X72515384Y-89041265D01*
X72612165Y-89109032D01*
X72612167Y-89109033D01*
X72612170Y-89109035D01*
X72826337Y-89208903D01*
X73054592Y-89270063D01*
X73231034Y-89285500D01*
X73289999Y-89290659D01*
X73290000Y-89290659D01*
X73290001Y-89290659D01*
X73348966Y-89285500D01*
X73525408Y-89270063D01*
X73753663Y-89208903D01*
X73967830Y-89109035D01*
X74161401Y-88973495D01*
X74328495Y-88806401D01*
X74458425Y-88620842D01*
X74513002Y-88577217D01*
X74582500Y-88570023D01*
X74644855Y-88601546D01*
X74661575Y-88620842D01*
X74791500Y-88806395D01*
X74791505Y-88806401D01*
X74958599Y-88973495D01*
X75055384Y-89041265D01*
X75152165Y-89109032D01*
X75152167Y-89109033D01*
X75152170Y-89109035D01*
X75366337Y-89208903D01*
X75594592Y-89270063D01*
X75771034Y-89285500D01*
X75829999Y-89290659D01*
X75830000Y-89290659D01*
X75830001Y-89290659D01*
X75888966Y-89285500D01*
X76065408Y-89270063D01*
X76293663Y-89208903D01*
X76507830Y-89109035D01*
X76701401Y-88973495D01*
X76868495Y-88806401D01*
X76998425Y-88620842D01*
X77053002Y-88577217D01*
X77122500Y-88570023D01*
X77184855Y-88601546D01*
X77201575Y-88620842D01*
X77331500Y-88806395D01*
X77331505Y-88806401D01*
X77498599Y-88973495D01*
X77595384Y-89041265D01*
X77692165Y-89109032D01*
X77692167Y-89109033D01*
X77692170Y-89109035D01*
X77906337Y-89208903D01*
X78134592Y-89270063D01*
X78311034Y-89285500D01*
X78369999Y-89290659D01*
X78370000Y-89290659D01*
X78370001Y-89290659D01*
X78428966Y-89285500D01*
X78605408Y-89270063D01*
X78833663Y-89208903D01*
X79047830Y-89109035D01*
X79241401Y-88973495D01*
X79408495Y-88806401D01*
X79544035Y-88612830D01*
X79643903Y-88398663D01*
X79705063Y-88170408D01*
X79711036Y-88102135D01*
X87649500Y-88102135D01*
X87649500Y-89897870D01*
X87649501Y-89897876D01*
X87655908Y-89957483D01*
X87706202Y-90092328D01*
X87706206Y-90092335D01*
X87792452Y-90207544D01*
X87792455Y-90207547D01*
X87907664Y-90293793D01*
X87907671Y-90293797D01*
X88042517Y-90344091D01*
X88042516Y-90344091D01*
X88049444Y-90344835D01*
X88102127Y-90350500D01*
X89897872Y-90350499D01*
X89957483Y-90344091D01*
X90092331Y-90293796D01*
X90207546Y-90207546D01*
X90293796Y-90092331D01*
X90344091Y-89957483D01*
X90350500Y-89897873D01*
X90350499Y-88102128D01*
X90344091Y-88042517D01*
X90328541Y-88000826D01*
X90293797Y-87907671D01*
X90293793Y-87907664D01*
X90207547Y-87792455D01*
X90207544Y-87792452D01*
X90092335Y-87706206D01*
X90092328Y-87706202D01*
X89957482Y-87655908D01*
X89957483Y-87655908D01*
X89897883Y-87649501D01*
X89897881Y-87649500D01*
X89897873Y-87649500D01*
X89897864Y-87649500D01*
X88102129Y-87649500D01*
X88102123Y-87649501D01*
X88042516Y-87655908D01*
X87907671Y-87706202D01*
X87907664Y-87706206D01*
X87792455Y-87792452D01*
X87792452Y-87792455D01*
X87706206Y-87907664D01*
X87706202Y-87907671D01*
X87655908Y-88042517D01*
X87649501Y-88102116D01*
X87649501Y-88102123D01*
X87649500Y-88102135D01*
X79711036Y-88102135D01*
X79725659Y-87935000D01*
X79705063Y-87699592D01*
X79643903Y-87471337D01*
X79544035Y-87257171D01*
X79538731Y-87249595D01*
X79408494Y-87063597D01*
X79241402Y-86896506D01*
X79241395Y-86896501D01*
X79047834Y-86760967D01*
X79047830Y-86760965D01*
X79047828Y-86760964D01*
X78833663Y-86661097D01*
X78833659Y-86661096D01*
X78833655Y-86661094D01*
X78605413Y-86599938D01*
X78605403Y-86599936D01*
X78370001Y-86579341D01*
X78369999Y-86579341D01*
X78134596Y-86599936D01*
X78134586Y-86599938D01*
X77906344Y-86661094D01*
X77906335Y-86661098D01*
X77692171Y-86760964D01*
X77692169Y-86760965D01*
X77498597Y-86896505D01*
X77331505Y-87063597D01*
X77201575Y-87249158D01*
X77146998Y-87292783D01*
X77077500Y-87299977D01*
X77015145Y-87268454D01*
X76998425Y-87249158D01*
X76868494Y-87063597D01*
X76701402Y-86896506D01*
X76701395Y-86896501D01*
X76507834Y-86760967D01*
X76507830Y-86760965D01*
X76507828Y-86760964D01*
X76293663Y-86661097D01*
X76293659Y-86661096D01*
X76293655Y-86661094D01*
X76065413Y-86599938D01*
X76065403Y-86599936D01*
X75830001Y-86579341D01*
X75829999Y-86579341D01*
X75594596Y-86599936D01*
X75594586Y-86599938D01*
X75366344Y-86661094D01*
X75366335Y-86661098D01*
X75152171Y-86760964D01*
X75152169Y-86760965D01*
X74958597Y-86896505D01*
X74791505Y-87063597D01*
X74661575Y-87249158D01*
X74606998Y-87292783D01*
X74537500Y-87299977D01*
X74475145Y-87268454D01*
X74458425Y-87249158D01*
X74328494Y-87063597D01*
X74161402Y-86896506D01*
X74161395Y-86896501D01*
X73967834Y-86760967D01*
X73967830Y-86760965D01*
X73967828Y-86760964D01*
X73753663Y-86661097D01*
X73753659Y-86661096D01*
X73753655Y-86661094D01*
X73525413Y-86599938D01*
X73525403Y-86599936D01*
X73290001Y-86579341D01*
X73289999Y-86579341D01*
X73054596Y-86599936D01*
X73054586Y-86599938D01*
X72826344Y-86661094D01*
X72826335Y-86661098D01*
X72612171Y-86760964D01*
X72612169Y-86760965D01*
X72418597Y-86896505D01*
X72251505Y-87063597D01*
X72121575Y-87249158D01*
X72066998Y-87292783D01*
X71997500Y-87299977D01*
X71935145Y-87268454D01*
X71918425Y-87249158D01*
X71788494Y-87063597D01*
X71621402Y-86896506D01*
X71621395Y-86896501D01*
X71427834Y-86760967D01*
X71427830Y-86760965D01*
X71427828Y-86760964D01*
X71213663Y-86661097D01*
X71213659Y-86661096D01*
X71213655Y-86661094D01*
X70985413Y-86599938D01*
X70985403Y-86599936D01*
X70750001Y-86579341D01*
X70749999Y-86579341D01*
X70514596Y-86599936D01*
X70514586Y-86599938D01*
X70286344Y-86661094D01*
X70286335Y-86661098D01*
X70072171Y-86760964D01*
X70072169Y-86760965D01*
X69878597Y-86896505D01*
X69711505Y-87063597D01*
X69581575Y-87249158D01*
X69526998Y-87292783D01*
X69457500Y-87299977D01*
X69395145Y-87268454D01*
X69378425Y-87249158D01*
X69248494Y-87063597D01*
X69081402Y-86896506D01*
X69081395Y-86896501D01*
X68887834Y-86760967D01*
X68887830Y-86760965D01*
X68887828Y-86760964D01*
X68673663Y-86661097D01*
X68673659Y-86661096D01*
X68673655Y-86661094D01*
X68445413Y-86599938D01*
X68445403Y-86599936D01*
X68210001Y-86579341D01*
X68209999Y-86579341D01*
X67974596Y-86599936D01*
X67974586Y-86599938D01*
X67746344Y-86661094D01*
X67746335Y-86661098D01*
X67532171Y-86760964D01*
X67532169Y-86760965D01*
X67338597Y-86896505D01*
X67171505Y-87063597D01*
X67041575Y-87249158D01*
X66986998Y-87292783D01*
X66917500Y-87299977D01*
X66855145Y-87268454D01*
X66838425Y-87249158D01*
X66708494Y-87063597D01*
X66541402Y-86896506D01*
X66541395Y-86896501D01*
X66347834Y-86760967D01*
X66347830Y-86760965D01*
X66347828Y-86760964D01*
X66133663Y-86661097D01*
X66133659Y-86661096D01*
X66133655Y-86661094D01*
X65905413Y-86599938D01*
X65905403Y-86599936D01*
X65670001Y-86579341D01*
X65669999Y-86579341D01*
X65434596Y-86599936D01*
X65434586Y-86599938D01*
X65206344Y-86661094D01*
X65206335Y-86661098D01*
X64992171Y-86760964D01*
X64992169Y-86760965D01*
X64798597Y-86896505D01*
X64631508Y-87063594D01*
X64501269Y-87249595D01*
X64446692Y-87293219D01*
X64377193Y-87300412D01*
X64314839Y-87268890D01*
X64298119Y-87249594D01*
X64168113Y-87063926D01*
X64168108Y-87063920D01*
X64001082Y-86896894D01*
X63807578Y-86761399D01*
X63593492Y-86661570D01*
X63593486Y-86661567D01*
X63380000Y-86604364D01*
X63380000Y-87501988D01*
X63322993Y-87469075D01*
X63195826Y-87435000D01*
X63064174Y-87435000D01*
X62937007Y-87469075D01*
X62880000Y-87501988D01*
X62880000Y-86604364D01*
X62879999Y-86604364D01*
X62666513Y-86661567D01*
X62666507Y-86661570D01*
X62452422Y-86761399D01*
X62452420Y-86761400D01*
X62258926Y-86896886D01*
X62136865Y-87018947D01*
X62075542Y-87052431D01*
X62005850Y-87047447D01*
X61949917Y-87005575D01*
X61933002Y-86974598D01*
X61883797Y-86842671D01*
X61883793Y-86842664D01*
X61797547Y-86727455D01*
X61797544Y-86727452D01*
X61682335Y-86641206D01*
X61682328Y-86641202D01*
X61547482Y-86590908D01*
X61547483Y-86590908D01*
X61487883Y-86584501D01*
X61487881Y-86584500D01*
X61487873Y-86584500D01*
X61487864Y-86584500D01*
X59692129Y-86584500D01*
X59692123Y-86584501D01*
X59632516Y-86590908D01*
X59497671Y-86641202D01*
X59497664Y-86641206D01*
X59382455Y-86727452D01*
X59382452Y-86727455D01*
X59296206Y-86842664D01*
X59296202Y-86842671D01*
X59245908Y-86977517D01*
X59239501Y-87037116D01*
X59239500Y-87037135D01*
X21000000Y-87037135D01*
X21000000Y-84249997D01*
X39195034Y-84249997D01*
X39195034Y-84250002D01*
X39214858Y-84476599D01*
X39214860Y-84476610D01*
X39273730Y-84696317D01*
X39273735Y-84696331D01*
X39369863Y-84902478D01*
X39420974Y-84975472D01*
X40100000Y-84296446D01*
X40100000Y-84302661D01*
X40127259Y-84404394D01*
X40179920Y-84495606D01*
X40254394Y-84570080D01*
X40345606Y-84622741D01*
X40447339Y-84650000D01*
X40453553Y-84650000D01*
X39774526Y-85329025D01*
X39847513Y-85380132D01*
X39847521Y-85380136D01*
X40053668Y-85476264D01*
X40053682Y-85476269D01*
X40273389Y-85535139D01*
X40273400Y-85535141D01*
X40499998Y-85554966D01*
X40500002Y-85554966D01*
X40726599Y-85535141D01*
X40726610Y-85535139D01*
X40946317Y-85476269D01*
X40946331Y-85476264D01*
X41152478Y-85380136D01*
X41225471Y-85329024D01*
X40546447Y-84650000D01*
X40552661Y-84650000D01*
X40654394Y-84622741D01*
X40745606Y-84570080D01*
X40820080Y-84495606D01*
X40872741Y-84404394D01*
X40900000Y-84302661D01*
X40900000Y-84296447D01*
X41579024Y-84975471D01*
X41630136Y-84902478D01*
X41726264Y-84696331D01*
X41726269Y-84696317D01*
X41785139Y-84476610D01*
X41785141Y-84476599D01*
X41804966Y-84250002D01*
X41804966Y-84249997D01*
X41785141Y-84023400D01*
X41785139Y-84023389D01*
X41726269Y-83803682D01*
X41726264Y-83803668D01*
X41630136Y-83597521D01*
X41630132Y-83597513D01*
X41579025Y-83524526D01*
X40900000Y-84203551D01*
X40900000Y-84197339D01*
X40872741Y-84095606D01*
X40820080Y-84004394D01*
X40745606Y-83929920D01*
X40654394Y-83877259D01*
X40552661Y-83850000D01*
X40546445Y-83850000D01*
X41225472Y-83170974D01*
X41152478Y-83119863D01*
X40946331Y-83023735D01*
X40946317Y-83023730D01*
X40726610Y-82964860D01*
X40726599Y-82964858D01*
X40500002Y-82945034D01*
X40499998Y-82945034D01*
X40273400Y-82964858D01*
X40273389Y-82964860D01*
X40053682Y-83023730D01*
X40053673Y-83023734D01*
X39847516Y-83119866D01*
X39847512Y-83119868D01*
X39774526Y-83170973D01*
X39774526Y-83170974D01*
X40453553Y-83850000D01*
X40447339Y-83850000D01*
X40345606Y-83877259D01*
X40254394Y-83929920D01*
X40179920Y-84004394D01*
X40127259Y-84095606D01*
X40100000Y-84197339D01*
X40100000Y-84203552D01*
X39420974Y-83524526D01*
X39420973Y-83524526D01*
X39369868Y-83597512D01*
X39369866Y-83597516D01*
X39273734Y-83803673D01*
X39273730Y-83803682D01*
X39214860Y-84023389D01*
X39214858Y-84023400D01*
X39195034Y-84249997D01*
X21000000Y-84249997D01*
X21000000Y-83000000D01*
X13124000Y-83000000D01*
X13056961Y-82980315D01*
X13011206Y-82927511D01*
X13000000Y-82876000D01*
X13000000Y-82434999D01*
X33894341Y-82434999D01*
X33894341Y-82435000D01*
X33914936Y-82670403D01*
X33914938Y-82670413D01*
X33976094Y-82898655D01*
X33976096Y-82898659D01*
X33976097Y-82898663D01*
X34036717Y-83028663D01*
X34075965Y-83112830D01*
X34075967Y-83112834D01*
X34166992Y-83242830D01*
X34211505Y-83306401D01*
X34378599Y-83473495D01*
X34451479Y-83524526D01*
X34572165Y-83609032D01*
X34572167Y-83609033D01*
X34572170Y-83609035D01*
X34786337Y-83708903D01*
X35014592Y-83770063D01*
X35202918Y-83786539D01*
X35249999Y-83790659D01*
X35250000Y-83790659D01*
X35250001Y-83790659D01*
X35289234Y-83787226D01*
X35485408Y-83770063D01*
X35713663Y-83708903D01*
X35927830Y-83609035D01*
X36121401Y-83473495D01*
X36288495Y-83306401D01*
X36424035Y-83112830D01*
X36523903Y-82898663D01*
X36585063Y-82670408D01*
X36605659Y-82435000D01*
X36585063Y-82199592D01*
X36523903Y-81971337D01*
X36424035Y-81757171D01*
X36389243Y-81707483D01*
X36315478Y-81602135D01*
X45649500Y-81602135D01*
X45649500Y-83397870D01*
X45649501Y-83397876D01*
X45655908Y-83457483D01*
X45706202Y-83592328D01*
X45706206Y-83592335D01*
X45792452Y-83707544D01*
X45792455Y-83707547D01*
X45907664Y-83793793D01*
X45907671Y-83793797D01*
X45942229Y-83806686D01*
X46039598Y-83843002D01*
X46095531Y-83884873D01*
X46119949Y-83950337D01*
X46105098Y-84018610D01*
X46083947Y-84046865D01*
X45961886Y-84168926D01*
X45826400Y-84362420D01*
X45826399Y-84362422D01*
X45726570Y-84576507D01*
X45726567Y-84576513D01*
X45669364Y-84789999D01*
X45669364Y-84790000D01*
X46566988Y-84790000D01*
X46534075Y-84847007D01*
X46500000Y-84974174D01*
X46500000Y-85105826D01*
X46534075Y-85232993D01*
X46566988Y-85290000D01*
X45669364Y-85290000D01*
X45726567Y-85503486D01*
X45726570Y-85503492D01*
X45826399Y-85717578D01*
X45961894Y-85911082D01*
X46128917Y-86078105D01*
X46322421Y-86213600D01*
X46536507Y-86313429D01*
X46536516Y-86313433D01*
X46750000Y-86370634D01*
X46750000Y-85473012D01*
X46807007Y-85505925D01*
X46934174Y-85540000D01*
X47065826Y-85540000D01*
X47192993Y-85505925D01*
X47250000Y-85473012D01*
X47250000Y-86370633D01*
X47463483Y-86313433D01*
X47463492Y-86313429D01*
X47677578Y-86213600D01*
X47871082Y-86078105D01*
X48038105Y-85911082D01*
X48173600Y-85717578D01*
X48273429Y-85503492D01*
X48273432Y-85503486D01*
X48330636Y-85290000D01*
X47433012Y-85290000D01*
X47465925Y-85232993D01*
X47500000Y-85105826D01*
X47500000Y-84974174D01*
X47465925Y-84847007D01*
X47433012Y-84790000D01*
X48330636Y-84790000D01*
X48330635Y-84789999D01*
X48273432Y-84576513D01*
X48273429Y-84576507D01*
X48173600Y-84362422D01*
X48173599Y-84362420D01*
X48038113Y-84168926D01*
X48038108Y-84168920D01*
X47916053Y-84046865D01*
X47882568Y-83985542D01*
X47887552Y-83915850D01*
X47929424Y-83859917D01*
X47960400Y-83843002D01*
X48065825Y-83803682D01*
X48092326Y-83793798D01*
X48092326Y-83793797D01*
X48092331Y-83793796D01*
X48207546Y-83707546D01*
X48293796Y-83592331D01*
X48298396Y-83579998D01*
X65444532Y-83579998D01*
X65444532Y-83580001D01*
X65464364Y-83806686D01*
X65464366Y-83806697D01*
X65523258Y-84026488D01*
X65523261Y-84026497D01*
X65619431Y-84232732D01*
X65619432Y-84232734D01*
X65749954Y-84419141D01*
X65910858Y-84580045D01*
X65910861Y-84580047D01*
X66097266Y-84710568D01*
X66303504Y-84806739D01*
X66523308Y-84865635D01*
X66685230Y-84879801D01*
X66749998Y-84885468D01*
X66750000Y-84885468D01*
X66750002Y-84885468D01*
X66806673Y-84880509D01*
X66976692Y-84865635D01*
X67196496Y-84806739D01*
X67402734Y-84710568D01*
X67589139Y-84580047D01*
X67750047Y-84419139D01*
X67880568Y-84232734D01*
X67976739Y-84026496D01*
X68035635Y-83806692D01*
X68055468Y-83580000D01*
X68055468Y-83579998D01*
X71944532Y-83579998D01*
X71944532Y-83580001D01*
X71964364Y-83806686D01*
X71964366Y-83806697D01*
X72023258Y-84026488D01*
X72023261Y-84026497D01*
X72119431Y-84232732D01*
X72119432Y-84232734D01*
X72249954Y-84419141D01*
X72410858Y-84580045D01*
X72410861Y-84580047D01*
X72597266Y-84710568D01*
X72803504Y-84806739D01*
X73023308Y-84865635D01*
X73185230Y-84879801D01*
X73249998Y-84885468D01*
X73250000Y-84885468D01*
X73250002Y-84885468D01*
X73306673Y-84880509D01*
X73476692Y-84865635D01*
X73696496Y-84806739D01*
X73902734Y-84710568D01*
X74089139Y-84580047D01*
X74250047Y-84419139D01*
X74380568Y-84232734D01*
X74476739Y-84026496D01*
X74535635Y-83806692D01*
X74555468Y-83580000D01*
X74535635Y-83353308D01*
X74476739Y-83133504D01*
X74380568Y-82927266D01*
X74250047Y-82740861D01*
X74250045Y-82740858D01*
X74089141Y-82579954D01*
X74067783Y-82564999D01*
X79644341Y-82564999D01*
X79644341Y-82565000D01*
X79664936Y-82800403D01*
X79664938Y-82800413D01*
X79726094Y-83028655D01*
X79726096Y-83028659D01*
X79726097Y-83028663D01*
X79792458Y-83170974D01*
X79825965Y-83242830D01*
X79825967Y-83242834D01*
X79903326Y-83353313D01*
X79961505Y-83436401D01*
X80128599Y-83603495D01*
X80215055Y-83664032D01*
X80322165Y-83739032D01*
X80322167Y-83739033D01*
X80322170Y-83739035D01*
X80536337Y-83838903D01*
X80764592Y-83900063D01*
X80945034Y-83915850D01*
X80999999Y-83920659D01*
X81000000Y-83920659D01*
X81000001Y-83920659D01*
X81039234Y-83917226D01*
X81235408Y-83900063D01*
X81463663Y-83838903D01*
X81677830Y-83739035D01*
X81871401Y-83603495D01*
X82038495Y-83436401D01*
X82174035Y-83242830D01*
X82273903Y-83028663D01*
X82335063Y-82800408D01*
X82355659Y-82565000D01*
X82349097Y-82489999D01*
X85644341Y-82489999D01*
X85644341Y-82490000D01*
X85664936Y-82725403D01*
X85664938Y-82725413D01*
X85726094Y-82953655D01*
X85726096Y-82953659D01*
X85726097Y-82953663D01*
X85809962Y-83133511D01*
X85825965Y-83167830D01*
X85825967Y-83167834D01*
X85922994Y-83306402D01*
X85961505Y-83361401D01*
X86128599Y-83528495D01*
X86202153Y-83579998D01*
X86322165Y-83664032D01*
X86322167Y-83664033D01*
X86322170Y-83664035D01*
X86536337Y-83763903D01*
X86536343Y-83763904D01*
X86536344Y-83763905D01*
X86591285Y-83778626D01*
X86764592Y-83825063D01*
X86952918Y-83841539D01*
X86999999Y-83845659D01*
X87000000Y-83845659D01*
X87000001Y-83845659D01*
X87039234Y-83842226D01*
X87235408Y-83825063D01*
X87463663Y-83763903D01*
X87677830Y-83664035D01*
X87871401Y-83528495D01*
X88038495Y-83361401D01*
X88174035Y-83167830D01*
X88273903Y-82953663D01*
X88335063Y-82725408D01*
X88355659Y-82490000D01*
X88335063Y-82254592D01*
X88273903Y-82026337D01*
X88174035Y-81812171D01*
X88135522Y-81757169D01*
X88038496Y-81618600D01*
X87983495Y-81563599D01*
X87916567Y-81496671D01*
X87883084Y-81435351D01*
X87888068Y-81365659D01*
X87929939Y-81309725D01*
X87960915Y-81292810D01*
X88092331Y-81243796D01*
X88207546Y-81157546D01*
X88293796Y-81042331D01*
X88344091Y-80907483D01*
X88350500Y-80847873D01*
X88350499Y-79052128D01*
X88344091Y-78992517D01*
X88326926Y-78946496D01*
X88293797Y-78857671D01*
X88293793Y-78857664D01*
X88207547Y-78742455D01*
X88207544Y-78742452D01*
X88092335Y-78656206D01*
X88092328Y-78656202D01*
X87957482Y-78605908D01*
X87957483Y-78605908D01*
X87897883Y-78599501D01*
X87897881Y-78599500D01*
X87897873Y-78599500D01*
X87897864Y-78599500D01*
X86102129Y-78599500D01*
X86102123Y-78599501D01*
X86042516Y-78605908D01*
X85907671Y-78656202D01*
X85907664Y-78656206D01*
X85792455Y-78742452D01*
X85792452Y-78742455D01*
X85706206Y-78857664D01*
X85706202Y-78857671D01*
X85655908Y-78992517D01*
X85655412Y-78997135D01*
X85649501Y-79052123D01*
X85649500Y-79052135D01*
X85649500Y-80847870D01*
X85649501Y-80847876D01*
X85655908Y-80907483D01*
X85706202Y-81042328D01*
X85706206Y-81042335D01*
X85792452Y-81157544D01*
X85792455Y-81157547D01*
X85907664Y-81243793D01*
X85907671Y-81243797D01*
X86039081Y-81292810D01*
X86095015Y-81334681D01*
X86119432Y-81400145D01*
X86104580Y-81468418D01*
X86083430Y-81496673D01*
X85961503Y-81618600D01*
X85825965Y-81812169D01*
X85825964Y-81812171D01*
X85726098Y-82026335D01*
X85726094Y-82026344D01*
X85664938Y-82254586D01*
X85664936Y-82254596D01*
X85644341Y-82489999D01*
X82349097Y-82489999D01*
X82335063Y-82329592D01*
X82273903Y-82101337D01*
X82174035Y-81887171D01*
X82121518Y-81812169D01*
X82038496Y-81693600D01*
X81992760Y-81647864D01*
X81916567Y-81571671D01*
X81883084Y-81510351D01*
X81888068Y-81440659D01*
X81929939Y-81384725D01*
X81960915Y-81367810D01*
X82092331Y-81318796D01*
X82207546Y-81232546D01*
X82293796Y-81117331D01*
X82344091Y-80982483D01*
X82350500Y-80922873D01*
X82350499Y-79127128D01*
X82344091Y-79067517D01*
X82338351Y-79052128D01*
X82293797Y-78932671D01*
X82293793Y-78932664D01*
X82207547Y-78817455D01*
X82207544Y-78817452D01*
X82092335Y-78731206D01*
X82092328Y-78731202D01*
X81957482Y-78680908D01*
X81957483Y-78680908D01*
X81897883Y-78674501D01*
X81897881Y-78674500D01*
X81897873Y-78674500D01*
X81897864Y-78674500D01*
X80102129Y-78674500D01*
X80102123Y-78674501D01*
X80042516Y-78680908D01*
X79907671Y-78731202D01*
X79907664Y-78731206D01*
X79792455Y-78817452D01*
X79792452Y-78817455D01*
X79706206Y-78932664D01*
X79706202Y-78932671D01*
X79655908Y-79067517D01*
X79649501Y-79127116D01*
X79649501Y-79127123D01*
X79649500Y-79127135D01*
X79649500Y-80922870D01*
X79649501Y-80922876D01*
X79655908Y-80982483D01*
X79706202Y-81117328D01*
X79706206Y-81117335D01*
X79792452Y-81232544D01*
X79792455Y-81232547D01*
X79907664Y-81318793D01*
X79907671Y-81318797D01*
X80039081Y-81367810D01*
X80095015Y-81409681D01*
X80119432Y-81475145D01*
X80104580Y-81543418D01*
X80083430Y-81571673D01*
X79961503Y-81693600D01*
X79825965Y-81887169D01*
X79825964Y-81887171D01*
X79726098Y-82101335D01*
X79726094Y-82101344D01*
X79664938Y-82329586D01*
X79664936Y-82329596D01*
X79644341Y-82564999D01*
X74067783Y-82564999D01*
X73902734Y-82449432D01*
X73902732Y-82449431D01*
X73696497Y-82353261D01*
X73696488Y-82353258D01*
X73476697Y-82294366D01*
X73476693Y-82294365D01*
X73476692Y-82294365D01*
X73476691Y-82294364D01*
X73476686Y-82294364D01*
X73250002Y-82274532D01*
X73249998Y-82274532D01*
X73023313Y-82294364D01*
X73023302Y-82294366D01*
X72803511Y-82353258D01*
X72803502Y-82353261D01*
X72597267Y-82449431D01*
X72597265Y-82449432D01*
X72410858Y-82579954D01*
X72249954Y-82740858D01*
X72119432Y-82927265D01*
X72119431Y-82927267D01*
X72023261Y-83133502D01*
X72023258Y-83133511D01*
X71964366Y-83353302D01*
X71964364Y-83353313D01*
X71944532Y-83579998D01*
X68055468Y-83579998D01*
X68035635Y-83353308D01*
X67976739Y-83133504D01*
X67880568Y-82927266D01*
X67750047Y-82740861D01*
X67750045Y-82740858D01*
X67589141Y-82579954D01*
X67402734Y-82449432D01*
X67402732Y-82449431D01*
X67196497Y-82353261D01*
X67196488Y-82353258D01*
X66976697Y-82294366D01*
X66976693Y-82294365D01*
X66976692Y-82294365D01*
X66976691Y-82294364D01*
X66976686Y-82294364D01*
X66750002Y-82274532D01*
X66749998Y-82274532D01*
X66523313Y-82294364D01*
X66523302Y-82294366D01*
X66303511Y-82353258D01*
X66303502Y-82353261D01*
X66097267Y-82449431D01*
X66097265Y-82449432D01*
X65910858Y-82579954D01*
X65749954Y-82740858D01*
X65619432Y-82927265D01*
X65619431Y-82927267D01*
X65523261Y-83133502D01*
X65523258Y-83133511D01*
X65464366Y-83353302D01*
X65464364Y-83353313D01*
X65444532Y-83579998D01*
X48298396Y-83579998D01*
X48344091Y-83457483D01*
X48350500Y-83397873D01*
X48350499Y-81602128D01*
X48344091Y-81542517D01*
X48326992Y-81496673D01*
X48293797Y-81407671D01*
X48293793Y-81407664D01*
X48207547Y-81292455D01*
X48207544Y-81292452D01*
X48092335Y-81206206D01*
X48092328Y-81206202D01*
X47957482Y-81155908D01*
X47957483Y-81155908D01*
X47897883Y-81149501D01*
X47897881Y-81149500D01*
X47897873Y-81149500D01*
X47897864Y-81149500D01*
X46102129Y-81149500D01*
X46102123Y-81149501D01*
X46042516Y-81155908D01*
X45907671Y-81206202D01*
X45907664Y-81206206D01*
X45792455Y-81292452D01*
X45792452Y-81292455D01*
X45706206Y-81407664D01*
X45706202Y-81407671D01*
X45655908Y-81542517D01*
X45653642Y-81563599D01*
X45649501Y-81602123D01*
X45649500Y-81602135D01*
X36315478Y-81602135D01*
X36288496Y-81563600D01*
X36235247Y-81510351D01*
X36166567Y-81441671D01*
X36133084Y-81380351D01*
X36138068Y-81310659D01*
X36179939Y-81254725D01*
X36210915Y-81237810D01*
X36342331Y-81188796D01*
X36457546Y-81102546D01*
X36543796Y-80987331D01*
X36594091Y-80852483D01*
X36600500Y-80792873D01*
X36600499Y-79169998D01*
X39194532Y-79169998D01*
X39194532Y-79170001D01*
X39214364Y-79396686D01*
X39214366Y-79396697D01*
X39273258Y-79616488D01*
X39273261Y-79616497D01*
X39369431Y-79822732D01*
X39369432Y-79822734D01*
X39499954Y-80009141D01*
X39660858Y-80170045D01*
X39660861Y-80170047D01*
X39847266Y-80300568D01*
X40053504Y-80396739D01*
X40273308Y-80455635D01*
X40435230Y-80469801D01*
X40499998Y-80475468D01*
X40500000Y-80475468D01*
X40500002Y-80475468D01*
X40556673Y-80470509D01*
X40726692Y-80455635D01*
X40946496Y-80396739D01*
X41152734Y-80300568D01*
X41339139Y-80170047D01*
X41500047Y-80009139D01*
X41630568Y-79822734D01*
X41726739Y-79616496D01*
X41785635Y-79396692D01*
X41805468Y-79170000D01*
X41803957Y-79152734D01*
X41795156Y-79052135D01*
X41785635Y-78943308D01*
X41726739Y-78723504D01*
X41630568Y-78517266D01*
X41618477Y-78499998D01*
X65444532Y-78499998D01*
X65444532Y-78500001D01*
X65464364Y-78726686D01*
X65464366Y-78726697D01*
X65523258Y-78946488D01*
X65523261Y-78946497D01*
X65619431Y-79152732D01*
X65619432Y-79152734D01*
X65749954Y-79339141D01*
X65910858Y-79500045D01*
X65910861Y-79500047D01*
X66097266Y-79630568D01*
X66303504Y-79726739D01*
X66523308Y-79785635D01*
X66685230Y-79799801D01*
X66749998Y-79805468D01*
X66750000Y-79805468D01*
X66750002Y-79805468D01*
X66806673Y-79800509D01*
X66976692Y-79785635D01*
X67196496Y-79726739D01*
X67402734Y-79630568D01*
X67589139Y-79500047D01*
X67750047Y-79339139D01*
X67880568Y-79152734D01*
X67976739Y-78946496D01*
X68035635Y-78726692D01*
X68055468Y-78500000D01*
X68055468Y-78499998D01*
X71944532Y-78499998D01*
X71944532Y-78500001D01*
X71964364Y-78726686D01*
X71964366Y-78726697D01*
X72023258Y-78946488D01*
X72023261Y-78946497D01*
X72119431Y-79152732D01*
X72119432Y-79152734D01*
X72249954Y-79339141D01*
X72410858Y-79500045D01*
X72410861Y-79500047D01*
X72597266Y-79630568D01*
X72803504Y-79726739D01*
X73023308Y-79785635D01*
X73185230Y-79799801D01*
X73249998Y-79805468D01*
X73250000Y-79805468D01*
X73250002Y-79805468D01*
X73306673Y-79800509D01*
X73476692Y-79785635D01*
X73696496Y-79726739D01*
X73902734Y-79630568D01*
X74089139Y-79500047D01*
X74250047Y-79339139D01*
X74380568Y-79152734D01*
X74476739Y-78946496D01*
X74535635Y-78726692D01*
X74555468Y-78500000D01*
X74551968Y-78460000D01*
X74535635Y-78273313D01*
X74535635Y-78273308D01*
X74476739Y-78053504D01*
X74380568Y-77847266D01*
X74250047Y-77660861D01*
X74250045Y-77660858D01*
X74089141Y-77499954D01*
X73902734Y-77369432D01*
X73902732Y-77369431D01*
X73696497Y-77273261D01*
X73696488Y-77273258D01*
X73476697Y-77214366D01*
X73476693Y-77214365D01*
X73476692Y-77214365D01*
X73476691Y-77214364D01*
X73476686Y-77214364D01*
X73250002Y-77194532D01*
X73249998Y-77194532D01*
X73023313Y-77214364D01*
X73023302Y-77214366D01*
X72803511Y-77273258D01*
X72803502Y-77273261D01*
X72597267Y-77369431D01*
X72597265Y-77369432D01*
X72410858Y-77499954D01*
X72249954Y-77660858D01*
X72119432Y-77847265D01*
X72119431Y-77847267D01*
X72023261Y-78053502D01*
X72023258Y-78053511D01*
X71964366Y-78273302D01*
X71964364Y-78273313D01*
X71944532Y-78499998D01*
X68055468Y-78499998D01*
X68051968Y-78460000D01*
X68035635Y-78273313D01*
X68035635Y-78273308D01*
X67976739Y-78053504D01*
X67880568Y-77847266D01*
X67750047Y-77660861D01*
X67750045Y-77660858D01*
X67589141Y-77499954D01*
X67402734Y-77369432D01*
X67402732Y-77369431D01*
X67196497Y-77273261D01*
X67196488Y-77273258D01*
X66976697Y-77214366D01*
X66976693Y-77214365D01*
X66976692Y-77214365D01*
X66976691Y-77214364D01*
X66976686Y-77214364D01*
X66750002Y-77194532D01*
X66749998Y-77194532D01*
X66523313Y-77214364D01*
X66523302Y-77214366D01*
X66303511Y-77273258D01*
X66303502Y-77273261D01*
X66097267Y-77369431D01*
X66097265Y-77369432D01*
X65910858Y-77499954D01*
X65749954Y-77660858D01*
X65619432Y-77847265D01*
X65619431Y-77847267D01*
X65523261Y-78053502D01*
X65523258Y-78053511D01*
X65464366Y-78273302D01*
X65464364Y-78273313D01*
X65444532Y-78499998D01*
X41618477Y-78499998D01*
X41500047Y-78330861D01*
X41500045Y-78330858D01*
X41339141Y-78169954D01*
X41152734Y-78039432D01*
X41152732Y-78039431D01*
X40946497Y-77943261D01*
X40946488Y-77943258D01*
X40726697Y-77884366D01*
X40726693Y-77884365D01*
X40726692Y-77884365D01*
X40726691Y-77884364D01*
X40726686Y-77884364D01*
X40500002Y-77864532D01*
X40499998Y-77864532D01*
X40273313Y-77884364D01*
X40273302Y-77884366D01*
X40053511Y-77943258D01*
X40053502Y-77943261D01*
X39847267Y-78039431D01*
X39847265Y-78039432D01*
X39660858Y-78169954D01*
X39499954Y-78330858D01*
X39369432Y-78517265D01*
X39369431Y-78517267D01*
X39273261Y-78723502D01*
X39273258Y-78723511D01*
X39214366Y-78943302D01*
X39214364Y-78943313D01*
X39194532Y-79169998D01*
X36600499Y-79169998D01*
X36600499Y-78997128D01*
X36594091Y-78937517D01*
X36564310Y-78857671D01*
X36543797Y-78802671D01*
X36543793Y-78802664D01*
X36457547Y-78687455D01*
X36457544Y-78687452D01*
X36342335Y-78601206D01*
X36342328Y-78601202D01*
X36207482Y-78550908D01*
X36207483Y-78550908D01*
X36147883Y-78544501D01*
X36147881Y-78544500D01*
X36147873Y-78544500D01*
X36147864Y-78544500D01*
X34352129Y-78544500D01*
X34352123Y-78544501D01*
X34292516Y-78550908D01*
X34157671Y-78601202D01*
X34157664Y-78601206D01*
X34042455Y-78687452D01*
X34042452Y-78687455D01*
X33956206Y-78802664D01*
X33956202Y-78802671D01*
X33905908Y-78937517D01*
X33899501Y-78997116D01*
X33899501Y-78997123D01*
X33899500Y-78997135D01*
X33899500Y-80792870D01*
X33899501Y-80792876D01*
X33905908Y-80852483D01*
X33956202Y-80987328D01*
X33956206Y-80987335D01*
X34042452Y-81102544D01*
X34042455Y-81102547D01*
X34157664Y-81188793D01*
X34157671Y-81188797D01*
X34289081Y-81237810D01*
X34345015Y-81279681D01*
X34369432Y-81345145D01*
X34354580Y-81413418D01*
X34333430Y-81441673D01*
X34211503Y-81563600D01*
X34075965Y-81757169D01*
X34075964Y-81757171D01*
X33976098Y-81971335D01*
X33976094Y-81971344D01*
X33914938Y-82199586D01*
X33914936Y-82199596D01*
X33894341Y-82434999D01*
X13000000Y-82434999D01*
X13000000Y-62969999D01*
X15644341Y-62969999D01*
X15644341Y-62970000D01*
X15664936Y-63205403D01*
X15664938Y-63205413D01*
X15726094Y-63433655D01*
X15726096Y-63433659D01*
X15726097Y-63433663D01*
X15825965Y-63647830D01*
X15825967Y-63647834D01*
X15961501Y-63841395D01*
X15961506Y-63841402D01*
X16128597Y-64008493D01*
X16128603Y-64008498D01*
X16314158Y-64138425D01*
X16357783Y-64193002D01*
X16364977Y-64262500D01*
X16333454Y-64324855D01*
X16314158Y-64341575D01*
X16128597Y-64471505D01*
X15961505Y-64638597D01*
X15825965Y-64832169D01*
X15825964Y-64832171D01*
X15726098Y-65046335D01*
X15726094Y-65046344D01*
X15664938Y-65274586D01*
X15664936Y-65274596D01*
X15644341Y-65509999D01*
X15644341Y-65510000D01*
X15664936Y-65745403D01*
X15664938Y-65745413D01*
X15726094Y-65973655D01*
X15726096Y-65973659D01*
X15726097Y-65973663D01*
X15825965Y-66187830D01*
X15825967Y-66187834D01*
X15961501Y-66381395D01*
X15961506Y-66381402D01*
X16128597Y-66548493D01*
X16128603Y-66548498D01*
X16314158Y-66678425D01*
X16357783Y-66733002D01*
X16364977Y-66802500D01*
X16333454Y-66864855D01*
X16314158Y-66881575D01*
X16128597Y-67011505D01*
X15961505Y-67178597D01*
X15825965Y-67372169D01*
X15825964Y-67372171D01*
X15726098Y-67586335D01*
X15726094Y-67586344D01*
X15664938Y-67814586D01*
X15664936Y-67814596D01*
X15644341Y-68049999D01*
X15644341Y-68050000D01*
X15664936Y-68285403D01*
X15664938Y-68285413D01*
X15726094Y-68513655D01*
X15726096Y-68513659D01*
X15726097Y-68513663D01*
X15788842Y-68648219D01*
X15825965Y-68727830D01*
X15825967Y-68727834D01*
X15961501Y-68921395D01*
X15961506Y-68921402D01*
X16128597Y-69088493D01*
X16128603Y-69088498D01*
X16314158Y-69218425D01*
X16357783Y-69273002D01*
X16364977Y-69342500D01*
X16333454Y-69404855D01*
X16314158Y-69421575D01*
X16128597Y-69551505D01*
X15961505Y-69718597D01*
X15825965Y-69912169D01*
X15825964Y-69912171D01*
X15726098Y-70126335D01*
X15726094Y-70126344D01*
X15664938Y-70354586D01*
X15664936Y-70354596D01*
X15644341Y-70589999D01*
X15644341Y-70590000D01*
X15664936Y-70825403D01*
X15664938Y-70825413D01*
X15726094Y-71053655D01*
X15726096Y-71053659D01*
X15726097Y-71053663D01*
X15762939Y-71132671D01*
X15825965Y-71267830D01*
X15825967Y-71267834D01*
X15961501Y-71461395D01*
X15961506Y-71461402D01*
X16128597Y-71628493D01*
X16128603Y-71628498D01*
X16314158Y-71758425D01*
X16357783Y-71813002D01*
X16364977Y-71882500D01*
X16333454Y-71944855D01*
X16314158Y-71961575D01*
X16128597Y-72091505D01*
X15961505Y-72258597D01*
X15825965Y-72452169D01*
X15825964Y-72452171D01*
X15726098Y-72666335D01*
X15726094Y-72666344D01*
X15664938Y-72894586D01*
X15664936Y-72894596D01*
X15644341Y-73129999D01*
X15644341Y-73130000D01*
X15664936Y-73365403D01*
X15664938Y-73365413D01*
X15726094Y-73593655D01*
X15726096Y-73593659D01*
X15726097Y-73593663D01*
X15795929Y-73743418D01*
X15825965Y-73807830D01*
X15825967Y-73807834D01*
X15961501Y-74001395D01*
X15961506Y-74001402D01*
X16128597Y-74168493D01*
X16128603Y-74168498D01*
X16314158Y-74298425D01*
X16357783Y-74353002D01*
X16364977Y-74422500D01*
X16333454Y-74484855D01*
X16314158Y-74501575D01*
X16128597Y-74631505D01*
X15961505Y-74798597D01*
X15825965Y-74992169D01*
X15825964Y-74992171D01*
X15726098Y-75206335D01*
X15726094Y-75206344D01*
X15664938Y-75434586D01*
X15664936Y-75434596D01*
X15644341Y-75669999D01*
X15644341Y-75670000D01*
X15664936Y-75905403D01*
X15664938Y-75905413D01*
X15726094Y-76133655D01*
X15726096Y-76133659D01*
X15726097Y-76133663D01*
X15731691Y-76145659D01*
X15825965Y-76347830D01*
X15825967Y-76347834D01*
X15961501Y-76541395D01*
X15961506Y-76541402D01*
X16128597Y-76708493D01*
X16128603Y-76708498D01*
X16314594Y-76838730D01*
X16358219Y-76893307D01*
X16365413Y-76962805D01*
X16333890Y-77025160D01*
X16314595Y-77041880D01*
X16128922Y-77171890D01*
X16128920Y-77171891D01*
X15961891Y-77338920D01*
X15961886Y-77338926D01*
X15826400Y-77532420D01*
X15826399Y-77532422D01*
X15726570Y-77746507D01*
X15726567Y-77746513D01*
X15669364Y-77959999D01*
X15669364Y-77960000D01*
X16566988Y-77960000D01*
X16534075Y-78017007D01*
X16500000Y-78144174D01*
X16500000Y-78275826D01*
X16534075Y-78402993D01*
X16566988Y-78460000D01*
X15669364Y-78460000D01*
X15726567Y-78673486D01*
X15726570Y-78673492D01*
X15826399Y-78887578D01*
X15961894Y-79081082D01*
X16083946Y-79203134D01*
X16117431Y-79264457D01*
X16112447Y-79334149D01*
X16070575Y-79390082D01*
X16039598Y-79406997D01*
X15907671Y-79456202D01*
X15907664Y-79456206D01*
X15792455Y-79542452D01*
X15792452Y-79542455D01*
X15706206Y-79657664D01*
X15706202Y-79657671D01*
X15655908Y-79792517D01*
X15652660Y-79822732D01*
X15649501Y-79852123D01*
X15649500Y-79852135D01*
X15649500Y-81647870D01*
X15649501Y-81647876D01*
X15655908Y-81707483D01*
X15706202Y-81842328D01*
X15706206Y-81842335D01*
X15792452Y-81957544D01*
X15792455Y-81957547D01*
X15907664Y-82043793D01*
X15907671Y-82043797D01*
X16042517Y-82094091D01*
X16042516Y-82094091D01*
X16049444Y-82094835D01*
X16102127Y-82100500D01*
X17897872Y-82100499D01*
X17957483Y-82094091D01*
X18092331Y-82043796D01*
X18207546Y-81957546D01*
X18293796Y-81842331D01*
X18344091Y-81707483D01*
X18350500Y-81647873D01*
X18350499Y-79852128D01*
X18344091Y-79792517D01*
X18341524Y-79785635D01*
X18293797Y-79657671D01*
X18293793Y-79657664D01*
X18207547Y-79542455D01*
X18207544Y-79542452D01*
X18092335Y-79456206D01*
X18092328Y-79456202D01*
X17960401Y-79406997D01*
X17904467Y-79365126D01*
X17880050Y-79299662D01*
X17894902Y-79231389D01*
X17916053Y-79203133D01*
X18038108Y-79081078D01*
X18173600Y-78887578D01*
X18273429Y-78673492D01*
X18273432Y-78673486D01*
X18330636Y-78460000D01*
X17433012Y-78460000D01*
X17465925Y-78402993D01*
X17500000Y-78275826D01*
X17500000Y-78144174D01*
X17465925Y-78017007D01*
X17433012Y-77960000D01*
X18330636Y-77960000D01*
X18330635Y-77959999D01*
X18273432Y-77746513D01*
X18273429Y-77746507D01*
X18173600Y-77532422D01*
X18173599Y-77532420D01*
X18038113Y-77338926D01*
X18038108Y-77338920D01*
X17871078Y-77171890D01*
X17685405Y-77041879D01*
X17641780Y-76987302D01*
X17634588Y-76917804D01*
X17666110Y-76855449D01*
X17685406Y-76838730D01*
X17871401Y-76708495D01*
X18038495Y-76541401D01*
X18174035Y-76347830D01*
X18273903Y-76133663D01*
X18335063Y-75905408D01*
X18355659Y-75670000D01*
X18352719Y-75636402D01*
X18335784Y-75442834D01*
X18335063Y-75434592D01*
X18286582Y-75253655D01*
X18273905Y-75206344D01*
X18273904Y-75206343D01*
X18273903Y-75206337D01*
X18174035Y-74992171D01*
X18074837Y-74850500D01*
X18038494Y-74798597D01*
X17871402Y-74631506D01*
X17871396Y-74631501D01*
X17685842Y-74501575D01*
X17642217Y-74446998D01*
X17635023Y-74377500D01*
X17666546Y-74315145D01*
X17685842Y-74298425D01*
X17708026Y-74282891D01*
X17871401Y-74168495D01*
X18038495Y-74001401D01*
X18174035Y-73807830D01*
X18273903Y-73593663D01*
X18335063Y-73365408D01*
X18355659Y-73130000D01*
X18355035Y-73122873D01*
X18335063Y-72894596D01*
X18335063Y-72894592D01*
X18273903Y-72666337D01*
X18243965Y-72602135D01*
X32399500Y-72602135D01*
X32399500Y-74397870D01*
X32399501Y-74397876D01*
X32405908Y-74457483D01*
X32456202Y-74592328D01*
X32456206Y-74592335D01*
X32542452Y-74707544D01*
X32542455Y-74707547D01*
X32657664Y-74793793D01*
X32657671Y-74793797D01*
X32792517Y-74844091D01*
X32792516Y-74844091D01*
X32799444Y-74844835D01*
X32852127Y-74850500D01*
X34647872Y-74850499D01*
X34707483Y-74844091D01*
X34842331Y-74793796D01*
X34957546Y-74707546D01*
X35043796Y-74592331D01*
X35093002Y-74460401D01*
X35134872Y-74404468D01*
X35200337Y-74380050D01*
X35268610Y-74394901D01*
X35296865Y-74416053D01*
X35418917Y-74538105D01*
X35612421Y-74673600D01*
X35826507Y-74773429D01*
X35826516Y-74773433D01*
X36040000Y-74830634D01*
X36040000Y-73933012D01*
X36097007Y-73965925D01*
X36224174Y-74000000D01*
X36355826Y-74000000D01*
X36482993Y-73965925D01*
X36540000Y-73933012D01*
X36540000Y-74830633D01*
X36691655Y-74789999D01*
X79644341Y-74789999D01*
X79644341Y-74790000D01*
X79664936Y-75025403D01*
X79664938Y-75025413D01*
X79726094Y-75253655D01*
X79726096Y-75253659D01*
X79726097Y-75253663D01*
X79810463Y-75434586D01*
X79825965Y-75467830D01*
X79825967Y-75467834D01*
X79934281Y-75622521D01*
X79961505Y-75661401D01*
X80128599Y-75828495D01*
X80225384Y-75896265D01*
X80322165Y-75964032D01*
X80322167Y-75964033D01*
X80322170Y-75964035D01*
X80536337Y-76063903D01*
X80764592Y-76125063D01*
X80952918Y-76141539D01*
X80999999Y-76145659D01*
X81000000Y-76145659D01*
X81000001Y-76145659D01*
X81039234Y-76142226D01*
X81235408Y-76125063D01*
X81463663Y-76063903D01*
X81677830Y-75964035D01*
X81871401Y-75828495D01*
X82038495Y-75661401D01*
X82174035Y-75467830D01*
X82273903Y-75253663D01*
X82335063Y-75025408D01*
X82355659Y-74790000D01*
X82353472Y-74764999D01*
X85644341Y-74764999D01*
X85644341Y-74765000D01*
X85664936Y-75000403D01*
X85664938Y-75000413D01*
X85726094Y-75228655D01*
X85726096Y-75228659D01*
X85726097Y-75228663D01*
X85822121Y-75434586D01*
X85825965Y-75442830D01*
X85825967Y-75442834D01*
X85934281Y-75597521D01*
X85961505Y-75636401D01*
X86128599Y-75803495D01*
X86164300Y-75828493D01*
X86322165Y-75939032D01*
X86322167Y-75939033D01*
X86322170Y-75939035D01*
X86536337Y-76038903D01*
X86764592Y-76100063D01*
X86952918Y-76116539D01*
X86999999Y-76120659D01*
X87000000Y-76120659D01*
X87000001Y-76120659D01*
X87039234Y-76117226D01*
X87235408Y-76100063D01*
X87463663Y-76038903D01*
X87677830Y-75939035D01*
X87871401Y-75803495D01*
X88038495Y-75636401D01*
X88174035Y-75442830D01*
X88273903Y-75228663D01*
X88335063Y-75000408D01*
X88355659Y-74765000D01*
X88335063Y-74529592D01*
X88273903Y-74301337D01*
X88174035Y-74087171D01*
X88113979Y-74001402D01*
X88038496Y-73893600D01*
X88038495Y-73893599D01*
X87916567Y-73771671D01*
X87883084Y-73710351D01*
X87888068Y-73640659D01*
X87929939Y-73584725D01*
X87960915Y-73567810D01*
X88092331Y-73518796D01*
X88207546Y-73432546D01*
X88293796Y-73317331D01*
X88344091Y-73182483D01*
X88350500Y-73122873D01*
X88350499Y-71327128D01*
X88344091Y-71267517D01*
X88303120Y-71157669D01*
X88293797Y-71132671D01*
X88293793Y-71132664D01*
X88207547Y-71017455D01*
X88207544Y-71017452D01*
X88092335Y-70931206D01*
X88092328Y-70931202D01*
X87957482Y-70880908D01*
X87957483Y-70880908D01*
X87897883Y-70874501D01*
X87897881Y-70874500D01*
X87897873Y-70874500D01*
X87897864Y-70874500D01*
X86102129Y-70874500D01*
X86102123Y-70874501D01*
X86042516Y-70880908D01*
X85907671Y-70931202D01*
X85907664Y-70931206D01*
X85792455Y-71017452D01*
X85792452Y-71017455D01*
X85706206Y-71132664D01*
X85706202Y-71132671D01*
X85655908Y-71267517D01*
X85649501Y-71327116D01*
X85649501Y-71327123D01*
X85649500Y-71327135D01*
X85649500Y-73122870D01*
X85649501Y-73122876D01*
X85655908Y-73182483D01*
X85706202Y-73317328D01*
X85706206Y-73317335D01*
X85792452Y-73432544D01*
X85792455Y-73432547D01*
X85907664Y-73518793D01*
X85907671Y-73518797D01*
X86039081Y-73567810D01*
X86095015Y-73609681D01*
X86119432Y-73675145D01*
X86104580Y-73743418D01*
X86083430Y-73771673D01*
X85961503Y-73893600D01*
X85825965Y-74087169D01*
X85825964Y-74087171D01*
X85726098Y-74301335D01*
X85726094Y-74301344D01*
X85664938Y-74529586D01*
X85664936Y-74529596D01*
X85644341Y-74764999D01*
X82353472Y-74764999D01*
X82335063Y-74554592D01*
X82273903Y-74326337D01*
X82174035Y-74112171D01*
X82156528Y-74087169D01*
X82038496Y-73918600D01*
X82013495Y-73893599D01*
X81916567Y-73796671D01*
X81883084Y-73735351D01*
X81888068Y-73665659D01*
X81929939Y-73609725D01*
X81960915Y-73592810D01*
X82092331Y-73543796D01*
X82207546Y-73457546D01*
X82293796Y-73342331D01*
X82344091Y-73207483D01*
X82350500Y-73147873D01*
X82350499Y-71352128D01*
X82344091Y-71292517D01*
X82334883Y-71267830D01*
X82293797Y-71157671D01*
X82293793Y-71157664D01*
X82207547Y-71042455D01*
X82207544Y-71042452D01*
X82092335Y-70956206D01*
X82092328Y-70956202D01*
X81957482Y-70905908D01*
X81957483Y-70905908D01*
X81897883Y-70899501D01*
X81897881Y-70899500D01*
X81897873Y-70899500D01*
X81897864Y-70899500D01*
X80102129Y-70899500D01*
X80102123Y-70899501D01*
X80042516Y-70905908D01*
X79907671Y-70956202D01*
X79907664Y-70956206D01*
X79792455Y-71042452D01*
X79792452Y-71042455D01*
X79706206Y-71157664D01*
X79706202Y-71157671D01*
X79655908Y-71292517D01*
X79652187Y-71327135D01*
X79649501Y-71352123D01*
X79649500Y-71352135D01*
X79649500Y-73147870D01*
X79649501Y-73147876D01*
X79655908Y-73207483D01*
X79706202Y-73342328D01*
X79706206Y-73342335D01*
X79792452Y-73457544D01*
X79792455Y-73457547D01*
X79907664Y-73543793D01*
X79907671Y-73543797D01*
X80039081Y-73592810D01*
X80095015Y-73634681D01*
X80119432Y-73700145D01*
X80104580Y-73768418D01*
X80083430Y-73796673D01*
X79961503Y-73918600D01*
X79825965Y-74112169D01*
X79825964Y-74112171D01*
X79726098Y-74326335D01*
X79726094Y-74326344D01*
X79664938Y-74554586D01*
X79664936Y-74554596D01*
X79644341Y-74789999D01*
X36691655Y-74789999D01*
X36753483Y-74773433D01*
X36753492Y-74773429D01*
X36967578Y-74673600D01*
X37161082Y-74538105D01*
X37328105Y-74371082D01*
X37463600Y-74177578D01*
X37563429Y-73963492D01*
X37563432Y-73963486D01*
X37620636Y-73750000D01*
X36723012Y-73750000D01*
X36755925Y-73692993D01*
X36790000Y-73565826D01*
X36790000Y-73434174D01*
X36755925Y-73307007D01*
X36723012Y-73250000D01*
X37620636Y-73250000D01*
X37620635Y-73249999D01*
X37563432Y-73036513D01*
X37563429Y-73036507D01*
X37463600Y-72822422D01*
X37463599Y-72822420D01*
X37328113Y-72628926D01*
X37328108Y-72628920D01*
X37161082Y-72461894D01*
X36967578Y-72326399D01*
X36753492Y-72226570D01*
X36753486Y-72226567D01*
X36540000Y-72169364D01*
X36540000Y-73066988D01*
X36482993Y-73034075D01*
X36355826Y-73000000D01*
X36224174Y-73000000D01*
X36097007Y-73034075D01*
X36040000Y-73066988D01*
X36040000Y-72169364D01*
X36039999Y-72169364D01*
X35826513Y-72226567D01*
X35826507Y-72226570D01*
X35612422Y-72326399D01*
X35612420Y-72326400D01*
X35418926Y-72461886D01*
X35296865Y-72583947D01*
X35235542Y-72617431D01*
X35165850Y-72612447D01*
X35109917Y-72570575D01*
X35093002Y-72539598D01*
X35043797Y-72407671D01*
X35043793Y-72407664D01*
X34957547Y-72292455D01*
X34957544Y-72292452D01*
X34842335Y-72206206D01*
X34842328Y-72206202D01*
X34707482Y-72155908D01*
X34707483Y-72155908D01*
X34647883Y-72149501D01*
X34647881Y-72149500D01*
X34647873Y-72149500D01*
X34647864Y-72149500D01*
X32852129Y-72149500D01*
X32852123Y-72149501D01*
X32792516Y-72155908D01*
X32657671Y-72206202D01*
X32657664Y-72206206D01*
X32542455Y-72292452D01*
X32542452Y-72292455D01*
X32456206Y-72407664D01*
X32456202Y-72407671D01*
X32405908Y-72542517D01*
X32399501Y-72602116D01*
X32399500Y-72602135D01*
X18243965Y-72602135D01*
X18174035Y-72452171D01*
X18142875Y-72407669D01*
X18038494Y-72258597D01*
X17871402Y-72091506D01*
X17871396Y-72091501D01*
X17685842Y-71961575D01*
X17642217Y-71906998D01*
X17635023Y-71837500D01*
X17666546Y-71775145D01*
X17685842Y-71758425D01*
X17708026Y-71742891D01*
X17871401Y-71628495D01*
X18038495Y-71461401D01*
X18174035Y-71267830D01*
X18273903Y-71053663D01*
X18335063Y-70825408D01*
X18355659Y-70590000D01*
X18335063Y-70354592D01*
X18273903Y-70126337D01*
X18174035Y-69912171D01*
X18088491Y-69790000D01*
X18038494Y-69718597D01*
X17871402Y-69551506D01*
X17871396Y-69551501D01*
X17685842Y-69421575D01*
X17642217Y-69366998D01*
X17635023Y-69297500D01*
X17666546Y-69235145D01*
X17685842Y-69218425D01*
X17763569Y-69164000D01*
X17871401Y-69088495D01*
X18038495Y-68921401D01*
X18174035Y-68727830D01*
X18273903Y-68513663D01*
X18335063Y-68285408D01*
X18355659Y-68050000D01*
X18335063Y-67814592D01*
X18273903Y-67586337D01*
X18174035Y-67372171D01*
X18063042Y-67213655D01*
X18038494Y-67178597D01*
X17871402Y-67011506D01*
X17871396Y-67011501D01*
X17685842Y-66881575D01*
X17642217Y-66826998D01*
X17635023Y-66757500D01*
X17638815Y-66749999D01*
X25164341Y-66749999D01*
X25164341Y-66750000D01*
X25184936Y-66985403D01*
X25184938Y-66985413D01*
X25246094Y-67213655D01*
X25246096Y-67213659D01*
X25246097Y-67213663D01*
X25320010Y-67372169D01*
X25345965Y-67427830D01*
X25345967Y-67427834D01*
X25362470Y-67451402D01*
X25481505Y-67621401D01*
X25648599Y-67788495D01*
X25815439Y-67905318D01*
X25834594Y-67918730D01*
X25878219Y-67973307D01*
X25885413Y-68042805D01*
X25853890Y-68105160D01*
X25834595Y-68121880D01*
X25648922Y-68251890D01*
X25648920Y-68251891D01*
X25481891Y-68418920D01*
X25481886Y-68418926D01*
X25346400Y-68612420D01*
X25346399Y-68612422D01*
X25246570Y-68826507D01*
X25246567Y-68826513D01*
X25189364Y-69039999D01*
X25189364Y-69040000D01*
X26086988Y-69040000D01*
X26054075Y-69097007D01*
X26020000Y-69224174D01*
X26020000Y-69355826D01*
X26054075Y-69482993D01*
X26086988Y-69540000D01*
X25189364Y-69540000D01*
X25246567Y-69753486D01*
X25246570Y-69753492D01*
X25346399Y-69967578D01*
X25481894Y-70161082D01*
X25648917Y-70328105D01*
X25842421Y-70463600D01*
X26056507Y-70563429D01*
X26056516Y-70563433D01*
X26270000Y-70620634D01*
X26270000Y-69723012D01*
X26327007Y-69755925D01*
X26454174Y-69790000D01*
X26585826Y-69790000D01*
X26712993Y-69755925D01*
X26770000Y-69723012D01*
X26770000Y-70620633D01*
X26983483Y-70563433D01*
X26983492Y-70563429D01*
X27197578Y-70463600D01*
X27391082Y-70328105D01*
X27558105Y-70161082D01*
X27688119Y-69975405D01*
X27742696Y-69931781D01*
X27812195Y-69924588D01*
X27874549Y-69956110D01*
X27891269Y-69975405D01*
X28021505Y-70161401D01*
X28188599Y-70328495D01*
X28285384Y-70396265D01*
X28382165Y-70464032D01*
X28382167Y-70464033D01*
X28382170Y-70464035D01*
X28596337Y-70563903D01*
X28824592Y-70625063D01*
X29001034Y-70640500D01*
X29059999Y-70645659D01*
X29060000Y-70645659D01*
X29060001Y-70645659D01*
X29118966Y-70640500D01*
X29295408Y-70625063D01*
X29523663Y-70563903D01*
X29737830Y-70464035D01*
X29931401Y-70328495D01*
X30098495Y-70161401D01*
X30228425Y-69975842D01*
X30283002Y-69932217D01*
X30352500Y-69925023D01*
X30414855Y-69956546D01*
X30431575Y-69975842D01*
X30561281Y-70161082D01*
X30561505Y-70161401D01*
X30728599Y-70328495D01*
X30825384Y-70396265D01*
X30922165Y-70464032D01*
X30922167Y-70464033D01*
X30922170Y-70464035D01*
X31136337Y-70563903D01*
X31364592Y-70625063D01*
X31541034Y-70640500D01*
X31599999Y-70645659D01*
X31600000Y-70645659D01*
X31600001Y-70645659D01*
X31658966Y-70640500D01*
X31835408Y-70625063D01*
X32063663Y-70563903D01*
X32277830Y-70464035D01*
X32471401Y-70328495D01*
X32638495Y-70161401D01*
X32768425Y-69975842D01*
X32823002Y-69932217D01*
X32892500Y-69925023D01*
X32954855Y-69956546D01*
X32971575Y-69975842D01*
X33101281Y-70161082D01*
X33101505Y-70161401D01*
X33268599Y-70328495D01*
X33365384Y-70396265D01*
X33462165Y-70464032D01*
X33462167Y-70464033D01*
X33462170Y-70464035D01*
X33676337Y-70563903D01*
X33904592Y-70625063D01*
X34081034Y-70640500D01*
X34139999Y-70645659D01*
X34140000Y-70645659D01*
X34140001Y-70645659D01*
X34198966Y-70640500D01*
X34375408Y-70625063D01*
X34603663Y-70563903D01*
X34817830Y-70464035D01*
X35011401Y-70328495D01*
X35178495Y-70161401D01*
X35308425Y-69975842D01*
X35363002Y-69932217D01*
X35432500Y-69925023D01*
X35494855Y-69956546D01*
X35511575Y-69975842D01*
X35641281Y-70161082D01*
X35641505Y-70161401D01*
X35808599Y-70328495D01*
X35905384Y-70396265D01*
X36002165Y-70464032D01*
X36002167Y-70464033D01*
X36002170Y-70464035D01*
X36216337Y-70563903D01*
X36444592Y-70625063D01*
X36621034Y-70640500D01*
X36679999Y-70645659D01*
X36680000Y-70645659D01*
X36680001Y-70645659D01*
X36738966Y-70640500D01*
X36915408Y-70625063D01*
X37143663Y-70563903D01*
X37357830Y-70464035D01*
X37551401Y-70328495D01*
X37718495Y-70161401D01*
X37848425Y-69975842D01*
X37903002Y-69932217D01*
X37972500Y-69925023D01*
X38034855Y-69956546D01*
X38051575Y-69975842D01*
X38181281Y-70161082D01*
X38181505Y-70161401D01*
X38348599Y-70328495D01*
X38445384Y-70396265D01*
X38542165Y-70464032D01*
X38542167Y-70464033D01*
X38542170Y-70464035D01*
X38756337Y-70563903D01*
X38984592Y-70625063D01*
X39161034Y-70640500D01*
X39219999Y-70645659D01*
X39220000Y-70645659D01*
X39220001Y-70645659D01*
X39278966Y-70640500D01*
X39455408Y-70625063D01*
X39683663Y-70563903D01*
X39897830Y-70464035D01*
X40091401Y-70328495D01*
X40258495Y-70161401D01*
X40388425Y-69975842D01*
X40443002Y-69932217D01*
X40512500Y-69925023D01*
X40574855Y-69956546D01*
X40591575Y-69975842D01*
X40721281Y-70161082D01*
X40721505Y-70161401D01*
X40888599Y-70328495D01*
X40985384Y-70396265D01*
X41082165Y-70464032D01*
X41082167Y-70464033D01*
X41082170Y-70464035D01*
X41296337Y-70563903D01*
X41524592Y-70625063D01*
X41701034Y-70640500D01*
X41759999Y-70645659D01*
X41760000Y-70645659D01*
X41760001Y-70645659D01*
X41818966Y-70640500D01*
X41995408Y-70625063D01*
X42223663Y-70563903D01*
X42437830Y-70464035D01*
X42631401Y-70328495D01*
X42798495Y-70161401D01*
X42928425Y-69975842D01*
X42983002Y-69932217D01*
X43052500Y-69925023D01*
X43114855Y-69956546D01*
X43131575Y-69975842D01*
X43261281Y-70161082D01*
X43261505Y-70161401D01*
X43428599Y-70328495D01*
X43525384Y-70396265D01*
X43622165Y-70464032D01*
X43622167Y-70464033D01*
X43622170Y-70464035D01*
X43836337Y-70563903D01*
X44064592Y-70625063D01*
X44241034Y-70640500D01*
X44299999Y-70645659D01*
X44300000Y-70645659D01*
X44300001Y-70645659D01*
X44358966Y-70640500D01*
X44535408Y-70625063D01*
X44763663Y-70563903D01*
X44977830Y-70464035D01*
X45171401Y-70328495D01*
X45338495Y-70161401D01*
X45468425Y-69975842D01*
X45523002Y-69932217D01*
X45592500Y-69925023D01*
X45654855Y-69956546D01*
X45671575Y-69975842D01*
X45801281Y-70161082D01*
X45801505Y-70161401D01*
X45968599Y-70328495D01*
X46065384Y-70396265D01*
X46162165Y-70464032D01*
X46162167Y-70464033D01*
X46162170Y-70464035D01*
X46376337Y-70563903D01*
X46604592Y-70625063D01*
X46781034Y-70640500D01*
X46839999Y-70645659D01*
X46840000Y-70645659D01*
X46840001Y-70645659D01*
X46898966Y-70640500D01*
X47075408Y-70625063D01*
X47303663Y-70563903D01*
X47517830Y-70464035D01*
X47711401Y-70328495D01*
X47878495Y-70161401D01*
X48008425Y-69975842D01*
X48063002Y-69932217D01*
X48132500Y-69925023D01*
X48194855Y-69956546D01*
X48211575Y-69975842D01*
X48341281Y-70161082D01*
X48341505Y-70161401D01*
X48508599Y-70328495D01*
X48605384Y-70396265D01*
X48702165Y-70464032D01*
X48702167Y-70464033D01*
X48702170Y-70464035D01*
X48916337Y-70563903D01*
X49144592Y-70625063D01*
X49321034Y-70640500D01*
X49379999Y-70645659D01*
X49380000Y-70645659D01*
X49380001Y-70645659D01*
X49438966Y-70640500D01*
X49615408Y-70625063D01*
X49843663Y-70563903D01*
X50057830Y-70464035D01*
X50251401Y-70328495D01*
X50418495Y-70161401D01*
X50548425Y-69975842D01*
X50603002Y-69932217D01*
X50672500Y-69925023D01*
X50734855Y-69956546D01*
X50751575Y-69975842D01*
X50881281Y-70161082D01*
X50881505Y-70161401D01*
X51048599Y-70328495D01*
X51145384Y-70396265D01*
X51242165Y-70464032D01*
X51242167Y-70464033D01*
X51242170Y-70464035D01*
X51456337Y-70563903D01*
X51684592Y-70625063D01*
X51861034Y-70640500D01*
X51919999Y-70645659D01*
X51920000Y-70645659D01*
X51920001Y-70645659D01*
X51978966Y-70640500D01*
X52155408Y-70625063D01*
X52383663Y-70563903D01*
X52597830Y-70464035D01*
X52791401Y-70328495D01*
X52958495Y-70161401D01*
X53088425Y-69975842D01*
X53143002Y-69932217D01*
X53212500Y-69925023D01*
X53274855Y-69956546D01*
X53291575Y-69975842D01*
X53421281Y-70161082D01*
X53421505Y-70161401D01*
X53588599Y-70328495D01*
X53685384Y-70396265D01*
X53782165Y-70464032D01*
X53782167Y-70464033D01*
X53782170Y-70464035D01*
X53996337Y-70563903D01*
X54224592Y-70625063D01*
X54401034Y-70640500D01*
X54459999Y-70645659D01*
X54460000Y-70645659D01*
X54460001Y-70645659D01*
X54518966Y-70640500D01*
X54695408Y-70625063D01*
X54923663Y-70563903D01*
X55137830Y-70464035D01*
X55331401Y-70328495D01*
X55498495Y-70161401D01*
X55628425Y-69975842D01*
X55683002Y-69932217D01*
X55752500Y-69925023D01*
X55814855Y-69956546D01*
X55831575Y-69975842D01*
X55961281Y-70161082D01*
X55961505Y-70161401D01*
X56128599Y-70328495D01*
X56225384Y-70396265D01*
X56322165Y-70464032D01*
X56322167Y-70464033D01*
X56322170Y-70464035D01*
X56536337Y-70563903D01*
X56764592Y-70625063D01*
X56941034Y-70640500D01*
X56999999Y-70645659D01*
X57000000Y-70645659D01*
X57000001Y-70645659D01*
X57058966Y-70640500D01*
X57235408Y-70625063D01*
X57463663Y-70563903D01*
X57677830Y-70464035D01*
X57871401Y-70328495D01*
X58038495Y-70161401D01*
X58168425Y-69975842D01*
X58223002Y-69932217D01*
X58292500Y-69925023D01*
X58354855Y-69956546D01*
X58371575Y-69975842D01*
X58501281Y-70161082D01*
X58501505Y-70161401D01*
X58668599Y-70328495D01*
X58765384Y-70396265D01*
X58862165Y-70464032D01*
X58862167Y-70464033D01*
X58862170Y-70464035D01*
X59076337Y-70563903D01*
X59304592Y-70625063D01*
X59481034Y-70640500D01*
X59539999Y-70645659D01*
X59540000Y-70645659D01*
X59540001Y-70645659D01*
X59598966Y-70640500D01*
X59775408Y-70625063D01*
X60003663Y-70563903D01*
X60217830Y-70464035D01*
X60411401Y-70328495D01*
X60578495Y-70161401D01*
X60708425Y-69975842D01*
X60763002Y-69932217D01*
X60832500Y-69925023D01*
X60894855Y-69956546D01*
X60911575Y-69975842D01*
X61041281Y-70161082D01*
X61041505Y-70161401D01*
X61208599Y-70328495D01*
X61305384Y-70396265D01*
X61402165Y-70464032D01*
X61402167Y-70464033D01*
X61402170Y-70464035D01*
X61616337Y-70563903D01*
X61844592Y-70625063D01*
X62021034Y-70640500D01*
X62079999Y-70645659D01*
X62080000Y-70645659D01*
X62080001Y-70645659D01*
X62138966Y-70640500D01*
X62315408Y-70625063D01*
X62543663Y-70563903D01*
X62757830Y-70464035D01*
X62951401Y-70328495D01*
X63118495Y-70161401D01*
X63248425Y-69975842D01*
X63303002Y-69932217D01*
X63372500Y-69925023D01*
X63434855Y-69956546D01*
X63451575Y-69975842D01*
X63581281Y-70161082D01*
X63581505Y-70161401D01*
X63748599Y-70328495D01*
X63845384Y-70396265D01*
X63942165Y-70464032D01*
X63942167Y-70464033D01*
X63942170Y-70464035D01*
X64156337Y-70563903D01*
X64384592Y-70625063D01*
X64561034Y-70640500D01*
X64619999Y-70645659D01*
X64620000Y-70645659D01*
X64620001Y-70645659D01*
X64678966Y-70640500D01*
X64855408Y-70625063D01*
X65083663Y-70563903D01*
X65297830Y-70464035D01*
X65491401Y-70328495D01*
X65658495Y-70161401D01*
X65788425Y-69975842D01*
X65843002Y-69932217D01*
X65912500Y-69925023D01*
X65974855Y-69956546D01*
X65991575Y-69975842D01*
X66121281Y-70161082D01*
X66121505Y-70161401D01*
X66288599Y-70328495D01*
X66385384Y-70396265D01*
X66482165Y-70464032D01*
X66482167Y-70464033D01*
X66482170Y-70464035D01*
X66696337Y-70563903D01*
X66924592Y-70625063D01*
X67101034Y-70640500D01*
X67159999Y-70645659D01*
X67160000Y-70645659D01*
X67160001Y-70645659D01*
X67218966Y-70640500D01*
X67395408Y-70625063D01*
X67623663Y-70563903D01*
X67837830Y-70464035D01*
X68031401Y-70328495D01*
X68198495Y-70161401D01*
X68328425Y-69975842D01*
X68383002Y-69932217D01*
X68452500Y-69925023D01*
X68514855Y-69956546D01*
X68531575Y-69975842D01*
X68661281Y-70161082D01*
X68661505Y-70161401D01*
X68828599Y-70328495D01*
X68925384Y-70396265D01*
X69022165Y-70464032D01*
X69022167Y-70464033D01*
X69022170Y-70464035D01*
X69236337Y-70563903D01*
X69464592Y-70625063D01*
X69641034Y-70640500D01*
X69699999Y-70645659D01*
X69700000Y-70645659D01*
X69700001Y-70645659D01*
X69758966Y-70640500D01*
X69935408Y-70625063D01*
X70163663Y-70563903D01*
X70377830Y-70464035D01*
X70571401Y-70328495D01*
X70738495Y-70161401D01*
X70868425Y-69975842D01*
X70923002Y-69932217D01*
X70992500Y-69925023D01*
X71054855Y-69956546D01*
X71071575Y-69975842D01*
X71201281Y-70161082D01*
X71201505Y-70161401D01*
X71368599Y-70328495D01*
X71465384Y-70396265D01*
X71562165Y-70464032D01*
X71562167Y-70464033D01*
X71562170Y-70464035D01*
X71776337Y-70563903D01*
X72004592Y-70625063D01*
X72181034Y-70640500D01*
X72239999Y-70645659D01*
X72240000Y-70645659D01*
X72240001Y-70645659D01*
X72298966Y-70640500D01*
X72475408Y-70625063D01*
X72703663Y-70563903D01*
X72917830Y-70464035D01*
X73111401Y-70328495D01*
X73233329Y-70206566D01*
X73294648Y-70173084D01*
X73364340Y-70178068D01*
X73420274Y-70219939D01*
X73437189Y-70250917D01*
X73486202Y-70382328D01*
X73486206Y-70382335D01*
X73572452Y-70497544D01*
X73572455Y-70497547D01*
X73687664Y-70583793D01*
X73687671Y-70583797D01*
X73822517Y-70634091D01*
X73822516Y-70634091D01*
X73829444Y-70634835D01*
X73882127Y-70640500D01*
X75677872Y-70640499D01*
X75737483Y-70634091D01*
X75872331Y-70583796D01*
X75987546Y-70497546D01*
X76073796Y-70382331D01*
X76124091Y-70247483D01*
X76130500Y-70187873D01*
X76130499Y-68392128D01*
X76124091Y-68332517D01*
X76122810Y-68329083D01*
X76073797Y-68197671D01*
X76073793Y-68197664D01*
X75987547Y-68082455D01*
X75987544Y-68082452D01*
X75872335Y-67996206D01*
X75872328Y-67996202D01*
X75740917Y-67947189D01*
X75684983Y-67905318D01*
X75660566Y-67839853D01*
X75675418Y-67771580D01*
X75696563Y-67743332D01*
X75818495Y-67621401D01*
X75954035Y-67427830D01*
X76053903Y-67213663D01*
X76115063Y-66985408D01*
X76135659Y-66750000D01*
X76115063Y-66514592D01*
X76053903Y-66286337D01*
X75954035Y-66072171D01*
X75948425Y-66064158D01*
X75818494Y-65878597D01*
X75651402Y-65711506D01*
X75651395Y-65711501D01*
X75457834Y-65575967D01*
X75457830Y-65575965D01*
X75457828Y-65575964D01*
X75243663Y-65476097D01*
X75243659Y-65476096D01*
X75243655Y-65476094D01*
X75015413Y-65414938D01*
X75015403Y-65414936D01*
X74780001Y-65394341D01*
X74779999Y-65394341D01*
X74544596Y-65414936D01*
X74544586Y-65414938D01*
X74316344Y-65476094D01*
X74316335Y-65476098D01*
X74102171Y-65575964D01*
X74102169Y-65575965D01*
X73908597Y-65711505D01*
X73741505Y-65878597D01*
X73611575Y-66064158D01*
X73556998Y-66107783D01*
X73487500Y-66114977D01*
X73425145Y-66083454D01*
X73408425Y-66064158D01*
X73278494Y-65878597D01*
X73111402Y-65711506D01*
X73111395Y-65711501D01*
X72917834Y-65575967D01*
X72917830Y-65575965D01*
X72917828Y-65575964D01*
X72703663Y-65476097D01*
X72703659Y-65476096D01*
X72703655Y-65476094D01*
X72475413Y-65414938D01*
X72475403Y-65414936D01*
X72240001Y-65394341D01*
X72239999Y-65394341D01*
X72004596Y-65414936D01*
X72004586Y-65414938D01*
X71776344Y-65476094D01*
X71776335Y-65476098D01*
X71562171Y-65575964D01*
X71562169Y-65575965D01*
X71368597Y-65711505D01*
X71201505Y-65878597D01*
X71071575Y-66064158D01*
X71016998Y-66107783D01*
X70947500Y-66114977D01*
X70885145Y-66083454D01*
X70868425Y-66064158D01*
X70738494Y-65878597D01*
X70571402Y-65711506D01*
X70571395Y-65711501D01*
X70377834Y-65575967D01*
X70377830Y-65575965D01*
X70377828Y-65575964D01*
X70163663Y-65476097D01*
X70163659Y-65476096D01*
X70163655Y-65476094D01*
X69935413Y-65414938D01*
X69935403Y-65414936D01*
X69700001Y-65394341D01*
X69699999Y-65394341D01*
X69464596Y-65414936D01*
X69464586Y-65414938D01*
X69236344Y-65476094D01*
X69236335Y-65476098D01*
X69022171Y-65575964D01*
X69022169Y-65575965D01*
X68828597Y-65711505D01*
X68661505Y-65878597D01*
X68531575Y-66064158D01*
X68476998Y-66107783D01*
X68407500Y-66114977D01*
X68345145Y-66083454D01*
X68328425Y-66064158D01*
X68198494Y-65878597D01*
X68031402Y-65711506D01*
X68031395Y-65711501D01*
X67837834Y-65575967D01*
X67837830Y-65575965D01*
X67837828Y-65575964D01*
X67623663Y-65476097D01*
X67623659Y-65476096D01*
X67623655Y-65476094D01*
X67395413Y-65414938D01*
X67395403Y-65414936D01*
X67160001Y-65394341D01*
X67159999Y-65394341D01*
X66924596Y-65414936D01*
X66924586Y-65414938D01*
X66696344Y-65476094D01*
X66696335Y-65476098D01*
X66482171Y-65575964D01*
X66482169Y-65575965D01*
X66288597Y-65711505D01*
X66121505Y-65878597D01*
X65991575Y-66064158D01*
X65936998Y-66107783D01*
X65867500Y-66114977D01*
X65805145Y-66083454D01*
X65788425Y-66064158D01*
X65658494Y-65878597D01*
X65491402Y-65711506D01*
X65491395Y-65711501D01*
X65297834Y-65575967D01*
X65297830Y-65575965D01*
X65297828Y-65575964D01*
X65083663Y-65476097D01*
X65083659Y-65476096D01*
X65083655Y-65476094D01*
X64855413Y-65414938D01*
X64855403Y-65414936D01*
X64620001Y-65394341D01*
X64619999Y-65394341D01*
X64384596Y-65414936D01*
X64384586Y-65414938D01*
X64156344Y-65476094D01*
X64156335Y-65476098D01*
X63942171Y-65575964D01*
X63942169Y-65575965D01*
X63748597Y-65711505D01*
X63581505Y-65878597D01*
X63451575Y-66064158D01*
X63396998Y-66107783D01*
X63327500Y-66114977D01*
X63265145Y-66083454D01*
X63248425Y-66064158D01*
X63118494Y-65878597D01*
X62951402Y-65711506D01*
X62951395Y-65711501D01*
X62757834Y-65575967D01*
X62757830Y-65575965D01*
X62757828Y-65575964D01*
X62543663Y-65476097D01*
X62543659Y-65476096D01*
X62543655Y-65476094D01*
X62315413Y-65414938D01*
X62315403Y-65414936D01*
X62080001Y-65394341D01*
X62079999Y-65394341D01*
X61844596Y-65414936D01*
X61844586Y-65414938D01*
X61616344Y-65476094D01*
X61616335Y-65476098D01*
X61402171Y-65575964D01*
X61402169Y-65575965D01*
X61208597Y-65711505D01*
X61041505Y-65878597D01*
X60911575Y-66064158D01*
X60856998Y-66107783D01*
X60787500Y-66114977D01*
X60725145Y-66083454D01*
X60708425Y-66064158D01*
X60578494Y-65878597D01*
X60411402Y-65711506D01*
X60411395Y-65711501D01*
X60217834Y-65575967D01*
X60217830Y-65575965D01*
X60217828Y-65575964D01*
X60003663Y-65476097D01*
X60003659Y-65476096D01*
X60003655Y-65476094D01*
X59775413Y-65414938D01*
X59775403Y-65414936D01*
X59540001Y-65394341D01*
X59539999Y-65394341D01*
X59304596Y-65414936D01*
X59304586Y-65414938D01*
X59076344Y-65476094D01*
X59076335Y-65476098D01*
X58862171Y-65575964D01*
X58862169Y-65575965D01*
X58668597Y-65711505D01*
X58501505Y-65878597D01*
X58371575Y-66064158D01*
X58316998Y-66107783D01*
X58247500Y-66114977D01*
X58185145Y-66083454D01*
X58168425Y-66064158D01*
X58038494Y-65878597D01*
X57871402Y-65711506D01*
X57871395Y-65711501D01*
X57677834Y-65575967D01*
X57677830Y-65575965D01*
X57677828Y-65575964D01*
X57463663Y-65476097D01*
X57463659Y-65476096D01*
X57463655Y-65476094D01*
X57235413Y-65414938D01*
X57235403Y-65414936D01*
X57000001Y-65394341D01*
X56999999Y-65394341D01*
X56764596Y-65414936D01*
X56764586Y-65414938D01*
X56536344Y-65476094D01*
X56536335Y-65476098D01*
X56322171Y-65575964D01*
X56322169Y-65575965D01*
X56128597Y-65711505D01*
X55961505Y-65878597D01*
X55831575Y-66064158D01*
X55776998Y-66107783D01*
X55707500Y-66114977D01*
X55645145Y-66083454D01*
X55628425Y-66064158D01*
X55498494Y-65878597D01*
X55331402Y-65711506D01*
X55331395Y-65711501D01*
X55137834Y-65575967D01*
X55137830Y-65575965D01*
X55137828Y-65575964D01*
X54923663Y-65476097D01*
X54923659Y-65476096D01*
X54923655Y-65476094D01*
X54695413Y-65414938D01*
X54695403Y-65414936D01*
X54460001Y-65394341D01*
X54459999Y-65394341D01*
X54224596Y-65414936D01*
X54224586Y-65414938D01*
X53996344Y-65476094D01*
X53996335Y-65476098D01*
X53782171Y-65575964D01*
X53782169Y-65575965D01*
X53588597Y-65711505D01*
X53421505Y-65878597D01*
X53291575Y-66064158D01*
X53236998Y-66107783D01*
X53167500Y-66114977D01*
X53105145Y-66083454D01*
X53088425Y-66064158D01*
X52958494Y-65878597D01*
X52791402Y-65711506D01*
X52791395Y-65711501D01*
X52597834Y-65575967D01*
X52597830Y-65575965D01*
X52597828Y-65575964D01*
X52383663Y-65476097D01*
X52383659Y-65476096D01*
X52383655Y-65476094D01*
X52155413Y-65414938D01*
X52155403Y-65414936D01*
X51920001Y-65394341D01*
X51919999Y-65394341D01*
X51684596Y-65414936D01*
X51684586Y-65414938D01*
X51456344Y-65476094D01*
X51456335Y-65476098D01*
X51242171Y-65575964D01*
X51242169Y-65575965D01*
X51048597Y-65711505D01*
X50881505Y-65878597D01*
X50751575Y-66064158D01*
X50696998Y-66107783D01*
X50627500Y-66114977D01*
X50565145Y-66083454D01*
X50548425Y-66064158D01*
X50418494Y-65878597D01*
X50251402Y-65711506D01*
X50251395Y-65711501D01*
X50057834Y-65575967D01*
X50057830Y-65575965D01*
X50057828Y-65575964D01*
X49843663Y-65476097D01*
X49843659Y-65476096D01*
X49843655Y-65476094D01*
X49615413Y-65414938D01*
X49615403Y-65414936D01*
X49380001Y-65394341D01*
X49379999Y-65394341D01*
X49144596Y-65414936D01*
X49144586Y-65414938D01*
X48916344Y-65476094D01*
X48916335Y-65476098D01*
X48702171Y-65575964D01*
X48702169Y-65575965D01*
X48508597Y-65711505D01*
X48341505Y-65878597D01*
X48211575Y-66064158D01*
X48156998Y-66107783D01*
X48087500Y-66114977D01*
X48025145Y-66083454D01*
X48008425Y-66064158D01*
X47878494Y-65878597D01*
X47711402Y-65711506D01*
X47711395Y-65711501D01*
X47517834Y-65575967D01*
X47517830Y-65575965D01*
X47517828Y-65575964D01*
X47303663Y-65476097D01*
X47303659Y-65476096D01*
X47303655Y-65476094D01*
X47075413Y-65414938D01*
X47075403Y-65414936D01*
X46840001Y-65394341D01*
X46839999Y-65394341D01*
X46604596Y-65414936D01*
X46604586Y-65414938D01*
X46376344Y-65476094D01*
X46376335Y-65476098D01*
X46162171Y-65575964D01*
X46162169Y-65575965D01*
X45968597Y-65711505D01*
X45801505Y-65878597D01*
X45671575Y-66064158D01*
X45616998Y-66107783D01*
X45547500Y-66114977D01*
X45485145Y-66083454D01*
X45468425Y-66064158D01*
X45338494Y-65878597D01*
X45171402Y-65711506D01*
X45171395Y-65711501D01*
X44977834Y-65575967D01*
X44977830Y-65575965D01*
X44977828Y-65575964D01*
X44763663Y-65476097D01*
X44763659Y-65476096D01*
X44763655Y-65476094D01*
X44535413Y-65414938D01*
X44535403Y-65414936D01*
X44300001Y-65394341D01*
X44299999Y-65394341D01*
X44064596Y-65414936D01*
X44064586Y-65414938D01*
X43836344Y-65476094D01*
X43836335Y-65476098D01*
X43622171Y-65575964D01*
X43622169Y-65575965D01*
X43428597Y-65711505D01*
X43261505Y-65878597D01*
X43131575Y-66064158D01*
X43076998Y-66107783D01*
X43007500Y-66114977D01*
X42945145Y-66083454D01*
X42928425Y-66064158D01*
X42798494Y-65878597D01*
X42631402Y-65711506D01*
X42631395Y-65711501D01*
X42437834Y-65575967D01*
X42437830Y-65575965D01*
X42437828Y-65575964D01*
X42223663Y-65476097D01*
X42223659Y-65476096D01*
X42223655Y-65476094D01*
X41995413Y-65414938D01*
X41995403Y-65414936D01*
X41760001Y-65394341D01*
X41759999Y-65394341D01*
X41524596Y-65414936D01*
X41524586Y-65414938D01*
X41296344Y-65476094D01*
X41296335Y-65476098D01*
X41082171Y-65575964D01*
X41082169Y-65575965D01*
X40888597Y-65711505D01*
X40721505Y-65878597D01*
X40591575Y-66064158D01*
X40536998Y-66107783D01*
X40467500Y-66114977D01*
X40405145Y-66083454D01*
X40388425Y-66064158D01*
X40258494Y-65878597D01*
X40091402Y-65711506D01*
X40091395Y-65711501D01*
X39897834Y-65575967D01*
X39897830Y-65575965D01*
X39897828Y-65575964D01*
X39683663Y-65476097D01*
X39683659Y-65476096D01*
X39683655Y-65476094D01*
X39455413Y-65414938D01*
X39455403Y-65414936D01*
X39220001Y-65394341D01*
X39219999Y-65394341D01*
X38984596Y-65414936D01*
X38984586Y-65414938D01*
X38756344Y-65476094D01*
X38756335Y-65476098D01*
X38542171Y-65575964D01*
X38542169Y-65575965D01*
X38348597Y-65711505D01*
X38181505Y-65878597D01*
X38051575Y-66064158D01*
X37996998Y-66107783D01*
X37927500Y-66114977D01*
X37865145Y-66083454D01*
X37848425Y-66064158D01*
X37718494Y-65878597D01*
X37551402Y-65711506D01*
X37551395Y-65711501D01*
X37357834Y-65575967D01*
X37357830Y-65575965D01*
X37357828Y-65575964D01*
X37143663Y-65476097D01*
X37143659Y-65476096D01*
X37143655Y-65476094D01*
X36915413Y-65414938D01*
X36915403Y-65414936D01*
X36680001Y-65394341D01*
X36679999Y-65394341D01*
X36444596Y-65414936D01*
X36444586Y-65414938D01*
X36216344Y-65476094D01*
X36216335Y-65476098D01*
X36002171Y-65575964D01*
X36002169Y-65575965D01*
X35808597Y-65711505D01*
X35641505Y-65878597D01*
X35511575Y-66064158D01*
X35456998Y-66107783D01*
X35387500Y-66114977D01*
X35325145Y-66083454D01*
X35308425Y-66064158D01*
X35178494Y-65878597D01*
X35011402Y-65711506D01*
X35011395Y-65711501D01*
X34817834Y-65575967D01*
X34817830Y-65575965D01*
X34817828Y-65575964D01*
X34603663Y-65476097D01*
X34603659Y-65476096D01*
X34603655Y-65476094D01*
X34375413Y-65414938D01*
X34375403Y-65414936D01*
X34140001Y-65394341D01*
X34139999Y-65394341D01*
X33904596Y-65414936D01*
X33904586Y-65414938D01*
X33676344Y-65476094D01*
X33676335Y-65476098D01*
X33462171Y-65575964D01*
X33462169Y-65575965D01*
X33268597Y-65711505D01*
X33101505Y-65878597D01*
X32971575Y-66064158D01*
X32916998Y-66107783D01*
X32847500Y-66114977D01*
X32785145Y-66083454D01*
X32768425Y-66064158D01*
X32638494Y-65878597D01*
X32471402Y-65711506D01*
X32471395Y-65711501D01*
X32277834Y-65575967D01*
X32277830Y-65575965D01*
X32277828Y-65575964D01*
X32063663Y-65476097D01*
X32063659Y-65476096D01*
X32063655Y-65476094D01*
X31835413Y-65414938D01*
X31835403Y-65414936D01*
X31600001Y-65394341D01*
X31599999Y-65394341D01*
X31364596Y-65414936D01*
X31364586Y-65414938D01*
X31136344Y-65476094D01*
X31136335Y-65476098D01*
X30922171Y-65575964D01*
X30922169Y-65575965D01*
X30728597Y-65711505D01*
X30561505Y-65878597D01*
X30431575Y-66064158D01*
X30376998Y-66107783D01*
X30307500Y-66114977D01*
X30245145Y-66083454D01*
X30228425Y-66064158D01*
X30098494Y-65878597D01*
X29931402Y-65711506D01*
X29931395Y-65711501D01*
X29737834Y-65575967D01*
X29737830Y-65575965D01*
X29737828Y-65575964D01*
X29523663Y-65476097D01*
X29523659Y-65476096D01*
X29523655Y-65476094D01*
X29295413Y-65414938D01*
X29295403Y-65414936D01*
X29060001Y-65394341D01*
X29059999Y-65394341D01*
X28824596Y-65414936D01*
X28824586Y-65414938D01*
X28596344Y-65476094D01*
X28596335Y-65476098D01*
X28382171Y-65575964D01*
X28382169Y-65575965D01*
X28188597Y-65711505D01*
X28021505Y-65878597D01*
X27891575Y-66064158D01*
X27836998Y-66107783D01*
X27767500Y-66114977D01*
X27705145Y-66083454D01*
X27688425Y-66064158D01*
X27558494Y-65878597D01*
X27391402Y-65711506D01*
X27391395Y-65711501D01*
X27197834Y-65575967D01*
X27197830Y-65575965D01*
X27197828Y-65575964D01*
X26983663Y-65476097D01*
X26983659Y-65476096D01*
X26983655Y-65476094D01*
X26755413Y-65414938D01*
X26755403Y-65414936D01*
X26520001Y-65394341D01*
X26519999Y-65394341D01*
X26284596Y-65414936D01*
X26284586Y-65414938D01*
X26056344Y-65476094D01*
X26056335Y-65476098D01*
X25842171Y-65575964D01*
X25842169Y-65575965D01*
X25648597Y-65711505D01*
X25481505Y-65878597D01*
X25345965Y-66072169D01*
X25345964Y-66072171D01*
X25246098Y-66286335D01*
X25246094Y-66286344D01*
X25184938Y-66514586D01*
X25184936Y-66514596D01*
X25164341Y-66749999D01*
X17638815Y-66749999D01*
X17666546Y-66695145D01*
X17685842Y-66678425D01*
X17826407Y-66580000D01*
X17871401Y-66548495D01*
X18038495Y-66381401D01*
X18174035Y-66187830D01*
X18273903Y-65973663D01*
X18335063Y-65745408D01*
X18355659Y-65510000D01*
X18335063Y-65274592D01*
X18273903Y-65046337D01*
X18174035Y-64832171D01*
X18038495Y-64638599D01*
X18038494Y-64638597D01*
X17871402Y-64471506D01*
X17871396Y-64471501D01*
X17685842Y-64341575D01*
X17642217Y-64286998D01*
X17635023Y-64217500D01*
X17666546Y-64155145D01*
X17685842Y-64138425D01*
X17826407Y-64040000D01*
X17826408Y-64039999D01*
X79644341Y-64039999D01*
X79644341Y-64040000D01*
X79664936Y-64275403D01*
X79664938Y-64275413D01*
X79726094Y-64503655D01*
X79726096Y-64503659D01*
X79726097Y-64503663D01*
X79789018Y-64638597D01*
X79825965Y-64717830D01*
X79825967Y-64717834D01*
X79961501Y-64911395D01*
X79961506Y-64911402D01*
X80128597Y-65078493D01*
X80128603Y-65078498D01*
X80314158Y-65208425D01*
X80357783Y-65263002D01*
X80364977Y-65332500D01*
X80333454Y-65394855D01*
X80314158Y-65411575D01*
X80128597Y-65541505D01*
X79961505Y-65708597D01*
X79825965Y-65902169D01*
X79825964Y-65902171D01*
X79726098Y-66116335D01*
X79726094Y-66116344D01*
X79664938Y-66344586D01*
X79664936Y-66344596D01*
X79644341Y-66579999D01*
X79644341Y-66580000D01*
X79664936Y-66815403D01*
X79664938Y-66815413D01*
X79726094Y-67043655D01*
X79726096Y-67043659D01*
X79726097Y-67043663D01*
X79789018Y-67178597D01*
X79825965Y-67257830D01*
X79825967Y-67257834D01*
X79920064Y-67392217D01*
X79961505Y-67451401D01*
X80128599Y-67618495D01*
X80132751Y-67621402D01*
X80322165Y-67754032D01*
X80322167Y-67754033D01*
X80322170Y-67754035D01*
X80536337Y-67853903D01*
X80764592Y-67915063D01*
X80938451Y-67930274D01*
X80999999Y-67935659D01*
X81000000Y-67935659D01*
X81000001Y-67935659D01*
X81061549Y-67930274D01*
X81235408Y-67915063D01*
X81463663Y-67853903D01*
X81677830Y-67754035D01*
X81871401Y-67618495D01*
X82038495Y-67451401D01*
X82174035Y-67257830D01*
X82273903Y-67043663D01*
X82335063Y-66815408D01*
X82355659Y-66580000D01*
X82335063Y-66344592D01*
X82273903Y-66116337D01*
X82174035Y-65902171D01*
X82157529Y-65878597D01*
X82038494Y-65708597D01*
X81871402Y-65541506D01*
X81871396Y-65541501D01*
X81685842Y-65411575D01*
X81642217Y-65356998D01*
X81635023Y-65287500D01*
X81666546Y-65225145D01*
X81685842Y-65208425D01*
X81708026Y-65192891D01*
X81871401Y-65078495D01*
X82038495Y-64911401D01*
X82174035Y-64717830D01*
X82273903Y-64503663D01*
X82335063Y-64275408D01*
X82355659Y-64040000D01*
X82355659Y-64039999D01*
X85644341Y-64039999D01*
X85644341Y-64040000D01*
X85664936Y-64275403D01*
X85664938Y-64275413D01*
X85726094Y-64503655D01*
X85726096Y-64503659D01*
X85726097Y-64503663D01*
X85789018Y-64638597D01*
X85825965Y-64717830D01*
X85825967Y-64717834D01*
X85961501Y-64911395D01*
X85961506Y-64911402D01*
X86128597Y-65078493D01*
X86128603Y-65078498D01*
X86314158Y-65208425D01*
X86357783Y-65263002D01*
X86364977Y-65332500D01*
X86333454Y-65394855D01*
X86314158Y-65411575D01*
X86128597Y-65541505D01*
X85961505Y-65708597D01*
X85825965Y-65902169D01*
X85825964Y-65902171D01*
X85726098Y-66116335D01*
X85726094Y-66116344D01*
X85664938Y-66344586D01*
X85664936Y-66344596D01*
X85644341Y-66579999D01*
X85644341Y-66580000D01*
X85664936Y-66815403D01*
X85664938Y-66815413D01*
X85726094Y-67043655D01*
X85726096Y-67043659D01*
X85726097Y-67043663D01*
X85789018Y-67178597D01*
X85825965Y-67257830D01*
X85825967Y-67257834D01*
X85920064Y-67392217D01*
X85961505Y-67451401D01*
X86128599Y-67618495D01*
X86132751Y-67621402D01*
X86322165Y-67754032D01*
X86322167Y-67754033D01*
X86322170Y-67754035D01*
X86536337Y-67853903D01*
X86764592Y-67915063D01*
X86938451Y-67930274D01*
X86999999Y-67935659D01*
X87000000Y-67935659D01*
X87000001Y-67935659D01*
X87061549Y-67930274D01*
X87235408Y-67915063D01*
X87463663Y-67853903D01*
X87677830Y-67754035D01*
X87871401Y-67618495D01*
X88038495Y-67451401D01*
X88174035Y-67257830D01*
X88273903Y-67043663D01*
X88335063Y-66815408D01*
X88355659Y-66580000D01*
X88335063Y-66344592D01*
X88273903Y-66116337D01*
X88174035Y-65902171D01*
X88157529Y-65878597D01*
X88038494Y-65708597D01*
X87871402Y-65541506D01*
X87871396Y-65541501D01*
X87685842Y-65411575D01*
X87642217Y-65356998D01*
X87635023Y-65287500D01*
X87666546Y-65225145D01*
X87685842Y-65208425D01*
X87708026Y-65192891D01*
X87871401Y-65078495D01*
X88038495Y-64911401D01*
X88174035Y-64717830D01*
X88273903Y-64503663D01*
X88335063Y-64275408D01*
X88355659Y-64040000D01*
X88335063Y-63804592D01*
X88273903Y-63576337D01*
X88174035Y-63362171D01*
X88064272Y-63205413D01*
X88038496Y-63168600D01*
X88038495Y-63168599D01*
X87916567Y-63046671D01*
X87883084Y-62985351D01*
X87888068Y-62915659D01*
X87929939Y-62859725D01*
X87960915Y-62842810D01*
X88092331Y-62793796D01*
X88207546Y-62707546D01*
X88293796Y-62592331D01*
X88344091Y-62457483D01*
X88350500Y-62397873D01*
X88350499Y-60602128D01*
X88344091Y-60542517D01*
X88343152Y-60540000D01*
X88293797Y-60407671D01*
X88293793Y-60407664D01*
X88207547Y-60292455D01*
X88207544Y-60292452D01*
X88092335Y-60206206D01*
X88092328Y-60206202D01*
X87957482Y-60155908D01*
X87957483Y-60155908D01*
X87897883Y-60149501D01*
X87897881Y-60149500D01*
X87897873Y-60149500D01*
X87897864Y-60149500D01*
X86102129Y-60149500D01*
X86102123Y-60149501D01*
X86042516Y-60155908D01*
X85907671Y-60206202D01*
X85907664Y-60206206D01*
X85792455Y-60292452D01*
X85792452Y-60292455D01*
X85706206Y-60407664D01*
X85706202Y-60407671D01*
X85655908Y-60542517D01*
X85649501Y-60602116D01*
X85649501Y-60602123D01*
X85649500Y-60602135D01*
X85649500Y-62397870D01*
X85649501Y-62397876D01*
X85655908Y-62457483D01*
X85706202Y-62592328D01*
X85706206Y-62592335D01*
X85792452Y-62707544D01*
X85792455Y-62707547D01*
X85907664Y-62793793D01*
X85907671Y-62793797D01*
X86039081Y-62842810D01*
X86095015Y-62884681D01*
X86119432Y-62950145D01*
X86104580Y-63018418D01*
X86083430Y-63046673D01*
X85961503Y-63168600D01*
X85825965Y-63362169D01*
X85825964Y-63362171D01*
X85726098Y-63576335D01*
X85726094Y-63576344D01*
X85664938Y-63804586D01*
X85664936Y-63804596D01*
X85644341Y-64039999D01*
X82355659Y-64039999D01*
X82335063Y-63804592D01*
X82273903Y-63576337D01*
X82174035Y-63362171D01*
X82064272Y-63205413D01*
X82038496Y-63168600D01*
X82038495Y-63168599D01*
X81916567Y-63046671D01*
X81883084Y-62985351D01*
X81888068Y-62915659D01*
X81929939Y-62859725D01*
X81960915Y-62842810D01*
X82092331Y-62793796D01*
X82207546Y-62707546D01*
X82293796Y-62592331D01*
X82344091Y-62457483D01*
X82350500Y-62397873D01*
X82350499Y-60602128D01*
X82344091Y-60542517D01*
X82343152Y-60540000D01*
X82293797Y-60407671D01*
X82293793Y-60407664D01*
X82207547Y-60292455D01*
X82207544Y-60292452D01*
X82092335Y-60206206D01*
X82092328Y-60206202D01*
X81957482Y-60155908D01*
X81957483Y-60155908D01*
X81897883Y-60149501D01*
X81897881Y-60149500D01*
X81897873Y-60149500D01*
X81897864Y-60149500D01*
X80102129Y-60149500D01*
X80102123Y-60149501D01*
X80042516Y-60155908D01*
X79907671Y-60206202D01*
X79907664Y-60206206D01*
X79792455Y-60292452D01*
X79792452Y-60292455D01*
X79706206Y-60407664D01*
X79706202Y-60407671D01*
X79655908Y-60542517D01*
X79649501Y-60602116D01*
X79649501Y-60602123D01*
X79649500Y-60602135D01*
X79649500Y-62397870D01*
X79649501Y-62397876D01*
X79655908Y-62457483D01*
X79706202Y-62592328D01*
X79706206Y-62592335D01*
X79792452Y-62707544D01*
X79792455Y-62707547D01*
X79907664Y-62793793D01*
X79907671Y-62793797D01*
X80039081Y-62842810D01*
X80095015Y-62884681D01*
X80119432Y-62950145D01*
X80104580Y-63018418D01*
X80083430Y-63046673D01*
X79961503Y-63168600D01*
X79825965Y-63362169D01*
X79825964Y-63362171D01*
X79726098Y-63576335D01*
X79726094Y-63576344D01*
X79664938Y-63804586D01*
X79664936Y-63804596D01*
X79644341Y-64039999D01*
X17826408Y-64039999D01*
X17871401Y-64008495D01*
X18038495Y-63841401D01*
X18174035Y-63647830D01*
X18273903Y-63433663D01*
X18335063Y-63205408D01*
X18355659Y-62970000D01*
X18335063Y-62734592D01*
X18273903Y-62506337D01*
X18174035Y-62292171D01*
X18038495Y-62098599D01*
X18038494Y-62098597D01*
X17871402Y-61931506D01*
X17871395Y-61931501D01*
X17677834Y-61795967D01*
X17677830Y-61795965D01*
X17677828Y-61795964D01*
X17463663Y-61696097D01*
X17463659Y-61696096D01*
X17463655Y-61696094D01*
X17235413Y-61634938D01*
X17235403Y-61634936D01*
X17000001Y-61614341D01*
X16999999Y-61614341D01*
X16764596Y-61634936D01*
X16764586Y-61634938D01*
X16536344Y-61696094D01*
X16536335Y-61696098D01*
X16322171Y-61795964D01*
X16322169Y-61795965D01*
X16128597Y-61931505D01*
X15961505Y-62098597D01*
X15825965Y-62292169D01*
X15825964Y-62292171D01*
X15726098Y-62506335D01*
X15726094Y-62506344D01*
X15664938Y-62734586D01*
X15664936Y-62734596D01*
X15644341Y-62969999D01*
X13000000Y-62969999D01*
X13000000Y-59642135D01*
X60659500Y-59642135D01*
X60659500Y-61437870D01*
X60659501Y-61437876D01*
X60665908Y-61497483D01*
X60716202Y-61632328D01*
X60716206Y-61632335D01*
X60802452Y-61747544D01*
X60802455Y-61747547D01*
X60917664Y-61833793D01*
X60917671Y-61833797D01*
X61052517Y-61884091D01*
X61052516Y-61884091D01*
X61059444Y-61884835D01*
X61112127Y-61890500D01*
X62907872Y-61890499D01*
X62967483Y-61884091D01*
X63102331Y-61833796D01*
X63217546Y-61747546D01*
X63303796Y-61632331D01*
X63352810Y-61500916D01*
X63394681Y-61444984D01*
X63460145Y-61420566D01*
X63528418Y-61435417D01*
X63556673Y-61456569D01*
X63678599Y-61578495D01*
X63759208Y-61634938D01*
X63872165Y-61714032D01*
X63872167Y-61714033D01*
X63872170Y-61714035D01*
X64086337Y-61813903D01*
X64314592Y-61875063D01*
X64491034Y-61890500D01*
X64549999Y-61895659D01*
X64550000Y-61895659D01*
X64550001Y-61895659D01*
X64608966Y-61890500D01*
X64785408Y-61875063D01*
X65013663Y-61813903D01*
X65227830Y-61714035D01*
X65421401Y-61578495D01*
X65588495Y-61411401D01*
X65718425Y-61225842D01*
X65773002Y-61182217D01*
X65842500Y-61175023D01*
X65904855Y-61206546D01*
X65921575Y-61225842D01*
X66051281Y-61411082D01*
X66051505Y-61411401D01*
X66218599Y-61578495D01*
X66299208Y-61634938D01*
X66412165Y-61714032D01*
X66412167Y-61714033D01*
X66412170Y-61714035D01*
X66626337Y-61813903D01*
X66854592Y-61875063D01*
X67031034Y-61890500D01*
X67089999Y-61895659D01*
X67090000Y-61895659D01*
X67090001Y-61895659D01*
X67148966Y-61890500D01*
X67325408Y-61875063D01*
X67553663Y-61813903D01*
X67767830Y-61714035D01*
X67961401Y-61578495D01*
X68128495Y-61411401D01*
X68258730Y-61225405D01*
X68313307Y-61181781D01*
X68382805Y-61174587D01*
X68445160Y-61206110D01*
X68461879Y-61225405D01*
X68591890Y-61411078D01*
X68758917Y-61578105D01*
X68952421Y-61713600D01*
X69166507Y-61813429D01*
X69166516Y-61813433D01*
X69380000Y-61870634D01*
X69380000Y-60973012D01*
X69437007Y-61005925D01*
X69564174Y-61040000D01*
X69695826Y-61040000D01*
X69822993Y-61005925D01*
X69880000Y-60973012D01*
X69880000Y-61870633D01*
X70093483Y-61813433D01*
X70093492Y-61813429D01*
X70307578Y-61713600D01*
X70501082Y-61578105D01*
X70668105Y-61411082D01*
X70803600Y-61217578D01*
X70903429Y-61003492D01*
X70903432Y-61003486D01*
X70960636Y-60790000D01*
X70063012Y-60790000D01*
X70095925Y-60732993D01*
X70130000Y-60605826D01*
X70130000Y-60474174D01*
X70095925Y-60347007D01*
X70063012Y-60290000D01*
X70960636Y-60290000D01*
X70960635Y-60289999D01*
X70903432Y-60076513D01*
X70903429Y-60076507D01*
X70803600Y-59862422D01*
X70803599Y-59862420D01*
X70668113Y-59668926D01*
X70668108Y-59668920D01*
X70501082Y-59501894D01*
X70307578Y-59366399D01*
X70093492Y-59266570D01*
X70093486Y-59266567D01*
X69880000Y-59209364D01*
X69880000Y-60106988D01*
X69822993Y-60074075D01*
X69695826Y-60040000D01*
X69564174Y-60040000D01*
X69437007Y-60074075D01*
X69380000Y-60106988D01*
X69380000Y-59209364D01*
X69379999Y-59209364D01*
X69166513Y-59266567D01*
X69166507Y-59266570D01*
X68952422Y-59366399D01*
X68952420Y-59366400D01*
X68758926Y-59501886D01*
X68758920Y-59501891D01*
X68591891Y-59668920D01*
X68591890Y-59668922D01*
X68461880Y-59854595D01*
X68407303Y-59898219D01*
X68337804Y-59905412D01*
X68275450Y-59873890D01*
X68258730Y-59854594D01*
X68128494Y-59668597D01*
X67961402Y-59501506D01*
X67961395Y-59501501D01*
X67959965Y-59500500D01*
X67884518Y-59447671D01*
X67767834Y-59365967D01*
X67767830Y-59365965D01*
X67767828Y-59365964D01*
X67553663Y-59266097D01*
X67553659Y-59266096D01*
X67553655Y-59266094D01*
X67325413Y-59204938D01*
X67325403Y-59204936D01*
X67090001Y-59184341D01*
X67089999Y-59184341D01*
X66854596Y-59204936D01*
X66854586Y-59204938D01*
X66626344Y-59266094D01*
X66626335Y-59266098D01*
X66412171Y-59365964D01*
X66412169Y-59365965D01*
X66218597Y-59501505D01*
X66051505Y-59668597D01*
X65921575Y-59854158D01*
X65866998Y-59897783D01*
X65797500Y-59904977D01*
X65735145Y-59873454D01*
X65718425Y-59854158D01*
X65588494Y-59668597D01*
X65421402Y-59501506D01*
X65421395Y-59501501D01*
X65419965Y-59500500D01*
X65344518Y-59447671D01*
X65227834Y-59365967D01*
X65227830Y-59365965D01*
X65227828Y-59365964D01*
X65013663Y-59266097D01*
X65013659Y-59266096D01*
X65013655Y-59266094D01*
X64785413Y-59204938D01*
X64785403Y-59204936D01*
X64550001Y-59184341D01*
X64549999Y-59184341D01*
X64314596Y-59204936D01*
X64314586Y-59204938D01*
X64086344Y-59266094D01*
X64086335Y-59266098D01*
X63872171Y-59365964D01*
X63872169Y-59365965D01*
X63678600Y-59501503D01*
X63556673Y-59623430D01*
X63495350Y-59656914D01*
X63425658Y-59651930D01*
X63369725Y-59610058D01*
X63352810Y-59579081D01*
X63303797Y-59447671D01*
X63303793Y-59447664D01*
X63217547Y-59332455D01*
X63217544Y-59332452D01*
X63102335Y-59246206D01*
X63102328Y-59246202D01*
X62967482Y-59195908D01*
X62967483Y-59195908D01*
X62907883Y-59189501D01*
X62907881Y-59189500D01*
X62907873Y-59189500D01*
X62907864Y-59189500D01*
X61112129Y-59189500D01*
X61112123Y-59189501D01*
X61052516Y-59195908D01*
X60917671Y-59246202D01*
X60917664Y-59246206D01*
X60802455Y-59332452D01*
X60802452Y-59332455D01*
X60716206Y-59447664D01*
X60716202Y-59447671D01*
X60665908Y-59582517D01*
X60659501Y-59642116D01*
X60659500Y-59642135D01*
X13000000Y-59642135D01*
X13000000Y-57230000D01*
X25664659Y-57230000D01*
X25683975Y-57426129D01*
X25683976Y-57426132D01*
X25722226Y-57552226D01*
X25741187Y-57614729D01*
X25742321Y-57616850D01*
X25742580Y-57618094D01*
X25743518Y-57620359D01*
X25743088Y-57620536D01*
X25756564Y-57685253D01*
X25732233Y-57749614D01*
X25726205Y-57757666D01*
X25726202Y-57757671D01*
X25675908Y-57892517D01*
X25669501Y-57952116D01*
X25669500Y-57952135D01*
X25669500Y-59047870D01*
X25669501Y-59047876D01*
X25675908Y-59107483D01*
X25726202Y-59242328D01*
X25726206Y-59242335D01*
X25812452Y-59357544D01*
X25812455Y-59357547D01*
X25927664Y-59443793D01*
X25927671Y-59443797D01*
X26062517Y-59494091D01*
X26062516Y-59494091D01*
X26069444Y-59494835D01*
X26122127Y-59500500D01*
X27217872Y-59500499D01*
X27277483Y-59494091D01*
X27412331Y-59443796D01*
X27420379Y-59437770D01*
X27485842Y-59413351D01*
X27549474Y-59426895D01*
X27549645Y-59426483D01*
X27551875Y-59427406D01*
X27553146Y-59427677D01*
X27555273Y-59428814D01*
X27743868Y-59486024D01*
X27940000Y-59505341D01*
X28136132Y-59486024D01*
X28324727Y-59428814D01*
X28498538Y-59335910D01*
X28498544Y-59335904D01*
X28503607Y-59332523D01*
X28504703Y-59334164D01*
X28560639Y-59310405D01*
X28629507Y-59322194D01*
X28646148Y-59332888D01*
X28646393Y-59332523D01*
X28651458Y-59335907D01*
X28651462Y-59335910D01*
X28796344Y-59413351D01*
X28823147Y-59427678D01*
X28825273Y-59428814D01*
X29013868Y-59486024D01*
X29210000Y-59505341D01*
X29406132Y-59486024D01*
X29594727Y-59428814D01*
X29768538Y-59335910D01*
X29768544Y-59335904D01*
X29773607Y-59332523D01*
X29774703Y-59334164D01*
X29830639Y-59310405D01*
X29899507Y-59322194D01*
X29916148Y-59332888D01*
X29916393Y-59332523D01*
X29921458Y-59335907D01*
X29921462Y-59335910D01*
X30066344Y-59413351D01*
X30093147Y-59427678D01*
X30095273Y-59428814D01*
X30283868Y-59486024D01*
X30480000Y-59505341D01*
X30676132Y-59486024D01*
X30864727Y-59428814D01*
X31038538Y-59335910D01*
X31038544Y-59335904D01*
X31043607Y-59332523D01*
X31044703Y-59334164D01*
X31100639Y-59310405D01*
X31169507Y-59322194D01*
X31186148Y-59332888D01*
X31186393Y-59332523D01*
X31191458Y-59335907D01*
X31191462Y-59335910D01*
X31336344Y-59413351D01*
X31363147Y-59427678D01*
X31365273Y-59428814D01*
X31553868Y-59486024D01*
X31750000Y-59505341D01*
X31946132Y-59486024D01*
X32134727Y-59428814D01*
X32136853Y-59427678D01*
X32268060Y-59357546D01*
X32308538Y-59335910D01*
X32460883Y-59210883D01*
X32585910Y-59058538D01*
X32678814Y-58884727D01*
X32736024Y-58696132D01*
X32755341Y-58500000D01*
X32736024Y-58303868D01*
X32678814Y-58115273D01*
X32585910Y-57941462D01*
X32585906Y-57941457D01*
X32582526Y-57936399D01*
X32584044Y-57935384D01*
X32560081Y-57878962D01*
X32571872Y-57810094D01*
X32582492Y-57793574D01*
X32582111Y-57793320D01*
X32585497Y-57788252D01*
X32678347Y-57614541D01*
X32719160Y-57480000D01*
X31959618Y-57480000D01*
X32010064Y-57429554D01*
X32052851Y-57355445D01*
X32075000Y-57272787D01*
X32075000Y-57230000D01*
X51704659Y-57230000D01*
X51723975Y-57426129D01*
X51723976Y-57426132D01*
X51762226Y-57552226D01*
X51781187Y-57614729D01*
X51782321Y-57616850D01*
X51782580Y-57618094D01*
X51783518Y-57620359D01*
X51783088Y-57620536D01*
X51796564Y-57685253D01*
X51772233Y-57749614D01*
X51766205Y-57757666D01*
X51766202Y-57757671D01*
X51715908Y-57892517D01*
X51709501Y-57952116D01*
X51709500Y-57952135D01*
X51709500Y-59047870D01*
X51709501Y-59047876D01*
X51715908Y-59107483D01*
X51766202Y-59242328D01*
X51766206Y-59242335D01*
X51852452Y-59357544D01*
X51852455Y-59357547D01*
X51967664Y-59443793D01*
X51967671Y-59443797D01*
X52102517Y-59494091D01*
X52102516Y-59494091D01*
X52109444Y-59494835D01*
X52162127Y-59500500D01*
X53257872Y-59500499D01*
X53317483Y-59494091D01*
X53452331Y-59443796D01*
X53460379Y-59437770D01*
X53525842Y-59413351D01*
X53589474Y-59426895D01*
X53589645Y-59426483D01*
X53591875Y-59427406D01*
X53593146Y-59427677D01*
X53595273Y-59428814D01*
X53783868Y-59486024D01*
X53980000Y-59505341D01*
X54176132Y-59486024D01*
X54364727Y-59428814D01*
X54538538Y-59335910D01*
X54538544Y-59335904D01*
X54543607Y-59332523D01*
X54544703Y-59334164D01*
X54600639Y-59310405D01*
X54669507Y-59322194D01*
X54686148Y-59332888D01*
X54686393Y-59332523D01*
X54691458Y-59335907D01*
X54691462Y-59335910D01*
X54836344Y-59413351D01*
X54863147Y-59427678D01*
X54865273Y-59428814D01*
X55053868Y-59486024D01*
X55250000Y-59505341D01*
X55446132Y-59486024D01*
X55634727Y-59428814D01*
X55808538Y-59335910D01*
X55808544Y-59335904D01*
X55813607Y-59332523D01*
X55814703Y-59334164D01*
X55870639Y-59310405D01*
X55939507Y-59322194D01*
X55956148Y-59332888D01*
X55956393Y-59332523D01*
X55961458Y-59335907D01*
X55961462Y-59335910D01*
X56106344Y-59413351D01*
X56133147Y-59427678D01*
X56135273Y-59428814D01*
X56323868Y-59486024D01*
X56520000Y-59505341D01*
X56716132Y-59486024D01*
X56904727Y-59428814D01*
X57078538Y-59335910D01*
X57078544Y-59335904D01*
X57083607Y-59332523D01*
X57084703Y-59334164D01*
X57140639Y-59310405D01*
X57209507Y-59322194D01*
X57226148Y-59332888D01*
X57226393Y-59332523D01*
X57231458Y-59335907D01*
X57231462Y-59335910D01*
X57376344Y-59413351D01*
X57403147Y-59427678D01*
X57405273Y-59428814D01*
X57593868Y-59486024D01*
X57790000Y-59505341D01*
X57986132Y-59486024D01*
X58174727Y-59428814D01*
X58176853Y-59427678D01*
X58308060Y-59357546D01*
X58348538Y-59335910D01*
X58500883Y-59210883D01*
X58625910Y-59058538D01*
X58718814Y-58884727D01*
X58776024Y-58696132D01*
X58795341Y-58500000D01*
X58776024Y-58303868D01*
X58718814Y-58115273D01*
X58625910Y-57941462D01*
X58625906Y-57941457D01*
X58622526Y-57936399D01*
X58624044Y-57935384D01*
X58600081Y-57878962D01*
X58611872Y-57810094D01*
X58622492Y-57793574D01*
X58622111Y-57793320D01*
X58625497Y-57788252D01*
X58718347Y-57614541D01*
X58759160Y-57480000D01*
X57999618Y-57480000D01*
X58050064Y-57429554D01*
X58092851Y-57355445D01*
X58115000Y-57272787D01*
X58115000Y-57187213D01*
X58092851Y-57104555D01*
X58050064Y-57030446D01*
X57999618Y-56980000D01*
X58040000Y-56980000D01*
X58759160Y-56980000D01*
X58759160Y-56979999D01*
X58718347Y-56845458D01*
X58625496Y-56671746D01*
X58625492Y-56671739D01*
X58500528Y-56519471D01*
X58348260Y-56394507D01*
X58348253Y-56394503D01*
X58174541Y-56301652D01*
X58040000Y-56260839D01*
X58040000Y-56980000D01*
X57999618Y-56980000D01*
X57989554Y-56969936D01*
X57915445Y-56927149D01*
X57832787Y-56905000D01*
X57747213Y-56905000D01*
X57664555Y-56927149D01*
X57590446Y-56969936D01*
X57540000Y-57020382D01*
X57540000Y-56260839D01*
X57539999Y-56260839D01*
X57405458Y-56301652D01*
X57231742Y-56394505D01*
X57226673Y-56397893D01*
X57225556Y-56396221D01*
X57169715Y-56419921D01*
X57100851Y-56408111D01*
X57083811Y-56397158D01*
X57083601Y-56397473D01*
X57078532Y-56394086D01*
X56904733Y-56301188D01*
X56904727Y-56301186D01*
X56716132Y-56243976D01*
X56716129Y-56243975D01*
X56520000Y-56224659D01*
X56323870Y-56243975D01*
X56135266Y-56301188D01*
X55961467Y-56394086D01*
X55956399Y-56397473D01*
X55955305Y-56395836D01*
X55899337Y-56419596D01*
X55830471Y-56407795D01*
X55813843Y-56397109D01*
X55813601Y-56397473D01*
X55808532Y-56394086D01*
X55634733Y-56301188D01*
X55634727Y-56301186D01*
X55446132Y-56243976D01*
X55446129Y-56243975D01*
X55250000Y-56224659D01*
X55053870Y-56243975D01*
X54865266Y-56301188D01*
X54691467Y-56394086D01*
X54686399Y-56397473D01*
X54685305Y-56395836D01*
X54629337Y-56419596D01*
X54560471Y-56407795D01*
X54543843Y-56397109D01*
X54543601Y-56397473D01*
X54538532Y-56394086D01*
X54364733Y-56301188D01*
X54364727Y-56301186D01*
X54176132Y-56243976D01*
X54176129Y-56243975D01*
X53980000Y-56224659D01*
X53783870Y-56243975D01*
X53595266Y-56301188D01*
X53421467Y-56394086D01*
X53416399Y-56397473D01*
X53415305Y-56395836D01*
X53359337Y-56419596D01*
X53290471Y-56407795D01*
X53273843Y-56397109D01*
X53273601Y-56397473D01*
X53268532Y-56394086D01*
X53094733Y-56301188D01*
X53094727Y-56301186D01*
X52906132Y-56243976D01*
X52906129Y-56243975D01*
X52710000Y-56224659D01*
X52513870Y-56243975D01*
X52325266Y-56301188D01*
X52151467Y-56394086D01*
X52151460Y-56394090D01*
X51999116Y-56519116D01*
X51874090Y-56671460D01*
X51874086Y-56671467D01*
X51781188Y-56845266D01*
X51723975Y-57033870D01*
X51704659Y-57230000D01*
X32075000Y-57230000D01*
X32075000Y-57187213D01*
X32052851Y-57104555D01*
X32010064Y-57030446D01*
X31959618Y-56980000D01*
X32000000Y-56980000D01*
X32719160Y-56980000D01*
X32719160Y-56979999D01*
X32678347Y-56845458D01*
X32585496Y-56671746D01*
X32585492Y-56671739D01*
X32460528Y-56519471D01*
X32308260Y-56394507D01*
X32308253Y-56394503D01*
X32134541Y-56301652D01*
X32000000Y-56260839D01*
X32000000Y-56980000D01*
X31959618Y-56980000D01*
X31949554Y-56969936D01*
X31875445Y-56927149D01*
X31792787Y-56905000D01*
X31707213Y-56905000D01*
X31624555Y-56927149D01*
X31550446Y-56969936D01*
X31500000Y-57020382D01*
X31500000Y-56260839D01*
X31499999Y-56260839D01*
X31365458Y-56301652D01*
X31191742Y-56394505D01*
X31186673Y-56397893D01*
X31185556Y-56396221D01*
X31129715Y-56419921D01*
X31060851Y-56408111D01*
X31043811Y-56397158D01*
X31043601Y-56397473D01*
X31038532Y-56394086D01*
X30864733Y-56301188D01*
X30864727Y-56301186D01*
X30676132Y-56243976D01*
X30676129Y-56243975D01*
X30480000Y-56224659D01*
X30283870Y-56243975D01*
X30095266Y-56301188D01*
X29921467Y-56394086D01*
X29916399Y-56397473D01*
X29915305Y-56395836D01*
X29859337Y-56419596D01*
X29790471Y-56407795D01*
X29773843Y-56397109D01*
X29773601Y-56397473D01*
X29768532Y-56394086D01*
X29594733Y-56301188D01*
X29594727Y-56301186D01*
X29406132Y-56243976D01*
X29406129Y-56243975D01*
X29210000Y-56224659D01*
X29013870Y-56243975D01*
X28825266Y-56301188D01*
X28651467Y-56394086D01*
X28646399Y-56397473D01*
X28645305Y-56395836D01*
X28589337Y-56419596D01*
X28520471Y-56407795D01*
X28503843Y-56397109D01*
X28503601Y-56397473D01*
X28498532Y-56394086D01*
X28324733Y-56301188D01*
X28324727Y-56301186D01*
X28136132Y-56243976D01*
X28136129Y-56243975D01*
X27940000Y-56224659D01*
X27743870Y-56243975D01*
X27555266Y-56301188D01*
X27381467Y-56394086D01*
X27376399Y-56397473D01*
X27375305Y-56395836D01*
X27319337Y-56419596D01*
X27250471Y-56407795D01*
X27233843Y-56397109D01*
X27233601Y-56397473D01*
X27228532Y-56394086D01*
X27054733Y-56301188D01*
X27054727Y-56301186D01*
X26866132Y-56243976D01*
X26866129Y-56243975D01*
X26670000Y-56224659D01*
X26473870Y-56243975D01*
X26285266Y-56301188D01*
X26111467Y-56394086D01*
X26111460Y-56394090D01*
X25959116Y-56519116D01*
X25834090Y-56671460D01*
X25834086Y-56671467D01*
X25741188Y-56845266D01*
X25683975Y-57033870D01*
X25664659Y-57230000D01*
X13000000Y-57230000D01*
X13000000Y-50539999D01*
X19539341Y-50539999D01*
X19539341Y-50540000D01*
X19559936Y-50775403D01*
X19559938Y-50775413D01*
X19621094Y-51003655D01*
X19621096Y-51003659D01*
X19621097Y-51003663D01*
X19720965Y-51217830D01*
X19720967Y-51217834D01*
X19829281Y-51372521D01*
X19856505Y-51411401D01*
X20023599Y-51578495D01*
X20120384Y-51646265D01*
X20217165Y-51714032D01*
X20217167Y-51714033D01*
X20217170Y-51714035D01*
X20431337Y-51813903D01*
X20659592Y-51875063D01*
X20847918Y-51891539D01*
X20894999Y-51895659D01*
X20895000Y-51895659D01*
X20895001Y-51895659D01*
X20934234Y-51892226D01*
X21130408Y-51875063D01*
X21358663Y-51813903D01*
X21495707Y-51749998D01*
X40614532Y-51749998D01*
X40614532Y-51750001D01*
X40634364Y-51976686D01*
X40634366Y-51976697D01*
X40693258Y-52196488D01*
X40693261Y-52196497D01*
X40789431Y-52402732D01*
X40789432Y-52402734D01*
X40919954Y-52589141D01*
X41080858Y-52750045D01*
X41080861Y-52750047D01*
X41267266Y-52880568D01*
X41473504Y-52976739D01*
X41693308Y-53035635D01*
X41855230Y-53049801D01*
X41919998Y-53055468D01*
X41920000Y-53055468D01*
X41920002Y-53055468D01*
X41976673Y-53050509D01*
X42146692Y-53035635D01*
X42366496Y-52976739D01*
X42572734Y-52880568D01*
X42759139Y-52750047D01*
X42920047Y-52589139D01*
X43050568Y-52402734D01*
X43146739Y-52196496D01*
X43205635Y-51976692D01*
X43225468Y-51750000D01*
X43225468Y-51749998D01*
X45694532Y-51749998D01*
X45694532Y-51750001D01*
X45714364Y-51976686D01*
X45714366Y-51976697D01*
X45773258Y-52196488D01*
X45773261Y-52196497D01*
X45869431Y-52402732D01*
X45869432Y-52402734D01*
X45999954Y-52589141D01*
X46160858Y-52750045D01*
X46160861Y-52750047D01*
X46347266Y-52880568D01*
X46553504Y-52976739D01*
X46773308Y-53035635D01*
X46935230Y-53049801D01*
X46999998Y-53055468D01*
X47000000Y-53055468D01*
X47000002Y-53055468D01*
X47056673Y-53050509D01*
X47226692Y-53035635D01*
X47446496Y-52976739D01*
X47652734Y-52880568D01*
X47839139Y-52750047D01*
X48000047Y-52589139D01*
X48130568Y-52402734D01*
X48226739Y-52196496D01*
X48285635Y-51976692D01*
X48305468Y-51750000D01*
X48302321Y-51714035D01*
X48299801Y-51685230D01*
X48285635Y-51523308D01*
X48226739Y-51303504D01*
X48130568Y-51097266D01*
X48000047Y-50910861D01*
X48000045Y-50910858D01*
X47839141Y-50749954D01*
X47652734Y-50619432D01*
X47652732Y-50619431D01*
X47446497Y-50523261D01*
X47446488Y-50523258D01*
X47226697Y-50464366D01*
X47226693Y-50464365D01*
X47226692Y-50464365D01*
X47226691Y-50464364D01*
X47226686Y-50464364D01*
X47000002Y-50444532D01*
X46999998Y-50444532D01*
X46773313Y-50464364D01*
X46773302Y-50464366D01*
X46553511Y-50523258D01*
X46553502Y-50523261D01*
X46347267Y-50619431D01*
X46347265Y-50619432D01*
X46160858Y-50749954D01*
X45999954Y-50910858D01*
X45869432Y-51097265D01*
X45869431Y-51097267D01*
X45773261Y-51303502D01*
X45773258Y-51303511D01*
X45714366Y-51523302D01*
X45714364Y-51523313D01*
X45694532Y-51749998D01*
X43225468Y-51749998D01*
X43222321Y-51714035D01*
X43219801Y-51685230D01*
X43205635Y-51523308D01*
X43146739Y-51303504D01*
X43050568Y-51097266D01*
X42920047Y-50910861D01*
X42920045Y-50910858D01*
X42759141Y-50749954D01*
X42572734Y-50619432D01*
X42572732Y-50619431D01*
X42366497Y-50523261D01*
X42366488Y-50523258D01*
X42146697Y-50464366D01*
X42146693Y-50464365D01*
X42146692Y-50464365D01*
X42146691Y-50464364D01*
X42146686Y-50464364D01*
X41920002Y-50444532D01*
X41919998Y-50444532D01*
X41693313Y-50464364D01*
X41693302Y-50464366D01*
X41473511Y-50523258D01*
X41473502Y-50523261D01*
X41267267Y-50619431D01*
X41267265Y-50619432D01*
X41080858Y-50749954D01*
X40919954Y-50910858D01*
X40789432Y-51097265D01*
X40789431Y-51097267D01*
X40693261Y-51303502D01*
X40693258Y-51303511D01*
X40634366Y-51523302D01*
X40634364Y-51523313D01*
X40614532Y-51749998D01*
X21495707Y-51749998D01*
X21572830Y-51714035D01*
X21766401Y-51578495D01*
X21933495Y-51411401D01*
X22069035Y-51217830D01*
X22168903Y-51003663D01*
X22230063Y-50775408D01*
X22250659Y-50540000D01*
X22249194Y-50523261D01*
X22230063Y-50304596D01*
X22230063Y-50304592D01*
X22168903Y-50076337D01*
X22069035Y-49862171D01*
X21933495Y-49668599D01*
X21811567Y-49546671D01*
X21778084Y-49485351D01*
X21783068Y-49415659D01*
X21824939Y-49359725D01*
X21855915Y-49342810D01*
X21987331Y-49293796D01*
X22102546Y-49207546D01*
X22188796Y-49092331D01*
X22239091Y-48957483D01*
X22245500Y-48897873D01*
X22245499Y-47102128D01*
X22239091Y-47042517D01*
X22188796Y-46907669D01*
X22188795Y-46907668D01*
X22188793Y-46907664D01*
X22102547Y-46792455D01*
X22102544Y-46792452D01*
X21987335Y-46706206D01*
X21987328Y-46706202D01*
X21852482Y-46655908D01*
X21852483Y-46655908D01*
X21792883Y-46649501D01*
X21792881Y-46649500D01*
X21792873Y-46649500D01*
X21792864Y-46649500D01*
X19997129Y-46649500D01*
X19997123Y-46649501D01*
X19937516Y-46655908D01*
X19802671Y-46706202D01*
X19802664Y-46706206D01*
X19687455Y-46792452D01*
X19687452Y-46792455D01*
X19601206Y-46907664D01*
X19601202Y-46907671D01*
X19550908Y-47042517D01*
X19547272Y-47076344D01*
X19544501Y-47102123D01*
X19544500Y-47102135D01*
X19544500Y-48897870D01*
X19544501Y-48897876D01*
X19550908Y-48957483D01*
X19601202Y-49092328D01*
X19601206Y-49092335D01*
X19687452Y-49207544D01*
X19687455Y-49207547D01*
X19802664Y-49293793D01*
X19802671Y-49293797D01*
X19934081Y-49342810D01*
X19990015Y-49384681D01*
X20014432Y-49450145D01*
X19999580Y-49518418D01*
X19978430Y-49546673D01*
X19856503Y-49668600D01*
X19720965Y-49862169D01*
X19720964Y-49862171D01*
X19621098Y-50076335D01*
X19621094Y-50076344D01*
X19559938Y-50304586D01*
X19559936Y-50304596D01*
X19539341Y-50539999D01*
X13000000Y-50539999D01*
X13000000Y-45999998D01*
X28289532Y-45999998D01*
X28289532Y-46000001D01*
X28309364Y-46226686D01*
X28309366Y-46226697D01*
X28368258Y-46446488D01*
X28368261Y-46446497D01*
X28464431Y-46652732D01*
X28464432Y-46652734D01*
X28594954Y-46839141D01*
X28755858Y-47000045D01*
X28755861Y-47000047D01*
X28942266Y-47130568D01*
X29148504Y-47226739D01*
X29368308Y-47285635D01*
X29530230Y-47299801D01*
X29594998Y-47305468D01*
X29595000Y-47305468D01*
X29595002Y-47305468D01*
X29651673Y-47300509D01*
X29821692Y-47285635D01*
X30041496Y-47226739D01*
X30247734Y-47130568D01*
X30434139Y-47000047D01*
X30595047Y-46839139D01*
X30725568Y-46652734D01*
X30821739Y-46446496D01*
X30880635Y-46226692D01*
X30900468Y-46000000D01*
X30900468Y-45999998D01*
X33369532Y-45999998D01*
X33369532Y-46000001D01*
X33389364Y-46226686D01*
X33389366Y-46226697D01*
X33448258Y-46446488D01*
X33448261Y-46446497D01*
X33544431Y-46652732D01*
X33544432Y-46652734D01*
X33674954Y-46839141D01*
X33835858Y-47000045D01*
X33835861Y-47000047D01*
X34022266Y-47130568D01*
X34228504Y-47226739D01*
X34448308Y-47285635D01*
X34610230Y-47299801D01*
X34674998Y-47305468D01*
X34675000Y-47305468D01*
X34675002Y-47305468D01*
X34731673Y-47300509D01*
X34901692Y-47285635D01*
X35121496Y-47226739D01*
X35327734Y-47130568D01*
X35514139Y-47000047D01*
X35675047Y-46839139D01*
X35805568Y-46652734D01*
X35901739Y-46446496D01*
X35960635Y-46226692D01*
X35980468Y-46000000D01*
X35960635Y-45773308D01*
X35901739Y-45553504D01*
X35805568Y-45347266D01*
X35675047Y-45160861D01*
X35675045Y-45160858D01*
X35514141Y-44999954D01*
X35327734Y-44869432D01*
X35327732Y-44869431D01*
X35121497Y-44773261D01*
X35121488Y-44773258D01*
X34901697Y-44714366D01*
X34901693Y-44714365D01*
X34901692Y-44714365D01*
X34901691Y-44714364D01*
X34901686Y-44714364D01*
X34675002Y-44694532D01*
X34674998Y-44694532D01*
X34448313Y-44714364D01*
X34448302Y-44714366D01*
X34228511Y-44773258D01*
X34228502Y-44773261D01*
X34022267Y-44869431D01*
X34022265Y-44869432D01*
X33835858Y-44999954D01*
X33674954Y-45160858D01*
X33544432Y-45347265D01*
X33544431Y-45347267D01*
X33448261Y-45553502D01*
X33448258Y-45553511D01*
X33389366Y-45773302D01*
X33389364Y-45773313D01*
X33369532Y-45999998D01*
X30900468Y-45999998D01*
X30880635Y-45773308D01*
X30821739Y-45553504D01*
X30725568Y-45347266D01*
X30595047Y-45160861D01*
X30595045Y-45160858D01*
X30434141Y-44999954D01*
X30247734Y-44869432D01*
X30247732Y-44869431D01*
X30041497Y-44773261D01*
X30041488Y-44773258D01*
X29821697Y-44714366D01*
X29821693Y-44714365D01*
X29821692Y-44714365D01*
X29821691Y-44714364D01*
X29821686Y-44714364D01*
X29595002Y-44694532D01*
X29594998Y-44694532D01*
X29368313Y-44714364D01*
X29368302Y-44714366D01*
X29148511Y-44773258D01*
X29148502Y-44773261D01*
X28942267Y-44869431D01*
X28942265Y-44869432D01*
X28755858Y-44999954D01*
X28594954Y-45160858D01*
X28464432Y-45347265D01*
X28464431Y-45347267D01*
X28368261Y-45553502D01*
X28368258Y-45553511D01*
X28309366Y-45773302D01*
X28309364Y-45773313D01*
X28289532Y-45999998D01*
X13000000Y-45999998D01*
X13000000Y-39314998D01*
X64694532Y-39314998D01*
X64694532Y-39315001D01*
X64714364Y-39541686D01*
X64714366Y-39541697D01*
X64773258Y-39761488D01*
X64773261Y-39761497D01*
X64869431Y-39967732D01*
X64869432Y-39967734D01*
X64999954Y-40154141D01*
X65160858Y-40315045D01*
X65160861Y-40315047D01*
X65347266Y-40445568D01*
X65553504Y-40541739D01*
X65773308Y-40600635D01*
X65935230Y-40614801D01*
X65999998Y-40620468D01*
X66000000Y-40620468D01*
X66000002Y-40620468D01*
X66056673Y-40615509D01*
X66226692Y-40600635D01*
X66446496Y-40541739D01*
X66652734Y-40445568D01*
X66839139Y-40315047D01*
X67000047Y-40154139D01*
X67130568Y-39967734D01*
X67226739Y-39761496D01*
X67285635Y-39541692D01*
X67298469Y-39394998D01*
X70769532Y-39394998D01*
X70769532Y-39395001D01*
X70789364Y-39621686D01*
X70789366Y-39621697D01*
X70848258Y-39841488D01*
X70848261Y-39841497D01*
X70944431Y-40047732D01*
X70944432Y-40047734D01*
X71074954Y-40234141D01*
X71235858Y-40395045D01*
X71235861Y-40395047D01*
X71422266Y-40525568D01*
X71628504Y-40621739D01*
X71848308Y-40680635D01*
X72010230Y-40694801D01*
X72074998Y-40700468D01*
X72075000Y-40700468D01*
X72075002Y-40700468D01*
X72131673Y-40695509D01*
X72301692Y-40680635D01*
X72521496Y-40621739D01*
X72727734Y-40525568D01*
X72914139Y-40395047D01*
X73075047Y-40234139D01*
X73205568Y-40047734D01*
X73265132Y-39919999D01*
X78354341Y-39919999D01*
X78354341Y-39920000D01*
X78374936Y-40155403D01*
X78374938Y-40155413D01*
X78436094Y-40383655D01*
X78436096Y-40383659D01*
X78436097Y-40383663D01*
X78464964Y-40445568D01*
X78535965Y-40597830D01*
X78535967Y-40597834D01*
X78607833Y-40700468D01*
X78671501Y-40791396D01*
X78671506Y-40791402D01*
X78838597Y-40958493D01*
X78838603Y-40958498D01*
X79024158Y-41088425D01*
X79067783Y-41143002D01*
X79074977Y-41212500D01*
X79043454Y-41274855D01*
X79024158Y-41291575D01*
X78838597Y-41421505D01*
X78671505Y-41588597D01*
X78535965Y-41782169D01*
X78535964Y-41782171D01*
X78436098Y-41996335D01*
X78436094Y-41996344D01*
X78374938Y-42224586D01*
X78374936Y-42224596D01*
X78354341Y-42459999D01*
X78354341Y-42460000D01*
X78374936Y-42695403D01*
X78374938Y-42695413D01*
X78436094Y-42923655D01*
X78436096Y-42923659D01*
X78436097Y-42923663D01*
X78440000Y-42932032D01*
X78535965Y-43137830D01*
X78535967Y-43137834D01*
X78644281Y-43292521D01*
X78671501Y-43331396D01*
X78671506Y-43331402D01*
X78838597Y-43498493D01*
X78838603Y-43498498D01*
X79024158Y-43628425D01*
X79067783Y-43683002D01*
X79074977Y-43752500D01*
X79043454Y-43814855D01*
X79024158Y-43831575D01*
X78838597Y-43961505D01*
X78671505Y-44128597D01*
X78535965Y-44322169D01*
X78535964Y-44322171D01*
X78436098Y-44536335D01*
X78436094Y-44536344D01*
X78374938Y-44764586D01*
X78374936Y-44764596D01*
X78354341Y-44999999D01*
X78354341Y-45000000D01*
X78374936Y-45235403D01*
X78374938Y-45235413D01*
X78436094Y-45463655D01*
X78436096Y-45463659D01*
X78436097Y-45463663D01*
X78440000Y-45472032D01*
X78535965Y-45677830D01*
X78535967Y-45677834D01*
X78602815Y-45773302D01*
X78671501Y-45871396D01*
X78671506Y-45871402D01*
X78838597Y-46038493D01*
X78838603Y-46038498D01*
X79024158Y-46168425D01*
X79067783Y-46223002D01*
X79074977Y-46292500D01*
X79043454Y-46354855D01*
X79024158Y-46371575D01*
X78838597Y-46501505D01*
X78671505Y-46668597D01*
X78535965Y-46862169D01*
X78535964Y-46862171D01*
X78436098Y-47076335D01*
X78436094Y-47076344D01*
X78374938Y-47304586D01*
X78374936Y-47304596D01*
X78354341Y-47539999D01*
X78354341Y-47540000D01*
X78374936Y-47775403D01*
X78374938Y-47775413D01*
X78436094Y-48003655D01*
X78436096Y-48003659D01*
X78436097Y-48003663D01*
X78440000Y-48012032D01*
X78535965Y-48217830D01*
X78535967Y-48217834D01*
X78644281Y-48372521D01*
X78671505Y-48411401D01*
X78838599Y-48578495D01*
X78935384Y-48646265D01*
X79032165Y-48714032D01*
X79032167Y-48714033D01*
X79032170Y-48714035D01*
X79246337Y-48813903D01*
X79474592Y-48875063D01*
X79662918Y-48891539D01*
X79709999Y-48895659D01*
X79710000Y-48895659D01*
X79710001Y-48895659D01*
X79749234Y-48892226D01*
X79945408Y-48875063D01*
X80173663Y-48813903D01*
X80387830Y-48714035D01*
X80581401Y-48578495D01*
X80748495Y-48411401D01*
X80878425Y-48225842D01*
X80933002Y-48182217D01*
X81002500Y-48175023D01*
X81064855Y-48206546D01*
X81081575Y-48225842D01*
X81211500Y-48411395D01*
X81211505Y-48411401D01*
X81378599Y-48578495D01*
X81475384Y-48646265D01*
X81572165Y-48714032D01*
X81572167Y-48714033D01*
X81572170Y-48714035D01*
X81786337Y-48813903D01*
X82014592Y-48875063D01*
X82202918Y-48891539D01*
X82249999Y-48895659D01*
X82250000Y-48895659D01*
X82250001Y-48895659D01*
X82289234Y-48892226D01*
X82485408Y-48875063D01*
X82713663Y-48813903D01*
X82927830Y-48714035D01*
X83121401Y-48578495D01*
X83288495Y-48411401D01*
X83424035Y-48217830D01*
X83523903Y-48003663D01*
X83585063Y-47775408D01*
X83605659Y-47540000D01*
X83585063Y-47304592D01*
X83538434Y-47130567D01*
X83523905Y-47076344D01*
X83523904Y-47076343D01*
X83523903Y-47076337D01*
X83424035Y-46862171D01*
X83418425Y-46854158D01*
X83288494Y-46668597D01*
X83121402Y-46501506D01*
X83121396Y-46501501D01*
X82935842Y-46371575D01*
X82892217Y-46316998D01*
X82885023Y-46247500D01*
X82916546Y-46185145D01*
X82935842Y-46168425D01*
X82958026Y-46152891D01*
X83121401Y-46038495D01*
X83288495Y-45871401D01*
X83424035Y-45677830D01*
X83523903Y-45463663D01*
X83585063Y-45235408D01*
X83605659Y-45000000D01*
X83585063Y-44764592D01*
X83523903Y-44536337D01*
X83424035Y-44322171D01*
X83418425Y-44314158D01*
X83288494Y-44128597D01*
X83121402Y-43961506D01*
X83121396Y-43961501D01*
X82935842Y-43831575D01*
X82892217Y-43776998D01*
X82885023Y-43707500D01*
X82916546Y-43645145D01*
X82935842Y-43628425D01*
X82958026Y-43612891D01*
X83121401Y-43498495D01*
X83288495Y-43331401D01*
X83424035Y-43137830D01*
X83523903Y-42923663D01*
X83585063Y-42695408D01*
X83605659Y-42460000D01*
X83585063Y-42224592D01*
X83523903Y-41996337D01*
X83424035Y-41782171D01*
X83418425Y-41774158D01*
X83288494Y-41588597D01*
X83121402Y-41421506D01*
X83121396Y-41421501D01*
X82935842Y-41291575D01*
X82892217Y-41236998D01*
X82885023Y-41167500D01*
X82916546Y-41105145D01*
X82935842Y-41088425D01*
X82958026Y-41072891D01*
X83121401Y-40958495D01*
X83288495Y-40791401D01*
X83424035Y-40597830D01*
X83523903Y-40383663D01*
X83585063Y-40155408D01*
X83605659Y-39920000D01*
X83585063Y-39684592D01*
X83523903Y-39456337D01*
X83424035Y-39242171D01*
X83418425Y-39234158D01*
X83288494Y-39048597D01*
X83121402Y-38881506D01*
X83121401Y-38881505D01*
X82935405Y-38751269D01*
X82891781Y-38696692D01*
X82884588Y-38627193D01*
X82916110Y-38564839D01*
X82935405Y-38548119D01*
X83121082Y-38418105D01*
X83288105Y-38251082D01*
X83423600Y-38057578D01*
X83523429Y-37843492D01*
X83523432Y-37843486D01*
X83580636Y-37630000D01*
X82683012Y-37630000D01*
X82715925Y-37572993D01*
X82750000Y-37445826D01*
X82750000Y-37314174D01*
X82715925Y-37187007D01*
X82683012Y-37130000D01*
X83580636Y-37130000D01*
X83580635Y-37129999D01*
X83523432Y-36916513D01*
X83523429Y-36916507D01*
X83423600Y-36702422D01*
X83423599Y-36702420D01*
X83288113Y-36508926D01*
X83288108Y-36508920D01*
X83121078Y-36341890D01*
X82935405Y-36211879D01*
X82891780Y-36157302D01*
X82884588Y-36087804D01*
X82916110Y-36025449D01*
X82935406Y-36008730D01*
X83121401Y-35878495D01*
X83288495Y-35711401D01*
X83424035Y-35517830D01*
X83523903Y-35303663D01*
X83585063Y-35075408D01*
X83605659Y-34840000D01*
X83585063Y-34604592D01*
X83525037Y-34380568D01*
X83523905Y-34376344D01*
X83523904Y-34376343D01*
X83523903Y-34376337D01*
X83424035Y-34162171D01*
X83411411Y-34144141D01*
X83288494Y-33968597D01*
X83121402Y-33801506D01*
X83121395Y-33801501D01*
X82927834Y-33665967D01*
X82927830Y-33665965D01*
X82919895Y-33662265D01*
X82713663Y-33566097D01*
X82713659Y-33566096D01*
X82713655Y-33566094D01*
X82485413Y-33504938D01*
X82485403Y-33504936D01*
X82250001Y-33484341D01*
X82249999Y-33484341D01*
X82014596Y-33504936D01*
X82014586Y-33504938D01*
X81786344Y-33566094D01*
X81786335Y-33566098D01*
X81572171Y-33665964D01*
X81572169Y-33665965D01*
X81378600Y-33801503D01*
X81256673Y-33923430D01*
X81195350Y-33956914D01*
X81125658Y-33951930D01*
X81069725Y-33910058D01*
X81052810Y-33879081D01*
X81003797Y-33747671D01*
X81003793Y-33747664D01*
X80917547Y-33632455D01*
X80917544Y-33632452D01*
X80802335Y-33546206D01*
X80802328Y-33546202D01*
X80667482Y-33495908D01*
X80667483Y-33495908D01*
X80607883Y-33489501D01*
X80607881Y-33489500D01*
X80607873Y-33489500D01*
X80607864Y-33489500D01*
X78812129Y-33489500D01*
X78812123Y-33489501D01*
X78752516Y-33495908D01*
X78617671Y-33546202D01*
X78617664Y-33546206D01*
X78502455Y-33632452D01*
X78502452Y-33632455D01*
X78416206Y-33747664D01*
X78416202Y-33747671D01*
X78365908Y-33882517D01*
X78359501Y-33942116D01*
X78359500Y-33942135D01*
X78359500Y-35737870D01*
X78359501Y-35737876D01*
X78365908Y-35797483D01*
X78416202Y-35932328D01*
X78416206Y-35932335D01*
X78502452Y-36047544D01*
X78502455Y-36047547D01*
X78617664Y-36133793D01*
X78617671Y-36133797D01*
X78617674Y-36133798D01*
X78749598Y-36183002D01*
X78805531Y-36224873D01*
X78829949Y-36290337D01*
X78815098Y-36358610D01*
X78793947Y-36386865D01*
X78671886Y-36508926D01*
X78536400Y-36702420D01*
X78536399Y-36702422D01*
X78436570Y-36916507D01*
X78436567Y-36916513D01*
X78379364Y-37129999D01*
X78379364Y-37130000D01*
X79276988Y-37130000D01*
X79244075Y-37187007D01*
X79210000Y-37314174D01*
X79210000Y-37445826D01*
X79244075Y-37572993D01*
X79276988Y-37630000D01*
X78379364Y-37630000D01*
X78436567Y-37843486D01*
X78436570Y-37843492D01*
X78536399Y-38057578D01*
X78671894Y-38251082D01*
X78838917Y-38418105D01*
X79024595Y-38548119D01*
X79068219Y-38602696D01*
X79075412Y-38672195D01*
X79043890Y-38734549D01*
X79024595Y-38751269D01*
X78838594Y-38881508D01*
X78671505Y-39048597D01*
X78535965Y-39242169D01*
X78535964Y-39242171D01*
X78436098Y-39456335D01*
X78436094Y-39456344D01*
X78374938Y-39684586D01*
X78374936Y-39684596D01*
X78354341Y-39919999D01*
X73265132Y-39919999D01*
X73301739Y-39841496D01*
X73360635Y-39621692D01*
X73380468Y-39395000D01*
X73360635Y-39168308D01*
X73301739Y-38948504D01*
X73205568Y-38742266D01*
X73075047Y-38555861D01*
X73075045Y-38555858D01*
X72914141Y-38394954D01*
X72727734Y-38264432D01*
X72727732Y-38264431D01*
X72521497Y-38168261D01*
X72521488Y-38168258D01*
X72301697Y-38109366D01*
X72301693Y-38109365D01*
X72301692Y-38109365D01*
X72301691Y-38109364D01*
X72301686Y-38109364D01*
X72075002Y-38089532D01*
X72074998Y-38089532D01*
X71848313Y-38109364D01*
X71848302Y-38109366D01*
X71628511Y-38168258D01*
X71628502Y-38168261D01*
X71422267Y-38264431D01*
X71422265Y-38264432D01*
X71235858Y-38394954D01*
X71074954Y-38555858D01*
X70944432Y-38742265D01*
X70944431Y-38742267D01*
X70848261Y-38948502D01*
X70848258Y-38948511D01*
X70789366Y-39168302D01*
X70789364Y-39168313D01*
X70769532Y-39394998D01*
X67298469Y-39394998D01*
X67305468Y-39315000D01*
X67285635Y-39088308D01*
X67226739Y-38868504D01*
X67130568Y-38662266D01*
X67000047Y-38475861D01*
X67000045Y-38475858D01*
X66839141Y-38314954D01*
X66652734Y-38184432D01*
X66652732Y-38184431D01*
X66446497Y-38088261D01*
X66446488Y-38088258D01*
X66226697Y-38029366D01*
X66226693Y-38029365D01*
X66226692Y-38029365D01*
X66226691Y-38029364D01*
X66226686Y-38029364D01*
X66000002Y-38009532D01*
X65999998Y-38009532D01*
X65773313Y-38029364D01*
X65773302Y-38029366D01*
X65553511Y-38088258D01*
X65553502Y-38088261D01*
X65347267Y-38184431D01*
X65347265Y-38184432D01*
X65160858Y-38314954D01*
X64999954Y-38475858D01*
X64869432Y-38662265D01*
X64869431Y-38662267D01*
X64773261Y-38868502D01*
X64773258Y-38868511D01*
X64714366Y-39088302D01*
X64714364Y-39088313D01*
X64694532Y-39314998D01*
X13000000Y-39314998D01*
X13000000Y-33514998D01*
X29144532Y-33514998D01*
X29144532Y-33515001D01*
X29164364Y-33741686D01*
X29164366Y-33741697D01*
X29223258Y-33961488D01*
X29223261Y-33961497D01*
X29319431Y-34167732D01*
X29319432Y-34167734D01*
X29449954Y-34354141D01*
X29610858Y-34515045D01*
X29610861Y-34515047D01*
X29797266Y-34645568D01*
X30003504Y-34741739D01*
X30223308Y-34800635D01*
X30385230Y-34814801D01*
X30449998Y-34820468D01*
X30450000Y-34820468D01*
X30450002Y-34820468D01*
X30506673Y-34815509D01*
X30676692Y-34800635D01*
X30896496Y-34741739D01*
X31102734Y-34645568D01*
X31289139Y-34515047D01*
X31450047Y-34354139D01*
X31580568Y-34167734D01*
X31676739Y-33961496D01*
X31735635Y-33741692D01*
X31755320Y-33516692D01*
X31755468Y-33515001D01*
X31755468Y-33514998D01*
X31737095Y-33304998D01*
X37944532Y-33304998D01*
X37944532Y-33305001D01*
X37964364Y-33531686D01*
X37964366Y-33531697D01*
X38023258Y-33751488D01*
X38023261Y-33751497D01*
X38119431Y-33957732D01*
X38119432Y-33957734D01*
X38249954Y-34144141D01*
X38410858Y-34305045D01*
X38410861Y-34305047D01*
X38597266Y-34435568D01*
X38803504Y-34531739D01*
X38803509Y-34531740D01*
X38803511Y-34531741D01*
X38818044Y-34535635D01*
X39023308Y-34590635D01*
X39182837Y-34604592D01*
X39249998Y-34610468D01*
X39250000Y-34610468D01*
X39250002Y-34610468D01*
X39317163Y-34604592D01*
X39476692Y-34590635D01*
X39696496Y-34531739D01*
X39902734Y-34435568D01*
X40089139Y-34305047D01*
X40250047Y-34144139D01*
X40380568Y-33957734D01*
X40476739Y-33751496D01*
X40535635Y-33531692D01*
X40555468Y-33305000D01*
X40554155Y-33289998D01*
X45144532Y-33289998D01*
X45144532Y-33290001D01*
X45164364Y-33516686D01*
X45164366Y-33516697D01*
X45223258Y-33736488D01*
X45223261Y-33736497D01*
X45319431Y-33942732D01*
X45319432Y-33942734D01*
X45449954Y-34129141D01*
X45610858Y-34290045D01*
X45632283Y-34305047D01*
X45797266Y-34420568D01*
X46003504Y-34516739D01*
X46223308Y-34575635D01*
X46385230Y-34589801D01*
X46449998Y-34595468D01*
X46450000Y-34595468D01*
X46450002Y-34595468D01*
X46506673Y-34590509D01*
X46676692Y-34575635D01*
X46896496Y-34516739D01*
X47102734Y-34420568D01*
X47289139Y-34290047D01*
X47450047Y-34129139D01*
X47580568Y-33942734D01*
X47676739Y-33736496D01*
X47735635Y-33516692D01*
X47755468Y-33290000D01*
X47755320Y-33288313D01*
X47751968Y-33249998D01*
X51894532Y-33249998D01*
X51894532Y-33250001D01*
X51914364Y-33476686D01*
X51914366Y-33476697D01*
X51973258Y-33696488D01*
X51973261Y-33696497D01*
X52069431Y-33902732D01*
X52069432Y-33902734D01*
X52199954Y-34089141D01*
X52360858Y-34250045D01*
X52360861Y-34250047D01*
X52547266Y-34380568D01*
X52753504Y-34476739D01*
X52973308Y-34535635D01*
X53135230Y-34549801D01*
X53199998Y-34555468D01*
X53200000Y-34555468D01*
X53200002Y-34555468D01*
X53256673Y-34550509D01*
X53426692Y-34535635D01*
X53646496Y-34476739D01*
X53852734Y-34380568D01*
X54039139Y-34250047D01*
X54200047Y-34089139D01*
X54330568Y-33902734D01*
X54426739Y-33696496D01*
X54485635Y-33476692D01*
X54501969Y-33289998D01*
X58644532Y-33289998D01*
X58644532Y-33290001D01*
X58664364Y-33516686D01*
X58664366Y-33516697D01*
X58723258Y-33736488D01*
X58723261Y-33736497D01*
X58819431Y-33942732D01*
X58819432Y-33942734D01*
X58949954Y-34129141D01*
X59110858Y-34290045D01*
X59132283Y-34305047D01*
X59297266Y-34420568D01*
X59503504Y-34516739D01*
X59723308Y-34575635D01*
X59885230Y-34589801D01*
X59949998Y-34595468D01*
X59950000Y-34595468D01*
X59950002Y-34595468D01*
X60006673Y-34590509D01*
X60176692Y-34575635D01*
X60396496Y-34516739D01*
X60602734Y-34420568D01*
X60789139Y-34290047D01*
X60844188Y-34234998D01*
X64694532Y-34234998D01*
X64694532Y-34235001D01*
X64714364Y-34461686D01*
X64714366Y-34461697D01*
X64773258Y-34681488D01*
X64773261Y-34681497D01*
X64869431Y-34887732D01*
X64869432Y-34887734D01*
X64999954Y-35074141D01*
X65160858Y-35235045D01*
X65160861Y-35235047D01*
X65347266Y-35365568D01*
X65553504Y-35461739D01*
X65773308Y-35520635D01*
X65935230Y-35534801D01*
X65999998Y-35540468D01*
X66000000Y-35540468D01*
X66000002Y-35540468D01*
X66056673Y-35535509D01*
X66226692Y-35520635D01*
X66446496Y-35461739D01*
X66652734Y-35365568D01*
X66839139Y-35235047D01*
X67000047Y-35074139D01*
X67130568Y-34887734D01*
X67226739Y-34681496D01*
X67285635Y-34461692D01*
X67298469Y-34314998D01*
X70769532Y-34314998D01*
X70769532Y-34315001D01*
X70789364Y-34541686D01*
X70789366Y-34541697D01*
X70848258Y-34761488D01*
X70848261Y-34761497D01*
X70944431Y-34967732D01*
X70944432Y-34967734D01*
X71074954Y-35154141D01*
X71235858Y-35315045D01*
X71235861Y-35315047D01*
X71422266Y-35445568D01*
X71628504Y-35541739D01*
X71848308Y-35600635D01*
X72010230Y-35614801D01*
X72074998Y-35620468D01*
X72075000Y-35620468D01*
X72075002Y-35620468D01*
X72131673Y-35615509D01*
X72301692Y-35600635D01*
X72521496Y-35541739D01*
X72727734Y-35445568D01*
X72914139Y-35315047D01*
X73075047Y-35154139D01*
X73205568Y-34967734D01*
X73301739Y-34761496D01*
X73360635Y-34541692D01*
X73380468Y-34315000D01*
X73360635Y-34088308D01*
X73301739Y-33868504D01*
X73205568Y-33662266D01*
X73075047Y-33475861D01*
X73075045Y-33475858D01*
X72914141Y-33314954D01*
X72727734Y-33184432D01*
X72727732Y-33184431D01*
X72521497Y-33088261D01*
X72521488Y-33088258D01*
X72301697Y-33029366D01*
X72301693Y-33029365D01*
X72301692Y-33029365D01*
X72301691Y-33029364D01*
X72301686Y-33029364D01*
X72075002Y-33009532D01*
X72074998Y-33009532D01*
X71848313Y-33029364D01*
X71848302Y-33029366D01*
X71628511Y-33088258D01*
X71628502Y-33088261D01*
X71422267Y-33184431D01*
X71422265Y-33184432D01*
X71235858Y-33314954D01*
X71074954Y-33475858D01*
X70944432Y-33662265D01*
X70944431Y-33662267D01*
X70848261Y-33868502D01*
X70848258Y-33868511D01*
X70789366Y-34088302D01*
X70789364Y-34088313D01*
X70769532Y-34314998D01*
X67298469Y-34314998D01*
X67305468Y-34235000D01*
X67285635Y-34008308D01*
X67226739Y-33788504D01*
X67130568Y-33582266D01*
X67000047Y-33395861D01*
X67000045Y-33395858D01*
X66839141Y-33234954D01*
X66652734Y-33104432D01*
X66652732Y-33104431D01*
X66446497Y-33008261D01*
X66446488Y-33008258D01*
X66226697Y-32949366D01*
X66226693Y-32949365D01*
X66226692Y-32949365D01*
X66226691Y-32949364D01*
X66226686Y-32949364D01*
X66000002Y-32929532D01*
X65999998Y-32929532D01*
X65773313Y-32949364D01*
X65773302Y-32949366D01*
X65553511Y-33008258D01*
X65553502Y-33008261D01*
X65347267Y-33104431D01*
X65347265Y-33104432D01*
X65160858Y-33234954D01*
X64999954Y-33395858D01*
X64869432Y-33582265D01*
X64869431Y-33582267D01*
X64773261Y-33788502D01*
X64773258Y-33788511D01*
X64714366Y-34008302D01*
X64714364Y-34008313D01*
X64694532Y-34234998D01*
X60844188Y-34234998D01*
X60950047Y-34129139D01*
X61080568Y-33942734D01*
X61176739Y-33736496D01*
X61235635Y-33516692D01*
X61255468Y-33290000D01*
X61255320Y-33288313D01*
X61239233Y-33104432D01*
X61235635Y-33063308D01*
X61176739Y-32843504D01*
X61080568Y-32637266D01*
X60950047Y-32450861D01*
X60950045Y-32450858D01*
X60789141Y-32289954D01*
X60602734Y-32159432D01*
X60602732Y-32159431D01*
X60396497Y-32063261D01*
X60396488Y-32063258D01*
X60176697Y-32004366D01*
X60176693Y-32004365D01*
X60176692Y-32004365D01*
X60176691Y-32004364D01*
X60176686Y-32004364D01*
X59950002Y-31984532D01*
X59949998Y-31984532D01*
X59723313Y-32004364D01*
X59723302Y-32004366D01*
X59503511Y-32063258D01*
X59503502Y-32063261D01*
X59297267Y-32159431D01*
X59297265Y-32159432D01*
X59110858Y-32289954D01*
X58949954Y-32450858D01*
X58819432Y-32637265D01*
X58819431Y-32637267D01*
X58723261Y-32843502D01*
X58723258Y-32843511D01*
X58664366Y-33063302D01*
X58664364Y-33063313D01*
X58644532Y-33289998D01*
X54501969Y-33289998D01*
X54505468Y-33250000D01*
X54485635Y-33023308D01*
X54426739Y-32803504D01*
X54330568Y-32597266D01*
X54200047Y-32410861D01*
X54200045Y-32410858D01*
X54039141Y-32249954D01*
X53852734Y-32119432D01*
X53852732Y-32119431D01*
X53646497Y-32023261D01*
X53646488Y-32023258D01*
X53426697Y-31964366D01*
X53426693Y-31964365D01*
X53426692Y-31964365D01*
X53426691Y-31964364D01*
X53426686Y-31964364D01*
X53200002Y-31944532D01*
X53199998Y-31944532D01*
X52973313Y-31964364D01*
X52973302Y-31964366D01*
X52753511Y-32023258D01*
X52753502Y-32023261D01*
X52547267Y-32119431D01*
X52547265Y-32119432D01*
X52360858Y-32249954D01*
X52199954Y-32410858D01*
X52069432Y-32597265D01*
X52069431Y-32597267D01*
X51973261Y-32803502D01*
X51973258Y-32803511D01*
X51914366Y-33023302D01*
X51914364Y-33023313D01*
X51894532Y-33249998D01*
X47751968Y-33249998D01*
X47739233Y-33104432D01*
X47735635Y-33063308D01*
X47676739Y-32843504D01*
X47580568Y-32637266D01*
X47450047Y-32450861D01*
X47450045Y-32450858D01*
X47289141Y-32289954D01*
X47102734Y-32159432D01*
X47102732Y-32159431D01*
X46896497Y-32063261D01*
X46896488Y-32063258D01*
X46676697Y-32004366D01*
X46676693Y-32004365D01*
X46676692Y-32004365D01*
X46676691Y-32004364D01*
X46676686Y-32004364D01*
X46450002Y-31984532D01*
X46449998Y-31984532D01*
X46223313Y-32004364D01*
X46223302Y-32004366D01*
X46003511Y-32063258D01*
X46003502Y-32063261D01*
X45797267Y-32159431D01*
X45797265Y-32159432D01*
X45610858Y-32289954D01*
X45449954Y-32450858D01*
X45319432Y-32637265D01*
X45319431Y-32637267D01*
X45223261Y-32843502D01*
X45223258Y-32843511D01*
X45164366Y-33063302D01*
X45164364Y-33063313D01*
X45144532Y-33289998D01*
X40554155Y-33289998D01*
X40544920Y-33184432D01*
X40535635Y-33078308D01*
X40476739Y-32858504D01*
X40380568Y-32652266D01*
X40250047Y-32465861D01*
X40250045Y-32465858D01*
X40089141Y-32304954D01*
X39902734Y-32174432D01*
X39902732Y-32174431D01*
X39696497Y-32078261D01*
X39696488Y-32078258D01*
X39476697Y-32019366D01*
X39476693Y-32019365D01*
X39476692Y-32019365D01*
X39476691Y-32019364D01*
X39476686Y-32019364D01*
X39250002Y-31999532D01*
X39249998Y-31999532D01*
X39023313Y-32019364D01*
X39023302Y-32019366D01*
X38803511Y-32078258D01*
X38803502Y-32078261D01*
X38597267Y-32174431D01*
X38597265Y-32174432D01*
X38410858Y-32304954D01*
X38249954Y-32465858D01*
X38119432Y-32652265D01*
X38119431Y-32652267D01*
X38023261Y-32858502D01*
X38023258Y-32858511D01*
X37964366Y-33078302D01*
X37964364Y-33078313D01*
X37944532Y-33304998D01*
X31737095Y-33304998D01*
X31735783Y-33290000D01*
X31735635Y-33288308D01*
X31676739Y-33068504D01*
X31580568Y-32862266D01*
X31450047Y-32675861D01*
X31450045Y-32675858D01*
X31289141Y-32514954D01*
X31102734Y-32384432D01*
X31102732Y-32384431D01*
X30896497Y-32288261D01*
X30896488Y-32288258D01*
X30676697Y-32229366D01*
X30676693Y-32229365D01*
X30676692Y-32229365D01*
X30676691Y-32229364D01*
X30676686Y-32229364D01*
X30450002Y-32209532D01*
X30449998Y-32209532D01*
X30223313Y-32229364D01*
X30223302Y-32229366D01*
X30003511Y-32288258D01*
X30003502Y-32288261D01*
X29797267Y-32384431D01*
X29797265Y-32384432D01*
X29610858Y-32514954D01*
X29449954Y-32675858D01*
X29319432Y-32862265D01*
X29319431Y-32862267D01*
X29223261Y-33068502D01*
X29223258Y-33068511D01*
X29164366Y-33288302D01*
X29164364Y-33288313D01*
X29144532Y-33514998D01*
X13000000Y-33514998D01*
X13000000Y-28434998D01*
X29144532Y-28434998D01*
X29144532Y-28435001D01*
X29164364Y-28661686D01*
X29164366Y-28661697D01*
X29223258Y-28881488D01*
X29223261Y-28881497D01*
X29319431Y-29087732D01*
X29319432Y-29087734D01*
X29449954Y-29274141D01*
X29610858Y-29435045D01*
X29610861Y-29435047D01*
X29797266Y-29565568D01*
X30003504Y-29661739D01*
X30223308Y-29720635D01*
X30385230Y-29734801D01*
X30449998Y-29740468D01*
X30450000Y-29740468D01*
X30450002Y-29740468D01*
X30506673Y-29735509D01*
X30676692Y-29720635D01*
X30896496Y-29661739D01*
X31102734Y-29565568D01*
X31289139Y-29435047D01*
X31450047Y-29274139D01*
X31580568Y-29087734D01*
X31676739Y-28881496D01*
X31735635Y-28661692D01*
X31755320Y-28436692D01*
X31755468Y-28435001D01*
X31755468Y-28434998D01*
X31737095Y-28224998D01*
X37944532Y-28224998D01*
X37944532Y-28225001D01*
X37964364Y-28451686D01*
X37964366Y-28451697D01*
X38023258Y-28671488D01*
X38023261Y-28671497D01*
X38119431Y-28877732D01*
X38119432Y-28877734D01*
X38249954Y-29064141D01*
X38410858Y-29225045D01*
X38410861Y-29225047D01*
X38597266Y-29355568D01*
X38803504Y-29451739D01*
X38803509Y-29451740D01*
X38803511Y-29451741D01*
X38818044Y-29455635D01*
X39023308Y-29510635D01*
X39185230Y-29524801D01*
X39249998Y-29530468D01*
X39250000Y-29530468D01*
X39250002Y-29530468D01*
X39306673Y-29525509D01*
X39476692Y-29510635D01*
X39696496Y-29451739D01*
X39902734Y-29355568D01*
X40089139Y-29225047D01*
X40250047Y-29064139D01*
X40380568Y-28877734D01*
X40476739Y-28671496D01*
X40535635Y-28451692D01*
X40555468Y-28225000D01*
X40554155Y-28209998D01*
X45144532Y-28209998D01*
X45144532Y-28210001D01*
X45164364Y-28436686D01*
X45164366Y-28436697D01*
X45223258Y-28656488D01*
X45223261Y-28656497D01*
X45319431Y-28862732D01*
X45319432Y-28862734D01*
X45449954Y-29049141D01*
X45610858Y-29210045D01*
X45632283Y-29225047D01*
X45797266Y-29340568D01*
X46003504Y-29436739D01*
X46223308Y-29495635D01*
X46385230Y-29509801D01*
X46449998Y-29515468D01*
X46450000Y-29515468D01*
X46450002Y-29515468D01*
X46506673Y-29510509D01*
X46676692Y-29495635D01*
X46896496Y-29436739D01*
X47102734Y-29340568D01*
X47289139Y-29210047D01*
X47450047Y-29049139D01*
X47580568Y-28862734D01*
X47676739Y-28656496D01*
X47735635Y-28436692D01*
X47755468Y-28210000D01*
X47755320Y-28208313D01*
X47751968Y-28169998D01*
X51894532Y-28169998D01*
X51894532Y-28170001D01*
X51914364Y-28396686D01*
X51914366Y-28396697D01*
X51973258Y-28616488D01*
X51973261Y-28616497D01*
X52069431Y-28822732D01*
X52069432Y-28822734D01*
X52199954Y-29009141D01*
X52360858Y-29170045D01*
X52360861Y-29170047D01*
X52547266Y-29300568D01*
X52753504Y-29396739D01*
X52973308Y-29455635D01*
X53135230Y-29469801D01*
X53199998Y-29475468D01*
X53200000Y-29475468D01*
X53200002Y-29475468D01*
X53256673Y-29470509D01*
X53426692Y-29455635D01*
X53646496Y-29396739D01*
X53852734Y-29300568D01*
X54039139Y-29170047D01*
X54200047Y-29009139D01*
X54330568Y-28822734D01*
X54426739Y-28616496D01*
X54485635Y-28396692D01*
X54501969Y-28209998D01*
X58644532Y-28209998D01*
X58644532Y-28210001D01*
X58664364Y-28436686D01*
X58664366Y-28436697D01*
X58723258Y-28656488D01*
X58723261Y-28656497D01*
X58819431Y-28862732D01*
X58819432Y-28862734D01*
X58949954Y-29049141D01*
X59110858Y-29210045D01*
X59132283Y-29225047D01*
X59297266Y-29340568D01*
X59503504Y-29436739D01*
X59723308Y-29495635D01*
X59885230Y-29509801D01*
X59949998Y-29515468D01*
X59950000Y-29515468D01*
X59950002Y-29515468D01*
X60006673Y-29510509D01*
X60176692Y-29495635D01*
X60396496Y-29436739D01*
X60602734Y-29340568D01*
X60789139Y-29210047D01*
X60950047Y-29049139D01*
X61080568Y-28862734D01*
X61176739Y-28656496D01*
X61235635Y-28436692D01*
X61255468Y-28210000D01*
X61255320Y-28208313D01*
X61249801Y-28145230D01*
X61235635Y-27983308D01*
X61176739Y-27763504D01*
X61080568Y-27557266D01*
X60950047Y-27370861D01*
X60950045Y-27370858D01*
X60789141Y-27209954D01*
X60602734Y-27079432D01*
X60602732Y-27079431D01*
X60396497Y-26983261D01*
X60396488Y-26983258D01*
X60176697Y-26924366D01*
X60176693Y-26924365D01*
X60176692Y-26924365D01*
X60176691Y-26924364D01*
X60176686Y-26924364D01*
X59950002Y-26904532D01*
X59949998Y-26904532D01*
X59723313Y-26924364D01*
X59723302Y-26924366D01*
X59503511Y-26983258D01*
X59503502Y-26983261D01*
X59297267Y-27079431D01*
X59297265Y-27079432D01*
X59110858Y-27209954D01*
X58949954Y-27370858D01*
X58819432Y-27557265D01*
X58819431Y-27557267D01*
X58723261Y-27763502D01*
X58723258Y-27763511D01*
X58664366Y-27983302D01*
X58664364Y-27983313D01*
X58644532Y-28209998D01*
X54501969Y-28209998D01*
X54505468Y-28170000D01*
X54485635Y-27943308D01*
X54426739Y-27723504D01*
X54330568Y-27517266D01*
X54200047Y-27330861D01*
X54200045Y-27330858D01*
X54039141Y-27169954D01*
X53852734Y-27039432D01*
X53852732Y-27039431D01*
X53646497Y-26943261D01*
X53646488Y-26943258D01*
X53426697Y-26884366D01*
X53426693Y-26884365D01*
X53426692Y-26884365D01*
X53426691Y-26884364D01*
X53426686Y-26884364D01*
X53200002Y-26864532D01*
X53199998Y-26864532D01*
X52973313Y-26884364D01*
X52973302Y-26884366D01*
X52753511Y-26943258D01*
X52753502Y-26943261D01*
X52547267Y-27039431D01*
X52547265Y-27039432D01*
X52360858Y-27169954D01*
X52199954Y-27330858D01*
X52069432Y-27517265D01*
X52069431Y-27517267D01*
X51973261Y-27723502D01*
X51973258Y-27723511D01*
X51914366Y-27943302D01*
X51914364Y-27943313D01*
X51894532Y-28169998D01*
X47751968Y-28169998D01*
X47749801Y-28145230D01*
X47735635Y-27983308D01*
X47676739Y-27763504D01*
X47580568Y-27557266D01*
X47450047Y-27370861D01*
X47450045Y-27370858D01*
X47289141Y-27209954D01*
X47102734Y-27079432D01*
X47102732Y-27079431D01*
X46896497Y-26983261D01*
X46896488Y-26983258D01*
X46676697Y-26924366D01*
X46676693Y-26924365D01*
X46676692Y-26924365D01*
X46676691Y-26924364D01*
X46676686Y-26924364D01*
X46450002Y-26904532D01*
X46449998Y-26904532D01*
X46223313Y-26924364D01*
X46223302Y-26924366D01*
X46003511Y-26983258D01*
X46003502Y-26983261D01*
X45797267Y-27079431D01*
X45797265Y-27079432D01*
X45610858Y-27209954D01*
X45449954Y-27370858D01*
X45319432Y-27557265D01*
X45319431Y-27557267D01*
X45223261Y-27763502D01*
X45223258Y-27763511D01*
X45164366Y-27983302D01*
X45164364Y-27983313D01*
X45144532Y-28209998D01*
X40554155Y-28209998D01*
X40535635Y-27998313D01*
X40535635Y-27998308D01*
X40476739Y-27778504D01*
X40380568Y-27572266D01*
X40250047Y-27385861D01*
X40250045Y-27385858D01*
X40089141Y-27224954D01*
X39902734Y-27094432D01*
X39902732Y-27094431D01*
X39696497Y-26998261D01*
X39696488Y-26998258D01*
X39476697Y-26939366D01*
X39476693Y-26939365D01*
X39476692Y-26939365D01*
X39476691Y-26939364D01*
X39476686Y-26939364D01*
X39250002Y-26919532D01*
X39249998Y-26919532D01*
X39023313Y-26939364D01*
X39023302Y-26939366D01*
X38803511Y-26998258D01*
X38803502Y-26998261D01*
X38597267Y-27094431D01*
X38597265Y-27094432D01*
X38410858Y-27224954D01*
X38249954Y-27385858D01*
X38119432Y-27572265D01*
X38119431Y-27572267D01*
X38023261Y-27778502D01*
X38023258Y-27778511D01*
X37964366Y-27998302D01*
X37964364Y-27998313D01*
X37944532Y-28224998D01*
X31737095Y-28224998D01*
X31735783Y-28210000D01*
X31735635Y-28208308D01*
X31676739Y-27988504D01*
X31580568Y-27782266D01*
X31450047Y-27595861D01*
X31450045Y-27595858D01*
X31289141Y-27434954D01*
X31102734Y-27304432D01*
X31102732Y-27304431D01*
X30896497Y-27208261D01*
X30896488Y-27208258D01*
X30676697Y-27149366D01*
X30676693Y-27149365D01*
X30676692Y-27149365D01*
X30676691Y-27149364D01*
X30676686Y-27149364D01*
X30450002Y-27129532D01*
X30449998Y-27129532D01*
X30223313Y-27149364D01*
X30223302Y-27149366D01*
X30003511Y-27208258D01*
X30003502Y-27208261D01*
X29797267Y-27304431D01*
X29797265Y-27304432D01*
X29610858Y-27434954D01*
X29449954Y-27595858D01*
X29319432Y-27782265D01*
X29319431Y-27782267D01*
X29223261Y-27988502D01*
X29223258Y-27988511D01*
X29164366Y-28208302D01*
X29164364Y-28208313D01*
X29144532Y-28434998D01*
X13000000Y-28434998D01*
X13000000Y-23000000D01*
X16294659Y-23000000D01*
X16313975Y-23196129D01*
X16371188Y-23384733D01*
X16464086Y-23558532D01*
X16464090Y-23558539D01*
X16589116Y-23710883D01*
X16741460Y-23835909D01*
X16741467Y-23835913D01*
X16915266Y-23928811D01*
X16915269Y-23928811D01*
X16915273Y-23928814D01*
X17103868Y-23986024D01*
X17300000Y-24005341D01*
X17496132Y-23986024D01*
X17684727Y-23928814D01*
X17686561Y-23927834D01*
X17771632Y-23882362D01*
X17858538Y-23835910D01*
X18010883Y-23710883D01*
X18135910Y-23558538D01*
X18228814Y-23384727D01*
X18286024Y-23196132D01*
X18305341Y-23000000D01*
X18288316Y-22827135D01*
X33149500Y-22827135D01*
X33149500Y-24622870D01*
X33149501Y-24622876D01*
X33155908Y-24682483D01*
X33206202Y-24817328D01*
X33206206Y-24817335D01*
X33292452Y-24932544D01*
X33292455Y-24932547D01*
X33407664Y-25018793D01*
X33407671Y-25018797D01*
X33542517Y-25069091D01*
X33542516Y-25069091D01*
X33549444Y-25069835D01*
X33602127Y-25075500D01*
X35397872Y-25075499D01*
X35457483Y-25069091D01*
X35592331Y-25018796D01*
X35707546Y-24932546D01*
X35793796Y-24817331D01*
X35844091Y-24682483D01*
X35850500Y-24622873D01*
X35850499Y-23304999D01*
X37944341Y-23304999D01*
X37944341Y-23305000D01*
X37964936Y-23540403D01*
X37964938Y-23540413D01*
X38026094Y-23768655D01*
X38026096Y-23768659D01*
X38026097Y-23768663D01*
X38100777Y-23928814D01*
X38125965Y-23982830D01*
X38125967Y-23982834D01*
X38222994Y-24121402D01*
X38261505Y-24176401D01*
X38428599Y-24343495D01*
X38525384Y-24411265D01*
X38622165Y-24479032D01*
X38622167Y-24479033D01*
X38622170Y-24479035D01*
X38836337Y-24578903D01*
X38836343Y-24578904D01*
X38836344Y-24578905D01*
X38891285Y-24593626D01*
X39064592Y-24640063D01*
X39252918Y-24656539D01*
X39299999Y-24660659D01*
X39300000Y-24660659D01*
X39300001Y-24660659D01*
X39339234Y-24657226D01*
X39535408Y-24640063D01*
X39763663Y-24578903D01*
X39977830Y-24479035D01*
X40171401Y-24343495D01*
X40338495Y-24176401D01*
X40474035Y-23982830D01*
X40573903Y-23768663D01*
X40635063Y-23540408D01*
X40655659Y-23305000D01*
X40654347Y-23289999D01*
X45144341Y-23289999D01*
X45144341Y-23290000D01*
X45164936Y-23525403D01*
X45164938Y-23525413D01*
X45226094Y-23753655D01*
X45226096Y-23753659D01*
X45226097Y-23753663D01*
X45325965Y-23967830D01*
X45325967Y-23967834D01*
X45373934Y-24036337D01*
X45461505Y-24161401D01*
X45628599Y-24328495D01*
X45725384Y-24396265D01*
X45822165Y-24464032D01*
X45822167Y-24464033D01*
X45822170Y-24464035D01*
X46036337Y-24563903D01*
X46036343Y-24563904D01*
X46036344Y-24563905D01*
X46091285Y-24578626D01*
X46264592Y-24625063D01*
X46436016Y-24640061D01*
X46499999Y-24645659D01*
X46500000Y-24645659D01*
X46500001Y-24645659D01*
X46539234Y-24642226D01*
X46735408Y-24625063D01*
X46963663Y-24563903D01*
X47177830Y-24464035D01*
X47371401Y-24328495D01*
X47538495Y-24161401D01*
X47674035Y-23967830D01*
X47773903Y-23753663D01*
X47835063Y-23525408D01*
X47855659Y-23290000D01*
X47852159Y-23249999D01*
X51894341Y-23249999D01*
X51894341Y-23250000D01*
X51914936Y-23485403D01*
X51914938Y-23485413D01*
X51976094Y-23713655D01*
X51976096Y-23713659D01*
X51976097Y-23713663D01*
X52046656Y-23864977D01*
X52075965Y-23927830D01*
X52075967Y-23927834D01*
X52151941Y-24036335D01*
X52211505Y-24121401D01*
X52378599Y-24288495D01*
X52405037Y-24307007D01*
X52572165Y-24424032D01*
X52572167Y-24424033D01*
X52572170Y-24424035D01*
X52786337Y-24523903D01*
X53014592Y-24585063D01*
X53202918Y-24601539D01*
X53249999Y-24605659D01*
X53250000Y-24605659D01*
X53250001Y-24605659D01*
X53289234Y-24602226D01*
X53485408Y-24585063D01*
X53713663Y-24523903D01*
X53927830Y-24424035D01*
X54121401Y-24288495D01*
X54288495Y-24121401D01*
X54424035Y-23927830D01*
X54523903Y-23713663D01*
X54585063Y-23485408D01*
X54602159Y-23289999D01*
X58644341Y-23289999D01*
X58644341Y-23290000D01*
X58664936Y-23525403D01*
X58664938Y-23525413D01*
X58726094Y-23753655D01*
X58726096Y-23753659D01*
X58726097Y-23753663D01*
X58825965Y-23967830D01*
X58825967Y-23967834D01*
X58873934Y-24036337D01*
X58961505Y-24161401D01*
X59128599Y-24328495D01*
X59225384Y-24396265D01*
X59322165Y-24464032D01*
X59322167Y-24464033D01*
X59322170Y-24464035D01*
X59536337Y-24563903D01*
X59536343Y-24563904D01*
X59536344Y-24563905D01*
X59591285Y-24578626D01*
X59764592Y-24625063D01*
X59936016Y-24640061D01*
X59999999Y-24645659D01*
X60000000Y-24645659D01*
X60000001Y-24645659D01*
X60039234Y-24642226D01*
X60235408Y-24625063D01*
X60463663Y-24563903D01*
X60600705Y-24499999D01*
X65024341Y-24499999D01*
X65024341Y-24500000D01*
X65044936Y-24735403D01*
X65044938Y-24735413D01*
X65106094Y-24963655D01*
X65106096Y-24963659D01*
X65106097Y-24963663D01*
X65155259Y-25069091D01*
X65205965Y-25177830D01*
X65205967Y-25177834D01*
X65314281Y-25332521D01*
X65341505Y-25371401D01*
X65508599Y-25538495D01*
X65585135Y-25592086D01*
X65702165Y-25674032D01*
X65702167Y-25674033D01*
X65702170Y-25674035D01*
X65916337Y-25773903D01*
X66144592Y-25835063D01*
X66315319Y-25850000D01*
X66379999Y-25855659D01*
X66380000Y-25855659D01*
X66380001Y-25855659D01*
X66444681Y-25850000D01*
X66615408Y-25835063D01*
X66843663Y-25773903D01*
X67057830Y-25674035D01*
X67251401Y-25538495D01*
X67418495Y-25371401D01*
X67548425Y-25185842D01*
X67603002Y-25142217D01*
X67672500Y-25135023D01*
X67734855Y-25166546D01*
X67751575Y-25185842D01*
X67881500Y-25371395D01*
X67881505Y-25371401D01*
X68048599Y-25538495D01*
X68125135Y-25592086D01*
X68242165Y-25674032D01*
X68242167Y-25674033D01*
X68242170Y-25674035D01*
X68456337Y-25773903D01*
X68684592Y-25835063D01*
X68855319Y-25850000D01*
X68919999Y-25855659D01*
X68920000Y-25855659D01*
X68920001Y-25855659D01*
X68984681Y-25850000D01*
X69155408Y-25835063D01*
X69383663Y-25773903D01*
X69597830Y-25674035D01*
X69791401Y-25538495D01*
X69958495Y-25371401D01*
X70088425Y-25185842D01*
X70143002Y-25142217D01*
X70212500Y-25135023D01*
X70274855Y-25166546D01*
X70291575Y-25185842D01*
X70421500Y-25371395D01*
X70421505Y-25371401D01*
X70588599Y-25538495D01*
X70665135Y-25592086D01*
X70782165Y-25674032D01*
X70782167Y-25674033D01*
X70782170Y-25674035D01*
X70996337Y-25773903D01*
X71224592Y-25835063D01*
X71395319Y-25850000D01*
X71459999Y-25855659D01*
X71460000Y-25855659D01*
X71460001Y-25855659D01*
X71524681Y-25850000D01*
X71695408Y-25835063D01*
X71923663Y-25773903D01*
X72137830Y-25674035D01*
X72331401Y-25538495D01*
X72453717Y-25416178D01*
X72515036Y-25382696D01*
X72584728Y-25387680D01*
X72640662Y-25429551D01*
X72657577Y-25460528D01*
X72706646Y-25592088D01*
X72706649Y-25592093D01*
X72792809Y-25707187D01*
X72792812Y-25707190D01*
X72907906Y-25793350D01*
X72907913Y-25793354D01*
X73042620Y-25843596D01*
X73042627Y-25843598D01*
X73102155Y-25849999D01*
X73102172Y-25850000D01*
X73750000Y-25850000D01*
X73750000Y-24933012D01*
X73807007Y-24965925D01*
X73934174Y-25000000D01*
X74065826Y-25000000D01*
X74192993Y-24965925D01*
X74250000Y-24933012D01*
X74250000Y-25850000D01*
X74897828Y-25850000D01*
X74897844Y-25849999D01*
X74957372Y-25843598D01*
X74957379Y-25843596D01*
X75092086Y-25793354D01*
X75092093Y-25793350D01*
X75207187Y-25707190D01*
X75207190Y-25707187D01*
X75293350Y-25592093D01*
X75293354Y-25592086D01*
X75343596Y-25457379D01*
X75343598Y-25457372D01*
X75349999Y-25397844D01*
X75350000Y-25397827D01*
X75350000Y-24750000D01*
X74433012Y-24750000D01*
X74465925Y-24692993D01*
X74500000Y-24565826D01*
X74500000Y-24434174D01*
X74465925Y-24307007D01*
X74433012Y-24250000D01*
X75350000Y-24250000D01*
X75350000Y-23602172D01*
X75349999Y-23602155D01*
X75343598Y-23542627D01*
X75343596Y-23542620D01*
X75293354Y-23407913D01*
X75293350Y-23407906D01*
X75207190Y-23292812D01*
X75207187Y-23292809D01*
X75092093Y-23206649D01*
X75092086Y-23206645D01*
X74957379Y-23156403D01*
X74957372Y-23156401D01*
X74897844Y-23150000D01*
X74250000Y-23150000D01*
X74250000Y-24066988D01*
X74192993Y-24034075D01*
X74065826Y-24000000D01*
X73934174Y-24000000D01*
X73807007Y-24034075D01*
X73750000Y-24066988D01*
X73750000Y-23150000D01*
X73102155Y-23150000D01*
X73042627Y-23156401D01*
X73042620Y-23156403D01*
X72907913Y-23206645D01*
X72907906Y-23206649D01*
X72792812Y-23292809D01*
X72792809Y-23292812D01*
X72706649Y-23407906D01*
X72706645Y-23407913D01*
X72657578Y-23539470D01*
X72615707Y-23595404D01*
X72550242Y-23619821D01*
X72481969Y-23604969D01*
X72453715Y-23583819D01*
X72395299Y-23525403D01*
X72331401Y-23461505D01*
X72331397Y-23461502D01*
X72331396Y-23461501D01*
X72137834Y-23325967D01*
X72137830Y-23325965D01*
X72137828Y-23325964D01*
X71923663Y-23226097D01*
X71923659Y-23226096D01*
X71923655Y-23226094D01*
X71695413Y-23164938D01*
X71695403Y-23164936D01*
X71460001Y-23144341D01*
X71459999Y-23144341D01*
X71224596Y-23164936D01*
X71224586Y-23164938D01*
X70996344Y-23226094D01*
X70996335Y-23226098D01*
X70782171Y-23325964D01*
X70782169Y-23325965D01*
X70588597Y-23461505D01*
X70421505Y-23628597D01*
X70291575Y-23814158D01*
X70236998Y-23857783D01*
X70167500Y-23864977D01*
X70105145Y-23833454D01*
X70088425Y-23814158D01*
X69958494Y-23628597D01*
X69791402Y-23461506D01*
X69791395Y-23461501D01*
X69597834Y-23325967D01*
X69597830Y-23325965D01*
X69597828Y-23325964D01*
X69383663Y-23226097D01*
X69383659Y-23226096D01*
X69383655Y-23226094D01*
X69155413Y-23164938D01*
X69155403Y-23164936D01*
X68920001Y-23144341D01*
X68919999Y-23144341D01*
X68684596Y-23164936D01*
X68684586Y-23164938D01*
X68456344Y-23226094D01*
X68456335Y-23226098D01*
X68242171Y-23325964D01*
X68242169Y-23325965D01*
X68048597Y-23461505D01*
X67881505Y-23628597D01*
X67751575Y-23814158D01*
X67696998Y-23857783D01*
X67627500Y-23864977D01*
X67565145Y-23833454D01*
X67548425Y-23814158D01*
X67418494Y-23628597D01*
X67251402Y-23461506D01*
X67251395Y-23461501D01*
X67057834Y-23325967D01*
X67057830Y-23325965D01*
X67057828Y-23325964D01*
X66843663Y-23226097D01*
X66843659Y-23226096D01*
X66843655Y-23226094D01*
X66615413Y-23164938D01*
X66615403Y-23164936D01*
X66380001Y-23144341D01*
X66379999Y-23144341D01*
X66144596Y-23164936D01*
X66144586Y-23164938D01*
X65916344Y-23226094D01*
X65916335Y-23226098D01*
X65702171Y-23325964D01*
X65702169Y-23325965D01*
X65508597Y-23461505D01*
X65341505Y-23628597D01*
X65205965Y-23822169D01*
X65205964Y-23822171D01*
X65106098Y-24036335D01*
X65106094Y-24036344D01*
X65044938Y-24264586D01*
X65044936Y-24264596D01*
X65024341Y-24499999D01*
X60600705Y-24499999D01*
X60677830Y-24464035D01*
X60871401Y-24328495D01*
X61038495Y-24161401D01*
X61174035Y-23967830D01*
X61273903Y-23753663D01*
X61335063Y-23525408D01*
X61355659Y-23290000D01*
X61335063Y-23054592D01*
X61273903Y-22826337D01*
X61174035Y-22612171D01*
X61173272Y-22611082D01*
X61038496Y-22418600D01*
X60994396Y-22374500D01*
X60916179Y-22296283D01*
X60882696Y-22234963D01*
X60887680Y-22165271D01*
X60929551Y-22109337D01*
X60960529Y-22092422D01*
X61092086Y-22043354D01*
X61092093Y-22043350D01*
X61207187Y-21957190D01*
X61207190Y-21957187D01*
X61293350Y-21842093D01*
X61293354Y-21842086D01*
X61343596Y-21707379D01*
X61343598Y-21707372D01*
X61349999Y-21647844D01*
X61350000Y-21647827D01*
X61350000Y-21000000D01*
X60433012Y-21000000D01*
X60465925Y-20942993D01*
X60500000Y-20815826D01*
X60500000Y-20684174D01*
X60465925Y-20557007D01*
X60433012Y-20500000D01*
X61350000Y-20500000D01*
X61350000Y-19852172D01*
X61349999Y-19852155D01*
X61343598Y-19792627D01*
X61343596Y-19792620D01*
X61293354Y-19657913D01*
X61293350Y-19657906D01*
X61207190Y-19542812D01*
X61207187Y-19542809D01*
X61092093Y-19456649D01*
X61092086Y-19456645D01*
X60957379Y-19406403D01*
X60957372Y-19406401D01*
X60897844Y-19400000D01*
X60250000Y-19400000D01*
X60250000Y-20316988D01*
X60192993Y-20284075D01*
X60065826Y-20250000D01*
X59934174Y-20250000D01*
X59807007Y-20284075D01*
X59750000Y-20316988D01*
X59750000Y-19400000D01*
X59102155Y-19400000D01*
X59042627Y-19406401D01*
X59042620Y-19406403D01*
X58907913Y-19456645D01*
X58907906Y-19456649D01*
X58792812Y-19542809D01*
X58792809Y-19542812D01*
X58706649Y-19657906D01*
X58706645Y-19657913D01*
X58656403Y-19792620D01*
X58656401Y-19792627D01*
X58650000Y-19852155D01*
X58650000Y-20500000D01*
X59566988Y-20500000D01*
X59534075Y-20557007D01*
X59500000Y-20684174D01*
X59500000Y-20815826D01*
X59534075Y-20942993D01*
X59566988Y-21000000D01*
X58650000Y-21000000D01*
X58650000Y-21647844D01*
X58656401Y-21707372D01*
X58656403Y-21707379D01*
X58706645Y-21842086D01*
X58706649Y-21842093D01*
X58792809Y-21957187D01*
X58792812Y-21957190D01*
X58907906Y-22043350D01*
X58907913Y-22043354D01*
X59039470Y-22092421D01*
X59095403Y-22134292D01*
X59119821Y-22199756D01*
X59104970Y-22268029D01*
X59083819Y-22296284D01*
X58961503Y-22418600D01*
X58825965Y-22612169D01*
X58825964Y-22612171D01*
X58726098Y-22826335D01*
X58726094Y-22826344D01*
X58664938Y-23054586D01*
X58664936Y-23054596D01*
X58644341Y-23289999D01*
X54602159Y-23289999D01*
X54605659Y-23250000D01*
X54585063Y-23014592D01*
X54523903Y-22786337D01*
X54424035Y-22572171D01*
X54405261Y-22545359D01*
X54288496Y-22378600D01*
X54247268Y-22337372D01*
X54166179Y-22256283D01*
X54132696Y-22194963D01*
X54137680Y-22125271D01*
X54179551Y-22069337D01*
X54210529Y-22052422D01*
X54342086Y-22003354D01*
X54342093Y-22003350D01*
X54457187Y-21917190D01*
X54457190Y-21917187D01*
X54543350Y-21802093D01*
X54543354Y-21802086D01*
X54593596Y-21667379D01*
X54593598Y-21667372D01*
X54599999Y-21607844D01*
X54600000Y-21607827D01*
X54600000Y-20960000D01*
X53683012Y-20960000D01*
X53715925Y-20902993D01*
X53750000Y-20775826D01*
X53750000Y-20644174D01*
X53715925Y-20517007D01*
X53683012Y-20460000D01*
X54600000Y-20460000D01*
X54600000Y-19812172D01*
X54599999Y-19812155D01*
X54593598Y-19752627D01*
X54593596Y-19752620D01*
X54543354Y-19617913D01*
X54543350Y-19617906D01*
X54457190Y-19502812D01*
X54457187Y-19502809D01*
X54342093Y-19416649D01*
X54342086Y-19416645D01*
X54207379Y-19366403D01*
X54207372Y-19366401D01*
X54147844Y-19360000D01*
X53500000Y-19360000D01*
X53500000Y-20276988D01*
X53442993Y-20244075D01*
X53315826Y-20210000D01*
X53184174Y-20210000D01*
X53057007Y-20244075D01*
X53000000Y-20276988D01*
X53000000Y-19360000D01*
X52352155Y-19360000D01*
X52292627Y-19366401D01*
X52292620Y-19366403D01*
X52157913Y-19416645D01*
X52157906Y-19416649D01*
X52042812Y-19502809D01*
X52042809Y-19502812D01*
X51956649Y-19617906D01*
X51956645Y-19617913D01*
X51906403Y-19752620D01*
X51906401Y-19752627D01*
X51900000Y-19812155D01*
X51900000Y-20460000D01*
X52816988Y-20460000D01*
X52784075Y-20517007D01*
X52750000Y-20644174D01*
X52750000Y-20775826D01*
X52784075Y-20902993D01*
X52816988Y-20960000D01*
X51900000Y-20960000D01*
X51900000Y-21607844D01*
X51906401Y-21667372D01*
X51906403Y-21667379D01*
X51956645Y-21802086D01*
X51956649Y-21802093D01*
X52042809Y-21917187D01*
X52042812Y-21917190D01*
X52157906Y-22003350D01*
X52157913Y-22003354D01*
X52289470Y-22052421D01*
X52345403Y-22094292D01*
X52369821Y-22159756D01*
X52354970Y-22228029D01*
X52333819Y-22256284D01*
X52211503Y-22378600D01*
X52075965Y-22572169D01*
X52075964Y-22572171D01*
X51976098Y-22786335D01*
X51976094Y-22786344D01*
X51914938Y-23014586D01*
X51914936Y-23014596D01*
X51894341Y-23249999D01*
X47852159Y-23249999D01*
X47835063Y-23054592D01*
X47773903Y-22826337D01*
X47674035Y-22612171D01*
X47673272Y-22611082D01*
X47538496Y-22418600D01*
X47494396Y-22374500D01*
X47416179Y-22296283D01*
X47382696Y-22234963D01*
X47387680Y-22165271D01*
X47429551Y-22109337D01*
X47460529Y-22092422D01*
X47592086Y-22043354D01*
X47592093Y-22043350D01*
X47707187Y-21957190D01*
X47707190Y-21957187D01*
X47793350Y-21842093D01*
X47793354Y-21842086D01*
X47843596Y-21707379D01*
X47843598Y-21707372D01*
X47849999Y-21647844D01*
X47850000Y-21647827D01*
X47850000Y-21000000D01*
X46933012Y-21000000D01*
X46965925Y-20942993D01*
X47000000Y-20815826D01*
X47000000Y-20684174D01*
X46965925Y-20557007D01*
X46933012Y-20500000D01*
X47850000Y-20500000D01*
X47850000Y-19852172D01*
X47849999Y-19852155D01*
X47843598Y-19792627D01*
X47843596Y-19792620D01*
X47793354Y-19657913D01*
X47793350Y-19657906D01*
X47707190Y-19542812D01*
X47707187Y-19542809D01*
X47592093Y-19456649D01*
X47592086Y-19456645D01*
X47457379Y-19406403D01*
X47457372Y-19406401D01*
X47397844Y-19400000D01*
X46750000Y-19400000D01*
X46750000Y-20316988D01*
X46692993Y-20284075D01*
X46565826Y-20250000D01*
X46434174Y-20250000D01*
X46307007Y-20284075D01*
X46250000Y-20316988D01*
X46250000Y-19400000D01*
X45602155Y-19400000D01*
X45542627Y-19406401D01*
X45542620Y-19406403D01*
X45407913Y-19456645D01*
X45407906Y-19456649D01*
X45292812Y-19542809D01*
X45292809Y-19542812D01*
X45206649Y-19657906D01*
X45206645Y-19657913D01*
X45156403Y-19792620D01*
X45156401Y-19792627D01*
X45150000Y-19852155D01*
X45150000Y-20500000D01*
X46066988Y-20500000D01*
X46034075Y-20557007D01*
X46000000Y-20684174D01*
X46000000Y-20815826D01*
X46034075Y-20942993D01*
X46066988Y-21000000D01*
X45150000Y-21000000D01*
X45150000Y-21647844D01*
X45156401Y-21707372D01*
X45156403Y-21707379D01*
X45206645Y-21842086D01*
X45206649Y-21842093D01*
X45292809Y-21957187D01*
X45292812Y-21957190D01*
X45407906Y-22043350D01*
X45407913Y-22043354D01*
X45539470Y-22092421D01*
X45595403Y-22134292D01*
X45619821Y-22199756D01*
X45604970Y-22268029D01*
X45583819Y-22296284D01*
X45461503Y-22418600D01*
X45325965Y-22612169D01*
X45325964Y-22612171D01*
X45226098Y-22826335D01*
X45226094Y-22826344D01*
X45164938Y-23054586D01*
X45164936Y-23054596D01*
X45144341Y-23289999D01*
X40654347Y-23289999D01*
X40635063Y-23069592D01*
X40573903Y-22841337D01*
X40474035Y-22627171D01*
X40465700Y-22615268D01*
X40338496Y-22433600D01*
X40279396Y-22374500D01*
X40216179Y-22311283D01*
X40182696Y-22249963D01*
X40187680Y-22180271D01*
X40229551Y-22124337D01*
X40260529Y-22107422D01*
X40392086Y-22058354D01*
X40392093Y-22058350D01*
X40507187Y-21972190D01*
X40507190Y-21972187D01*
X40593350Y-21857093D01*
X40593354Y-21857086D01*
X40643596Y-21722379D01*
X40643598Y-21722372D01*
X40649999Y-21662844D01*
X40650000Y-21662827D01*
X40650000Y-21015000D01*
X39733012Y-21015000D01*
X39765925Y-20957993D01*
X39800000Y-20830826D01*
X39800000Y-20699174D01*
X39765925Y-20572007D01*
X39733012Y-20515000D01*
X40650000Y-20515000D01*
X40650000Y-19867172D01*
X40649999Y-19867155D01*
X40643598Y-19807627D01*
X40643596Y-19807620D01*
X40593354Y-19672913D01*
X40593350Y-19672906D01*
X40507190Y-19557812D01*
X40507187Y-19557809D01*
X40392093Y-19471649D01*
X40392086Y-19471645D01*
X40257379Y-19421403D01*
X40257372Y-19421401D01*
X40197844Y-19415000D01*
X39550000Y-19415000D01*
X39550000Y-20331988D01*
X39492993Y-20299075D01*
X39365826Y-20265000D01*
X39234174Y-20265000D01*
X39107007Y-20299075D01*
X39050000Y-20331988D01*
X39050000Y-19415000D01*
X38402155Y-19415000D01*
X38342627Y-19421401D01*
X38342620Y-19421403D01*
X38207913Y-19471645D01*
X38207906Y-19471649D01*
X38092812Y-19557809D01*
X38092809Y-19557812D01*
X38006649Y-19672906D01*
X38006645Y-19672913D01*
X37956403Y-19807620D01*
X37956401Y-19807627D01*
X37950000Y-19867155D01*
X37950000Y-20515000D01*
X38866988Y-20515000D01*
X38834075Y-20572007D01*
X38800000Y-20699174D01*
X38800000Y-20830826D01*
X38834075Y-20957993D01*
X38866988Y-21015000D01*
X37950000Y-21015000D01*
X37950000Y-21662844D01*
X37956401Y-21722372D01*
X37956403Y-21722379D01*
X38006645Y-21857086D01*
X38006649Y-21857093D01*
X38092809Y-21972187D01*
X38092812Y-21972190D01*
X38207906Y-22058350D01*
X38207913Y-22058354D01*
X38339470Y-22107421D01*
X38395403Y-22149292D01*
X38419821Y-22214756D01*
X38404970Y-22283029D01*
X38383819Y-22311284D01*
X38261503Y-22433600D01*
X38125965Y-22627169D01*
X38125964Y-22627171D01*
X38026098Y-22841335D01*
X38026094Y-22841344D01*
X37964938Y-23069586D01*
X37964936Y-23069596D01*
X37944341Y-23304999D01*
X35850499Y-23304999D01*
X35850499Y-22827128D01*
X35844091Y-22767517D01*
X35793796Y-22632669D01*
X35793795Y-22632668D01*
X35793793Y-22632664D01*
X35707547Y-22517455D01*
X35707544Y-22517452D01*
X35592335Y-22431206D01*
X35592328Y-22431202D01*
X35457482Y-22380908D01*
X35457483Y-22380908D01*
X35397883Y-22374501D01*
X35397881Y-22374500D01*
X35397873Y-22374500D01*
X35397864Y-22374500D01*
X33602129Y-22374500D01*
X33602123Y-22374501D01*
X33542516Y-22380908D01*
X33407671Y-22431202D01*
X33407664Y-22431206D01*
X33292455Y-22517452D01*
X33292452Y-22517455D01*
X33206206Y-22632664D01*
X33206202Y-22632671D01*
X33155908Y-22767517D01*
X33152000Y-22803870D01*
X33149501Y-22827123D01*
X33149500Y-22827135D01*
X18288316Y-22827135D01*
X18286024Y-22803868D01*
X18228814Y-22615273D01*
X18227419Y-22612663D01*
X18227100Y-22611135D01*
X18226482Y-22609641D01*
X18226765Y-22609523D01*
X18213174Y-22544261D01*
X18237512Y-22479890D01*
X18243351Y-22472089D01*
X18293597Y-22337376D01*
X18293598Y-22337372D01*
X18299999Y-22277844D01*
X18300000Y-22277827D01*
X18300000Y-21980000D01*
X17509618Y-21980000D01*
X17560064Y-21929554D01*
X17602851Y-21855445D01*
X17625000Y-21772787D01*
X17625000Y-21687213D01*
X17602851Y-21604555D01*
X17560064Y-21530446D01*
X17509618Y-21480000D01*
X17550000Y-21480000D01*
X18300000Y-21480000D01*
X18300000Y-21182172D01*
X18299999Y-21182155D01*
X18293598Y-21122627D01*
X18293596Y-21122620D01*
X18243354Y-20987913D01*
X18243350Y-20987906D01*
X18157190Y-20872812D01*
X18157187Y-20872809D01*
X18042093Y-20786649D01*
X18042086Y-20786645D01*
X17907379Y-20736403D01*
X17907372Y-20736401D01*
X17847844Y-20730000D01*
X17550000Y-20730000D01*
X17550000Y-21480000D01*
X17509618Y-21480000D01*
X17499554Y-21469936D01*
X17425445Y-21427149D01*
X17342787Y-21405000D01*
X17257213Y-21405000D01*
X17174555Y-21427149D01*
X17100446Y-21469936D01*
X17039936Y-21530446D01*
X16997149Y-21604555D01*
X16975000Y-21687213D01*
X16975000Y-21772787D01*
X16997149Y-21855445D01*
X17039936Y-21929554D01*
X17090382Y-21980000D01*
X16300000Y-21980000D01*
X16300000Y-22277844D01*
X16306401Y-22337372D01*
X16306402Y-22337376D01*
X16356648Y-22472091D01*
X16362490Y-22479894D01*
X16386908Y-22545359D01*
X16373251Y-22609535D01*
X16373517Y-22609646D01*
X16372921Y-22611082D01*
X16372589Y-22612647D01*
X16371188Y-22615268D01*
X16371187Y-22615270D01*
X16371186Y-22615273D01*
X16339645Y-22719246D01*
X16313975Y-22803870D01*
X16294659Y-23000000D01*
X13000000Y-23000000D01*
X13000000Y-21182155D01*
X16300000Y-21182155D01*
X16300000Y-21480000D01*
X17050000Y-21480000D01*
X17050000Y-20730000D01*
X16752155Y-20730000D01*
X16692627Y-20736401D01*
X16692620Y-20736403D01*
X16557913Y-20786645D01*
X16557906Y-20786649D01*
X16442812Y-20872809D01*
X16442809Y-20872812D01*
X16356649Y-20987906D01*
X16356645Y-20987913D01*
X16306403Y-21122620D01*
X16306401Y-21122627D01*
X16300000Y-21182155D01*
X13000000Y-21182155D01*
X13000000Y-18327135D01*
X23399500Y-18327135D01*
X23399500Y-20122870D01*
X23399501Y-20122876D01*
X23405908Y-20182483D01*
X23456202Y-20317328D01*
X23456206Y-20317335D01*
X23542452Y-20432544D01*
X23542455Y-20432547D01*
X23657664Y-20518793D01*
X23657671Y-20518797D01*
X23792517Y-20569091D01*
X23792516Y-20569091D01*
X23799444Y-20569835D01*
X23852127Y-20575500D01*
X25647872Y-20575499D01*
X25707483Y-20569091D01*
X25842331Y-20518796D01*
X25957546Y-20432546D01*
X26043796Y-20317331D01*
X26094091Y-20182483D01*
X26100500Y-20122873D01*
X26100500Y-19239999D01*
X29144341Y-19239999D01*
X29144341Y-19240000D01*
X29164936Y-19475403D01*
X29164938Y-19475413D01*
X29226094Y-19703655D01*
X29226096Y-19703659D01*
X29226097Y-19703663D01*
X29276688Y-19812155D01*
X29325965Y-19917830D01*
X29325967Y-19917834D01*
X29434281Y-20072521D01*
X29461505Y-20111401D01*
X29628599Y-20278495D01*
X29725384Y-20346265D01*
X29822165Y-20414032D01*
X29822167Y-20414033D01*
X29822170Y-20414035D01*
X30036337Y-20513903D01*
X30264592Y-20575063D01*
X30452918Y-20591539D01*
X30499999Y-20595659D01*
X30500000Y-20595659D01*
X30500001Y-20595659D01*
X30539234Y-20592226D01*
X30735408Y-20575063D01*
X30963663Y-20513903D01*
X31177830Y-20414035D01*
X31371401Y-20278495D01*
X31538495Y-20111401D01*
X31674035Y-19917830D01*
X31773903Y-19703663D01*
X31835063Y-19475408D01*
X31855659Y-19240000D01*
X31835063Y-19004592D01*
X31773903Y-18776337D01*
X31674035Y-18562171D01*
X31538495Y-18368599D01*
X31416179Y-18246283D01*
X31382696Y-18184963D01*
X31387680Y-18115271D01*
X31429551Y-18059337D01*
X31460529Y-18042422D01*
X31592086Y-17993354D01*
X31592093Y-17993350D01*
X31707187Y-17907190D01*
X31707190Y-17907187D01*
X31793350Y-17792093D01*
X31793354Y-17792086D01*
X31843596Y-17657379D01*
X31843598Y-17657372D01*
X31849999Y-17597844D01*
X31850000Y-17597827D01*
X31850000Y-16950000D01*
X30933012Y-16950000D01*
X30965925Y-16892993D01*
X31000000Y-16765826D01*
X31000000Y-16634174D01*
X30965925Y-16507007D01*
X30933012Y-16450000D01*
X31850000Y-16450000D01*
X31850000Y-15802172D01*
X31849999Y-15802155D01*
X31843598Y-15742627D01*
X31843596Y-15742620D01*
X31793354Y-15607913D01*
X31793350Y-15607906D01*
X31707190Y-15492812D01*
X31707187Y-15492809D01*
X31592093Y-15406649D01*
X31592086Y-15406645D01*
X31457379Y-15356403D01*
X31457372Y-15356401D01*
X31397844Y-15350000D01*
X30750000Y-15350000D01*
X30750000Y-16266988D01*
X30692993Y-16234075D01*
X30565826Y-16200000D01*
X30434174Y-16200000D01*
X30307007Y-16234075D01*
X30250000Y-16266988D01*
X30250000Y-15350000D01*
X29602155Y-15350000D01*
X29542627Y-15356401D01*
X29542620Y-15356403D01*
X29407913Y-15406645D01*
X29407906Y-15406649D01*
X29292812Y-15492809D01*
X29292809Y-15492812D01*
X29206649Y-15607906D01*
X29206645Y-15607913D01*
X29156403Y-15742620D01*
X29156401Y-15742627D01*
X29150000Y-15802155D01*
X29150000Y-16450000D01*
X30066988Y-16450000D01*
X30034075Y-16507007D01*
X30000000Y-16634174D01*
X30000000Y-16765826D01*
X30034075Y-16892993D01*
X30066988Y-16950000D01*
X29150000Y-16950000D01*
X29150000Y-17597844D01*
X29156401Y-17657372D01*
X29156403Y-17657379D01*
X29206645Y-17792086D01*
X29206649Y-17792093D01*
X29292809Y-17907187D01*
X29292812Y-17907190D01*
X29407906Y-17993350D01*
X29407913Y-17993354D01*
X29539470Y-18042421D01*
X29595403Y-18084292D01*
X29619821Y-18149756D01*
X29604970Y-18218029D01*
X29583819Y-18246284D01*
X29461503Y-18368600D01*
X29325965Y-18562169D01*
X29325964Y-18562171D01*
X29226098Y-18776335D01*
X29226094Y-18776344D01*
X29164938Y-19004586D01*
X29164936Y-19004596D01*
X29144341Y-19239999D01*
X26100500Y-19239999D01*
X26100499Y-18327128D01*
X26094091Y-18267517D01*
X26086172Y-18246286D01*
X26043797Y-18132671D01*
X26043793Y-18132664D01*
X25957547Y-18017455D01*
X25957544Y-18017452D01*
X25842335Y-17931206D01*
X25842328Y-17931202D01*
X25707482Y-17880908D01*
X25707483Y-17880908D01*
X25647883Y-17874501D01*
X25647881Y-17874500D01*
X25647873Y-17874500D01*
X25647864Y-17874500D01*
X23852129Y-17874500D01*
X23852123Y-17874501D01*
X23792516Y-17880908D01*
X23657671Y-17931202D01*
X23657664Y-17931206D01*
X23542455Y-18017452D01*
X23542452Y-18017455D01*
X23456206Y-18132664D01*
X23456202Y-18132671D01*
X23405908Y-18267517D01*
X23399501Y-18327116D01*
X23399501Y-18327123D01*
X23399500Y-18327135D01*
X13000000Y-18327135D01*
X13000000Y-13124000D01*
X13019685Y-13056961D01*
X13072489Y-13011206D01*
X13124000Y-13000000D01*
X82876000Y-13000000D01*
X82943039Y-13019685D01*
G37*
%TD.AperFunction*%
%TD*%
M02*
