M48
; DRILL file {KiCad 8.0.8} date 2025-03-27T16:07:50-0400
; FORMAT={-:-/ absolute / inch / decimal}
; #@! TF.CreationDate,2025-03-27T16:07:50-04:00
; #@! TF.GenerationSoftware,Kicad,Pcbnew,8.0.8
; #@! TF.FileFunction,Plated,1,4,PTH
FMAT,2
INCH
; #@! TA.AperFunction,Plated,PTH,ComponentDrill
T1C0.0256
; #@! TA.AperFunction,Plated,PTH,ComponentDrill
T2C0.0315
; #@! TA.AperFunction,Plated,PTH,ComponentDrill
T3C0.0394
%
G90
G05
T1
X0.6811Y-0.8555
X0.6811Y-0.9055
X1.05Y-2.2531
X1.05Y-2.3031
X1.1Y-2.2531
X1.1Y-2.3031
X1.15Y-2.2531
X1.15Y-2.3031
X1.2Y-2.2531
X1.2Y-2.3031
X1.25Y-2.2531
X1.25Y-2.3031
X2.0752Y-2.2531
X2.0752Y-2.3031
X2.1252Y-2.2531
X2.1252Y-2.3031
X2.1752Y-2.2531
X2.1752Y-2.3031
X2.2252Y-2.2531
X2.2252Y-2.3031
X2.2752Y-2.2531
X2.2752Y-2.3031
T2
X1.1652Y-1.811
X1.1988Y-1.1195
X1.1988Y-1.3195
X1.3652Y-1.811
X1.5453Y-1.1112
X1.5453Y-1.3112
X1.5945Y-3.1169
X1.5945Y-3.3169
X1.6504Y-2.0374
X1.8287Y-1.1106
X1.8287Y-1.3106
X1.8504Y-2.0374
X2.0945Y-1.1091
X2.0945Y-1.3091
X2.3602Y-1.1106
X2.3602Y-1.3106
X2.5984Y-1.3478
X2.5984Y-1.5478
X2.628Y-3.0906
X2.628Y-3.2906
X2.8376Y-1.351
X2.8376Y-1.551
X2.8839Y-3.0906
X2.8839Y-3.2906
T3
X0.6693Y-2.4791
X0.6693Y-2.5791
X0.6693Y-2.6791
X0.6693Y-2.7791
X0.6693Y-2.8791
X0.6693Y-2.9791
X0.6693Y-3.0791
X0.6693Y-3.1791
X0.8226Y-1.8898
X0.8226Y-1.9898
X0.9843Y-0.6677
X0.9843Y-0.7677
X0.9843Y-0.8677
X1.0441Y-2.628
X1.0441Y-2.728
X1.1441Y-2.628
X1.1441Y-2.728
X1.2008Y-0.6575
X1.2008Y-0.7575
X1.2441Y-2.628
X1.2441Y-2.728
X1.3287Y-2.8937
X1.3441Y-2.628
X1.3441Y-2.728
X1.378Y-0.8258
X1.378Y-0.9258
X1.378Y-1.0258
X1.3878Y-3.1455
X1.3878Y-3.2455
X1.4287Y-2.8937
X1.4441Y-2.628
X1.4441Y-2.728
X1.5441Y-2.628
X1.5441Y-2.728
X1.5472Y-0.8175
X1.5472Y-0.9175
X1.6441Y-2.628
X1.6441Y-2.728
X1.7441Y-2.628
X1.7441Y-2.728
X1.8307Y-0.8169
X1.8307Y-0.9169
X1.8441Y-2.628
X1.8441Y-2.728
X1.8504Y-3.248
X1.8504Y-3.348
X1.9441Y-2.628
X1.9441Y-2.728
X2.0441Y-2.628
X2.0441Y-2.728
X2.0965Y-0.8154
X2.0965Y-0.9154
X2.1441Y-2.628
X2.1441Y-2.728
X2.2441Y-2.628
X2.2441Y-2.728
X2.3441Y-2.628
X2.3441Y-2.728
X2.3622Y-0.8169
X2.3622Y-0.9169
X2.3854Y-3.462
X2.4413Y-2.3835
X2.4441Y-2.628
X2.4441Y-2.728
X2.4854Y-3.462
X2.5413Y-2.3835
X2.5441Y-2.628
X2.5441Y-2.728
X2.5854Y-3.462
X2.6134Y-0.9646
X2.6413Y-2.3835
X2.6441Y-2.628
X2.6441Y-2.728
X2.6854Y-3.462
X2.7134Y-0.9646
X2.7413Y-2.3835
X2.7441Y-2.628
X2.7441Y-2.728
X2.7854Y-3.462
X2.8134Y-0.9646
X2.8441Y-2.628
X2.8441Y-2.728
X2.8854Y-3.462
X2.9134Y-0.9646
X2.9441Y-2.628
X2.9441Y-2.728
X2.9854Y-3.462
X3.0854Y-3.462
X3.1382Y-1.3717
X3.1382Y-1.4717
X3.1382Y-1.5717
X3.1382Y-1.6717
X3.1382Y-1.7717
X3.1382Y-1.8717
X3.189Y-2.4213
X3.189Y-2.5213
X3.189Y-2.6213
X3.189Y-2.8445
X3.189Y-2.9445
X3.189Y-3.1506
X3.189Y-3.2506
X3.2382Y-1.3717
X3.2382Y-1.4717
X3.2382Y-1.5717
X3.2382Y-1.6717
X3.2382Y-1.7717
X3.2382Y-1.8717
X3.4252Y-2.4213
X3.4252Y-2.5213
X3.4252Y-2.6213
X3.4252Y-2.8435
X3.4252Y-2.9435
X3.4252Y-3.1476
X3.4252Y-3.2476
X3.5039Y-3.5039
X3.5335Y-2.1752
M30
