%TF.GenerationSoftware,KiCad,Pcbnew,8.0.8*%
%TF.CreationDate,2025-03-27T16:07:45-04:00*%
%TF.ProjectId,GRIT_main_pcb,47524954-5f6d-4616-996e-5f7063622e6b,rev?*%
%TF.SameCoordinates,Original*%
%TF.FileFunction,Copper,L2,Inr*%
%TF.FilePolarity,Positive*%
%FSLAX46Y46*%
G04 Gerber Fmt 4.6, Leading zero omitted, Abs format (unit mm)*
G04 Created by KiCad (PCBNEW 8.0.8) date 2025-03-27 16:07:45*
%MOMM*%
%LPD*%
G01*
G04 APERTURE LIST*
%TA.AperFunction,ComponentPad*%
%ADD10R,1.700000X1.700000*%
%TD*%
%TA.AperFunction,ComponentPad*%
%ADD11O,1.700000X1.700000*%
%TD*%
%TA.AperFunction,ComponentPad*%
%ADD12C,1.600000*%
%TD*%
%TA.AperFunction,ComponentPad*%
%ADD13O,1.600000X1.600000*%
%TD*%
%TA.AperFunction,ComponentPad*%
%ADD14R,1.000000X1.000000*%
%TD*%
%TA.AperFunction,ComponentPad*%
%ADD15O,1.000000X1.000000*%
%TD*%
%TA.AperFunction,Conductor*%
%ADD16C,0.200000*%
%TD*%
G04 APERTURE END LIST*
D10*
%TO.N,GND*%
%TO.C,Rel2*%
X35000000Y-20975000D03*
D11*
%TO.N,On*%
X35000000Y-23515000D03*
%TO.N,5V*%
X35000000Y-26055000D03*
%TD*%
D10*
%TO.N,GND*%
%TO.C,Rel1*%
X25000000Y-16960000D03*
D11*
%TO.N,EStop*%
X25000000Y-19500000D03*
%TO.N,5V*%
X25000000Y-22040000D03*
%TD*%
D12*
%TO.N,5V*%
%TO.C,10k*%
X53200000Y-33250000D03*
D13*
%TO.N,PI26*%
X53200000Y-28170000D03*
%TD*%
D10*
%TO.N,GND*%
%TO.C,On*%
X39300000Y-20765000D03*
D11*
%TO.N,On*%
X39300000Y-23305000D03*
%TD*%
D12*
%TO.N,GND*%
%TO.C,10k*%
X40500000Y-84250000D03*
D13*
%TO.N,PI13*%
X40500000Y-79170000D03*
%TD*%
D12*
%TO.N,5V*%
%TO.C,10k*%
X39250000Y-33305000D03*
D13*
%TO.N,On*%
X39250000Y-28225000D03*
%TD*%
D12*
%TO.N,5V*%
%TO.C,10k*%
X59950000Y-33290000D03*
D13*
%TO.N,PI29*%
X59950000Y-28210000D03*
%TD*%
D12*
%TO.N,PI22*%
%TO.C,4.7k*%
X66750000Y-83580000D03*
D13*
%TO.N,3V3*%
X66750000Y-78500000D03*
%TD*%
D10*
%TO.N,LED3*%
%TO.C,LED3*%
X81000000Y-72250000D03*
D11*
%TO.N,LED4*%
X81000000Y-74790000D03*
%TD*%
D14*
%TO.N,3V3*%
%TO.C,EncL*%
X26670000Y-58500000D03*
D15*
%TO.N,5V*%
X26670000Y-57230000D03*
%TO.N,N/C*%
X27940000Y-58500000D03*
X27940000Y-57230000D03*
%TO.N,PI15*%
X29210000Y-58500000D03*
%TO.N,N/C*%
X29210000Y-57230000D03*
%TO.N,PI40*%
X30480000Y-58500000D03*
%TO.N,N/C*%
X30480000Y-57230000D03*
X31750000Y-58500000D03*
%TO.N,GND*%
X31750000Y-57230000D03*
%TD*%
D10*
%TO.N,LED4*%
%TO.C,LED4*%
X81000000Y-80025000D03*
D11*
%TO.N,LED-*%
X81000000Y-82565000D03*
%TD*%
D12*
%TO.N,PI24*%
%TO.C,4.7k*%
X41920000Y-51750000D03*
D13*
%TO.N,3V3*%
X47000000Y-51750000D03*
%TD*%
D12*
%TO.N,5V*%
%TO.C,10k*%
X46450000Y-33290000D03*
D13*
%TO.N,PI28*%
X46450000Y-28210000D03*
%TD*%
D10*
%TO.N,PI11*%
%TO.C,PowMOS2*%
X47000000Y-82500000D03*
D11*
%TO.N,GND*%
X47000000Y-85040000D03*
%TD*%
D10*
%TO.N,5V*%
%TO.C,Dual Motor Driver*%
X79710000Y-34840000D03*
D11*
X82250000Y-34840000D03*
%TO.N,GND*%
X79710000Y-37380000D03*
X82250000Y-37380000D03*
%TO.N,PI32*%
X79710000Y-39920000D03*
%TO.N,PI12*%
X82250000Y-39920000D03*
%TO.N,PI33*%
X79710000Y-42460000D03*
%TO.N,PI38*%
X82250000Y-42460000D03*
%TO.N,5V*%
X79710000Y-45000000D03*
X82250000Y-45000000D03*
%TO.N,N/C*%
X79710000Y-47540000D03*
X82250000Y-47540000D03*
%TD*%
D10*
%TO.N,GND*%
%TO.C,PB 1*%
X46500000Y-20750000D03*
D11*
%TO.N,PI28*%
X46500000Y-23290000D03*
%TD*%
D10*
%TO.N,3V3*%
%TO.C,IMU*%
X17000000Y-80750000D03*
D11*
%TO.N,GND*%
X17000000Y-78210000D03*
%TO.N,PI3*%
X17000000Y-75670000D03*
%TO.N,PI5*%
X17000000Y-73130000D03*
%TO.N,N/C*%
X17000000Y-70590000D03*
X17000000Y-68050000D03*
X17000000Y-65510000D03*
%TO.N,PI7*%
X17000000Y-62970000D03*
%TD*%
D10*
%TO.N,LED1*%
%TO.C,LED1*%
X87000000Y-72225000D03*
D11*
%TO.N,LED2*%
X87000000Y-74765000D03*
%TD*%
D12*
%TO.N,PI37*%
%TO.C,4.7k*%
X73250000Y-83580000D03*
D13*
%TO.N,3V3*%
X73250000Y-78500000D03*
%TD*%
D14*
%TO.N,GND*%
%TO.C,Cooling Fan*%
X17300000Y-21730000D03*
D15*
%TO.N,5V*%
X17300000Y-23000000D03*
%TD*%
D12*
%TO.N,3V3*%
%TO.C,4.7k*%
X72075000Y-39395000D03*
D13*
%TO.N,PI23*%
X72075000Y-34315000D03*
%TD*%
D12*
%TO.N,PI21*%
%TO.C,4.7k*%
X29595000Y-46000000D03*
D13*
%TO.N,3V3*%
X34675000Y-46000000D03*
%TD*%
D10*
%TO.N,LED2*%
%TO.C,LED1*%
X87000000Y-79950000D03*
D11*
%TO.N,LED-*%
X87000000Y-82490000D03*
%TD*%
D10*
%TO.N,5V*%
%TO.C,BMS*%
X60590000Y-87935000D03*
D11*
%TO.N,GND*%
X63130000Y-87935000D03*
%TO.N,PI22*%
X65670000Y-87935000D03*
%TO.N,PI37*%
X68210000Y-87935000D03*
%TO.N,N/C*%
X70750000Y-87935000D03*
X73290000Y-87935000D03*
X75830000Y-87935000D03*
X78370000Y-87935000D03*
%TD*%
D10*
%TO.N,GND*%
%TO.C,PB 3*%
X60000000Y-20750000D03*
D11*
%TO.N,PI29*%
X60000000Y-23290000D03*
%TD*%
D12*
%TO.N,3V3*%
%TO.C,4.7k*%
X66000000Y-39315000D03*
D13*
%TO.N,PI19*%
X66000000Y-34235000D03*
%TD*%
D10*
%TO.N,GND*%
%TO.C,LCD*%
X74000000Y-24500000D03*
D11*
%TO.N,5V*%
X71460000Y-24500000D03*
%TO.N,PI23*%
X68920000Y-24500000D03*
%TO.N,PI19*%
X66380000Y-24500000D03*
%TD*%
D10*
%TO.N,PI36*%
%TO.C,MOS1*%
X81000000Y-61500000D03*
D11*
%TO.N,LED+*%
X81000000Y-64040000D03*
%TO.N,LED3*%
X81000000Y-66580000D03*
%TD*%
D10*
%TO.N,LED+*%
%TO.C,LED+*%
X89750000Y-55250000D03*
%TD*%
%TO.N,PI13*%
%TO.C,Limit Switch*%
X35250000Y-79895000D03*
D11*
%TO.N,5V*%
X35250000Y-82435000D03*
%TD*%
D10*
%TO.N,PI21*%
%TO.C,Pico*%
X20895000Y-48000000D03*
D11*
%TO.N,PI24*%
X20895000Y-50540000D03*
%TD*%
D10*
%TO.N,GND*%
%TO.C,PB 2*%
X53250000Y-20710000D03*
D11*
%TO.N,PI26*%
X53250000Y-23250000D03*
%TD*%
D10*
%TO.N,PI35*%
%TO.C,PowMOS1*%
X33750000Y-73500000D03*
D11*
%TO.N,GND*%
X36290000Y-73500000D03*
%TD*%
D12*
%TO.N,5V*%
%TO.C,10k*%
X30450000Y-33515000D03*
D13*
%TO.N,EStop*%
X30450000Y-28435000D03*
%TD*%
D10*
%TO.N,PI31*%
%TO.C,MOS2*%
X87000000Y-61500000D03*
D11*
%TO.N,LED+*%
X87000000Y-64040000D03*
%TO.N,LED1*%
X87000000Y-66580000D03*
%TD*%
D10*
%TO.N,LED-*%
%TO.C,LED-*%
X89000000Y-89000000D03*
%TD*%
D14*
%TO.N,3V3*%
%TO.C,EncR*%
X52710000Y-58500000D03*
D15*
%TO.N,5V*%
X52710000Y-57230000D03*
%TO.N,N/C*%
X53980000Y-58500000D03*
X53980000Y-57230000D03*
%TO.N,PI18*%
X55250000Y-58500000D03*
%TO.N,N/C*%
X55250000Y-57230000D03*
%TO.N,PI16*%
X56520000Y-58500000D03*
%TO.N,N/C*%
X56520000Y-57230000D03*
X57790000Y-58500000D03*
%TO.N,GND*%
X57790000Y-57230000D03*
%TD*%
D10*
%TO.N,GND*%
%TO.C,EStop*%
X30500000Y-16700000D03*
D11*
%TO.N,EStop*%
X30500000Y-19240000D03*
%TD*%
D10*
%TO.N,3V3*%
%TO.C,Raspberry Pi*%
X74780000Y-69290000D03*
D11*
%TO.N,5V*%
X74780000Y-66750000D03*
%TO.N,PI3*%
X72240000Y-69290000D03*
%TO.N,N/C*%
X72240000Y-66750000D03*
%TO.N,PI5*%
X69700000Y-69290000D03*
%TO.N,N/C*%
X69700000Y-66750000D03*
%TO.N,PI7*%
X67160000Y-69290000D03*
%TO.N,PI8*%
X67160000Y-66750000D03*
%TO.N,N/C*%
X64620000Y-69290000D03*
%TO.N,PI10*%
X64620000Y-66750000D03*
%TO.N,PI11*%
X62080000Y-69290000D03*
%TO.N,PI12*%
X62080000Y-66750000D03*
%TO.N,PI13*%
X59540000Y-69290000D03*
%TO.N,N/C*%
X59540000Y-66750000D03*
%TO.N,PI15*%
X57000000Y-69290000D03*
%TO.N,PI16*%
X57000000Y-66750000D03*
%TO.N,N/C*%
X54460000Y-69290000D03*
%TO.N,PI18*%
X54460000Y-66750000D03*
%TO.N,PI19*%
X51920000Y-69290000D03*
%TO.N,N/C*%
X51920000Y-66750000D03*
%TO.N,PI21*%
X49380000Y-69290000D03*
%TO.N,PI22*%
X49380000Y-66750000D03*
%TO.N,PI23*%
X46840000Y-69290000D03*
%TO.N,PI24*%
X46840000Y-66750000D03*
%TO.N,N/C*%
X44300000Y-69290000D03*
%TO.N,PI26*%
X44300000Y-66750000D03*
%TO.N,PI27*%
X41760000Y-69290000D03*
%TO.N,PI28*%
X41760000Y-66750000D03*
%TO.N,PI29*%
X39220000Y-69290000D03*
%TO.N,N/C*%
X39220000Y-66750000D03*
%TO.N,PI31*%
X36680000Y-69290000D03*
%TO.N,PI32*%
X36680000Y-66750000D03*
%TO.N,PI33*%
X34140000Y-69290000D03*
%TO.N,N/C*%
X34140000Y-66750000D03*
%TO.N,PI35*%
X31600000Y-69290000D03*
%TO.N,PI36*%
X31600000Y-66750000D03*
%TO.N,PI37*%
X29060000Y-69290000D03*
%TO.N,PI38*%
X29060000Y-66750000D03*
%TO.N,GND*%
X26520000Y-69290000D03*
%TO.N,PI40*%
X26520000Y-66750000D03*
%TD*%
D10*
%TO.N,5V*%
%TO.C,GPS*%
X62010000Y-60540000D03*
D11*
%TO.N,PI10*%
X64550000Y-60540000D03*
%TO.N,PI8*%
X67090000Y-60540000D03*
%TO.N,GND*%
X69630000Y-60540000D03*
%TD*%
D16*
%TO.N,5V*%
X26670000Y-37295000D02*
X30450000Y-33515000D01*
X74780000Y-61220000D02*
X85750000Y-50250000D01*
X26670000Y-57230000D02*
X26670000Y-37295000D01*
X74780000Y-66750000D02*
X74780000Y-61220000D01*
X85750000Y-38340000D02*
X82250000Y-34840000D01*
X85750000Y-50250000D02*
X85750000Y-38340000D01*
%TO.N,PI12*%
X85000000Y-40750000D02*
X84170000Y-39920000D01*
X71500000Y-63500000D02*
X85000000Y-50000000D01*
X63500000Y-63500000D02*
X71500000Y-63500000D01*
X62080000Y-66750000D02*
X62080000Y-64920000D01*
X62080000Y-64920000D02*
X63500000Y-63500000D01*
X85000000Y-50000000D02*
X85000000Y-40750000D01*
X84170000Y-39920000D02*
X82250000Y-39920000D01*
%TO.N,PI26*%
X53200000Y-28170000D02*
X51580000Y-28170000D01*
X44300000Y-59700000D02*
X44300000Y-66750000D01*
X51580000Y-28170000D02*
X50000000Y-29750000D01*
X50000000Y-54000000D02*
X44300000Y-59700000D01*
X50000000Y-29750000D02*
X50000000Y-54000000D01*
%TO.N,PI28*%
X39500000Y-62500000D02*
X41760000Y-64760000D01*
X44000000Y-45500000D02*
X39500000Y-50000000D01*
X41760000Y-64760000D02*
X41760000Y-66750000D01*
X46450000Y-28210000D02*
X44790000Y-28210000D01*
X44790000Y-28210000D02*
X44000000Y-29000000D01*
X39500000Y-50000000D02*
X39500000Y-62500000D01*
X44000000Y-29000000D02*
X44000000Y-45500000D01*
%TO.N,PI32*%
X44500000Y-26500000D02*
X61500000Y-26500000D01*
X42750000Y-28250000D02*
X44500000Y-26500000D01*
X65750000Y-30750000D02*
X74000000Y-30750000D01*
X77170000Y-39920000D02*
X79710000Y-39920000D01*
X36680000Y-45820000D02*
X42750000Y-39750000D01*
X42750000Y-39750000D02*
X42750000Y-28250000D01*
X75500000Y-38250000D02*
X77170000Y-39920000D01*
X36680000Y-66750000D02*
X36680000Y-45820000D01*
X61500000Y-26500000D02*
X65750000Y-30750000D01*
X74000000Y-30750000D02*
X75500000Y-32250000D01*
X75500000Y-32250000D02*
X75500000Y-38250000D01*
%TO.N,PI36*%
X29750000Y-62750000D02*
X24250000Y-62750000D01*
X82750000Y-91250000D02*
X90250000Y-83750000D01*
X27500000Y-91250000D02*
X82750000Y-91250000D01*
X90250000Y-83750000D02*
X90250000Y-60000000D01*
X88250000Y-58000000D02*
X84500000Y-58000000D01*
X22250000Y-64750000D02*
X22250000Y-86000000D01*
X84500000Y-58000000D02*
X81000000Y-61500000D01*
X90250000Y-60000000D02*
X88250000Y-58000000D01*
X24250000Y-62750000D02*
X22250000Y-64750000D01*
X31600000Y-64600000D02*
X29750000Y-62750000D01*
X22250000Y-86000000D02*
X27500000Y-91250000D01*
X31600000Y-66750000D02*
X31600000Y-64600000D01*
%TO.N,PI19*%
X83750000Y-27750000D02*
X86250000Y-30250000D01*
X76750000Y-71250000D02*
X76000000Y-72000000D01*
X66380000Y-24500000D02*
X66380000Y-26880000D01*
X54630000Y-72000000D02*
X51920000Y-69290000D01*
X86250000Y-30250000D02*
X86250000Y-50750000D01*
X66380000Y-26880000D02*
X67250000Y-27750000D01*
X76750000Y-60250000D02*
X76750000Y-71250000D01*
X67250000Y-27750000D02*
X83750000Y-27750000D01*
X76000000Y-72000000D02*
X54630000Y-72000000D01*
X86250000Y-50750000D02*
X76750000Y-60250000D01*
%TO.N,PI21*%
X62000000Y-25250000D02*
X63500000Y-23750000D01*
X35000000Y-43000000D02*
X41000000Y-37000000D01*
X63500000Y-21500000D02*
X64500000Y-20500000D01*
X29595000Y-46000000D02*
X29595000Y-44405000D01*
X78920000Y-20500000D02*
X87750000Y-29330000D01*
X29595000Y-44405000D02*
X31000000Y-43000000D01*
X31000000Y-43000000D02*
X35000000Y-43000000D01*
X87750000Y-29330000D02*
X87750000Y-50125000D01*
X53340000Y-73250000D02*
X49380000Y-69290000D01*
X76750000Y-73250000D02*
X53340000Y-73250000D01*
X41000000Y-28250000D02*
X44000000Y-25250000D01*
X87750000Y-50125000D02*
X77500000Y-60375000D01*
X44000000Y-25250000D02*
X62000000Y-25250000D01*
X63500000Y-23750000D02*
X63500000Y-21500000D01*
X77500000Y-72500000D02*
X76750000Y-73250000D01*
X77500000Y-60375000D02*
X77500000Y-72500000D01*
X41000000Y-37000000D02*
X41000000Y-28250000D01*
X64500000Y-20500000D02*
X78920000Y-20500000D01*
%TO.N,PI29*%
X78250000Y-60500000D02*
X89000000Y-49750000D01*
X62250000Y-23000000D02*
X61960000Y-23290000D01*
X62250000Y-20500000D02*
X62250000Y-23000000D01*
X61960000Y-23290000D02*
X60000000Y-23290000D01*
X63750000Y-19000000D02*
X62250000Y-20500000D01*
X79960000Y-19000000D02*
X63750000Y-19000000D01*
X78250000Y-73500000D02*
X78250000Y-60500000D01*
X39220000Y-69290000D02*
X39220000Y-70970000D01*
X42750000Y-74500000D02*
X77250000Y-74500000D01*
X89000000Y-28040000D02*
X79960000Y-19000000D01*
X39220000Y-70970000D02*
X42750000Y-74500000D01*
X89000000Y-49750000D02*
X89000000Y-28040000D01*
X77250000Y-74500000D02*
X78250000Y-73500000D01*
%TO.N,PI31*%
X85000000Y-61500000D02*
X84250000Y-62250000D01*
X37250000Y-71500000D02*
X36680000Y-70930000D01*
X36680000Y-70930000D02*
X36680000Y-69290000D01*
X84250000Y-67500000D02*
X83000000Y-68750000D01*
X37750000Y-71500000D02*
X37250000Y-71500000D01*
X41750000Y-75500000D02*
X37750000Y-71500000D01*
X87000000Y-61500000D02*
X85000000Y-61500000D01*
X80000000Y-68750000D02*
X79000000Y-69750000D01*
X79000000Y-69750000D02*
X79000000Y-74250000D01*
X77750000Y-75500000D02*
X41750000Y-75500000D01*
X84250000Y-62250000D02*
X84250000Y-67500000D01*
X79000000Y-74250000D02*
X77750000Y-75500000D01*
X83000000Y-68750000D02*
X80000000Y-68750000D01*
%TO.N,PI33*%
X79710000Y-42460000D02*
X80000000Y-42750000D01*
%TO.N,PI37*%
X73250000Y-83580000D02*
X73250000Y-84750000D01*
X73250000Y-84750000D02*
X72000000Y-86000000D01*
X72000000Y-86000000D02*
X56500000Y-86000000D01*
X31750000Y-88750000D02*
X29000000Y-86000000D01*
X56500000Y-86000000D02*
X53750000Y-88750000D01*
X53750000Y-88750000D02*
X31750000Y-88750000D01*
X29060000Y-85940000D02*
X29060000Y-69290000D01*
X29000000Y-86000000D02*
X29060000Y-85940000D01*
%TD*%
M02*
