%TF.GenerationSoftware,KiCad,Pcbnew,8.0.8*%
%TF.CreationDate,2025-03-27T14:30:52-04:00*%
%TF.ProjectId,GRIT_main_pcb,47524954-5f6d-4616-996e-5f7063622e6b,rev?*%
%TF.SameCoordinates,Original*%
%TF.FileFunction,Copper,L4,Bot*%
%TF.FilePolarity,Positive*%
%FSLAX46Y46*%
G04 Gerber Fmt 4.6, Leading zero omitted, Abs format (unit mm)*
G04 Created by KiCad (PCBNEW 8.0.8) date 2025-03-27 14:30:52*
%MOMM*%
%LPD*%
G01*
G04 APERTURE LIST*
%TA.AperFunction,ComponentPad*%
%ADD10R,1.700000X1.700000*%
%TD*%
%TA.AperFunction,ComponentPad*%
%ADD11O,1.600000X1.600000*%
%TD*%
%TA.AperFunction,ComponentPad*%
%ADD12C,1.600000*%
%TD*%
%TA.AperFunction,ComponentPad*%
%ADD13O,1.700000X1.700000*%
%TD*%
%TA.AperFunction,ComponentPad*%
%ADD14O,1.000000X1.000000*%
%TD*%
%TA.AperFunction,ComponentPad*%
%ADD15R,1.000000X1.000000*%
%TD*%
%TA.AperFunction,Conductor*%
%ADD16C,0.200000*%
%TD*%
G04 APERTURE END LIST*
D10*
%TO.P,LED-,1*%
%TO.N,LED-*%
X89000000Y-89000000D03*
%TD*%
%TO.P,LED+,1*%
%TO.N,LED+*%
X89750000Y-55250000D03*
%TD*%
D11*
%TO.P,10k,2*%
%TO.N,PI13*%
X40500000Y-79170000D03*
D12*
%TO.P,10k,1*%
%TO.N,GND*%
X40500000Y-84250000D03*
%TD*%
D10*
%TO.P,LCD,1*%
%TO.N,GND*%
X74000000Y-24500000D03*
D13*
%TO.P,LCD,2*%
%TO.N,5V*%
X71460000Y-24500000D03*
%TO.P,LCD,3*%
%TO.N,PI23*%
X68920000Y-24500000D03*
%TO.P,LCD,4*%
%TO.N,PI19*%
X66380000Y-24500000D03*
%TD*%
D14*
%TO.P,EncR,10*%
%TO.N,GND*%
X57790000Y-57230000D03*
%TO.P,EncR,9*%
%TO.N,N/C*%
X57790000Y-58500000D03*
%TO.P,EncR,8*%
X56520000Y-57230000D03*
%TO.P,EncR,7*%
%TO.N,PI16*%
X56520000Y-58500000D03*
%TO.P,EncR,6*%
%TO.N,N/C*%
X55250000Y-57230000D03*
%TO.P,EncR,5*%
%TO.N,PI18*%
X55250000Y-58500000D03*
%TO.P,EncR,4*%
%TO.N,N/C*%
X53980000Y-57230000D03*
%TO.P,EncR,3*%
X53980000Y-58500000D03*
%TO.P,EncR,2*%
%TO.N,5V*%
X52710000Y-57230000D03*
D15*
%TO.P,EncR,1*%
%TO.N,3V3*%
X52710000Y-58500000D03*
%TD*%
D10*
%TO.P,MOS1,1*%
%TO.N,PI36*%
X81000000Y-61500000D03*
D13*
%TO.P,MOS1,2*%
%TO.N,LED+*%
X81000000Y-64040000D03*
%TO.P,MOS1,3*%
%TO.N,LED3*%
X81000000Y-66580000D03*
%TD*%
D10*
%TO.P,LED4,1*%
%TO.N,LED4*%
X81000000Y-80025000D03*
D13*
%TO.P,LED4,2*%
%TO.N,LED-*%
X81000000Y-82565000D03*
%TD*%
D10*
%TO.P,LED3,1*%
%TO.N,LED3*%
X81000000Y-72250000D03*
D13*
%TO.P,LED3,2*%
%TO.N,LED4*%
X81000000Y-74790000D03*
%TD*%
D10*
%TO.P,LED1,1*%
%TO.N,LED2*%
X87000000Y-79950000D03*
D13*
%TO.P,LED1,2*%
%TO.N,LED-*%
X87000000Y-82490000D03*
%TD*%
D10*
%TO.P,LED1,1*%
%TO.N,LED1*%
X87000000Y-72225000D03*
D13*
%TO.P,LED1,2*%
%TO.N,LED2*%
X87000000Y-74765000D03*
%TD*%
D10*
%TO.P,Rel2,1*%
%TO.N,On*%
X34500000Y-23725000D03*
%TD*%
D13*
%TO.P,EStop,2*%
%TO.N,EStop*%
X30500000Y-19240000D03*
D10*
%TO.P,EStop,1*%
%TO.N,GND*%
X30500000Y-16700000D03*
%TD*%
D12*
%TO.P,10k,1*%
%TO.N,5V*%
X30450000Y-33515000D03*
D11*
%TO.P,10k,2*%
%TO.N,EStop*%
X30450000Y-28435000D03*
%TD*%
D10*
%TO.P,Rel1,1*%
%TO.N,EStop*%
X24750000Y-19225000D03*
%TD*%
D12*
%TO.P,10k,1*%
%TO.N,5V*%
X39250000Y-33305000D03*
D11*
%TO.P,10k,2*%
%TO.N,On*%
X39250000Y-28225000D03*
%TD*%
D13*
%TO.P,On,2*%
%TO.N,On*%
X39300000Y-23305000D03*
D10*
%TO.P,On,1*%
%TO.N,GND*%
X39300000Y-20765000D03*
%TD*%
D13*
%TO.P,Limit Switch,2*%
%TO.N,5V*%
X35250000Y-82435000D03*
D10*
%TO.P,Limit Switch,1*%
%TO.N,PI13*%
X35250000Y-79895000D03*
%TD*%
D12*
%TO.P,10k,1*%
%TO.N,5V*%
X46450000Y-33290000D03*
D11*
%TO.P,10k,2*%
%TO.N,PI28*%
X46450000Y-28210000D03*
%TD*%
%TO.P,10k,2*%
%TO.N,PI26*%
X53200000Y-28170000D03*
D12*
%TO.P,10k,1*%
%TO.N,5V*%
X53200000Y-33250000D03*
%TD*%
%TO.P,10k,1*%
%TO.N,5V*%
X59950000Y-33290000D03*
D11*
%TO.P,10k,2*%
%TO.N,PI29*%
X59950000Y-28210000D03*
%TD*%
D10*
%TO.P,PB 3,1*%
%TO.N,GND*%
X60000000Y-20750000D03*
D13*
%TO.P,PB 3,2*%
%TO.N,PI29*%
X60000000Y-23290000D03*
%TD*%
D10*
%TO.P,PB 2,1*%
%TO.N,GND*%
X53250000Y-20710000D03*
D13*
%TO.P,PB 2,2*%
%TO.N,PI26*%
X53250000Y-23250000D03*
%TD*%
%TO.P,PB 1,2*%
%TO.N,PI28*%
X46500000Y-23290000D03*
D10*
%TO.P,PB 1,1*%
%TO.N,GND*%
X46500000Y-20750000D03*
%TD*%
D12*
%TO.P,4.7k,1*%
%TO.N,PI22*%
X66750000Y-83580000D03*
D11*
%TO.P,4.7k,2*%
%TO.N,3V3*%
X66750000Y-78500000D03*
%TD*%
D13*
%TO.P,Raspberry Pi,40*%
%TO.N,PI40*%
X26520000Y-66750000D03*
%TO.P,Raspberry Pi,39*%
%TO.N,GND*%
X26520000Y-69290000D03*
%TO.P,Raspberry Pi,38*%
%TO.N,PI38*%
X29060000Y-66750000D03*
%TO.P,Raspberry Pi,37*%
%TO.N,PI37*%
X29060000Y-69290000D03*
%TO.P,Raspberry Pi,36*%
%TO.N,PI36*%
X31600000Y-66750000D03*
%TO.P,Raspberry Pi,35*%
%TO.N,PI35*%
X31600000Y-69290000D03*
%TO.P,Raspberry Pi,34*%
%TO.N,N/C*%
X34140000Y-66750000D03*
%TO.P,Raspberry Pi,33*%
%TO.N,PI33*%
X34140000Y-69290000D03*
%TO.P,Raspberry Pi,32*%
%TO.N,PI32*%
X36680000Y-66750000D03*
%TO.P,Raspberry Pi,31*%
%TO.N,PI31*%
X36680000Y-69290000D03*
%TO.P,Raspberry Pi,30*%
%TO.N,N/C*%
X39220000Y-66750000D03*
%TO.P,Raspberry Pi,29*%
%TO.N,PI29*%
X39220000Y-69290000D03*
%TO.P,Raspberry Pi,28*%
%TO.N,PI28*%
X41760000Y-66750000D03*
%TO.P,Raspberry Pi,27*%
%TO.N,PI27*%
X41760000Y-69290000D03*
%TO.P,Raspberry Pi,26*%
%TO.N,PI26*%
X44300000Y-66750000D03*
%TO.P,Raspberry Pi,25*%
%TO.N,N/C*%
X44300000Y-69290000D03*
%TO.P,Raspberry Pi,24*%
%TO.N,PI24*%
X46840000Y-66750000D03*
%TO.P,Raspberry Pi,23*%
%TO.N,PI23*%
X46840000Y-69290000D03*
%TO.P,Raspberry Pi,22*%
%TO.N,PI22*%
X49380000Y-66750000D03*
%TO.P,Raspberry Pi,21*%
%TO.N,PI21*%
X49380000Y-69290000D03*
%TO.P,Raspberry Pi,20*%
%TO.N,N/C*%
X51920000Y-66750000D03*
%TO.P,Raspberry Pi,19*%
%TO.N,PI19*%
X51920000Y-69290000D03*
%TO.P,Raspberry Pi,18*%
%TO.N,PI18*%
X54460000Y-66750000D03*
%TO.P,Raspberry Pi,17*%
%TO.N,N/C*%
X54460000Y-69290000D03*
%TO.P,Raspberry Pi,16*%
%TO.N,PI16*%
X57000000Y-66750000D03*
%TO.P,Raspberry Pi,15*%
%TO.N,PI15*%
X57000000Y-69290000D03*
%TO.P,Raspberry Pi,14*%
%TO.N,N/C*%
X59540000Y-66750000D03*
%TO.P,Raspberry Pi,13*%
%TO.N,PI13*%
X59540000Y-69290000D03*
%TO.P,Raspberry Pi,12*%
%TO.N,PI12*%
X62080000Y-66750000D03*
%TO.P,Raspberry Pi,11*%
%TO.N,PI11*%
X62080000Y-69290000D03*
%TO.P,Raspberry Pi,10*%
%TO.N,PI10*%
X64620000Y-66750000D03*
%TO.P,Raspberry Pi,9*%
%TO.N,N/C*%
X64620000Y-69290000D03*
%TO.P,Raspberry Pi,8*%
%TO.N,PI8*%
X67160000Y-66750000D03*
%TO.P,Raspberry Pi,7*%
%TO.N,PI7*%
X67160000Y-69290000D03*
%TO.P,Raspberry Pi,6*%
%TO.N,N/C*%
X69700000Y-66750000D03*
%TO.P,Raspberry Pi,5*%
%TO.N,PI5*%
X69700000Y-69290000D03*
%TO.P,Raspberry Pi,4*%
%TO.N,5V*%
X72240000Y-66750000D03*
%TO.P,Raspberry Pi,3*%
%TO.N,PI3*%
X72240000Y-69290000D03*
%TO.P,Raspberry Pi,2*%
%TO.N,5V*%
X74780000Y-66750000D03*
D10*
%TO.P,Raspberry Pi,1*%
%TO.N,3V3*%
X74780000Y-69290000D03*
%TD*%
D12*
%TO.P,4.7k,1*%
%TO.N,PI24*%
X41920000Y-51750000D03*
D11*
%TO.P,4.7k,2*%
%TO.N,3V3*%
X47000000Y-51750000D03*
%TD*%
D10*
%TO.P,PowMOS2,1*%
%TO.N,PI11*%
X47000000Y-82500000D03*
D13*
%TO.P,PowMOS2,2*%
%TO.N,GND*%
X47000000Y-85040000D03*
%TD*%
%TO.P,Dual Motor Driver,12*%
%TO.N,N/C*%
X82250000Y-47540000D03*
%TO.P,Dual Motor Driver,11*%
X79710000Y-47540000D03*
%TO.P,Dual Motor Driver,10*%
%TO.N,5V*%
X82250000Y-45000000D03*
%TO.P,Dual Motor Driver,9*%
X79710000Y-45000000D03*
%TO.P,Dual Motor Driver,8*%
%TO.N,PI38*%
X82250000Y-42460000D03*
%TO.P,Dual Motor Driver,7*%
%TO.N,PI33*%
X79710000Y-42460000D03*
%TO.P,Dual Motor Driver,6*%
%TO.N,PI12*%
X82250000Y-39920000D03*
%TO.P,Dual Motor Driver,5*%
%TO.N,PI32*%
X79710000Y-39920000D03*
%TO.P,Dual Motor Driver,4*%
%TO.N,GND*%
X82250000Y-37380000D03*
%TO.P,Dual Motor Driver,3*%
X79710000Y-37380000D03*
%TO.P,Dual Motor Driver,2*%
%TO.N,5V*%
X82250000Y-34840000D03*
D10*
%TO.P,Dual Motor Driver,1*%
X79710000Y-34840000D03*
%TD*%
D13*
%TO.P,IMU,8*%
%TO.N,PI7*%
X17000000Y-62970000D03*
%TO.P,IMU,7*%
%TO.N,N/C*%
X17000000Y-65510000D03*
%TO.P,IMU,6*%
X17000000Y-68050000D03*
%TO.P,IMU,5*%
X17000000Y-70590000D03*
%TO.P,IMU,4*%
%TO.N,PI5*%
X17000000Y-73130000D03*
%TO.P,IMU,3*%
%TO.N,PI3*%
X17000000Y-75670000D03*
%TO.P,IMU,2*%
%TO.N,GND*%
X17000000Y-78210000D03*
D10*
%TO.P,IMU,1*%
%TO.N,3V3*%
X17000000Y-80750000D03*
%TD*%
D12*
%TO.P,4.7k,1*%
%TO.N,PI37*%
X73250000Y-83580000D03*
D11*
%TO.P,4.7k,2*%
%TO.N,3V3*%
X73250000Y-78500000D03*
%TD*%
D14*
%TO.P,Cooling Fan,2*%
%TO.N,5V*%
X17300000Y-23000000D03*
D15*
%TO.P,Cooling Fan,1*%
%TO.N,GND*%
X17300000Y-21730000D03*
%TD*%
D11*
%TO.P,4.7k,2*%
%TO.N,PI23*%
X72075000Y-34315000D03*
D12*
%TO.P,4.7k,1*%
%TO.N,3V3*%
X72075000Y-39395000D03*
%TD*%
%TO.P,4.7k,1*%
%TO.N,PI21*%
X29595000Y-46000000D03*
D11*
%TO.P,4.7k,2*%
%TO.N,3V3*%
X34675000Y-46000000D03*
%TD*%
D13*
%TO.P,BMS,8*%
%TO.N,N/C*%
X78370000Y-87935000D03*
%TO.P,BMS,7*%
X75830000Y-87935000D03*
%TO.P,BMS,6*%
X73290000Y-87935000D03*
%TO.P,BMS,5*%
X70750000Y-87935000D03*
%TO.P,BMS,4*%
%TO.N,PI37*%
X68210000Y-87935000D03*
%TO.P,BMS,3*%
%TO.N,PI22*%
X65670000Y-87935000D03*
%TO.P,BMS,2*%
%TO.N,GND*%
X63130000Y-87935000D03*
D10*
%TO.P,BMS,1*%
%TO.N,5V*%
X60590000Y-87935000D03*
%TD*%
%TO.P,GPS,1*%
%TO.N,5V*%
X62010000Y-60540000D03*
D13*
%TO.P,GPS,2*%
%TO.N,PI10*%
X64550000Y-60540000D03*
%TO.P,GPS,3*%
%TO.N,PI8*%
X67090000Y-60540000D03*
%TO.P,GPS,4*%
%TO.N,GND*%
X69630000Y-60540000D03*
%TD*%
D11*
%TO.P,4.7k,2*%
%TO.N,PI19*%
X66000000Y-34235000D03*
D12*
%TO.P,4.7k,1*%
%TO.N,3V3*%
X66000000Y-39315000D03*
%TD*%
D10*
%TO.P,Pico,1*%
%TO.N,PI21*%
X20895000Y-48000000D03*
D13*
%TO.P,Pico,2*%
%TO.N,PI24*%
X20895000Y-50540000D03*
%TD*%
D10*
%TO.P,PowMOS1,1*%
%TO.N,PI35*%
X33750000Y-73500000D03*
D13*
%TO.P,PowMOS1,2*%
%TO.N,GND*%
X36290000Y-73500000D03*
%TD*%
%TO.P,MOS2,3*%
%TO.N,LED1*%
X87000000Y-66580000D03*
%TO.P,MOS2,2*%
%TO.N,LED+*%
X87000000Y-64040000D03*
D10*
%TO.P,MOS2,1*%
%TO.N,PI31*%
X87000000Y-61500000D03*
%TD*%
D14*
%TO.P,EncL,10*%
%TO.N,GND*%
X31750000Y-57230000D03*
%TO.P,EncL,9*%
%TO.N,N/C*%
X31750000Y-58500000D03*
%TO.P,EncL,8*%
X30480000Y-57230000D03*
%TO.P,EncL,7*%
%TO.N,PI40*%
X30480000Y-58500000D03*
%TO.P,EncL,6*%
%TO.N,N/C*%
X29210000Y-57230000D03*
%TO.P,EncL,5*%
%TO.N,PI15*%
X29210000Y-58500000D03*
%TO.P,EncL,4*%
%TO.N,N/C*%
X27940000Y-57230000D03*
%TO.P,EncL,3*%
X27940000Y-58500000D03*
%TO.P,EncL,2*%
%TO.N,5V*%
X26670000Y-57230000D03*
D15*
%TO.P,EncL,1*%
%TO.N,3V3*%
X26670000Y-58500000D03*
%TD*%
D16*
%TO.N,PI38*%
X52750000Y-52000000D02*
X47000000Y-57750000D01*
X83750000Y-52000000D02*
X52750000Y-52000000D01*
X85000000Y-50750000D02*
X83750000Y-52000000D01*
X85000000Y-43250000D02*
X85000000Y-50750000D01*
X84210000Y-42460000D02*
X85000000Y-43250000D01*
X82250000Y-42460000D02*
X84210000Y-42460000D01*
X47000000Y-61750000D02*
X45000000Y-63750000D01*
X47000000Y-57750000D02*
X47000000Y-61750000D01*
X45000000Y-63750000D02*
X30500000Y-63750000D01*
%TO.N,5V*%
X76500000Y-66750000D02*
X74780000Y-66750000D01*
X75750000Y-73500000D02*
X77500000Y-71750000D01*
X77500000Y-71750000D02*
X77500000Y-67750000D01*
X77500000Y-67750000D02*
X76500000Y-66750000D01*
X69000000Y-73500000D02*
X75750000Y-73500000D01*
X60590000Y-81910000D02*
X69000000Y-73500000D01*
X60590000Y-87935000D02*
X60590000Y-81910000D01*
%TO.N,PI22*%
X49380000Y-64370000D02*
X49380000Y-66750000D01*
X50500000Y-63250000D02*
X49380000Y-64370000D01*
X78750000Y-72500000D02*
X78750000Y-65500000D01*
X78750000Y-65500000D02*
X76500000Y-63250000D01*
X76500000Y-74750000D02*
X78750000Y-72500000D01*
X73250000Y-74750000D02*
X76500000Y-74750000D01*
X76500000Y-63250000D02*
X50500000Y-63250000D01*
X70250000Y-82000000D02*
X70250000Y-77750000D01*
X70250000Y-77750000D02*
X73250000Y-74750000D01*
X68670000Y-83580000D02*
X70250000Y-82000000D01*
X66750000Y-83580000D02*
X68670000Y-83580000D01*
%TO.N,5V*%
X35250000Y-85250000D02*
X37935000Y-87935000D01*
X37935000Y-87935000D02*
X60590000Y-87935000D01*
X35250000Y-82435000D02*
X35250000Y-85250000D01*
%TO.N,PI38*%
X29060000Y-65190000D02*
X29060000Y-66750000D01*
X30500000Y-63750000D02*
X29060000Y-65190000D01*
%TO.N,PI33*%
X34140000Y-70610000D02*
X34140000Y-69290000D01*
X33250000Y-71500000D02*
X34140000Y-70610000D01*
X23750000Y-71500000D02*
X33250000Y-71500000D01*
X22000000Y-69750000D02*
X23750000Y-71500000D01*
X22000000Y-61500000D02*
X22000000Y-69750000D01*
X16000000Y-55500000D02*
X22000000Y-61500000D01*
X16000000Y-45500000D02*
X16000000Y-55500000D01*
X19040000Y-42460000D02*
X16000000Y-45500000D01*
X79710000Y-42460000D02*
X19040000Y-42460000D01*
%TO.N,PI8*%
X67160000Y-60610000D02*
X67090000Y-60540000D01*
%TO.N,PI10*%
X64620000Y-60610000D02*
X64550000Y-60540000D01*
%TO.N,5V*%
X72240000Y-66750000D02*
X74780000Y-66750000D01*
%TO.N,PI23*%
X72075000Y-32575000D02*
X71000000Y-31500000D01*
X46750000Y-71750000D02*
X46750000Y-69380000D01*
X46750000Y-69380000D02*
X46840000Y-69290000D01*
X13000000Y-42250000D02*
X13000000Y-82250000D01*
X42250000Y-76250000D02*
X46750000Y-71750000D01*
X62500000Y-37000000D02*
X61500000Y-38000000D01*
X62500000Y-34000000D02*
X62500000Y-37000000D01*
X61500000Y-38000000D02*
X17250000Y-38000000D01*
X17250000Y-38000000D02*
X13000000Y-42250000D01*
X72075000Y-34315000D02*
X72075000Y-32575000D01*
X31000000Y-76250000D02*
X42250000Y-76250000D01*
X23250000Y-84000000D02*
X31000000Y-76250000D01*
X65000000Y-31500000D02*
X62500000Y-34000000D01*
X14750000Y-84000000D02*
X23250000Y-84000000D01*
X13000000Y-82250000D02*
X14750000Y-84000000D01*
X71000000Y-31500000D02*
X65000000Y-31500000D01*
%TO.N,5V*%
X70250000Y-27000000D02*
X71460000Y-25790000D01*
X59950000Y-33290000D02*
X61460000Y-33290000D01*
X61460000Y-33290000D02*
X67750000Y-27000000D01*
X71460000Y-25790000D02*
X71460000Y-24500000D01*
X67750000Y-27000000D02*
X70250000Y-27000000D01*
%TD*%
M02*
